<svg width="160" height="196" viewBox="0 0 160 196" fill="none" xmlns="http://www.w3.org/2000/svg">
<path d="M131.924 136.591C131.924 136.591 118.091 144.668 113.941 165.383C113.941 165.383 131.276 155.106 131.924 136.591Z" fill="black"/>
<path d="M132.935 122.754C132.935 122.754 134.985 121.176 124.748 113.228C124.748 113.228 120.457 107.853 122.53 103.034C122.53 103.034 124.602 96.1987 131.311 98.3676C131.311 98.3676 131.262 82.9812 133.379 78.5425C133.379 78.5425 136.738 73.5827 138.071 77.5285C138.071 77.5285 138.928 83.9342 136.743 91.53C136.743 91.53 148.312 102.759 148.312 104.475C148.312 106.191 149.275 108.447 147.381 115.39C147.381 115.39 158.063 142.205 158.434 156.132C158.434 156.132 162.114 175.539 147.242 178.551C147.242 178.551 137.891 179.147 127.879 172.232L113.284 161.707C113.284 161.707 117.741 142.968 123.492 139.311C129.243 135.654 129.95 137.572 129.95 137.572L131.933 141.203L132.935 122.761V122.754Z" fill="white"/>
<path d="M131.933 139.975C131.933 139.975 103.928 110.003 94.4118 120.634C84.8959 131.265 98.6181 149.632 98.6181 149.632C98.9679 147.97 129.008 179.844 146.397 178.631C173.426 176.746 147.247 115.071 147.247 115.071C147.247 115.071 149.331 111.785 148.435 105.001" stroke="black" stroke-miterlimit="10"/>
<path d="M141.999 92.5813L139.85 102.297C139.733 102.827 140.068 103.352 140.598 103.469L143.541 104.12C144.071 104.237 144.596 103.903 144.714 103.372L146.862 93.6568C146.979 93.1265 146.644 92.6014 146.114 92.4842L143.171 91.8334C142.641 91.7161 142.116 92.0509 141.999 92.5813Z" fill="white" stroke="black" stroke-miterlimit="10"/>
<path d="M146.471 93.8562L144.323 103.572C144.205 104.102 144.54 104.627 145.071 104.744L148.013 105.395C148.544 105.512 149.069 105.178 149.186 104.647L151.335 94.9317C151.452 94.4014 151.117 93.8764 150.587 93.7591L147.644 93.1083C147.113 92.991 146.588 93.3259 146.471 93.8562Z" fill="white" stroke="black" stroke-miterlimit="10"/>
<path d="M136.076 168.694C129.457 166.934 132.025 133.523 132.924 123.735C133.081 122.021 132.546 120.324 131.433 119.012C128.518 115.573 123.29 114.761 121.92 106.757C121.626 105.05 122.45 102.459 124.103 100.297C125.769 98.1164 128.659 97.2878 131.227 98.2549C133.959 99.2853 137.388 100.792 137.348 101.846C137.28 103.595 137.618 105.658 134.255 104.996C132.902 104.731 131.867 104.44 131.114 104.189C130.149 103.867 129.135 104.67 129.318 105.67C129.346 105.83 129.403 105.935 129.494 105.947C129.952 106.015 137.484 103.928 139.637 107.966" stroke="black" stroke-miterlimit="10"/>
<path d="M136.024 95.194C136.226 93.1754 140.858 75.39 136.492 76.0191C130.201 76.9275 131.311 98.3676 131.311 98.3676" stroke="black" stroke-miterlimit="10"/>
<path d="M137.045 90.1546L134.896 99.87C134.779 100.4 135.114 100.925 135.644 101.043L138.587 101.693C139.118 101.811 139.643 101.476 139.76 100.945L141.908 91.2302C142.026 90.6998 141.691 90.1747 141.16 90.0574L138.218 89.4066C137.687 89.2893 137.162 89.6243 137.045 90.1546Z" fill="white" stroke="black" stroke-miterlimit="10"/>
<path d="M76.7953 113.526C76.7953 113.526 94.4164 110.67 113.662 122.61C132.898 134.546 131.926 136.591 131.926 136.591C131.926 136.591 116.819 144.377 113.943 165.382L90.7312 152.235C90.7312 152.235 70.0141 130.988 76.7977 113.526H76.7953Z" fill="#28A9DB"/>
<path d="M131.924 136.591C131.924 136.591 117.652 144.356 113.941 165.383" stroke="black" stroke-miterlimit="10"/>
<path d="M95.3953 78.1645C92.2171 75.3619 90.4144 66.8976 90.4144 66.8976C87.2807 71.6602 82.9453 69.6205 82.9453 69.6205C82.9453 69.6205 63.4887 85.6829 62.4723 88.3236C61.9653 89.6428 59.6298 93.7552 58.3271 98.5061C57.0243 93.7528 54.6888 89.6428 54.1817 88.3236C53.1654 85.6829 33.3567 69.5665 33.3567 69.5665C33.3567 69.5665 30.2652 71.8902 26.5049 67.2403C26.5049 67.2403 24.4393 75.3619 21.2611 78.1645C18.0829 80.9672 8.00361 92.9994 18.2894 99.2995C18.2894 99.2995 15.6253 108.813 20.1414 112.552C24.2703 115.972 33.6571 116.573 37.3142 109.663C37.3142 109.663 49.02 120.319 56.2755 112.552C57.1956 111.569 57.8623 110.484 58.3271 109.341C58.7918 110.484 59.4584 111.566 60.3785 112.552C67.6316 120.319 79.34 109.663 79.34 109.663C82.997 116.573 92.1443 115.66 96.5126 112.552C100.771 109.522 98.3646 99.2995 98.3646 99.2995C108.65 92.9994 98.5712 80.9672 95.3929 78.1645H95.3953Z" fill="black"/>
<path d="M85.1329 55.6916C80.9899 56.6235 80.2224 61.5763 80.2154 61.6138C79.9103 60.9824 79.5839 60.3651 79.2342 59.7665C79.2342 59.7665 71.1055 46.218 65.4157 46.3541C59.7259 46.4903 44.9592 42.5609 38.4573 56.7854L34.772 65.9891C34.772 65.9891 34.6312 66.3671 34.4129 67.0431L36.3353 60.419C36.3353 60.419 34.3847 55.1494 30.7487 55.5109C30.7487 55.5109 24.3055 56.6939 24.1341 61.6185C23.9628 66.5431 28.317 71.6836 33.6077 69.8246C31.6877 77.1927 29.8567 91.1426 41.3655 98.7713C41.3655 98.7713 47.6962 101.844 50.0575 102.259L48.6279 112.233C48.6279 112.233 54.8741 120.498 62.3127 118.179C62.3127 118.179 67.871 116.859 70.6408 111.141L69.1949 101.583C69.1949 101.583 85.1682 96.755 84.572 80.9038C84.572 80.9038 84.4358 75.7233 83.018 69.7565C89.75 71.4466 92.6443 65.0197 92.5973 62.1842C92.548 59.3487 89.2923 54.7574 85.1329 55.694V55.6916Z" fill="white"/>
<path d="M50.0552 102.259L48.6257 113.526" stroke="black" stroke-miterlimit="10"/>
<path d="M69.1926 101.583L71.0727 112.918" stroke="black" stroke-miterlimit="10"/>
<path d="M70.6385 111.141L76.2415 112.174C95.184 115.662 108.937 132.178 108.937 151.44V194.874H12.5879V151.97C12.5879 131.427 24.1294 112.785 48.6233 112.233C48.6233 112.233 60.8151 126.908 70.6362 111.141H70.6385Z" fill="#28A9DB"/>
<path d="M3.43352 166.289L0.311569 164.554C0.311569 164.554 3.16586 162.254 13.393 162.052C13.393 162.052 24.3666 161.695 30.7465 164.559L26.4251 166.289C26.4251 166.289 10.1397 168.019 3.43352 166.289Z" fill="black"/>
<path d="M71.5939 42.4036H45.0672C45.0672 42.4036 25.6997 75.7304 34.2838 91.1755C40.0815 101.609 51.5175 103.137 58.3317 103.032C65.1459 103.137 76.5818 101.609 82.3796 91.1755C90.9612 75.7304 71.5962 42.4036 71.5962 42.4036H71.5939Z" stroke="black" stroke-miterlimit="10"/>
<path d="M80.2155 61.0293C80.2155 61.0293 82.2223 52.497 89.2008 56.6282C97.8834 61.7711 87.7502 73.1671 82.9289 69.6955" stroke="black" stroke-miterlimit="10"/>
<path d="M89.2007 60.4894C89.2007 60.4894 84.7972 57.5764 82.7668 63.4705" stroke="black" stroke-miterlimit="10"/>
<path d="M36.5138 61.0293C36.5138 61.0293 34.5069 52.497 27.5284 56.6282C18.8458 61.7711 28.979 73.1671 33.8003 69.6955" stroke="black" stroke-miterlimit="10"/>
<path d="M27.5283 60.4894C27.5283 60.4894 31.9317 57.5764 33.9621 63.4705" stroke="black" stroke-miterlimit="10"/>
<path d="M30.7465 164.286C30.7465 164.286 15.4257 158.949 0.184814 164.286" stroke="black" stroke-miterlimit="10"/>
<path d="M70.1339 39.1081C65.0543 37.3523 58.6697 36.3876 54.393 37.864C54.3765 37.864 54.3649 37.8687 54.3649 37.8687C54.3649 37.8687 36.0678 34.8666 30.7465 50.4877L28.3663 56.1799C28.3663 56.1799 34.2322 52.6683 36.5137 61.027C36.5137 61.027 46.5085 57.1282 52.2828 51.9242C56.1957 56.0203 68.3828 67.0149 80.6356 59.7688C80.6356 59.7688 82.3562 55.0367 85.9827 55.4968C89.2008 55.9076 80.314 42.6267 70.1339 39.1081Z" fill="black"/>
<path d="M38.8915 181.907L35.6734 132.131L99.198 133.744L97.8788 183.224L38.8915 181.907Z" fill="#82D97A"/>
<path d="M35.6734 132.131L38.0042 122.014L96.6159 122.756L99.1979 133.743L35.6734 132.131Z" fill="#82D97A"/>
<path d="M40.828 131.323L42.0393 125.068H97.1581L98.6299 131.323H40.828Z" fill="white"/>
<path d="M98.6298 131.323H40.828L42.0392 125.068H97.1581" stroke="black" stroke-miterlimit="10"/>
<path d="M26.9039 163.099L25.4933 176.802L64.4862 177.539C64.4862 177.539 70.0423 170.633 73.9036 170.075C73.9036 170.075 84.1964 166.343 85.5508 170.826C86.4193 173.699 84.4898 174.215 82.4476 174.474C80.4055 174.732 75.7344 175.112 75.6053 176.844C75.5091 178.138 75.2533 178.471 76.2438 179.098C77.333 179.788 80.1731 179.318 81.7435 179.048C83.3138 178.778 91.2452 177.307 91.2452 177.307C91.2452 177.307 97.3787 176.61 97.2895 178.483C97.2003 180.356 95.0972 181.929 95.0972 181.929C95.0972 181.929 100.867 181.464 100.771 184.203C100.771 184.203 100.897 187.071 95.9539 187.29C95.9539 187.29 96.1769 187.933 96.2755 188.895C96.3764 189.858 95.2145 191.691 93.7733 191.548C92.332 191.404 90.2969 191.879 90.2969 191.879C90.2969 191.879 92.9001 192.099 93.4165 193.458C93.6489 194.069 92.1584 194.848 91.2242 194.989C90.2876 195.13 73.8707 195.256 73.8707 195.256H66.728L6.48256 194.728C6.48256 194.728 2.57666 194.174 1.82318 184.306L3.96863 163.207C3.96863 163.207 9.84387 159.78 26.9086 163.101L26.9039 163.099Z" fill="white"/>
<path d="M95.0808 181.9C95.0808 181.9 99.5547 181.891 100.212 182.914C101.167 184.4 100.09 186.64 98.3998 187.046C96.7098 187.452 78.894 187.79 78.894 187.79" stroke="black" stroke-miterlimit="10"/>
<path d="M95.5526 187.29C95.5526 187.29 97.1159 189.487 95.6254 190.975C94.1348 192.465 78.5113 191.397 78.5113 191.397" stroke="black" stroke-miterlimit="10"/>
<path d="M90.8511 191.778C90.8511 191.778 94.5433 192.794 93.1209 194.43C91.6984 196.066 69.1363 194.871 69.1363 194.871C69.1363 194.871 15.4 195.533 7.30658 194.871C0.253 194.294 2.01339 179.349 2.01339 179.349C2.01339 179.349 2.82562 165.711 7.30658 143.696C7.30658 143.696 19.4913 131.842 28.4321 143.696L25.4933 176.804L65.0778 177.159C65.0778 177.159 70.9367 170.084 77.1358 168.894C79.3845 168.462 84.18 168.082 85.4006 170.453C86.0602 171.734 85.9428 174.856 80.6825 174.718C77.2438 174.629 76.258 175.788 75.8237 176.408C75.1055 177.431 75.7509 179.098 76.8001 179.192C84.0955 179.854 97.1864 173.884 97.1887 179.124C97.1934 185.191 76.8001 183.527 76.8001 183.527" stroke="black" stroke-miterlimit="10"/>
<path d="M36.5114 115.385L30.7465 164.284C13.9611 159.003 0.184814 164.284 0.184814 164.284L1.82092 153.005C6.18217 118.212 36.5114 115.385 36.5114 115.385Z" fill="#28A9DB"/>
<path d="M48.2572 71.8738C49.1037 71.8738 49.7899 71.1875 49.7899 70.341C49.7899 69.4945 49.1037 68.8082 48.2572 68.8082C47.4107 68.8082 46.7244 69.4945 46.7244 70.341C46.7244 71.1875 47.4107 71.8738 48.2572 71.8738Z" fill="#231F20"/>
<path d="M70.1338 72.7775C70.9804 72.7775 71.6667 72.0913 71.6667 71.2447C71.6667 70.3982 70.9804 69.7119 70.1338 69.7119C69.2873 69.7119 68.6011 70.3982 68.6011 71.2447C68.6011 72.0913 69.2873 72.7775 70.1338 72.7775Z" fill="#231F20"/>
<path d="M57.5078 70.78L56.3693 83.46H61.6789" stroke="#231F20" stroke-miterlimit="10"/>
<path d="M50.6185 66.8976C50.6185 66.8976 46.9685 64.1043 44.0931 67.6416" stroke="#231F20" stroke-miterlimit="10"/>
<path d="M73.3965 67.0502C73.3965 67.0502 69.7465 64.2569 66.8711 67.7943" stroke="#231F20" stroke-miterlimit="10"/>
<path d="M68.0049 89.6521C63.1601 96.5085 56.3693 91.8633 56.3693 91.8633L68.0049 89.6521Z" fill="black"/>
<path d="M0.184814 164.286C0.184814 164.286 12.3602 159.427 30.7465 164.286" stroke="black" stroke-miterlimit="10"/>
<path d="M7.30414 194.871H121.861" stroke="black" stroke-miterlimit="10"/>
<path d="M134.393 18.8791C130.513 13.6752 124.879 13.2105 122.934 13.2152C120.988 13.2105 115.354 13.6752 111.474 18.8791C108.768 22.5104 107.838 27.1792 108.951 31.5709C109.488 33.6929 110.549 35.9744 112.568 37.8523C113.735 38.9367 114.727 40.1972 115.486 41.5962C116.054 42.643 116.549 43.7744 116.58 44.5795C116.652 46.5161 116.58 49.0253 116.58 49.0253H129.285C129.285 49.0253 129.213 46.5161 129.285 44.5795C129.316 43.7744 129.809 42.643 130.379 41.5962C131.14 40.1948 132.133 38.9367 133.297 37.8523C135.316 35.9744 136.376 33.6929 136.914 31.5709C138.027 27.1792 137.099 22.5104 134.391 18.8791H134.393Z" fill="#FFEA63"/>
<path d="M131.705 48.1098H114.004C113.249 48.1098 112.636 48.7225 112.636 49.4783V52.7434C112.636 53.4991 113.249 54.1119 114.004 54.1119H131.705C132.461 54.1119 133.074 53.4991 133.074 52.7434V49.4783C133.074 48.7225 132.461 48.1098 131.705 48.1098Z" fill="#82D97A"/>
<path d="M130.98 53.2926H114.561C114.025 53.2926 113.591 53.7266 113.591 54.262V56.5718C113.591 57.1072 114.025 57.5412 114.561 57.5412H130.98C131.516 57.5412 131.95 57.1072 131.95 56.5718V54.262C131.95 53.7266 131.516 53.2926 130.98 53.2926Z" fill="#82D97A"/>
<path d="M128.215 56.8957H117.324C116.799 56.8957 116.373 57.3213 116.373 57.8464V60.1162C116.373 60.6412 116.799 61.0668 117.324 61.0668H128.215C128.74 61.0668 129.166 60.6412 129.166 60.1162V57.8464C129.166 57.3213 128.74 56.8957 128.215 56.8957Z" fill="#82D97A"/>
<path d="M124.166 48.2271L123.596 48.213C123.598 48.0957 123.887 36.526 124.077 33.9205C124.098 33.6411 124.152 33.3571 124.239 33.0778C123.936 33.0613 123.633 33.0567 123.342 33.0778C122.042 33.174 121.262 33.1506 120.694 33.1177C120.715 33.1858 120.734 33.2538 120.753 33.3219C121.183 34.8406 121.509 36.9132 121.727 39.4812C122.093 43.8354 122.016 48.1802 122.014 48.2248L121.443 48.213C121.443 48.1708 121.523 43.8518 121.157 39.5258C120.896 36.4414 120.507 34.411 120.086 33.0825C119.669 33.0637 119.302 33.0731 118.723 33.1881C118.462 33.2397 118.232 33.2632 118.026 33.2632C117.185 33.2632 116.781 32.89 116.603 32.6318C116.272 32.153 116.284 31.4816 116.634 30.9206C116.812 30.6319 117.066 30.4042 117.366 30.2587C117.697 30.0967 118.077 30.0428 118.469 30.1014C118.988 30.1789 119.453 30.5333 119.852 31.153C120.086 31.5145 120.302 31.9793 120.5 32.5356C121.101 32.5732 121.852 32.6177 123.295 32.5098C123.675 32.4816 124.065 32.491 124.452 32.5192C124.628 32.1459 124.859 31.7868 125.135 31.4652C125.736 30.7704 126.452 30.3667 127.051 30.3855C127.443 30.3972 127.767 30.5826 127.992 30.9206C128.215 31.2563 128.33 31.7422 128.337 32.3596C128.339 32.6647 128.243 32.9064 128.051 33.0778C127.593 33.4839 126.732 33.3712 125.642 33.2257C125.38 33.1905 125.103 33.1553 124.821 33.1248C124.725 33.4017 124.664 33.6857 124.643 33.9604C124.455 36.5518 124.166 48.1098 124.164 48.2248L124.166 48.2271ZM125.065 32.5778C125.288 32.6037 125.509 32.6318 125.72 32.66C126.551 32.7703 127.412 32.883 127.675 32.6506C127.715 32.6154 127.771 32.5449 127.769 32.3665C127.764 31.8666 127.678 31.4746 127.52 31.2352C127.401 31.0545 127.243 30.9629 127.039 30.9558C126.617 30.9417 126.056 31.2798 125.574 31.8384C125.377 32.0684 125.206 32.3173 125.067 32.5778H125.065ZM118.171 30.6484C117.734 30.6484 117.352 30.8526 117.122 31.2211C116.896 31.5826 116.878 32.0191 117.075 32.3055C117.321 32.6623 117.866 32.7773 118.612 32.6295C119.143 32.5238 119.516 32.5004 119.885 32.5051C119.347 31.1061 118.784 30.7258 118.387 30.6648C118.314 30.653 118.241 30.6484 118.171 30.6484Z" fill="#050403"/>
<path d="M133.574 24.8976C133.287 24.8976 133.027 24.698 132.963 24.407C132.442 22.0268 131.426 20.1208 129.94 18.743C128.835 17.7172 127.865 17.3816 127.856 17.3792H127.858L128.246 16.1915C128.292 16.2079 129.433 16.5882 130.731 17.7712C131.482 18.4566 132.14 19.2735 132.684 20.203C133.36 21.3532 133.865 22.677 134.184 24.137C134.257 24.4751 134.043 24.8083 133.708 24.8811C133.663 24.8905 133.618 24.8952 133.574 24.8952V24.8976Z" fill="white"/>
<path d="M133.071 32.16C132.952 32.16 132.832 32.1248 132.724 32.0544C132.438 31.8619 132.36 31.4746 132.553 31.1859C133.628 29.5804 133.339 26.8646 133.334 26.8387C133.297 26.496 133.543 26.1861 133.886 26.1486C134.229 26.111 134.539 26.3552 134.576 26.6979C134.59 26.827 134.921 29.8925 133.59 31.8807C133.471 32.0614 133.271 32.1577 133.069 32.1577L133.071 32.16Z" fill="white"/>
<path d="M132.104 54.4029H113.765C113.551 54.4029 113.38 54.2291 113.38 54.0179C113.38 53.8066 113.554 53.633 113.765 53.633H132.104C132.318 53.633 132.489 53.8066 132.489 54.0179C132.489 54.2291 132.316 54.4029 132.104 54.4029Z" fill="black"/>
<path d="M128.931 58.2783H116.758C116.544 58.2783 116.373 58.1045 116.373 57.8933C116.373 57.682 116.547 57.5084 116.758 57.5084H128.931C129.145 57.5084 129.316 57.682 129.316 57.8933C129.316 58.1045 129.142 58.2783 128.931 58.2783Z" fill="black"/>
<path d="M123.861 8.5042V0" stroke="black" stroke-miterlimit="10"/>
<path d="M135.6 12.7434L139.407 6.56769" stroke="black" stroke-miterlimit="10"/>
<path d="M112.122 12.6824L108.209 6.56769" stroke="black" stroke-miterlimit="10"/>
</svg>
