<svg width="162" height="163" viewBox="0 0 162 163" fill="none" xmlns="http://www.w3.org/2000/svg">
<path d="M75.608 28.1262C75.608 28.1262 66.3198 52.2258 74.7747 64.6547C74.7747 64.6547 80.4316 73.8631 93.0295 68.7202L92.3089 78.1445C92.0624 81.3697 94.1468 84.3202 97.2758 85.1441C102.351 86.482 108.153 86.9233 113.315 84.4352C120.319 81.0575 116.54 72.8021 116.54 72.8021L114.526 42.3156C114.526 42.3156 120.906 44.0972 122.544 37.2572C124.185 30.4172 118.502 22.7557 113.657 31.1425C113.657 31.1425 113.592 13.1788 93.0318 15.0448C93.0318 15.0448 80.5068 13.7562 75.6103 28.1239L75.608 28.1262Z" fill="#FFFAFA"/>
<path d="M52.9967 43.3226C52.5929 44.1841 52.0155 44.9493 51.3113 45.569C50.6048 46.1887 49.7762 46.6628 48.8655 46.9468L25.8433 54.2704L16.027 57.3946L15.9518 56.6083L13.567 31.6801L46.9782 33.4195C48.5932 33.5063 50.1283 34.1565 51.309 35.2668L51.4803 35.4287C53.6398 37.4544 54.2548 40.6373 52.999 43.3226H52.9967Z" fill="#F56F3B"/>
<path d="M25.8433 54.2703L16.027 57.3946L15.9519 56.6082C20.3249 55.0473 26.0006 51.24 26.2752 42.0199C26.2752 42.0199 28.0685 48.1815 25.8433 54.2703Z" fill="#231F20"/>
<path d="M13.5719 57.5119C20.7383 57.5119 26.5477 51.7025 26.5477 44.5361C26.5477 37.3698 20.7383 31.5604 13.5719 31.5604C6.40562 31.5604 0.596191 37.3698 0.596191 44.5361C0.596191 51.7025 6.40562 57.5119 13.5719 57.5119Z" fill="#343333"/>
<path d="M16.9542 54.0168C16.0129 54.3243 15.0059 54.4839 13.9661 54.4839C8.53681 54.4839 4.1333 50.0804 4.1333 44.6512C4.1333 39.2219 8.53681 34.8184 13.9661 34.8184C14.6233 34.8184 15.2618 34.8841 15.8815 35.0085C11.9122 36.2714 9.03678 39.9848 9.03678 44.3742C9.03678 49.1462 12.4427 53.1295 16.9542 54.0168Z" fill="#231F20"/>
<path d="M1.19217 40.7265C4.922 30.0933 14.9261 31.7482 14.9261 31.7482C14.9261 31.7482 23.4961 32.6706 25.9748 40.6373C27.2775 44.8202 26.4208 49.4396 23.7378 52.9019C22.7027 54.2375 21.3319 55.5214 19.5526 56.3641C19.5526 56.3641 10.9804 60.6502 4.40561 53.8455" stroke="#231F20" stroke-miterlimit="10"/>
<path d="M0.772035 42.4705C0.772035 42.4705 -0.685628 47.6111 3.14748 52.3925" stroke="#231F20" stroke-miterlimit="10"/>
<path d="M15.3275 37.0765C15.3275 37.0765 11.046 39.7125 11.2643 43.9939L13.5623 44.6535C13.5623 44.6535 12.9333 42.2593 15.3275 37.0765Z" fill="#FFFAFA"/>
<path d="M12.1446 45.9962L14.2313 46.4398L14.9989 48.9373C14.9989 48.9373 12.837 49.848 12.1446 45.9985V45.9962Z" fill="#FFFAFA"/>
<path d="M15.6209 54.1318C15.6209 54.1318 24.442 52.8878 22.7402 42.4705" stroke="black" stroke-miterlimit="10"/>
<path d="M35.2347 51.2822L37.7088 50.3926C37.7088 50.3926 40.2908 46.698 44.4455 45.7192C44.4455 45.7192 47.8138 44.6957 48.295 47.6698C48.7762 50.6438 47.4453 52.3479 46.3022 52.8291C45.159 53.3103 42.9502 53.4863 41.333 54.0825C39.7157 54.6787 37.981 56.9955 37.8402 59.3146C37.6994 61.6337 37.5914 65.4974 37.6031 66.3048C37.6149 67.1123 37.9576 76.1118 39.6453 81.3603C41.333 86.6065 45.267 94.5098 51.201 96.0895L58.893 126.153L56.1537 128.301C56.1537 128.301 42.4503 127.66 36.4342 123.825C30.4205 119.992 20.5361 113.579 18.2193 100.408C18.2193 100.408 15.9049 84.2428 19.2756 69.7671L22.6463 55.289L35.2371 51.2822H35.2347Z" fill="#FFFAFA"/>
<path d="M22.6439 55.289C22.6439 55.289 10.6329 94.7186 22.6439 111.788C34.655 128.858 55.5528 130.742 69.0051 126.153L50.8818 96.0284C50.8818 96.0284 35.3263 91.1625 37.8802 58.7512C37.9341 58.0564 38.143 57.3804 38.4834 56.7701C39.5561 54.85 41.4691 53.4159 45.2623 53.1342C48.91 52.8642 49.7574 45.191 45.6849 45.5102C41.61 45.8294 37.1079 50.0217 37.0422 51.9981" stroke="black" stroke-miterlimit="10"/>
<path d="M39.3448 30.7083C39.3448 30.7083 44.1591 28.2436 44.929 33.9217C46.0886 42.4705 40.8706 39.243 40.8706 39.243C40.8706 39.243 40.0396 38.6421 40.6663 37.1516C41.2931 35.661 40.5443 31.7598 39.3448 30.7083Z" fill="#FFFAFA" stroke="black" stroke-miterlimit="10"/>
<path d="M26.3855 29.2154C29.3712 29.2154 31.3359 32.2786 32.4955 33.9921C34.6385 37.1539 33.9343 41.7076 31.1246 41.9987C28.3149 42.2898 29.0707 38.9543 28.7726 37.3276C28.0356 33.3231 23.1016 32.0251 23.1016 32.0251C23.1016 32.0251 22.8364 29.2154 26.3855 29.2154Z" fill="#FFFAFA" stroke="black" stroke-miterlimit="10"/>
<path d="M151.432 129.618C151.432 129.618 143.604 121.55 158.566 134.193C158.566 134.193 161.584 110.873 156.315 93.5756C151.043 76.2784 117.333 72.7998 117.333 72.7998C101.879 96.4017 91.9052 74.7668 91.9052 74.7668L51.7267 93.4512C51.7267 93.4512 40.3471 123.374 61.421 129.907L73.925 126.149L72.803 162.475H151.747L151.435 129.618H151.432Z" fill="#28A9DB"/>
<path d="M116.608 73.8818L114.524 42.3179C114.524 42.3179 120.338 44.0761 122.542 37.2595C124.086 32.4828 120.54 25.3095 115.312 28.8657C111.801 31.2528 114.662 35.8559 112.836 37.1187C111.01 38.3839 106.726 31.166 109.254 25.5466C109.254 25.5466 92.4662 34.1682 86.8468 18.9953C86.8468 18.9953 85.8633 27.8469 75.608 28.1263C75.608 28.1263 61.2614 76.4474 90.0954 69.5957C93.1727 68.8634 96.0951 67.5935 98.7898 65.9363C101.409 64.3261 105.034 61.8708 107.709 59.1738" stroke="black" stroke-miterlimit="10"/>
<path d="M77.6408 39.8205C78.5508 39.8205 79.2886 39.0827 79.2886 38.1727C79.2886 37.2626 78.5508 36.5249 77.6408 36.5249C76.7307 36.5249 75.993 37.2626 75.993 38.1727C75.993 39.0827 76.7307 39.8205 77.6408 39.8205Z" fill="black"/>
<path d="M90.2551 43.0104C91.1651 43.0104 91.9029 42.2727 91.9029 41.3626C91.9029 40.4526 91.1651 39.7148 90.2551 39.7148C89.345 39.7148 88.6073 40.4526 88.6073 41.3626C88.6073 42.2727 89.345 43.0104 90.2551 43.0104Z" fill="black"/>
<path d="M84.2131 39.9213C84.2131 39.9213 80.4786 48.3269 80.0068 49.6602C79.2674 51.7446 84.53 52.0709 84.53 52.0709" stroke="black" stroke-miterlimit="10"/>
<path d="M90.2551 34.87C90.2551 34.87 94.7125 33.5508 96.8204 38.1703" stroke="black" stroke-miterlimit="10"/>
<path d="M82.1287 34.87C82.1287 34.87 79.2909 30.0229 76.4507 33.464" stroke="black" stroke-miterlimit="10"/>
<path d="M84.476 59.9507C84.476 59.9507 88.8819 63.4998 90.5179 56.019" stroke="black" stroke-miterlimit="10"/>
<path d="M88.6072 4.52433C88.6072 4.52433 99.3507 -5.16995 112.697 3.82249C126.044 12.8126 129.556 24.6147 130.68 31.6378C131.804 38.6632 136.764 39.635 138.848 45.4985C144.89 62.4975 123.338 62.413 115.845 62.2769L114.526 42.3156C114.526 42.3156 121.8 44.1418 122.903 35.3606C122.903 35.3606 122.364 27.5207 117.617 28.1028C116.134 28.2859 114.88 29.2741 114.181 30.5956C113.782 31.3467 113.437 32.2692 113.453 33.1823C113.495 35.2902 114.373 38.6397 110.937 36.6821C110.937 36.6821 107.78 33.9499 108.676 26.1733C108.676 26.1733 91.9052 33.532 86.8491 18.9906C86.8491 18.9906 84.6004 28.1216 75.6103 28.1216C75.6103 28.1216 68.8361 46.7144 73.9086 62.8801C73.9086 62.8801 64.7823 65.3424 56.8908 61.9436C50.8324 59.3334 50.4498 48.7072 55.8626 44.8154C57.0574 43.9563 58.1606 42.9658 59.0409 41.7851C63.7566 35.4639 66.0944 33.6377 63.4232 27.2765C60.4727 20.2511 63.9584 0.935334 88.6096 4.51729L88.6072 4.52433Z" fill="black"/>
<path d="M93.0272 68.7202L92.5624 76.1399" stroke="black" stroke-miterlimit="10"/>
<path d="M160.864 143.838C160.864 143.838 157.861 144.596 151.179 144.296L153.249 135.796C153.249 135.796 160.617 138.798 160.864 143.84V143.838Z" fill="black"/>
<path d="M35.2347 30.6026C35.2347 30.6026 38.6054 28.1802 39.8706 31.0252C41.1358 33.8701 41.6616 38.2384 38.6054 39.8204C38.6054 39.8204 37.9975 40.2406 37.3919 39.8204C37.3919 39.8204 38.4012 37.6257 37.9317 35.6164C37.4623 33.6072 35.7769 30.7975 35.2324 30.6026H35.2347Z" fill="#FFFAFA" stroke="black" stroke-miterlimit="10"/>
<path d="M30.7983 31.4688C30.7983 31.4688 33.1855 26.1428 36.2957 30.3843C39.4035 34.6259 38.9551 40.8157 35.8473 39.919C32.7395 39.0223 34.3733 35.7573 33.6081 34.755C32.8452 33.755 32.5119 34.0039 32.5119 34.0039L30.796 31.4664L30.7983 31.4688Z" fill="#FFFAFA" stroke="black" stroke-miterlimit="10"/>
<path d="M58.8907 103.023C58.8907 103.023 64.4725 96.3078 68.2704 91.6719L110.831 90.5123L126.741 136.345L122.856 153.847L82.5935 152.593L58.8907 103.023Z" fill="#F56F3B"/>
<path d="M70.5778 94.5496L63.5008 102.932L106.428 101.427L124.544 146.664L125.753 140.296L108.416 93.4417L70.5778 94.5496Z" fill="#FFFAFA" stroke="black" stroke-miterlimit="10"/>
<path d="M105.792 125.041C105.792 125.041 93.168 108.732 90.6823 108.129C90.6823 108.129 86.483 109.138 88.1355 112.739C89.8865 116.555 92.6399 117.084 92.6399 117.084C92.6399 117.084 93.7994 118.163 91.5343 118.546C91.5343 118.546 79.0749 113.793 77.2253 113.523C75.5212 113.274 74.2935 113.938 75.9742 117.633L76.9061 118.546C76.9061 118.546 74.0212 121.036 76.2512 122.802C78.4811 124.567 79.2416 124.94 79.2416 124.94C79.2416 124.94 77.5774 127.484 79.0984 128.759C80.6171 130.034 82.2602 130.872 82.2602 130.872C82.2602 130.872 79.4177 132.651 81.8706 134.062C84.3235 135.472 87.6613 138.017 94.7219 137.31C94.7219 137.31 101.029 137.158 103.132 138.268C105.238 139.376 119.307 153.711 126.654 157.513C130.253 159.375 141.848 166.86 147.843 156.149C147.843 156.149 150.036 152.016 151.038 146.206C152.04 140.399 158.045 121.327 157.57 109.211C157.57 109.211 159.204 93.3361 149.301 94.1084C149.301 94.1084 142.447 93.7305 138.867 103.368C138.867 103.368 129.255 119.929 129.748 130.991L108.803 127.243C108.803 127.243 106.54 126.125 105.794 125.043L105.792 125.041Z" fill="#FFFAFA"/>
<path d="M76.8756 118.546C76.8756 118.546 73.2138 121.316 77.9905 124.243C82.7649 127.17 91.0672 128.759 91.0672 128.759" stroke="black" stroke-miterlimit="10"/>
<path d="M79.2369 124.938C79.2369 124.938 74.6057 131.515 89.3537 131.461" stroke="black" stroke-miterlimit="10"/>
<path d="M82.2485 130.698C82.2485 130.698 77.514 133.806 86.9689 136.343C89.8044 137.104 92.7455 137.385 95.682 137.294C98.2945 137.212 102.808 136.667 104.738 139.061C108.669 143.944 143.233 179.974 149.834 150.722C154.434 130.327 164.439 94.9299 149.273 94.106C134.107 93.2821 129.746 130.989 129.746 130.989L109.484 127.426C107.982 127.142 106.651 126.287 105.766 125.041C102.268 120.116 92.553 108.016 90.6564 108.129C88.0369 108.286 84.7131 113.204 92.6141 117.086C92.6141 117.086 93.492 117.701 92.4404 118.433C90.1142 120.055 75.7864 109.786 75.0212 115.037C74.2583 120.288 90.18 124.37 90.18 124.37" stroke="black" stroke-miterlimit="10"/>
<path d="M151.179 86.2262C151.179 86.2262 136.593 81.6537 134.285 98.3429C133.262 105.753 128.26 131.55 130.363 130.961C130.363 130.961 159.176 133.092 160.864 143.838C160.864 143.838 166.913 93.6366 151.179 86.2262Z" fill="#28A9DB"/>
<path d="M129.746 130.989L132.227 110.894" stroke="black" stroke-miterlimit="10"/>
<path d="M119.422 33.0274C119.422 33.0274 120.371 38.0858 115.578 38.6116" stroke="black" stroke-miterlimit="10"/>
<path d="M151.742 162.478H33.3404" stroke="#231F20" stroke-miterlimit="10"/>
</svg>
