<svg width="118" height="104" viewBox="0 0 118 104" fill="none" xmlns="http://www.w3.org/2000/svg">
<path d="M58.9717 80.14C59.2366 80.1403 59.4512 80.3555 59.4512 80.6205C59.4509 80.8852 59.2364 81.0997 58.9717 81.1C58.7067 81.1 58.4915 80.8854 58.4912 80.6205C58.4912 80.3554 58.7066 80.14 58.9717 80.14Z" fill="#448E6D" stroke="#7AB0FC"/>
<path d="M30.5012 7.82001V12.12" stroke="#7AB0FC" stroke-linecap="round" stroke-linejoin="round"/>
<path d="M28.3413 9.97003H32.6513" stroke="#7AB0FC" stroke-linecap="round" stroke-linejoin="round"/>
<path d="M19.7861 16.3093C24.6984 15.9661 28.2378 18.07 32.1104 20.944L32.8896 21.529C39.3189 26.4211 46.5556 30.6693 54.457 32.862C62.4968 35.1014 71.0749 35.4401 79.4512 35.4401H79.4551C82.3195 35.4201 85.1741 35.3497 87.9717 35.2897C89.8851 35.2491 91.9486 35.0114 94.0488 34.7585C96.1578 34.5046 98.3072 34.2348 100.429 34.1227C104.675 33.8984 108.706 34.3127 111.917 36.6579C114.413 38.6633 116.092 41.5105 116.639 44.6657L116.64 44.6745L116.642 44.6833C117.795 50.1568 117.729 56.9661 116.189 63.2956C114.649 69.6302 111.65 75.4198 107 78.9304C101.907 82.7649 95.5604 84.3771 88.96 84.7936C82.3599 85.2102 75.5476 84.4289 69.5566 83.5153H69.5557C55.9 81.4505 42.2943 77.8523 29.9248 71.6725H29.9238C24.5626 69.0069 18.746 65.6221 13.7578 61.4372C8.76798 57.2509 4.63276 52.2854 2.59277 46.4645V46.4636C1.22369 42.5786 0.288016 37.8738 0.541992 33.4089C0.795699 28.95 2.23102 24.7786 5.5498 21.8659C9.57612 18.5394 14.5632 16.5915 19.7783 16.3093H19.7861Z" fill="#9DE2F1" stroke="#7AB0FC"/>
<path d="M65.9116 0.5C66.1765 0.500251 66.3911 0.715525 66.3911 0.980469C66.3909 1.2452 66.1763 1.45971 65.9116 1.45996C65.6467 1.45996 65.4314 1.24535 65.4312 0.980469C65.4312 0.715375 65.6465 0.5 65.9116 0.5Z" fill="#448E6D" stroke="#7AB0FC"/>
<path d="M14.9912 78.27V82.57" stroke="#7AB0FC" stroke-linecap="round" stroke-linejoin="round"/>
<path d="M12.8413 80.42H17.1413" stroke="#7AB0FC" stroke-linecap="round" stroke-linejoin="round"/>
<path d="M59.3713 99.39C69.5016 99.39 78.6682 99.6464 85.2981 100.06C88.6149 100.267 91.2865 100.513 93.1233 100.784C94.004 100.913 94.6744 101.048 95.1272 101.18C94.6744 101.312 94.004 101.447 93.1233 101.577C91.2865 101.847 88.6149 102.093 85.2981 102.3C78.6682 102.714 69.5015 102.97 59.3713 102.97C49.2411 102.97 40.0745 102.714 33.4446 102.3C30.1277 102.093 27.4562 101.847 25.6194 101.577C24.738 101.447 24.0673 101.312 23.6145 101.18C24.0673 101.048 24.738 100.914 25.6194 100.784C27.4562 100.513 30.1277 100.267 33.4446 100.06C40.0745 99.6464 49.2411 99.39 59.3713 99.39Z" fill="#9DE2F1" stroke="#7AB0FC"/>
<path d="M33.5696 22.12H96.9807C97.3321 22.12 97.6795 22.1969 97.9983 22.3446C98.317 22.4924 98.6003 22.7074 98.8274 22.9755C99.0545 23.2436 99.2204 23.5585 99.3137 23.8973C99.407 24.236 99.4261 24.5909 99.3684 24.9374L99.3674 24.9393L91.2981 74.119V74.12C91.205 74.6905 90.9101 75.2086 90.468 75.5809C90.0256 75.9534 89.4643 76.1558 88.886 76.1503H25.4719C25.12 76.15 24.7718 76.0735 24.4524 75.9257C24.133 75.7778 23.8493 75.562 23.6213 75.2938C23.3935 75.0257 23.2265 74.7109 23.1321 74.3719C23.0378 74.0332 23.0182 73.678 23.0745 73.3309L31.1848 24.1512V24.1493C31.2756 23.5824 31.5659 23.0662 32.0032 22.6942C32.4403 22.3224 32.9957 22.1188 33.5696 22.12Z" fill="#F5DD6E" stroke="#7AB0FC"/>
<path d="M89.6625 20.3339L52.0238 3.52876C50.9143 3.0334 49.6133 3.53123 49.118 4.6407L37.1889 31.3586C36.6935 32.468 37.1913 33.769 38.3008 34.2643L75.9396 51.0695C77.049 51.5648 78.35 51.067 78.8454 49.9575L90.7745 23.2397C91.2698 22.1302 90.772 20.8292 89.6625 20.3339Z" fill="#E0FFBF" stroke="#7AB0FC" stroke-linecap="round" stroke-linejoin="round"/>
<path d="M57.5413 25.5101C58.532 24.1199 59.9729 23.115 61.6197 22.6657C63.2666 22.2164 65.0182 22.3503 66.5776 23.0447C68.1371 23.7391 69.4085 24.9513 70.1764 26.4759C70.9444 28.0004 71.1616 29.7436 70.7913 31.41" stroke="#7AB0FC" stroke-width="0.68" stroke-linecap="round" stroke-linejoin="round"/>
<path d="M75.5415 22.44C75.8341 22.4402 76.0708 22.6777 76.0708 22.9703C76.0707 23.2628 75.834 23.4994 75.5415 23.4996C75.2489 23.4996 75.0114 23.2629 75.0112 22.9703C75.0112 22.6776 75.2488 22.44 75.5415 22.44Z" fill="#55CD6F" stroke="#7AB0FC"/>
<path d="M60.6216 15.78C60.9142 15.7802 61.1509 16.0177 61.1509 16.3103C61.1507 16.6028 60.9141 16.8395 60.6216 16.8396C60.329 16.8396 60.0915 16.6029 60.0913 16.3103C60.0913 16.0176 60.3289 15.78 60.6216 15.78Z" fill="#55CD6F" stroke="#7AB0FC"/>
<path d="M88.6013 76.63H24.8813C24.1059 76.6274 23.3632 76.3175 22.8159 75.7683C22.2686 75.2191 21.9613 74.4754 21.9613 73.7V28.77C21.952 28.3802 22.0205 27.9925 22.163 27.6296C22.3054 27.2666 22.5189 26.9358 22.7908 26.6564C23.0628 26.377 23.3877 26.1547 23.7467 26.0025C24.1057 25.8503 24.4914 25.7712 24.8813 25.77H48.0913C48.6299 25.772 49.1575 25.9224 49.6161 26.2046C50.0748 26.4869 50.4468 26.8901 50.6913 27.37L54.0013 33.85C54.2449 34.3306 54.6167 34.7345 55.0755 35.0169C55.5344 35.2993 56.0625 35.4492 56.6013 35.45H88.6013C89.3757 35.45 90.1184 35.7577 90.666 36.3053C91.2136 36.8529 91.5213 37.5956 91.5213 38.37V73.7C91.5213 74.4754 91.214 75.2191 90.6666 75.7683C90.1193 76.3175 89.3766 76.6274 88.6013 76.63Z" fill="#FFEFA6" stroke="#7AB0FC" stroke-linecap="round" stroke-linejoin="round"/>
<path d="M78.7912 36.98C75.11 36.9781 71.511 38.0678 68.4493 40.1115C65.3875 42.1552 63.0007 45.061 61.5906 48.4614C60.1805 51.8617 59.8106 55.6039 60.5275 59.2145C61.2445 62.8252 63.0161 66.1421 65.6184 68.7458C68.2206 71.3494 71.5366 73.1228 75.1468 73.8417C78.7571 74.5606 82.4995 74.1926 85.9006 72.7844C89.3017 71.3761 92.2088 68.9909 94.2541 65.9302C96.2994 62.8696 97.3912 59.2712 97.3912 55.59C97.3912 50.6561 95.4318 45.9241 91.9439 42.4343C88.4561 38.9446 83.7251 36.9827 78.7912 36.98Z" fill="#EEEDED" stroke="#7AB0FC" stroke-linecap="round" stroke-linejoin="round"/>
<path d="M92.0312 69.09L96.9912 74.05" stroke="#7AB0FC" stroke-linecap="round" stroke-linejoin="round"/>
<path d="M95.2508 73.5979L96.792 71.9856C97.2919 71.4628 98.1206 71.4443 98.6436 71.9439L112.016 84.7276C112.539 85.2275 112.559 86.0568 112.059 86.5798L110.517 88.1921C110.017 88.7147 109.188 88.7329 108.665 88.2331L95.2925 75.4494C94.7699 74.9496 94.7512 74.1208 95.2508 73.5979Z" fill="#EEEDED" stroke="#7AB0FC"/>
<path d="M106.331 0.980042V5.29004" stroke="#7AB0FC" stroke-linecap="round" stroke-linejoin="round"/>
<path d="M104.171 3.14001H108.481" stroke="#7AB0FC" stroke-linecap="round" stroke-linejoin="round"/>
</svg>
