<?xml version="1.0" encoding="UTF-8"?>
<svg version="1.1" xmlns="http://www.w3.org/2000/svg" width="152" height="166">
<path d="M0 0 C4.61508482 2.18609281 6.73136519 4.4949553 9 9 C9.43359375 11.9375 9.43359375 11.9375 9.4375 15 C9.45683594 16.010625 9.47617188 17.02125 9.49609375 18.0625 C9 21 9 21 7.01953125 23.28125 C4.08168532 27.23626115 4.32415719 30.68148743 4.25 35.5 C4.22180176 36.4688916 4.19360352 37.4377832 4.16455078 38.43603516 C4.07795262 41.9575145 4.03448981 45.47761731 4 49 C3.99246704 49.73101929 3.98493408 50.46203857 3.97717285 51.21520996 C3.9207412 56.93510995 3.89049031 62.65485128 3.875 68.375 C3.87213989 69.18122803 3.86927979 69.98745605 3.86633301 70.81811523 C3.84609734 78.93303201 3.83408395 86.94962724 5 95 C5.6705542 95.08040527 6.3411084 95.16081055 7.03198242 95.24365234 C10.08472251 95.61372944 13.13607249 95.99425799 16.1875 96.375 C17.77014648 96.56449219 17.77014648 96.56449219 19.38476562 96.7578125 C20.40634766 96.88671875 21.42792969 97.015625 22.48046875 97.1484375 C23.41785889 97.26364746 24.35524902 97.37885742 25.32104492 97.49755859 C28 98 28 98 33 100 C33 112.54 33 125.08 33 138 C16 145 16 145 13 144 C14.31176002 142.35357683 15.6244287 140.70787757 16.9375 139.0625 C17.66839844 138.14597656 18.39929688 137.22945312 19.15234375 136.28515625 C21 134 21 134 22 133 C22.41748684 124.96951792 21.89547974 116.97936415 21 109 C16.47020979 106.84295704 11.85667303 105.23305245 7.0625 103.75 C5.91910156 103.39421875 4.77570313 103.0384375 3.59765625 102.671875 C-3.92467753 101.26705262 -10.29841364 103.55788424 -17.3125 106.0625 C-18.89049225 106.61996371 -20.46986987 107.17352555 -22.05078125 107.72265625 C-22.73825439 107.96765869 -23.42572754 108.21266113 -24.1340332 108.46508789 C-26 109 -26 109 -29 109 C-30.89908038 126.02042827 -30.89908038 126.02042827 -24.5 140.9375 C-23.01605084 142.30923695 -21.52083207 143.66927194 -20 145 C-20 145.66 -20 146.32 -20 147 C-21.46019436 146.58990286 -22.91802772 146.17140121 -24.375 145.75 C-25.59316406 145.40195312 -25.59316406 145.40195312 -26.8359375 145.046875 C-31.29752126 143.57069667 -35.63667004 141.74533198 -40 140 C-40 127.13 -40 114.26 -40 101 C-36.6175 100.175 -33.235 99.35 -29.75 98.5 C-28.69006836 98.23896484 -27.63013672 97.97792969 -26.53808594 97.70898438 C-25.69536133 97.50595703 -24.85263672 97.30292969 -23.984375 97.09375 C-23.12553711 96.88427734 -22.26669922 96.67480469 -21.38183594 96.45898438 C-19 96 -19 96 -15 96 C-14.93630671 84.83799598 -14.93091853 73.67705985 -14.98754883 62.51501465 C-14.9957271 60.86308322 -15.00276168 59.21114565 -15.00854492 57.5592041 C-15.02584758 52.98077988 -15.06949992 48.40408974 -15.15359497 43.8263855 C-15.17603275 42.41090675 -15.19005562 40.99526729 -15.19528198 39.57962036 C-15.23398374 31.25750548 -15.54059256 26.3607247 -21 20 C-22.1551365 15.17856071 -21.58702262 10.47171803 -19.3125 6.0625 C-14.13037442 -0.80031496 -8.09570315 -0.98728087 0 0 Z " fill="#3193CF" transform="translate(87,10)"/>
<path d="M0 0 C4.61508482 2.18609281 6.73136519 4.4949553 9 9 C9.78178376 14.29640892 9.9097463 19.28547813 7.375 24.0625 C1.93525733 28.50018481 -2.44267568 29.55877872 -9.375 29.3515625 C-14.1852694 28.70732999 -16.7620689 26.40298858 -19.875 22.875 C-21.78325939 17.99833713 -22.00116365 12.89045635 -20.2734375 7.90234375 C-15.81842167 -0.62738168 -8.73070377 -1.06471997 0 0 Z " fill="#371A4E" transform="translate(87,10)"/>
<path d="M0 0 C1.11375 0.928125 1.11375 0.928125 2.25 1.875 C4.50515319 3.61761838 6.45655832 4.79349562 9 6 C7.83082031 6.33773437 6.66164062 6.67546875 5.45703125 7.0234375 C3.90881606 7.47382737 2.36064109 7.9243555 0.8125 8.375 C0.04357422 8.59671875 -0.72535156 8.8184375 -1.51757812 9.046875 C-4.70107067 9.97596295 -7.78832287 10.913943 -10.86328125 12.1640625 C-13 13 -13 13 -16 13 C-17.89908038 30.02042827 -17.89908038 30.02042827 -11.5 44.9375 C-10.01605084 46.30923695 -8.52083207 47.66927194 -7 49 C-7 49.66 -7 50.32 -7 51 C-8.46019436 50.58990286 -9.91802772 50.17140121 -11.375 49.75 C-12.18710937 49.51796875 -12.99921875 49.2859375 -13.8359375 49.046875 C-18.29752126 47.57069667 -22.63667004 45.74533198 -27 44 C-27 31.13 -27 18.26 -27 5 C-4.56 -0.28 -4.56 -0.28 0 2 C0 1.34 0 0.68 0 0 Z " fill="#916CA3" transform="translate(74,106)"/>
<path d="M0 0 C3.39647413 0.11035961 6.79188789 0.24087444 10.1875 0.375 C11.14720703 0.4059375 12.10691406 0.436875 13.09570312 0.46875 C14.02705078 0.50742188 14.95839844 0.54609375 15.91796875 0.5859375 C16.77156982 0.6173584 17.6251709 0.6487793 18.50463867 0.68115234 C21 1 21 1 26 3 C26 15.54 26 28.08 26 41 C9 48 9 48 6 47 C7.31176002 45.35357683 8.6244287 43.70787757 9.9375 42.0625 C10.66839844 41.14597656 11.39929688 40.22945312 12.15234375 39.28515625 C14 37 14 37 15 36 C15.40020747 28.30189168 15.79868887 19.53801673 14 12 C13.01 11.34 12.02 10.68 11 10 C11 9.34 11 8.68 11 8 C10.01 7.67 9.02 7.34 8 7 C5.03628519 5.66154815 2.4745636 4.12105451 0 2 C0 1.34 0 0.68 0 0 Z " fill="#9E75AB" transform="translate(94,107)"/>
<path d="M0 0 C0.66 0 1.32 0 2 0 C2.33 4.62 2.66 9.24 3 14 C3.99 14 4.98 14 6 14 C6.82113177 15.39077301 7.63152495 16.78788893 8.4375 18.1875 C8.88996094 18.96480469 9.34242187 19.74210937 9.80859375 20.54296875 C12.53940103 26.17469917 12.15521242 31.99457698 12.125 38.125 C12.12306641 39.06045654 12.12113281 39.99591309 12.11914062 40.9597168 C12.079188 47.34603361 11.83132374 53.66115647 11 60 C8.36 60.33 5.72 60.66 3 61 C3 64.63 3 68.26 3 72 C1.02 71.67 -0.96 71.34 -3 71 C-1.02 70.505 -1.02 70.505 1 70 C1.13404175 46.64374048 0.84034059 23.34180076 0 0 Z " fill="#3AACE0" transform="translate(71,36)"/>
<path d="M0 0 C4.875 1.75 4.875 1.75 6 4 C7.485 4.433125 7.485 4.433125 9 4.875 C12 6 12 6 12.875 7.6875 C13.42599278 17.88086643 13.42599278 17.88086643 11 21 C7.31583843 23.04675643 4.16760034 23.27784002 0 23 C-2.87326046 21.56336977 -3.57031657 19.85936686 -5 17 C-5.40729228 14.67843403 -5.74438677 12.3431213 -6 10 C-6.20625 9.2575 -6.4125 8.515 -6.625 7.75 C-7 6 -7 6 -6 3 C-5.195625 2.87625 -4.39125 2.7525 -3.5625 2.625 C-2.716875 2.41875 -1.87125 2.2125 -1 2 C-0.67 1.34 -0.34 0.68 0 0 Z " fill="#251237" transform="translate(77,11)"/>
<path d="M0 0 C0.66 0.66 1.32 1.32 2 2 C2.99 2 3.98 2 5 2 C5.797837 8.69613196 6.12910853 15.25766581 6 22 C6.66 22 7.32 22 8 22 C8 22.66 8 23.32 8 24 C10.64738916 25.4606285 11.89448334 26 15 26 C17.6875 28.375 17.6875 28.375 20 31 C20 31.66 20 32.32 20 33 C18.53980564 32.58990286 17.08197228 32.17140121 15.625 31.75 C14.81289063 31.51796875 14.00078125 31.2859375 13.1640625 31.046875 C8.70247874 29.57069667 4.36332996 27.74533198 0 26 C0 17.42 0 8.84 0 0 Z " fill="#AA81B1" transform="translate(47,124)"/>
<path d="M0 0 C2.87523714 0.31042917 5.75017727 0.62327519 8.625 0.9375 C9.43324219 1.02451172 10.24148437 1.11152344 11.07421875 1.20117188 C15.41041058 1.67709537 19.70390836 2.22837189 24 3 C24 6.3 24 9.6 24 13 C23.01 13.33 22.02 13.66 21 14 C20.67 16.31 20.34 18.62 20 21 C19.01 21.33 18.02 21.66 17 22 C16.95101562 21.31292969 16.90203125 20.62585938 16.8515625 19.91796875 C16.77679688 19.01691406 16.70203125 18.11585937 16.625 17.1875 C16.55539063 16.29417969 16.48578125 15.40085937 16.4140625 14.48046875 C16.13354964 11.75601501 16.13354964 11.75601501 14 9 C12.33985384 8.63557767 10.67293936 8.30027117 9 8 C8.67 7.34 8.34 6.68 8 6 C6.2675 5.2884375 6.2675 5.2884375 4.5 4.5625 C2.7675 3.7890625 2.7675 3.7890625 1 3 C0.67 2.01 0.34 1.02 0 0 Z " fill="#8C68A0" transform="translate(94,107)"/>
<path d="M0 0 C0.33 0 0.66 0 1 0 C0.99777939 0.73169907 0.99555878 1.46339813 0.99327087 2.2172699 C0.97315265 9.14576619 0.95796739 16.07425806 0.94818783 23.00277615 C0.94299089 26.56395664 0.93595185 30.1251128 0.92456055 33.6862793 C0.91151878 37.78955303 0.90674543 41.89280158 0.90234375 45.99609375 C0.89718246 47.26206894 0.89202118 48.52804413 0.88670349 49.8323822 C0.88629592 56.31075062 1.12511264 62.57911385 2 69 C6.62 69.66 11.24 70.32 16 71 C16 71.33 16 71.66 16 72 C14.37509046 72.02698189 12.75005367 72.04638757 11.125 72.0625 C9.76761719 72.07990234 9.76761719 72.07990234 8.3828125 72.09765625 C6 72 6 72 4 71 C5.78174788 73.30142435 7.16304165 74.80034391 10.046875 75.48828125 C12.0246611 75.72323102 14.01271872 75.86751458 16 76 C14.515 76.99 14.515 76.99 13 78 C13.66 78.66 14.32 79.32 15 80 C7.64987044 79.42351925 0.98575424 77.28953836 -6 75 C-4.71937515 73.2925002 -3.38232443 71.62626404 -2 70 C-1.34 70 -0.68 70 0 70 C0 67.03 0 64.06 0 61 C-0.66 61 -1.32 61 -2 61 C-1.87942241 55.5270958 -1.75510199 50.05429223 -1.62768555 44.58154297 C-1.58505335 42.72967692 -1.54334857 40.87778924 -1.50268555 39.02587891 C-1.215883 26.00291895 -0.71681613 13.00647472 0 0 Z " fill="#9EABCE" transform="translate(90,36)"/>
<path d="M0 0 C1.11375 0.928125 1.11375 0.928125 2.25 1.875 C4.50515319 3.61761838 6.45655832 4.79349562 9 6 C7.83082031 6.33773437 6.66164062 6.67546875 5.45703125 7.0234375 C3.90881606 7.47382737 2.36064109 7.9243555 0.8125 8.375 C0.04357422 8.59671875 -0.72535156 8.8184375 -1.51757812 9.046875 C-4.72078806 9.98171738 -7.79173385 10.91078367 -10.86328125 12.2265625 C-13 13 -13 13 -16 12 C-13 10 -13 10 -9 10 C-9.33 9.01 -9.66 8.02 -10 7 C-9.67 6.34 -9.34 5.68 -9 5 C-11.57855061 5.42975843 -13.72812837 5.85994492 -16.0625 7.0625 C-18 8 -18 8 -22 8 C-23.68698082 7.38655243 -25.35965807 6.72904086 -27 6 C-27 5.67 -27 5.34 -27 5 C-24.33580182 4.32184046 -21.66934242 3.65734223 -19 3 C-18.25621094 2.80921875 -17.51242188 2.6184375 -16.74609375 2.421875 C-4.91666667 -0.45833333 -4.91666667 -0.45833333 0 2 C0 1.34 0 0.68 0 0 Z " fill="#8D73A1" transform="translate(74,106)"/>
<path d="M0 0 C0.33 0 0.66 0 1 0 C1 3.63 1 7.26 1 11 C1.66 11 2.32 11 3 11 C3.07347656 12.60681641 3.07347656 12.60681641 3.1484375 14.24609375 C3.22345294 15.64325639 3.2990013 17.0403905 3.375 18.4375 C3.42140625 19.49807617 3.42140625 19.49807617 3.46875 20.58007812 C3.57280629 22.39239188 3.77919892 24.19817988 4 26 C4.66 26.33 5.32 26.66 6 27 C6.31241455 29.71446979 6.51336592 32.33909361 6.625 35.0625 C6.66367188 35.82111328 6.70234375 36.57972656 6.7421875 37.36132812 C6.83673562 39.24047195 6.91946756 41.12020336 7 43 C4.69 43 2.38 43 0 43 C0 28.81 0 14.62 0 0 Z " fill="#29AEE2" transform="translate(75,53)"/>
<path d="M0 0 C4.61508482 2.18609281 6.73136519 4.4949553 9 9 C9.80966873 14.48532331 9.92460851 19.39734525 7.125 24.25 C5 26 5 26 3 26 C2.63333333 20.5 2.63333333 20.5 4.375 18.125 C6 17 6 17 8 17 C7.67 15.35 7.34 13.7 7 12 C6.34 12 5.68 12 5 12 C5 11.34 5 10.68 5 10 C1.41247258 8.13448574 -2.27812193 6.57464072 -6 5 C-6 4.34 -6 3.68 -6 3 C-7.32 2.67 -8.64 2.34 -10 2 C-10 2.66 -10 3.32 -10 4 C-12.31 4.33 -14.62 4.66 -17 5 C-17 4.34 -17 3.68 -17 3 C-11.68458959 -0.98899607 -6.38757018 -0.77897197 0 0 Z " fill="#5C4970" transform="translate(87,10)"/>
<path d="M0 0 C1.216875 -0.04125 2.43375 -0.0825 3.6875 -0.125 C4.71423828 -0.15980469 4.71423828 -0.15980469 5.76171875 -0.1953125 C8 0 8 0 13 2 C13 14.54 13 27.08 13 40 C-4 47 -4 47 -7 46 C-4.525 43.525 -4.525 43.525 -2 41 C-2 41.66 -2 42.32 -2 43 C0.31 42.01 2.62 41.02 5 40 C5 39.34 5 38.68 5 38 C5.81041748 37.6186792 6.62083496 37.2373584 7.45581055 36.84448242 C10.36276347 35.17808035 10.36276347 35.17808035 10.65942383 31.63012695 C10.70047012 30.25003078 10.71471829 28.86896628 10.70703125 27.48828125 C10.72215256 26.76005661 10.73727386 26.03183197 10.75285339 25.28153992 C10.79580266 22.95821345 10.80457426 20.63618422 10.8125 18.3125 C10.83563906 16.73629346 10.86100318 15.16011791 10.88867188 13.58398438 C10.95159426 9.72254125 10.98387313 5.86191067 11 2 C7.37 1.67 3.74 1.34 0 1 C0 0.67 0 0.34 0 0 Z " fill="#B191B8" transform="translate(107,108)"/>
<path d="M0 0 C1.32 0 2.64 0 4 0 C3.97905273 0.73114014 3.95810547 1.46228027 3.93652344 2.21557617 C3.85319686 5.53941001 3.80128668 8.86302384 3.75 12.1875 C3.71648438 13.33798828 3.68296875 14.48847656 3.6484375 15.67382812 C3.63554688 16.78564453 3.62265625 17.89746094 3.609375 19.04296875 C3.58842773 20.06414795 3.56748047 21.08532715 3.54589844 22.13745117 C4.11177981 25.70463346 5.73573781 27.25982665 8 30 C7.67 30.99 7.34 31.98 7 33 C4.96166576 31.7260411 2.96147874 30.38938077 1 29 C1 28.34 1 27.68 1 27 C0.34 27 -0.32 27 -1 27 C-1.02886537 22.68751391 -1.04675255 18.37505238 -1.0625 14.0625 C-1.07087891 12.83080078 -1.07925781 11.59910156 -1.08789062 10.33007812 C-1.09111328 9.16025391 -1.09433594 7.99042969 -1.09765625 6.78515625 C-1.10289307 5.70113525 -1.10812988 4.61711426 -1.11352539 3.50024414 C-1 1 -1 1 0 0 Z " fill="#9E7FAE" transform="translate(54,119)"/>
<path d="M0 0 C0.33 0 0.66 0 1 0 C1 2.64 1 5.28 1 8 C3.97 8 6.94 8 10 8 C9.67 5.36 9.34 2.72 9 0 C11.64 0 14.28 0 17 0 C17 2.97 17 5.94 17 9 C16.34 9 15.68 9 15 9 C14.7215625 9.9590625 14.7215625 9.9590625 14.4375 10.9375 C13 13 13 13 9.625 13.9375 C6 14 6 14 3.5625 12.6875 C2 11 2 11 2 9 C1.34 9 0.68 9 0 9 C0 6.03 0 3.06 0 0 Z " fill="#3684BB" transform="translate(73,97)"/>
<path d="M0 0 C0.99 0.495 0.99 0.495 2 1 C3.7895469 1.09657872 5.58285534 1.12980468 7.375 1.125 C8.33148438 1.12757812 9.28796875 1.13015625 10.2734375 1.1328125 C12.68140854 1.01551878 14.69990068 0.68675951 17 0 C17.19126428 16.68249552 16.60142352 33.33129119 16 50 C15.67 50 15.34 50 15 50 C14.97493381 45.39591857 14.95697027 40.79187846 14.94506836 36.18774414 C14.94009693 34.62751573 14.93331743 33.06729183 14.92456055 31.50708008 C14.87224584 21.93348852 15.12127106 12.54147411 16 3 C10.555 3.495 10.555 3.495 5 4 C4.01 6.97 3.02 9.94 2 13 C0 11 0 11 -0.1953125 8.3984375 C-0.17210938 7.40070312 -0.14890625 6.40296875 -0.125 5.375 C-0.10695313 4.37210938 -0.08890625 3.36921875 -0.0703125 2.3359375 C-0.04710938 1.56507812 -0.02390625 0.79421875 0 0 Z " fill="#5098CA" transform="translate(73,37)"/>
<path d="M0 0 C0.33 0 0.66 0 1 0 C1.33 2.64 1.66 5.28 2 8 C2.66 8 3.32 8 4 8 C4 7.34 4 6.68 4 6 C5.32 6.33 6.64 6.66 8 7 C8 7.66 8 8.32 8 9 C10.64738916 10.4606285 11.89448334 11 15 11 C17.6875 13.375 17.6875 13.375 20 16 C20 16.66 20 17.32 20 18 C13.13408294 16.07169989 6.58914477 13.72978855 0 11 C0 7.37 0 3.74 0 0 Z " fill="#B382B5" transform="translate(47,139)"/>
<path d="M0 0 C0.309375 0.639375 0.61875 1.27875 0.9375 1.9375 C1.8345163 3.93610821 1.8345163 3.93610821 3 5 C3.23363881 6.84891946 3.41303635 8.70488031 3.5625 10.5625 C3.68818359 12.08037109 3.68818359 12.08037109 3.81640625 13.62890625 C3.87699219 14.41136719 3.93757813 15.19382812 4 16 C3.01 16.33 2.02 16.66 1 17 C1.33 18.32 1.66 19.64 2 21 C-1.82321537 17.30011416 -3.15404392 15.52105886 -3.25 10.1875 C-3.22561502 5.97499477 -2.7039031 3.37987887 0 0 Z " fill="#381F4F" transform="translate(69,15)"/>
<path d="M0 0 C0.66 0 1.32 0 2 0 C3.1768228 23.99967356 3.10604475 47.97841699 3 72 C1.02 71.67 -0.96 71.34 -3 71 C-1.02 70.505 -1.02 70.505 1 70 C1.13404175 46.64374048 0.84034059 23.34180076 0 0 Z " fill="#B3DFF3" transform="translate(71,36)"/>
<path d="M0 0 C2.64 0 5.28 0 8 0 C8.33 2.64 8.66 5.28 9 8 C6.03 8 3.06 8 0 8 C0 5.36 0 2.72 0 0 Z " fill="#2085BE" transform="translate(74,97)"/>
<path d="M0 0 C0 0.66 0 1.32 0 2 C1.32 2 2.64 2 4 2 C4.33 2.66 4.66 3.32 5 4 C5.99 4.66 6.98 5.32 8 6 C7.34 6.66 6.68 7.32 6 8 C3.03 7.01 0.06 6.02 -3 5 C-3 4.34 -3 3.68 -3 3 C-4.32 2.67 -5.64 2.34 -7 2 C-7 2.66 -7 3.32 -7 4 C-9.31 4.33 -11.62 4.66 -14 5 C-14 4.34 -14 3.68 -14 3 C-9.62850344 -0.66641647 -5.39741292 -0.31749488 0 0 Z " fill="#371F50" transform="translate(84,10)"/>
<path d="M0 0 C0.66 0.33 1.32 0.66 2 1 C2.33 2.98 2.66 4.96 3 7 C7.62 7 12.24 7 17 7 C16.67 7.66 16.34 8.32 16 9 C11.37599857 10.54133381 6.82339068 10.64781305 2 10 C-1.1875 7.625 -1.1875 7.625 -3 5 C-3 3 -3 3 -1.5 1.375 C-1.005 0.92125 -0.51 0.4675 0 0 Z " fill="#371D52" transform="translate(73,29)"/>
<path d="M0 0 C3.74525799 3.74525799 3.68909949 7.98270909 4 13 C4.66 13 5.32 13 6 13 C6 14.98 6 16.96 6 19 C5.34 18.67 4.68 18.34 4 18 C3.67 21.3 3.34 24.6 3 28 C2.67 28 2.34 28 2 28 C1.95512451 27.2886792 1.91024902 26.5773584 1.86401367 25.84448242 C1.65281093 22.62436398 1.42041422 19.40611776 1.1875 16.1875 C1.11724609 15.06794922 1.04699219 13.94839844 0.97460938 12.79492188 C0.89404297 11.72177734 0.81347656 10.64863281 0.73046875 9.54296875 C0.66239014 8.55321045 0.59431152 7.56345215 0.52416992 6.54370117 C-0.05714833 3.72266957 -0.77716016 2.76312209 -3 1 C-2.01 0.67 -1.02 0.34 0 0 Z " fill="#9D8AB6" transform="translate(108,115)"/>
<path d="M0 0 C0.99 0 1.98 0 3 0 C3 1.65 3 3.3 3 5 C1.02 5.66 -0.96 6.32 -3 7 C-2.67 7.99 -2.34 8.98 -2 10 C-5.08809695 11.76462683 -6.23312136 12 -10 12 C-9.64950425 8.75791433 -9.43778819 7.38472296 -6.9375 5.1875 C-6.298125 4.795625 -5.65875 4.40375 -5 4 C-5 4.99 -5 5.98 -5 7 C-4.319375 6.2575 -4.319375 6.2575 -3.625 5.5 C-2 4 -2 4 0 4 C0 2.68 0 1.36 0 0 Z " fill="#AC87B7" transform="translate(115,139)"/>
<path d="M0 0 C0.8971875 0.309375 0.8971875 0.309375 1.8125 0.625 C1.8125 2.275 1.8125 3.925 1.8125 5.625 C-1.8175 6.945 -5.4475 8.265 -9.1875 9.625 C-9.5175 8.635 -9.8475 7.645 -10.1875 6.625 C-9.3625 6.17125 -8.5375 5.7175 -7.6875 5.25 C-6.45 4.445625 -6.45 4.445625 -5.1875 3.625 C-5.1875 2.965 -5.1875 2.305 -5.1875 1.625 C-2.1875 -0.375 -2.1875 -0.375 0 0 Z " fill="#7B5C95" transform="translate(63.1875,110.375)"/>
<path d="M0 0 C3.63 0.33 7.26 0.66 11 1 C11 5.62 11 10.24 11 15 C10.01 15.495 10.01 15.495 9 16 C8.92652344 14.96939453 8.92652344 14.96939453 8.8515625 13.91796875 C8.73941406 12.56638672 8.73941406 12.56638672 8.625 11.1875 C8.55539063 10.29417969 8.48578125 9.40085937 8.4140625 8.48046875 C8.13354964 5.75601501 8.13354964 5.75601501 6 3 C4.33985384 2.63557767 2.67293936 2.30027117 1 2 C0.67 1.34 0.34 0.68 0 0 Z " fill="#715492" transform="translate(102,113)"/>
<path d="M0 0 C0.99 0.495 0.99 0.495 2 1 C4.2072923 1.07092842 6.41667452 1.08415025 8.625 1.0625 C10.40777344 1.04896484 10.40777344 1.04896484 12.2265625 1.03515625 C13.59941406 1.01775391 13.59941406 1.01775391 15 1 C15.33 1.66 15.66 2.32 16 3 C10.555 3.495 10.555 3.495 5 4 C4.01 6.97 3.02 9.94 2 13 C0 11 0 11 -0.1953125 8.3984375 C-0.17210938 7.40070312 -0.14890625 6.40296875 -0.125 5.375 C-0.10695313 4.37210938 -0.08890625 3.36921875 -0.0703125 2.3359375 C-0.04710938 1.56507812 -0.02390625 0.79421875 0 0 Z " fill="#438BC0" transform="translate(73,37)"/>
<path d="M0 0 C4.29 0 8.58 0 13 0 C12.34 1.32 11.68 2.64 11 4 C7.23363485 5.04621254 5.06751372 5.57481508 1.5625 3.6875 C0 2 0 2 0 0 Z " fill="#35255B" transform="translate(75,106)"/>
<path d="M0 0 C2.475 0.99 2.475 0.99 5 2 C2.77676227 5.33485659 1.4208559 6.00549143 -2.125 7.6875 C-3.49011719 8.34298828 -3.49011719 8.34298828 -4.8828125 9.01171875 C-5.58148438 9.33785156 -6.28015625 9.66398437 -7 10 C-7 8.02 -7 6.04 -7 4 C-6.030625 3.71125 -5.06125 3.4225 -4.0625 3.125 C-0.89335797 2.35785318 -0.89335797 2.35785318 0 0 Z " fill="#351C4D" transform="translate(77,11)"/>
<path d="M0 0 C-2.31 0.33 -4.62 0.66 -7 1 C-7.33 1.99 -7.66 2.98 -8 4 C-10.98459129 5.95542188 -12.26414791 6 -16 6 C-17.68698082 5.38655243 -19.35965807 4.72904086 -21 4 C-21 3.67 -21 3.34 -21 3 C-18.25244513 2.30111323 -15.50268803 1.6156012 -12.75 0.9375 C-11.97269531 0.73833984 -11.19539063 0.53917969 -10.39453125 0.33398438 C-9.64042969 0.15029297 -8.88632812 -0.03339844 -8.109375 -0.22265625 C-7.07248535 -0.48187866 -7.07248535 -0.48187866 -6.01464844 -0.74633789 C-3.74929191 -1.03156637 -2.1631688 -0.68076195 0 0 Z " fill="#A690B7" transform="translate(68,108)"/>
<path d="M0 0 C0.33 0 0.66 0 1 0 C1 12.54 1 25.08 1 38 C-1.475 38.495 -1.475 38.495 -4 39 C-3.67 38.01 -3.34 37.02 -3 36 C-2.01 36.33 -1.02 36.66 0 37 C0 24.79 0 12.58 0 0 Z " fill="#E3CEEC" transform="translate(119,110)"/>
<path d="M0 0 C3.96 0.33 7.92 0.66 12 1 C11.67 2.32 11.34 3.64 11 5 C4.64948454 5.36637589 4.64948454 5.36637589 1.5625 3.625 C0 2 0 2 0 0 Z " fill="#7E5D9A" transform="translate(94,107)"/>
<path d="M0 0 C2.31 0 4.62 0 7 0 C6.67 0.99 6.34 1.98 6 3 C7.32 3.66 8.64 4.32 10 5 C8.23358317 5.6987693 6.46167336 6.38366583 4.6875 7.0625 C3.20830078 7.63677734 3.20830078 7.63677734 1.69921875 8.22265625 C-1 9 -1 9 -4 8 C-1 6 -1 6 3 6 C2.67 5.01 2.34 4.02 2 3 C2.33 2.34 2.66 1.68 3 1 C2.01 0.67 1.02 0.34 0 0 Z " fill="#A087B7" transform="translate(62,110)"/>
<path d="M0 0 C1.70884005 1.62339805 3.37446717 3.29319053 5 5 C5 5.66 5 6.32 5 7 C3.41375765 6.57316761 1.8310902 6.13303842 0.25 5.6875 C-0.63171875 5.44386719 -1.5134375 5.20023438 -2.421875 4.94921875 C-5.05772505 3.97874669 -6.85407326 2.78994356 -9 1 C-8.071875 1.20625 -7.14375 1.4125 -6.1875 1.625 C-2.84826598 2.36692966 -2.84826598 2.36692966 0 0 Z " fill="#CCB5D0" transform="translate(62,150)"/>
<path d="M0 0 C2.52793912 2.52793912 2.35113422 4.37214165 2.55859375 7.83203125 C1.7070772 11.13686822 -0.52637995 12.76084631 -3 15 C-2.69257097 12.68682039 -2.37892298 10.37446648 -2.0625 8.0625 C-1.88847656 6.77472656 -1.71445313 5.48695313 -1.53515625 4.16015625 C-1 1 -1 1 0 0 Z " fill="#735592" transform="translate(112,132)"/>
<path d="M0 0 C0.33 0.66 0.66 1.32 1 2 C1.721875 1.67 2.44375 1.34 3.1875 1 C6.01697427 -0.00603529 8.02895466 -0.16977402 11 0 C8.76504572 2.23495428 6.97585464 3.0024791 4.0625 4.1875 C3.18722656 4.55230469 2.31195313 4.91710937 1.41015625 5.29296875 C-1 6 -1 6 -4 5 C-2.68 3.35 -1.36 1.7 0 0 Z " fill="#CCB6D2" transform="translate(104,149)"/>
<path d="M0 0 C-0.33 0.66 -0.66 1.32 -1 2 C-4.14930893 3.04976964 -6.38814456 3.10131595 -9.6875 3.0625 C-10.68136719 3.05347656 -11.67523438 3.04445312 -12.69921875 3.03515625 C-13.83810547 3.01775391 -13.83810547 3.01775391 -15 3 C-15.33 2.34 -15.66 1.68 -16 1 C-14.27111445 0.83044205 -12.54187557 0.66448486 -10.8125 0.5 C-9.84957031 0.4071875 -8.88664062 0.314375 -7.89453125 0.21875 C-5.24812333 0.01875156 -2.65239135 -0.03879183 0 0 Z " fill="#282B65" transform="translate(90,36)"/>
<path d="M0 0 C1.2065625 0.0309375 1.2065625 0.0309375 2.4375 0.0625 C2.4375 0.7225 2.4375 1.3825 2.4375 2.0625 C1.1175 2.0625 -0.2025 2.0625 -1.5625 2.0625 C-0.9025 3.7125 -0.2425 5.3625 0.4375 7.0625 C-0.8825 7.0625 -2.2025 7.0625 -3.5625 7.0625 C-3.60504356 5.06295254 -3.60330783 3.06208364 -3.5625 1.0625 C-2.5625 0.0625 -2.5625 0.0625 0 0 Z " fill="#3084BC" transform="translate(77.5625,97.9375)"/>
<path d="M0 0 C0.66 1.32 1.32 2.64 2 4 C1.34 4.66 0.68 5.32 0 6 C-0.33 6 -0.66 6 -1 6 C-1.33 8.97 -1.66 11.94 -2 15 C-2.33 15 -2.66 15 -3 15 C-3.55353075 4.44191344 -3.55353075 4.44191344 0 0 Z " fill="#8F80A0" transform="translate(69,15)"/>
<path d="M0 0 C-0.99 0.66 -1.98 1.32 -3 2 C-2.34 2.66 -1.68 3.32 -1 4 C-8.75 3.25 -8.75 3.25 -11 1 C-7.32589215 -0.17571451 -3.83070817 -0.07366746 0 0 Z " fill="#9C85B3" transform="translate(106,112)"/>
<path d="M0 0 C0.33 0 0.66 0 1 0 C1.1953125 2.05078125 1.390625 4.1015625 1.5859375 6.15234375 C1.72257812 6.76207031 1.85921875 7.37179688 2 8 C2.66 8.33 3.32 8.66 4 9 C3.67 9.33 3.34 9.66 3 10 C3.99 10.66 4.98 11.32 6 12 C3.03 11.505 3.03 11.505 0 11 C0 7.37 0 3.74 0 0 Z " fill="#D8C1D9" transform="translate(47,139)"/>
<path d="M0 0 C0.598125 0.20625 1.19625 0.4125 1.8125 0.625 C1.4825 1.615 1.1525 2.605 0.8125 3.625 C-0.5075 3.625 -1.8275 3.625 -3.1875 3.625 C-3.1875 4.285 -3.1875 4.945 -3.1875 5.625 C-3.8475 5.295 -4.5075 4.965 -5.1875 4.625 C-5.1875 3.635 -5.1875 2.645 -5.1875 1.625 C-2.1875 -0.375 -2.1875 -0.375 0 0 Z " fill="#815D9F" transform="translate(63.1875,110.375)"/>
<path d="M0 0 C0.33 0 0.66 0 1 0 C1 4.29 1 8.58 1 13 C-0.65 13.33 -2.3 13.66 -4 14 C-3.67 13.01 -3.34 12.02 -3 11 C-2.01 11.33 -1.02 11.66 0 12 C0 8.04 0 4.08 0 0 Z " fill="#D9BFDA" transform="translate(119,135)"/>
<path d="M0 0 C1.65 1.65 3.3 3.3 5 5 C2.69 5.33 0.38 5.66 -2 6 C-2 4.68 -2 3.36 -2 2 C-1.34 2 -0.68 2 0 2 C0 1.34 0 0.68 0 0 Z " fill="#6A5190" transform="translate(74,106)"/>
<path d="M0 0 C0.556875 0.226875 1.11375 0.45375 1.6875 0.6875 C-0.29861612 2.67361612 -1.75393249 3.60204712 -4.3125 4.6875 C-5.3025 4.6875 -6.2925 4.6875 -7.3125 4.6875 C-7.3125 4.0275 -7.3125 3.3675 -7.3125 2.6875 C-3.15982824 -0.42700382 -3.15982824 -0.42700382 0 0 Z " fill="#7D6F8B" transform="translate(77.3125,10.3125)"/>
<path d="M0 0 C3.63 0.33 7.26 0.66 11 1 C10.67 1.66 10.34 2.32 10 3 C7.03 3 4.06 3 1 3 C0.67 2.01 0.34 1.02 0 0 Z " fill="#755F8F" transform="translate(94,107)"/>
<path d="M0 0 C2.96175123 0.61277612 4.38058783 1.25372522 7 3 C6.67 3.99 6.34 4.98 6 6 C3.96166576 4.7260411 1.96147874 3.38938077 0 2 C0 1.34 0 0.68 0 0 Z " fill="#9871A3" transform="translate(55,146)"/>
<path d="M0 0 C0.66 0.33 1.32 0.66 2 1 C2 4.63 2 8.26 2 12 C-0.97 11.505 -0.97 11.505 -4 11 C-2.68 10.67 -1.36 10.34 0 10 C0 6.7 0 3.4 0 0 Z " fill="#9CB3D5" transform="translate(72,96)"/>
<path d="M0 0 C3.82097239 0.53069061 6.06171403 1.49701566 9 4 C8.67 4.66 8.34 5.32 8 6 C6.68 5.34 5.36 4.68 4 4 C4 3.34 4 2.68 4 2 C2.68 2 1.36 2 0 2 C0 1.34 0 0.68 0 0 Z " fill="#827291" transform="translate(84,10)"/>
<path d="M0 0 C0.33 0 0.66 0 1 0 C1.66 2.64 2.32 5.28 3 8 C1.68 8 0.36 8 -1 8 C-1.04241723 5.66705225 -1.04092937 3.33297433 -1 1 C-0.67 0.67 -0.34 0.34 0 0 Z " fill="#8E61A1" transform="translate(54,138)"/>
<path d="M0 0 C2.475 0.495 2.475 0.495 5 1 C4.01 1.495 4.01 1.495 3 2 C3.33 3.32 3.66 4.64 4 6 C2.62437146 4.71034824 1.29233607 3.37310707 0 2 C0 1.34 0 0.68 0 0 Z " fill="#6C597D" transform="translate(67,30)"/>
</svg>
