<?xml version="1.0" encoding="UTF-8"?>
<svg version="1.1" xmlns="http://www.w3.org/2000/svg" width="500" height="500">
<path d="M0 0 C1.67414474 -0.00422974 1.67414474 -0.00422974 3.3821106 -0.00854492 C5.20423569 -0.00550858 5.20423569 -0.00550858 7.06317139 -0.00241089 C8.34976654 -0.00416321 9.63636169 -0.00591553 10.96194458 -0.00772095 C14.48227414 -0.01227173 18.00257433 -0.01051589 21.5229044 -0.00734186 C25.20598491 -0.00480826 28.88906294 -0.00715839 32.57214355 -0.00872803 C38.75242565 -0.01054588 44.93269579 -0.00815252 51.11297607 -0.00338745 C58.26636308 0.00206406 65.41972163 0.00028453 72.57310796 -0.00521386 C78.71245418 -0.00974445 84.85179182 -0.01039609 90.99113917 -0.00777519 C94.65925104 -0.00621336 98.3273495 -0.00601629 101.99546051 -0.00931168 C106.07794395 -0.01272348 110.16037786 -0.00800161 114.24285889 -0.00241089 C115.46570587 -0.00443512 116.68855286 -0.00645935 117.94845581 -0.00854492 C119.05327301 -0.0057251 120.15809021 -0.00290527 121.29638672 0 C122.74538298 0.00056554 122.74538298 0.00056554 124.22365189 0.0011425 C126.39422607 0.12698364 126.39422607 0.12698364 127.39422607 1.12698364 C127.48296742 4.22949565 127.50941063 7.30966484 127.49188232 10.41213989 C127.4897599 11.8083683 127.4897599 11.8083683 127.4875946 13.23280334 C127.4819778 16.21839555 127.46942247 19.20391394 127.45672607 22.18948364 C127.45171324 24.20836277 127.44714996 26.22724307 127.4430542 28.24612427 C127.4320029 33.20643936 127.41472703 38.16669897 127.39422607 43.12698364 C126.4889289 43.12918348 126.4889289 43.12918348 125.5653429 43.13142776 C110.87590305 43.16848937 96.18666454 43.22749542 81.4974184 43.31088638 C74.39376258 43.35068543 67.29021767 43.38307343 60.1864624 43.39797974 C53.33283501 43.41238204 46.47956378 43.44748321 39.6260891 43.49529266 C37.00942151 43.51014697 34.39270487 43.51802696 31.77599525 43.51886749 C28.11491738 43.5212266 24.45479756 43.54822341 20.79388428 43.58108521 C19.70847351 43.57605484 18.62306274 43.57102448 17.50476074 43.56584167 C13.01427171 43.62833303 10.18501234 43.67026384 6.24424744 45.94625854 C3.65352843 49.00008597 3.39422607 51.15779087 3.39422607 55.12698364 C4.61324676 58.01413789 5.52855172 59.59034324 8.19983292 61.24629784 C10.72364027 62.25918894 12.6009538 62.38797116 15.3170166 62.40545654 C16.80194862 62.42220177 16.80194862 62.42220177 18.31687927 62.43928528 C19.39653458 62.44144547 20.47618988 62.44360565 21.58856201 62.4458313 C22.73031387 62.45587692 23.87206573 62.46592255 25.04841614 62.47627258 C28.82513929 62.50718193 32.60179131 62.5241615 36.37860107 62.54104614 C38.99605932 62.55975153 41.6135115 62.57932446 44.23095703 62.59973145 C50.41795876 62.64650409 56.60497778 62.68325547 62.79206586 62.71640432 C69.83682132 62.75463645 76.88148455 62.80404373 83.92616224 62.85438848 C98.41545085 62.95768578 112.90479801 63.04547812 127.39422607 63.12698364 C127.39422607 77.31698364 127.39422607 91.50698364 127.39422607 106.12698364 C110.53845528 106.2175106 93.68289413 106.29109686 76.82694721 106.33423233 C68.99926826 106.35479916 61.17175183 106.38280623 53.34417725 106.42874146 C46.51634818 106.46879046 39.6886369 106.49445911 32.86069363 106.50333762 C29.25010819 106.50852207 25.6398595 106.52058208 22.02938271 106.54990387 C17.98458977 106.58248203 13.94037074 106.58293159 9.89544678 106.58108521 C8.71723862 106.59546631 7.53903046 106.60984741 6.32511902 106.62466431 C-8.6441411 106.55118068 -19.83177931 101.70998389 -30.88311768 91.93167114 C-32.60577393 90.12698364 -32.60577393 90.12698364 -32.60577393 88.12698364 C-33.26577393 88.12698364 -33.92577393 88.12698364 -34.60577393 88.12698364 C-43.57568003 70.80342452 -45.69745297 50.23508253 -40.60577393 31.12698364 C-38.72254267 25.29396647 -36.41678572 19.95426524 -32.60577393 15.12698364 C-31.94577393 15.12698364 -31.28577393 15.12698364 -30.60577393 15.12698364 C-30.60577393 14.46698364 -30.60577393 13.80698364 -30.60577393 13.12698364 C-29.94577393 13.12698364 -29.28577393 13.12698364 -28.60577393 13.12698364 C-28.60577393 12.46698364 -28.60577393 11.80698364 -28.60577393 11.12698364 C-20.94448889 3.6369005 -10.56907054 0.00411864 0 0 Z " fill="#2BA6D8" transform="translate(205.60577392578125,262.8730163574219)"/>
<path d="M0 0 C0.60766708 0.26977158 1.21533417 0.53954315 1.84141541 0.81748962 C3.79922637 1.68878717 5.74892887 2.57685826 7.69921875 3.46484375 C10.39577578 4.67007985 13.09629494 5.86631082 15.796875 7.0625 C16.78685989 7.50307236 16.78685989 7.50307236 17.79684448 7.95254517 C23.01861687 10.26743911 28.29075535 12.39416178 33.63671875 14.40234375 C38.87087932 16.37629581 43.85095058 18.56873371 48.8046875 21.16796875 C52.71987494 23.03967712 56.79071792 24.47255506 60.86279297 25.95898438 C68.66052634 28.82619842 76.28168151 32.09372818 83.91992188 35.35717773 C86.67851173 36.52597456 89.44643021 37.67108097 92.21484375 38.81640625 C98.31572966 41.35360468 104.35119315 44.02673639 110.38671875 46.71484375 C119.1038654 50.57825809 127.8687723 54.2567143 136.73852539 57.75390625 C144.55269472 60.84114496 152.21626473 63.98878387 159.38671875 68.40234375 C156.6757304 70.55974727 154.09105267 72.12261917 150.9140625 73.49609375 C150.0276709 73.88120117 149.1412793 74.26630859 148.22802734 74.66308594 C147.26977051 75.07204102 146.31151367 75.48099609 145.32421875 75.90234375 C143.82109131 76.55058105 143.82109131 76.55058105 142.28759766 77.21191406 C133.23256929 81.09323672 124.11206521 84.81307156 114.96459961 88.47070312 C108.33327167 91.13715147 101.87245452 94.01372431 95.46142578 97.17675781 C92.08796531 98.52142762 88.98746286 99.02213044 85.38671875 99.40234375 C85.38671875 94.78234375 85.38671875 90.16234375 85.38671875 85.40234375 C84.06671875 85.07234375 82.74671875 84.74234375 81.38671875 84.40234375 C80.01942142 83.80704405 78.6681775 83.17398527 77.33203125 82.51171875 C76.55964111 82.13426514 75.78725098 81.75681152 74.99145508 81.36791992 C74.17314209 80.96677979 73.3548291 80.56563965 72.51171875 80.15234375 C51.69743584 70.15462155 30.76299755 65.37155396 7.82421875 63.27734375 C6.87861084 63.18952637 5.93300293 63.10170898 4.95874023 63.01123047 C-32.47225374 59.80978908 -69.78239867 67.34518633 -102.96459961 84.66577148 C-104.61328125 85.40234375 -104.61328125 85.40234375 -106.61328125 85.40234375 C-106.61328125 90.02234375 -106.61328125 94.64234375 -106.61328125 99.40234375 C-127.74964489 93.26598011 -127.74964489 93.26598011 -131.61328125 89.40234375 C-131.7020226 86.29983174 -131.7284658 83.21966255 -131.7109375 80.1171875 C-131.70952255 79.18636856 -131.7081076 78.25554962 -131.70664978 77.29652405 C-131.70103297 74.31093184 -131.68847765 71.32541346 -131.67578125 68.33984375 C-131.67076841 66.32096462 -131.66620513 64.30208432 -131.66210938 62.28320312 C-131.65105808 57.32288803 -131.6337822 52.36262843 -131.61328125 47.40234375 C-129.25517943 46.28759783 -126.8956248 45.17612076 -124.53515625 44.06640625 C-123.54684814 43.59859741 -123.54684814 43.59859741 -122.53857422 43.12133789 C-117.33260743 40.67843958 -112.0367314 38.58809611 -106.6484375 36.578125 C-103.80378366 35.47614198 -101.06142361 34.2608234 -98.30078125 32.96484375 C-93.79339556 30.86271504 -89.21825452 29.10561913 -84.55078125 27.40234375 C-79.2442066 25.46223931 -74.22920701 23.31819458 -69.22436523 20.67895508 C-66.50549652 19.34964563 -63.77493831 18.28245126 -60.9375 17.23046875 C-52.38610014 13.9809007 -44.00920074 10.34349954 -35.61328125 6.71484375 C-33.25582304 5.69839818 -30.89805851 4.68266913 -28.54003906 3.66752625 C-27.08717703 3.04180912 -25.6346805 2.41524238 -24.18261719 1.78767395 C-22.32825336 0.98772143 -20.47088496 0.19474369 -18.61328125 -0.59765625 C-17.77410156 -0.99573486 -16.93492187 -1.39381348 -16.0703125 -1.80395508 C-10.14747992 -3.71722303 -5.51351635 -2.49379844 0 0 Z " fill="#2AA5D7" transform="translate(258.61328125,125.59765625)"/>
<path d="M0 0 C0.79422363 0.12890625 1.58844727 0.2578125 2.40673828 0.390625 C20.12961997 3.37727797 36.13796049 8.56274494 52 17 C52 25.58 52 34.16 52 43 C45.92235229 43.01401855 45.92235229 43.01401855 39.72192383 43.02832031 C26.30684209 43.06214844 12.89192109 43.1175309 -0.523036 43.18390274 C-8.65329987 43.22360562 -16.78346818 43.25604233 -24.91381836 43.27099609 C-32.00544478 43.28405823 -39.09686015 43.31113823 -46.18836766 43.35461307 C-49.93859494 43.37712611 -53.68856292 43.39291685 -57.43886375 43.39188385 C-60.9791501 43.39113115 -64.51886547 43.40932212 -68.05900383 43.44116783 C-69.95656244 43.45355809 -71.85421748 43.44665055 -73.75180054 43.43885803 C-88.34754749 43.61358583 -100.35268615 48.54788363 -112.1171875 56.828125 C-114 58 -114 58 -116 58 C-116 44.47 -116 30.94 -116 17 C-99.70405629 8.85202815 -99.70405629 8.85202815 -92.8125 6.8125 C-92.0184375 6.57112305 -91.224375 6.32974609 -90.40625 6.08105469 C-61.29090562 -2.52745855 -30.02249973 -4.90489674 0 0 Z " fill="#18619E" transform="translate(280,201)"/>
<path d="M0 0 C-0.00079559 0.67794113 -0.00159119 1.35588226 -0.00241089 2.05436707 C-0.00484885 9.11133393 0.03432428 16.16720018 0.09765625 23.22387695 C0.1158233 25.85728847 0.12338351 28.49079542 0.12011719 31.12426758 C0.11726241 34.91042007 0.15255871 38.69459051 0.1953125 42.48046875 C0.18621857 43.65772018 0.17712463 44.83497162 0.16775513 46.04789734 C0.07710664 51.77592818 0.07710664 51.77592818 2.36355591 56.80471802 C4.1611616 58.32466515 4.1611616 58.32466515 7 60 C7.7265625 62.28125 7.7265625 62.28125 7.625 64.5 C7.61726563 65.2321875 7.60953125 65.964375 7.6015625 66.71875 C7 69 7 69 5.0390625 71.26953125 C2.42575715 74.76895738 2.11092844 77.9653892 1.75 82.1875 C1.63398437 83.24420898 1.63398437 83.24420898 1.515625 84.32226562 C0.60435797 93.31289126 0.97421948 102.09618992 1.9375 111.0625 C2.60147732 117.58123567 3.17149827 124.08065401 3.5 130.625 C3.85318126 137.61413915 4.52637049 144.54430195 5.33984375 151.49462891 C5.85686207 156.03322721 6.09088476 160.43152588 6 165 C4.13879837 166.0661252 2.26029266 167.10207965 0.375 168.125 C-1.19121094 168.99511719 -1.19121094 168.99511719 -2.7890625 169.8828125 C-7.50135672 171.52236986 -10.00097831 169.91593971 -14.3359375 167.9296875 C-15.00882812 167.58164062 -15.68171875 167.23359375 -16.375 166.875 C-17.06335938 166.52179688 -17.75171875 166.16859375 -18.4609375 165.8046875 C-18.96882813 165.53914062 -19.47671875 165.27359375 -20 165 C-20.35772836 158.74637835 -19.92102302 152.9542705 -18.69140625 146.80859375 C-18.41484488 145.38881552 -18.13993331 143.96871517 -17.86645508 142.54833984 C-17.72350006 141.80646423 -17.58054504 141.06458862 -17.43325806 140.30023193 C-16.22914625 133.90742196 -15.1829784 127.487365 -14.15527344 121.06420898 C-13.88518807 119.39700129 -13.60784413 117.73095319 -13.32324219 116.06616211 C-11.33601751 104.41805611 -10.83395018 93.75753427 -12 82 C-12.0633252 81.04254883 -12.12665039 80.08509766 -12.19189453 79.09863281 C-12.48837506 74.73694999 -12.48837506 74.73694999 -14.5625 71 C-16.62696821 68.1276964 -16.53451387 65.66512727 -16.42578125 62.19140625 C-15.73781998 58.65061477 -13.81180402 57.09250532 -11 55 C-9.515 54.505 -9.515 54.505 -8 54 C-8.01474869 53.37803741 -8.02949738 52.75607483 -8.04469299 52.11526489 C-8.19676299 45.65949393 -8.34159931 39.20358981 -8.48217773 32.74755859 C-8.53564745 30.3360581 -8.59098054 27.92459819 -8.64819336 25.51318359 C-8.72996565 22.05314894 -8.80510219 18.59302512 -8.87890625 15.1328125 C-8.90594131 14.04944611 -8.93297638 12.96607971 -8.96083069 11.84988403 C-8.98092697 10.8489975 -9.00102325 9.84811096 -9.02172852 8.81689453 C-9.04171402 7.93309113 -9.06169952 7.04928772 -9.08229065 6.13870239 C-9 4 -9 4 -8 2 C-5.09740189 0.6250851 -3.23861295 0 0 0 Z " fill="#17609A" transform="translate(124,175)"/>
<path d="M0 0 C-0.00119339 1.0169117 -0.00119339 1.0169117 -0.00241089 2.05436707 C-0.00484885 9.11133393 0.03432428 16.16720018 0.09765625 23.22387695 C0.1158233 25.85728847 0.12338351 28.49079542 0.12011719 31.12426758 C0.11726241 34.91042007 0.15255871 38.69459051 0.1953125 42.48046875 C0.18621857 43.65772018 0.17712463 44.83497162 0.16775513 46.04789734 C0.07710664 51.77592818 0.07710664 51.77592818 2.36355591 56.80471802 C4.1611616 58.32466515 4.1611616 58.32466515 7 60 C7.7265625 62.28125 7.7265625 62.28125 7.625 64.5 C7.61726563 65.2321875 7.60953125 65.964375 7.6015625 66.71875 C7 69 7 69 5.0390625 71.30859375 C2.51820834 74.63592807 2.11080648 77.5272139 1.75 81.5625 C1.67410645 82.28687256 1.59821289 83.01124512 1.52001953 83.75756836 C0.67357662 92.81796235 0.83083257 101.91194977 1 111 C0.01 111.495 0.01 111.495 -1 112 C-2.14982602 107.90996141 -2.11094256 103.96822949 -2.0625 99.75 C-2.05798828 99.00492187 -2.05347656 98.25984375 -2.04882812 97.4921875 C-2.03709246 95.6614236 -2.0191585 93.83070127 -2 92 C-2.680625 92.99 -2.680625 92.99 -3.375 94 C-3.91125 94.66 -4.4475 95.32 -5 96 C-5.66 96 -6.32 96 -7 96 C-7 95.34 -7 94.68 -7 94 C-7.66 94 -8.32 94 -9 94 C-9.33 95.32 -9.66 96.64 -10 98 C-10.11275269 96.89543457 -10.11275269 96.89543457 -10.2277832 95.76855469 C-10.57626854 92.42752065 -10.94415804 89.08890072 -11.3125 85.75 C-11.43044922 84.59113281 -11.54839844 83.43226563 -11.66992188 82.23828125 C-11.85844727 80.56572266 -11.85844727 80.56572266 -12.05078125 78.859375 C-12.21574097 77.31975098 -12.21574097 77.31975098 -12.3840332 75.74902344 C-13.05141234 72.77054978 -14.07471799 71.31858824 -16 69 C-16.66082073 65.92167678 -16.60008572 63.08851459 -16 60 C-13.47031526 56.71824682 -11.92268669 55.30756223 -8 54 C-8.01474869 53.37803741 -8.02949738 52.75607483 -8.04469299 52.11526489 C-8.19676299 45.65949393 -8.34159931 39.20358981 -8.48217773 32.74755859 C-8.53564745 30.3360581 -8.59098054 27.92459819 -8.64819336 25.51318359 C-8.72996565 22.05314894 -8.80510219 18.59302512 -8.87890625 15.1328125 C-8.90594131 14.04944611 -8.93297638 12.96607971 -8.96083069 11.84988403 C-8.98092697 10.8489975 -9.00102325 9.84811096 -9.02172852 8.81689453 C-9.04171402 7.93309113 -9.06169952 7.04928772 -9.08229065 6.13870239 C-9 4 -9 4 -8 2 C-5.09740189 0.6250851 -3.23861295 0 0 0 Z " fill="#1B6399" transform="translate(124,175)"/>
<path d="M0 0 C0 9.24 0 18.48 0 28 C-4.37363841 27.27106026 -7.1215131 26.71613376 -11.00390625 25.0390625 C-11.90947266 24.64976562 -12.81503906 24.26046875 -13.74804688 23.859375 C-14.67681641 23.45203125 -15.60558594 23.0446875 -16.5625 22.625 C-17.96145508 22.02558594 -17.96145508 22.02558594 -19.38867188 21.4140625 C-23.76772464 19.51636893 -27.99519431 17.62471409 -32 15 C-31.67 14.01 -31.34 13.02 -31 12 C-28.38012267 10.74078789 -25.83328394 9.6559193 -23.125 8.625 C-21.5722144 8.01349902 -20.02013055 7.40021312 -18.46875 6.78515625 C-17.70691406 6.48496582 -16.94507812 6.18477539 -16.16015625 5.87548828 C-12.40267914 4.3526229 -8.75334847 2.6057142 -5.1015625 0.84765625 C-3 0 -3 0 0 0 Z " fill="#2DA2D3" transform="translate(112,180)"/>
<path d="M0 0 C0.66 0 1.32 0 2 0 C2 7.92 2 15.84 2 24 C-14.85577079 24.09052695 -31.71133194 24.16411321 -48.56727886 24.20724869 C-56.39495781 24.22781552 -64.22247424 24.25582259 -72.05004883 24.30175781 C-78.87787789 24.34180682 -85.70558917 24.36747547 -92.53353244 24.37635398 C-96.14411789 24.38153843 -99.75436657 24.39359844 -103.36484337 24.42292023 C-107.40963631 24.45549839 -111.45385534 24.45594795 -115.4987793 24.45410156 C-116.67698746 24.46848267 -117.85519562 24.48286377 -119.06910706 24.49768066 C-129.91357752 24.4444455 -139.86475462 21.94853188 -149 16 C-147 15 -147 15 -143.6875 16 C-140.11660586 16.96837807 -138.46091977 17.04876357 -135 16 C-135 16.66 -135 17.32 -135 18 C-131.94336275 20.9478883 -129.71940119 21.3787385 -125.54571533 21.39872742 C-123.88408607 21.41753464 -123.88408607 21.41753464 -122.18888855 21.4367218 C-120.97832291 21.43528671 -119.76775726 21.43385162 -118.52050781 21.43237305 C-117.24220596 21.4425647 -115.96390411 21.45275635 -114.64686584 21.46325684 C-111.14512567 21.4908395 -107.64354788 21.50011299 -104.14171314 21.50611091 C-100.48078282 21.51549135 -96.81997396 21.54169444 -93.15911865 21.56611633 C-86.22837114 21.6097942 -79.29764718 21.6383332 -72.36680388 21.66143972 C-64.47561854 21.68848453 -56.58455531 21.73239645 -48.69345713 21.77772844 C-32.46236434 21.87059313 -16.23125404 21.94166715 0 22 C0 14.74 0 7.48 0 0 Z " fill="#6CBAD5" transform="translate(331,345)"/>
<path d="M0 0 C17.19338969 -0.02332856 34.38677447 -0.04097896 51.58017635 -0.05181217 C59.562815 -0.05697522 67.54544383 -0.06401809 75.52807617 -0.07543945 C82.48323799 -0.08538602 89.43839269 -0.09185336 96.39356142 -0.09408849 C100.07851927 -0.09539565 103.76345678 -0.09848179 107.44840813 -0.10573006 C111.55537708 -0.1137434 115.66231037 -0.11399116 119.76928711 -0.11352539 C120.99998932 -0.11712067 122.23069153 -0.12071594 123.49868774 -0.12442017 C124.61073074 -0.1230455 125.72277374 -0.12167084 126.86851501 -0.12025452 C127.84100661 -0.12117631 128.81349821 -0.1220981 129.81545925 -0.12304783 C132 0 132 0 133 1 C133.08874135 4.10251201 133.11518455 7.1826812 133.09765625 10.28515625 C133.09553383 11.68138466 133.09553383 11.68138466 133.09336853 13.1058197 C133.08775172 16.09141191 133.0751964 19.07693029 133.0625 22.0625 C133.05748716 24.08137913 133.05292388 26.10025943 133.04882812 28.11914062 C133.03777683 33.07945572 133.02050095 38.03971532 133 43 C132.01 42.67 131.02 42.34 130 42 C130.33 28.8 130.66 15.6 131 2 C127.57625 2.01160156 124.1525 2.02320313 120.625 2.03515625 C91.18198601 2.11005386 61.7523046 1.93455031 32.3125 1.5 C31.50204224 1.48804218 30.69158447 1.47608437 29.85656738 1.46376419 C19.9042636 1.31627723 9.95208319 1.16171152 0 1 C0 0.67 0 0.34 0 0 Z " fill="#87CADD" transform="translate(200,263)"/>
<path d="M0 0 C0.33 0 0.66 0 1 0 C1.01213028 1.04569656 1.01213028 1.04569656 1.02450562 2.11251831 C1.10237717 8.67545302 1.18964489 15.23818718 1.28752708 21.80085564 C1.33751898 25.17497504 1.38384837 28.54906269 1.421875 31.92333984 C1.46737328 35.80064629 1.52539279 39.67759052 1.5859375 43.5546875 C1.59748871 44.76929657 1.60903992 45.98390564 1.62094116 47.23532104 C1.64081085 48.35633209 1.66068054 49.47734314 1.68115234 50.63232422 C1.69447601 51.62271698 1.70779968 52.61310974 1.7215271 53.6335144 C1.77427446 56.18735695 1.77427446 56.18735695 4 58 C3.67 58.99 3.34 59.98 3 61 C1.68 60.67 0.36 60.34 -1 60 C-1 60.66 -1 61.32 -1 62 C-3 63.625 -3 63.625 -5 65 C-5.66 64.67 -6.32 64.34 -7 64 C-6.01 61.36 -5.02 58.72 -4 56 C-4.33 55.67 -4.66 55.34 -5 55 C-5.17305489 52.23436899 -5.28425409 49.49150452 -5.3515625 46.72265625 C-5.37471527 45.88214218 -5.39786804 45.04162811 -5.42172241 44.17564392 C-5.46947454 42.38758623 -5.51469446 40.59945944 -5.55761719 38.8112793 C-5.62395778 36.10501558 -5.70203562 33.39927293 -5.78125 30.69335938 C-6.00399419 22.37400866 -6.15509164 14.26666332 -5 6 C-4.67 6 -4.34 6 -4 6 C-3.67 16.56 -3.34 27.12 -3 38 C-1.06831158 36.06831158 -1.76963906 32.46371143 -1.71875 29.82421875 C-1.70034058 29.10265091 -1.68193115 28.38108307 -1.66296387 27.63764954 C-1.60404619 25.32101826 -1.55134074 23.00431084 -1.5 20.6875 C-1.43221634 17.64958827 -1.35844368 14.61190417 -1.28125 11.57421875 C-1.26767456 10.87616623 -1.25409912 10.17811371 -1.2401123 9.45890808 C-1.15660932 6.17646099 -0.99333022 3.14336733 0 0 Z " fill="#155789" transform="translate(122,176)"/>
<path d="M0 0 C0 18.15 0 36.3 0 55 C-0.33 55 -0.66 55 -1 55 C-1.33 38.5 -1.66 22 -2 5 C-2.21004748 15.76999286 -2.21004748 15.76999286 -2.38793945 26.54052734 C-2.42021944 27.88902584 -2.45359175 29.23749883 -2.48828125 30.5859375 C-2.49764709 31.63938354 -2.49764709 31.63938354 -2.50720215 32.71411133 C-2.56762695 34.74365234 -2.56762695 34.74365234 -3 38 C-3.99 38.66 -4.98 39.32 -6 40 C-6.33 32.41 -6.66 24.82 -7 17 C-7.33 17 -7.66 17 -8 17 C-8.19601608 15.25093341 -8.38147403 13.50068154 -8.5625 11.75 C-8.66691406 10.77546875 -8.77132812 9.8009375 -8.87890625 8.796875 C-8.99111878 6.20512763 -8.94528302 4.40418802 -8 2 C-5.10888212 0.47835901 -3.28176588 0 0 0 Z " fill="#5495BD" transform="translate(124,175)"/>
<path d="M0 0 C0.66 0.33 1.32 0.66 2 1 C0.41641358 4.16717283 -0.45263699 5.73268318 -3.6875 7.3125 C-4.450625 7.539375 -5.21375 7.76625 -6 8 C-5.938125 9.1446875 -5.938125 9.1446875 -5.875 10.3125 C-6 13 -6 13 -8 16 C-8.99 16 -9.98 16 -11 16 C-11.12375 16.598125 -11.2475 17.19625 -11.375 17.8125 C-12 20 -12 20 -14 23 C-14.41516798 25.01658904 -14.41516798 25.01658904 -14.5625 27.125 C-15 31 -15 31 -16 32 C-16.15825258 33.99782126 -16.25119171 36.00088834 -16.31640625 38.00390625 C-16.35830078 39.21884766 -16.40019531 40.43378906 -16.44335938 41.68554688 C-16.48267578 42.96494141 -16.52199219 44.24433594 -16.5625 45.5625 C-16.60568359 46.84576172 -16.64886719 48.12902344 -16.69335938 49.45117188 C-16.799848 52.63399853 -16.90185962 55.81690674 -17 59 C-16.34 59 -15.68 59 -15 59 C-14.96261719 59.56847656 -14.92523438 60.13695312 -14.88671875 60.72265625 C-14.43021378 66.08435193 -13.36510918 70.1669508 -11 75 C-11.99 75.99 -11.99 75.99 -13 77 C-13.82790894 75.19448642 -14.63648343 73.38010418 -15.4375 71.5625 C-15.88996094 70.55316406 -16.34242188 69.54382813 -16.80859375 68.50390625 C-22.35087991 52.2041335 -20.46983277 29.26444088 -13 14 C-11.78495861 11.79883806 -10.5669709 9.98482981 -9 8 C-8.34 8 -7.68 8 -7 8 C-7 7.34 -7 6.68 -7 6 C-6.34 6 -5.68 6 -5 6 C-5 5.34 -5 4.68 -5 4 C-3.37373596 2.61767557 -1.7074998 1.28062485 0 0 Z " fill="#4EACCE" transform="translate(182,270)"/>
<path d="M0 0 C0.86992584 0.16265854 1.73985168 0.32531708 2.63613892 0.49290466 C5.76715397 0.96489893 8.66050834 1.12067758 11.82177734 1.11352539 C12.94248627 1.11344986 14.06319519 1.11337433 15.21786499 1.11329651 C16.41182892 1.10813522 17.60579285 1.10297394 18.8359375 1.09765625 C20.68767075 1.09553383 20.68767075 1.09553383 22.57681274 1.09336853 C26.50956675 1.08778272 30.44226328 1.07523275 34.375 1.0625 C37.04557208 1.05691912 39.71614363 1.05292058 42.38671875 1.04882812 C48.92449869 1.03781792 55.46224524 1.02109385 62 1 C62 1.33 62 1.66 62 2 C58.69663445 2.74556774 55.70683237 3.10479758 52.32421875 3.02734375 C51.42630615 3.01348633 50.52839355 2.99962891 49.60327148 2.98535156 C48.64106689 2.96956055 47.6788623 2.95376953 46.6875 2.9375 C24.04334992 2.78604617 0.60165574 4.59324684 -21.07421875 11.58203125 C-23 12 -23 12 -26 11 C-15.93841306 7.15081638 -15.93841306 7.15081638 -11.5 6.4375 C-8.93633356 6.23562024 -8.93633356 6.23562024 -7.4375 4.4375 C-6 3 -6 3 -3.3125 2.8125 C-2.549375 2.874375 -1.78625 2.93625 -1 3 C-0.67 2.01 -0.34 1.02 0 0 Z " fill="#56AECF" transform="translate(209,185)"/>
<path d="M0 0 C0.33 0 0.66 0 1 0 C1.1431032 3.93267389 1.28550028 7.86537265 1.42724609 11.7980957 C1.49930096 13.79314504 1.57191337 15.78817421 1.64453125 17.78320312 C1.68964844 19.03681641 1.73476562 20.29042969 1.78125 21.58203125 C1.8440918 23.31803589 1.8440918 23.31803589 1.90820312 25.08911133 C2.08716879 30.76413152 2.08716879 30.76413152 0.9375 33.875 C-0.05860903 37.19536344 0.17902432 38.71609729 1 42 C0.67 42.66 0.34 43.32 0 44 C-0.33 43.67 -0.66 43.34 -1 43 C-2.14814997 45.29629994 -2.30769809 47.07698086 -2.5625 49.625 C-2.64628906 50.44226563 -2.73007813 51.25953125 -2.81640625 52.1015625 C-2.87699219 52.72804687 -2.93757813 53.35453125 -3 54 C-3.33 54 -3.66 54 -4 54 C-4.03738281 53.39671875 -4.07476562 52.7934375 -4.11328125 52.171875 C-4.36614052 47.24220633 -4.36614052 47.24220633 -6.5625 43 C-8.62696821 40.1276964 -8.53451387 37.66512727 -8.42578125 34.19140625 C-7.73781998 30.65061477 -5.81180402 29.09250532 -3 27 C-2.01 26.67 -1.02 26.34 0 26 C0 17.42 0 8.84 0 0 Z " fill="#2F73A7" transform="translate(116,203)"/>
<path d="M0 0 C7.05023311 1.84506101 13.75305363 4.17611162 20 8 C20.33 8.66 20.66 9.32 21 10 C17.19587767 11.73732468 13.38730391 13.46435287 9.57421875 15.18188477 C8.27703852 15.76792298 6.98112934 16.35678295 5.68652344 16.94848633 C3.82812196 17.79728915 1.96542302 18.63592207 0.1015625 19.47265625 C-1.01911621 19.98062744 -2.13979492 20.48859863 -3.29443359 21.01196289 C-4.18727051 21.33801514 -5.08010742 21.66406738 -6 22 C-6.66 21.67 -7.32 21.34 -8 21 C-7.67 20.34 -7.34 19.68 -7 19 C-5.35 19 -3.7 19 -2 19 C-2 18.34 -2 17.68 -2 17 C-0.02 16.67 1.96 16.34 4 16 C4 15.34 4 14.68 4 14 C4.99 14 5.98 14 7 14 C6.67 12.35 6.34 10.7 6 9 C6.66 9 7.32 9 8 9 C8.33 7.68 8.66 6.36 9 5 C6.03 4.505 6.03 4.505 3 4 C3 3.34 3 2.68 3 2 C2.01 2 1.02 2 0 2 C0 1.34 0 0.68 0 0 Z " fill="#2CA4D4" transform="translate(397,185)"/>
<path d="M0 0 C-1.97750368 2.52681026 -2.78548996 2.97373346 -6.0625 3.375 C-7.031875 3.58125 -8.00125 3.7875 -9 4 C-10.31068333 6.44288628 -10.31068333 6.44288628 -11 9 C-11.99 9.495 -11.99 9.495 -13 10 C-13.65772428 13.02934491 -13.65772428 13.02934491 -14 16 C-18.47959418 14.85814266 -22.14522751 13.56984833 -26 11 C-25 8 -25 8 -23.3894043 7.04858398 C-22.70789307 6.78376221 -22.02638184 6.51894043 -21.32421875 6.24609375 C-20.57849609 5.94896484 -19.83277344 5.65183594 -19.06445312 5.34570312 C-18.28005859 5.04599609 -17.49566406 4.74628906 -16.6875 4.4375 C-15.14926458 3.83323905 -13.61148878 3.22780651 -12.07421875 2.62109375 C-11.38932373 2.3573999 -10.70442871 2.09370605 -9.9987793 1.82202148 C-7.94888992 1.01738966 -7.94888992 1.01738966 -5.88598633 -0.12475586 C-3.51984091 -1.22283111 -2.4053538 -0.85905493 0 0 Z " fill="#38A5D0" transform="translate(106,184)"/>
<path d="M0 0 C38.94 0 77.88 0 118 0 C117.34 1.32 116.68 2.64 116 4 C116 3.34 116 2.68 116 2 C77.72 1.67 39.44 1.34 0 1 C0 0.67 0 0.34 0 0 Z " fill="#30A2CC" transform="translate(213,327)"/>
<path d="M0 0 C0.66 1.32 1.32 2.64 2 4 C2.99 4.33 3.98 4.66 5 5 C5 5.66 5 6.32 5 7 C5.598125 7.12375 6.19625 7.2475 6.8125 7.375 C9 8 9 8 12 10 C11.67 10.33 11.34 10.66 11 11 C12.98 11.66 14.96 12.32 17 13 C17 12.67 17 12.34 17 12 C18.98 12 20.96 12 23 12 C19.76956899 14.84277929 16.39031237 17.11614583 12 17 C7.78707087 15.36017402 3.9044504 13.26958201 0 11 C0 7.37 0 3.74 0 0 Z " fill="#2D6B9B" transform="translate(104,329)"/>
<path d="M0 0 C1.32 0.33 2.64 0.66 4 1 C3.67 12.55 3.34 24.1 3 36 C2.01 36.495 2.01 36.495 1 37 C0.07191062 28.74973532 -0.1230629 20.6096172 -0.0625 12.3125 C-0.05798828 11.12205078 -0.05347656 9.93160156 -0.04882812 8.70507812 C-0.03717452 5.80333064 -0.02081559 2.90169374 0 0 Z " fill="#19598C" transform="translate(165,218)"/>
<path d="M0 0 C0.33 0 0.66 0 1 0 C1 8.91 1 17.82 1 27 C1.66 27 2.32 27 3 27 C3.03738281 27.56847656 3.07476562 28.13695312 3.11328125 28.72265625 C3.56978622 34.08435193 4.63489082 38.1669508 7 43 C6.34 43.66 5.68 44.32 5 45 C4.17209106 43.19448642 3.36351657 41.38010418 2.5625 39.5625 C2.11003906 38.55316406 1.65757812 37.54382813 1.19140625 36.50390625 C-1.32166013 29.11301921 -1.15977123 21.42409914 -1.125 13.6875 C-1.12886719 12.80771484 -1.13273438 11.92792969 -1.13671875 11.02148438 C-1.13542969 10.17263672 -1.13414062 9.32378906 -1.1328125 8.44921875 C-1.13168457 7.68955811 -1.13055664 6.92989746 -1.12939453 6.1472168 C-0.99902457 3.98381343 -0.59391783 2.07989199 0 0 Z " fill="#59A8C3" transform="translate(164,302)"/>
<path d="M0 0 C2.97 0 5.94 0 9 0 C6.82007649 2.17992351 5.25473576 2.84921568 2.4140625 3.98828125 C1.48803223 4.36283447 0.56200195 4.7373877 -0.39208984 5.12329102 C-1.86863037 5.71194946 -1.86863037 5.71194946 -3.375 6.3125 C-5.37510995 7.11951922 -7.37511073 7.92680906 -9.375 8.734375 C-10.34179688 9.12302734 -11.30859375 9.51167969 -12.3046875 9.91210938 C-17.22174935 11.89674955 -22.11096088 13.94742873 -27 16 C-27.33 15.01 -27.66 14.02 -28 13 C-26.02 13 -24.04 13 -22 13 C-22 12.01 -22 11.02 -22 10 C-20.41701974 9.5196682 -18.83360022 9.04078388 -17.25 8.5625 C-15.92742187 8.16224609 -15.92742187 8.16224609 -14.578125 7.75390625 C-12.39434165 7.11531506 -10.21164502 6.53224167 -8 6 C-8 5.34 -8 4.68 -8 4 C-6.35 4 -4.7 4 -3 4 C-3 3.34 -3 2.68 -3 2 C-2.01 2 -1.02 2 0 2 C0 1.34 0 0.68 0 0 Z " fill="#5AB2D2" transform="translate(379,207)"/>
<path d="M0 0 C2.32891212 3.49336818 2.23551143 4.86007865 2.1953125 8.98046875 C2.18886719 10.14384766 2.18242188 11.30722656 2.17578125 12.50585938 C2.15902344 13.72080078 2.14226562 14.93574219 2.125 16.1875 C2.11597656 17.41404297 2.10695313 18.64058594 2.09765625 19.90429688 C2.07406017 22.93639295 2.04113841 25.96809938 2 29 C1.34 29.33 0.68 29.66 0 30 C-0.80515134 27.16517967 -1.12826729 24.64289163 -1.1328125 21.69921875 C-1.13474609 20.48008789 -1.13474609 20.48008789 -1.13671875 19.23632812 C-1.13091797 17.9746582 -1.13091797 17.9746582 -1.125 16.6875 C-1.12886719 15.85798828 -1.13273437 15.02847656 -1.13671875 14.17382812 C-1.12909367 9.34334094 -0.80986449 4.76277452 0 0 Z " fill="#437BA5" transform="translate(123,257)"/>
<path d="M0 0 C0 9.24 0 18.48 0 28 C-5.2627046 27.12288257 -8.33121544 26.1476409 -13 24 C-13 23.67 -13 23.34 -13 23 C-7.61443879 22.61531706 -6.28732917 23.35633541 -1 26 C-1 18.08 -1 10.16 -1 2 C-2.32 1.67 -3.64 1.34 -5 1 C-3 0 -3 0 0 0 Z " fill="#53A4C3" transform="translate(112,180)"/>
<path d="M0 0 C-0.33 0.99 -0.66 1.98 -1 3 C-2.65 2.34 -4.3 1.68 -6 1 C-6.33 1.99 -6.66 2.98 -7 4 C-8.0725 4.12375 -9.145 4.2475 -10.25 4.375 C-13.84092264 4.77761368 -13.84092264 4.77761368 -16.1875 6.125 C-18.52586807 7.25386735 -19.57390589 6.71326162 -22 6 C-20.06374902 5.01836578 -18.12595461 4.03977546 -16.1875 3.0625 C-15.10855469 2.51722656 -14.02960938 1.97195312 -12.91796875 1.41015625 C-8.02889187 -0.95257033 -5.32484673 -0.90421926 0 0 Z " fill="#2F6F9F" transform="translate(188,211)"/>
<path d="M0 0 C7.00930008 -0.10638061 13.99886853 -0.03170509 21 0.3125 C22.8253125 0.39951172 22.8253125 0.39951172 24.6875 0.48828125 C28.16218957 1.02505523 30.18673648 1.92734942 33 4 C33 4.33 33 4.66 33 5 C27.25 5.125 27.25 5.125 25 4 C16.72930996 2.41992787 8.39345377 1.57468692 0 1 C0 0.67 0 0.34 0 0 Z " fill="#77BDD6" transform="translate(266,188)"/>
<path d="M0 0 C0.59167969 0.15597656 1.18335938 0.31195313 1.79296875 0.47265625 C7.87320033 1.98683598 7.87320033 1.98683598 14 1 C14 1.66 14 2.32 14 3 C15.62553283 4.70680947 17.29115995 6.37660195 19 8 C11.91953003 7.39740681 4.89309555 5.41956785 0 0 Z " fill="#34A4D1" transform="translate(182,360)"/>
<path d="M0 0 C0.33 0 0.66 0 1 0 C1.33794471 3.02038089 1.67048433 6.04119756 2 9.0625 C2.09539062 9.91005859 2.19078125 10.75761719 2.2890625 11.63085938 C2.81056158 16.45472589 3.10532727 21.14836264 3 26 C2.01 26 1.02 26 0 26 C0.01160156 25.32453125 0.02320312 24.6490625 0.03515625 23.953125 C0.04417969 23.06109375 0.05320312 22.1690625 0.0625 21.25 C0.07990234 19.92742187 0.07990234 19.92742187 0.09765625 18.578125 C0.00755035 16.19932926 -0.40030134 14.28722279 -1 12 C-1.27067418 7.92396535 -1.303617 3.910851 0 0 Z " fill="#5A8BAC" transform="translate(127,314)"/>
<path d="M0 0 C1.32 0 2.64 0 4 0 C4 8.25 4 16.5 4 25 C0.04 25 -3.92 25 -8 25 C-5 23 -5 23 3 22 C3 15.4 3 8.8 3 2 C2.01 1.67 1.02 1.34 0 1 C0 0.67 0 0.34 0 0 Z " fill="#1C5989" transform="translate(327,218)"/>
<path d="M0 0 C0.33 0.66 0.66 1.32 1 2 C3.30965848 3.05352843 5.6429774 4.05719096 8 5 C8 5.99 8 6.98 8 8 C2.79361899 6.36866728 -2.24581009 4.7336592 -7 2 C-7.33 1.34 -7.66 0.68 -8 0 C-4.69693408 -1.10102197 -3.28414305 -0.95067299 0 0 Z " fill="#52AECF" transform="translate(135,214)"/>
<path d="M0 0 C1.98 0 3.96 0 6 0 C2.31050803 2.45966131 -1.5558454 4.2430361 -5.5625 6.125 C-6.73329102 6.68380859 -6.73329102 6.68380859 -7.92773438 7.25390625 C-8.67474609 7.60582031 -9.42175781 7.95773438 -10.19140625 8.3203125 C-10.87404541 8.64273926 -11.55668457 8.96516602 -12.26000977 9.29736328 C-14 10 -14 10 -16 10 C-16 9.34 -16 8.68 -16 8 C-15.01 8 -14.02 8 -13 8 C-13.33 7.01 -13.66 6.02 -14 5 C-12.5459375 4.5359375 -12.5459375 4.5359375 -11.0625 4.0625 C-8.15934208 3.30476658 -8.15934208 3.30476658 -7 2 C-4.66702567 1.95907063 -2.33294775 1.95758277 0 2 C0 1.34 0 0.68 0 0 Z " fill="#70BAD7" transform="translate(172,199)"/>
<path d="M0 0 C2.64 0 5.28 0 8 0 C4.16940357 2.55373095 0.13069225 4.30892364 -4.0625 6.1875 C-4.89072266 6.56841797 -5.71894531 6.94933594 -6.57226562 7.34179688 C-7.76045898 7.87450195 -7.76045898 7.87450195 -8.97265625 8.41796875 C-9.69718994 8.74563232 -10.42172363 9.0732959 -11.16821289 9.41088867 C-13 10 -13 10 -15 9 C-14.67 8.34 -14.34 7.68 -14 7 C-12.35 7 -10.7 7 -9 7 C-9 6.34 -9 5.68 -9 5 C-7.02 4.67 -5.04 4.34 -3 4 C-3 3.34 -3 2.68 -3 2 C-2.01 2 -1.02 2 0 2 C0 1.34 0 0.68 0 0 Z " fill="#68B9D3" transform="translate(404,197)"/>
<path d="M0 0 C0 0.66 0 1.32 0 2 C-9.9 1.34 -19.8 0.68 -30 0 C-30 -0.33 -30 -0.66 -30 -1 C-27.81274749 -1.16988369 -25.62518299 -1.33575269 -23.4375 -1.5 C-21.61025391 -1.63921875 -21.61025391 -1.63921875 -19.74609375 -1.78125 C-12.73274149 -2.19078882 -6.76264631 -1.75327867 0 0 Z " fill="#2DA1CB" transform="translate(296,188)"/>
<path d="M0 0 C7.24997422 -0.28307925 13.90961228 0.49025965 21 2 C21 2.33 21 2.66 21 3 C20.2575 3.144375 19.515 3.28875 18.75 3.4375 C16.1251281 3.91724749 16.1251281 3.91724749 14.1484375 4.6171875 C11.36680635 5.1128236 9.55816171 4.5324957 6.875 3.6875 C6.00617188 3.42324219 5.13734375 3.15898437 4.2421875 2.88671875 C2 2 2 2 0 0 Z " fill="#235F94" transform="translate(270,201)"/>
<path d="M0 0 C1.34235058 2.2652166 2.00952606 3.64753565 1.9375 6.3125 C2.02486867 10.0693526 3.40475146 12.61009686 5 16 C4.34 16.66 3.68 17.32 3 18 C2.15557119 16.10908264 1.32488413 14.21202485 0.5 12.3125 C0.0359375 11.25675781 -0.428125 10.20101563 -0.90625 9.11328125 C-1.94950801 6.14372184 -2.23065301 4.10804937 -2 1 C-1.34 0.67 -0.68 0.34 0 0 Z " fill="#56AFCF" transform="translate(166,329)"/>
<path d="M0 0 C0.33 0 0.66 0 1 0 C1.24414062 2.97851562 1.24414062 2.97851562 1.48828125 5.95703125 C1.82077451 8.10460767 1.82077451 8.10460767 3.5625 9.375 C5 11 5 11 5.07421875 13.91796875 C4.94660156 14.99691406 4.81898437 16.07585937 4.6875 17.1875 C4.50767578 18.81751953 4.50767578 18.81751953 4.32421875 20.48046875 C4.16373047 21.72763672 4.16373047 21.72763672 4 23 C3.67 23 3.34 23 3 23 C2.96261719 22.39671875 2.92523438 21.7934375 2.88671875 21.171875 C2.63385948 16.24220633 2.63385948 16.24220633 0.4375 12 C-1.9066085 8.73863165 -1.4108977 4.89562627 -1 1 C-0.67 0.67 -0.34 0.34 0 0 Z " fill="#396A93" transform="translate(109,234)"/>
<path d="M0 0 C-3.17765206 2.11843471 -6.44035056 3.57918894 -9.9375 5.0625 C-10.55818359 5.33126953 -11.17886719 5.60003906 -11.81835938 5.87695312 C-14.8410675 7.16780079 -17.77260136 8.34481381 -21 9 C-21 8.01 -21 7.02 -21 6 C-19.02 6 -17.04 6 -15 6 C-15 5.01 -15 4.02 -15 3 C-13.44033782 2.491217 -11.87710759 1.99336531 -10.3125 1.5 C-9.44238281 1.2215625 -8.57226562 0.943125 -7.67578125 0.65625 C-5.00608323 0.00149195 -2.73603316 -0.11831495 0 0 Z " fill="#69B8D3" transform="translate(372,214)"/>
<path d="M0 0 C0.33 0 0.66 0 1 0 C1.37568058 5.50998185 1.37568058 5.50998185 -0.4375 7.875 C-2.79194779 11.077049 -2.67272147 14.0726577 -3 18 C-3.99 18.33 -4.98 18.66 -6 19 C-5.55230183 12.95607475 -4.49961114 4.49961114 0 0 Z " fill="#67B5D0" transform="translate(170,283)"/>
<path d="M0 0 C1.10982595 3.45371211 0.96027918 6.34457585 0.625 9.9375 C0.53476563 10.95714844 0.44453125 11.97679687 0.3515625 13.02734375 C0.03198804 15.72952332 -0.46075134 18.3354772 -1 21 C-1.0370279 22.6662553 -1.04759962 24.33401319 -1 26 C-1.99 26.33 -2.98 26.66 -4 27 C-2.93170365 17.94221076 -1.78270374 8.95144855 0 0 Z " fill="#5585A7" transform="translate(109,302)"/>
<path d="M0 0 C0.33 0 0.66 0 1 0 C2.19107603 6.9975717 2.79378744 14.04907366 1 21 C0.67 21 0.34 21 0 21 C-0.98600987 16.89162554 -1.13389122 13.03138166 -1.125 8.8125 C-1.12757812 7.58144531 -1.13015625 6.35039062 -1.1328125 5.08203125 C-1 2 -1 2 0 0 Z " fill="#497DA3" transform="translate(125,290)"/>
<path d="M0 0 C0.99 0.33 1.98 0.66 3 1 C2.67 12.55 2.34 24.1 2 36 C1.67 36 1.34 36 1 36 C0.67 24.12 0.34 12.24 0 0 Z " fill="#07518C" transform="translate(166,218)"/>
<path d="M0 0 C2.31 0 4.62 0 7 0 C7 0.66 7 1.32 7 2 C7.66 2.33 8.32 2.66 9 3 C9.37890625 5.21484375 9.37890625 5.21484375 9.5625 7.9375 C9.76801323 11.60675121 9.76801323 11.60675121 11 15 C13.01669827 16.13350534 13.01669827 16.13350534 15 17 C12.69 17.33 10.38 17.66 8 18 C8 13.38 8 8.76 8 4 C6.68 3.67 5.36 3.34 4 3 C1.75 1.4375 1.75 1.4375 0 0 Z " fill="#71BCD7" transform="translate(336,207)"/>
<path d="M0 0 C-6.21754848 4.72533684 -10.94798912 7.38342909 -19 7 C-15.7141754 4.24832423 -12.36372513 2.78066201 -8.375 1.25 C-7.22773438 0.80140625 -6.08046875 0.3528125 -4.8984375 -0.109375 C-2 -1 -2 -1 0 0 Z " fill="#6AB8D2" transform="translate(207,141)"/>
<path d="M0 0 C-2.67360368 3.4599577 -5.84953067 4.06972239 -10 5 C-12.9375 5.125 -12.9375 5.125 -15 5 C-15 5.66 -15 6.32 -15 7 C-16.65 7 -18.3 7 -20 7 C-16.87065923 4.44236572 -13.71432957 2.82859007 -10 1.25 C-8.96875 0.80140625 -7.9375 0.3528125 -6.875 -0.109375 C-3.97128737 -1.00889467 -2.77603319 -1.0943977 0 0 Z " fill="#6AB9D3" transform="translate(106,184)"/>
<path d="M0 0 C0 0.66 0 1.32 0 2 C-2.06152389 2.64894237 -4.12426258 3.2940264 -6.1875 3.9375 C-7.33605469 4.29714844 -8.48460937 4.65679687 -9.66796875 5.02734375 C-12.44353006 5.83756036 -15.15687548 6.49134307 -18 7 C-18 6.01 -18 5.02 -18 4 C-16.865625 3.87625 -15.73125 3.7525 -14.5625 3.625 C-13.386875 3.41875 -12.21125 3.2125 -11 3 C-10.67 2.34 -10.34 1.68 -10 1 C-6.56187949 0.23597322 -3.53471921 0 0 0 Z " fill="#4F80A4" transform="translate(196,243)"/>
<path d="M0 0 C-0.33 1.32 -0.66 2.64 -1 4 C-1.66 4 -2.32 4 -3 4 C-4.21693876 6.43387753 -4.31959896 8.41838846 -4.5625 11.125 C-4.68818359 12.49011719 -4.68818359 12.49011719 -4.81640625 13.8828125 C-4.87699219 14.58148438 -4.93757813 15.28015625 -5 16 C-5.33 16 -5.66 16 -6 16 C-6.19601608 14.25093341 -6.38147403 12.50068154 -6.5625 10.75 C-6.66691406 9.77546875 -6.77132812 8.8009375 -6.87890625 7.796875 C-6.99133925 5.20003537 -7.00376885 3.391493 -6 1 C-3 0 -3 0 0 0 Z " fill="#547F9F" transform="translate(122,176)"/>
<path d="M0 0 C0 -0.33 0 -0.66 0 -1 C1.98 -1 3.96 -1 6 -1 C2.61451316 1.97922842 -0.56097309 3.23465053 -5 4 C-8.4375 2.625 -8.4375 2.625 -11 1 C-7.2297564 -1.56376565 -4.32597804 -0.83191885 0 0 Z " fill="#578CAE" transform="translate(121,342)"/>
<path d="M0 0 C0.33 0 0.66 0 1 0 C1.33 3.3 1.66 6.6 2 10 C2.33 9.34 2.66 8.68 3 8 C5.97 8.495 5.97 8.495 9 9 C6.03368051 11.47193291 3.48763093 13.25618453 0 15 C0 10.05 0 5.1 0 0 Z " fill="#467698" transform="translate(165,244)"/>
<path d="M0 0 C5.06998019 0.65419099 9.41990777 2.8546409 14 5 C11.77810176 7.22189824 9.91517292 7.92598892 7 9 C6.67 7.35 6.34 5.7 6 4 C4.68 3.67 3.36 3.34 2 3 C2 2.34 2 1.68 2 1 C1.34 0.67 0.68 0.34 0 0 Z " fill="#67B9DA" transform="translate(352,166)"/>
<path d="M0 0 C2.2532847 0.76214041 4.50227458 1.53426967 6.75 2.3125 C7.38421875 2.52583984 8.0184375 2.73917969 8.671875 2.95898438 C12.24172663 4.20471385 15.12702164 5.52604641 18 8 C14.40316664 9.19894445 13.89571431 8.74361288 10.625 7.125 C7.41090274 5.60446459 4.55991621 4.45934403 1 4 C0.67 2.68 0.34 1.36 0 0 Z " fill="#6BB9D1" transform="translate(286,138)"/>
<path d="M0 0 C0.99 0.66 1.98 1.32 3 2 C2.67 5.63 2.34 9.26 2 13 C1.34 12.67 0.68 12.34 0 12 C-0.33 12.99 -0.66 13.98 -1 15 C-1.38063221 12.6739143 -1.71269945 10.33944736 -2 8 C-1.67 7.67 -1.34 7.34 -1 7 C-0.63239269 4.67182036 -0.29758419 2.3381615 0 0 Z " fill="#155B91" transform="translate(122,284)"/>
<path d="M0 0 C3.94949704 0.62816498 7.19892028 1.8645529 10.8125 3.5625 C12.27623047 4.24505859 12.27623047 4.24505859 13.76953125 4.94140625 C14.87361328 5.46541016 14.87361328 5.46541016 16 6 C12.25 8 12.25 8 10 8 C9.34 7.01 8.68 6.02 8 5 C6.04614933 4.21011855 6.04614933 4.21011855 3.875 3.8125 C2.59625 3.544375 1.3175 3.27625 0 3 C0 2.01 0 1.02 0 0 Z " fill="#5587AC" transform="translate(315,211)"/>
<path d="M0 0 C0 0.66 0 1.32 0 2 C-7.35793733 2.91160286 -14.58982977 3.11459026 -22 3 C-22 2.67 -22 2.34 -22 2 C-14.57359158 0.39118425 -7.59498961 -0.26442904 0 0 Z " fill="#608AAB" transform="translate(227,201)"/>
<path d="M0 0 C0.66 0.66 1.32 1.32 2 2 C1.34773438 2.12117188 0.69546875 2.24234375 0.0234375 2.3671875 C-4.78646342 3.28943989 -9.39025465 4.30167277 -14 6 C-14.66 5.34 -15.32 4.68 -16 4 C-10.58648931 1.25028028 -6.22926403 -0.76276702 0 0 Z " fill="#75BBD1" transform="translate(252,123)"/>
<path d="M0 0 C4.38889325 0.66498383 7.9811485 2.18757677 12 4 C12 4.66 12 5.32 12 6 C7.545 6.495 7.545 6.495 3 7 C3 6.01 3 5.02 3 4 C2.67 3.01 2.34 2.02 2 1 C1.34 0.67 0.68 0.34 0 0 Z " fill="#5AB2CE" transform="translate(254,125)"/>
<path d="M0 0 C0.99 0 1.98 0 3 0 C2.89300781 0.58007812 2.78601563 1.16015625 2.67578125 1.7578125 C1.84918137 7.14404399 1.94337569 10.23166607 5 15 C4.01 15.495 4.01 15.495 3 16 C1.51171875 14.91796875 1.51171875 14.91796875 0 13 C-0.29296875 9.86328125 -0.29296875 9.86328125 -0.1875 6.3125 C-0.16042969 5.13300781 -0.13335937 3.95351563 -0.10546875 2.73828125 C-0.07066406 1.83464844 -0.03585938 0.93101562 0 0 Z " fill="#61AFCF" transform="translate(207,309)"/>
<path d="M0 0 C-0.33 0.99 -0.66 1.98 -1 3 C-8.425 4.485 -8.425 4.485 -16 6 C-14.61769577 3.23539154 -13.08867771 3.00879139 -10.25 1.875 C-9.38890625 1.52179688 -8.5278125 1.16859375 -7.640625 0.8046875 C-4.94136502 -0.01786806 -2.80298055 -0.15123996 0 0 Z " fill="#68B5CF" transform="translate(200,264)"/>
<path d="M0 0 C3.32310483 1.16757737 5.83361132 2.14948857 8 5 C8 5.99 8 6.98 8 8 C6.35 8 4.7 8 3 8 C1.92474806 5.34771188 0.90543849 2.71631546 0 0 Z " fill="#3E7AA2" transform="translate(123,230)"/>
<path d="M0 0 C1.65 0.33 3.3 0.66 5 1 C4.67 2.65 4.34 4.3 4 6 C1.69 5.67 -0.62 5.34 -3 5 C-2.01 3.35 -1.02 1.7 0 0 Z " fill="#23699E" transform="translate(310,209)"/>
<path d="M0 0 C4.82360189 -0.19294408 8.49646738 0.24252386 13 2 C13 1.34 13 0.68 13 0 C13.66 0 14.32 0 15 0 C15 0.99 15 1.98 15 3 C13.359375 4.1171875 13.359375 4.1171875 11 5 C8.203125 4.3203125 8.203125 4.3203125 5.25 3.125 C4.26515625 2.73570312 3.2803125 2.34640625 2.265625 1.9453125 C1.14414062 1.47738281 1.14414062 1.47738281 0 1 C0 0.67 0 0.34 0 0 Z " fill="#61B4D7" transform="translate(310,196)"/>
<path d="M0 0 C1.64846769 0.44876616 3.29373455 0.90930488 4.9375 1.375 C5.85402344 1.63023437 6.77054687 1.88546875 7.71484375 2.1484375 C10 3 10 3 11 5 C8.03 5 5.06 5 2 5 C2 4.34 2 3.68 2 3 C0.35 3 -1.3 3 -3 3 C-2.01 2.67 -1.02 2.34 0 2 C0 1.34 0 0.68 0 0 Z " fill="#56B3D1" transform="translate(304,146)"/>
<path d="M0 0 C4.95 0 9.9 0 15 0 C11.09224671 1.95387664 9.00312413 2.34762234 4.75 2.625 C3.13351563 2.73714844 3.13351563 2.73714844 1.484375 2.8515625 C0.66453125 2.90054688 -0.1553125 2.94953125 -1 3 C-0.67 2.01 -0.34 1.02 0 0 Z " fill="#72BCD4" transform="translate(204,189)"/>
<path d="M0 0 C-0.99 0.33 -1.98 0.66 -3 1 C-3 5.62 -3 10.24 -3 15 C-3.33 15 -3.66 15 -4 15 C-4.04898438 14.07316406 -4.09796875 13.14632812 -4.1484375 12.19140625 C-4.22320312 10.99386719 -4.29796875 9.79632813 -4.375 8.5625 C-4.44460937 7.36753906 -4.51421875 6.17257813 -4.5859375 4.94140625 C-4.72257813 3.97074219 -4.85921875 3.00007812 -5 2 C-5.66 1.67 -6.32 1.34 -7 1 C-3.375 -1.125 -3.375 -1.125 0 0 Z " fill="#5BB7D6" transform="translate(155,210)"/>
<path d="M0 0 C0.33 0.99 0.66 1.98 1 3 C0.38125 3.7425 -0.2375 4.485 -0.875 5.25 C-3.41935822 8.54269888 -3.67915589 10.90923765 -4 15 C-4.33 15 -4.66 15 -5 15 C-5 11.7 -5 8.4 -5 5 C-4.34 5 -3.68 5 -3 5 C-2.87625 4.360625 -2.7525 3.72125 -2.625 3.0625 C-2.41875 2.381875 -2.2125 1.70125 -2 1 C-1.34 0.67 -0.68 0.34 0 0 Z " fill="#5E8DAF" transform="translate(130,241)"/>
<path d="M0 0 C-1.26941497 3.91402949 -2.51167694 5.79072873 -6 8 C-6.1875 5.125 -6.1875 5.125 -6 2 C-3 0 -3 0 0 0 Z " fill="#2F6592" transform="translate(116,230)"/>
<path d="M0 0 C5.21979128 -0.1799928 9.07262981 0.02905192 14 2 C14 2.33 14 2.66 14 3 C9.71 3 5.42 3 1 3 C0.67 2.01 0.34 1.02 0 0 Z " fill="#135289" transform="translate(283,204)"/>
<path d="M0 0 C0.97066406 -0.00515625 1.94132812 -0.0103125 2.94140625 -0.015625 C5.4375 0.25 5.4375 0.25 7.4375 2.25 C5.70935839 2.44672365 3.97990803 2.63196799 2.25 2.8125 C1.28707031 2.91691406 0.32414062 3.02132812 -0.66796875 3.12890625 C-3.50483377 3.24758751 -5.81673671 2.92765639 -8.5625 2.25 C-5.19898987 0.00765991 -3.93939944 -0.02098215 0 0 Z " fill="#13568C" transform="translate(264.5625,200.75)"/>
<path d="M0 0 C0.66 0 1.32 0 2 0 C2 1.32 2 2.64 2 4 C2.66 4.33 3.32 4.66 4 5 C3.34 5 2.68 5 2 5 C0.85185003 7.29629994 0.69230191 9.07698086 0.4375 11.625 C0.35371094 12.44226563 0.26992187 13.25953125 0.18359375 14.1015625 C0.12300781 14.72804688 0.06242187 15.35453125 0 16 C-0.33 16 -0.66 16 -1 16 C-1.02712153 14.083412 -1.04645097 12.1667127 -1.0625 10.25 C-1.07410156 9.18265625 -1.08570312 8.1153125 -1.09765625 7.015625 C-1.01510087 4.46631499 -0.74617558 2.42066409 0 0 Z " fill="#165B8C" transform="translate(115,269)"/>
<path d="M0 0 C2.51005664 3.76508495 2.0258295 6.39461609 1.625 10.6875 C1.56828125 11.38939453 1.5115625 12.09128906 1.453125 12.81445312 C1.31195359 14.54380285 1.15728041 16.27204088 1 18 C0.67 18 0.34 18 0 18 C-0.73030908 11.78675502 -1.23180249 6.15901243 0 0 Z " fill="#4C82A9" transform="translate(123,257)"/>
<path d="M0 0 C1.58624235 0.42683239 3.1689098 0.86696158 4.75 1.3125 C6.07257813 1.67794922 6.07257813 1.67794922 7.421875 2.05078125 C10.05772505 3.02125331 11.85407326 4.21005644 14 6 C10.59068103 7.13643966 9.99664544 6.86747764 6.8125 5.5625 C6.09707031 5.27503906 5.38164062 4.98757812 4.64453125 4.69140625 C3.83048828 4.34916016 3.83048828 4.34916016 3 4 C3 3.34 3 2.68 3 2 C2.01 2 1.02 2 0 2 C0 1.34 0 0.68 0 0 Z " fill="#71BCD4" transform="translate(397,185)"/>
<path d="M0 0 C4.47238653 1.41807378 8.71146306 3.11304374 13 5 C13 5.66 13 6.32 13 7 C9.44219804 6.39009109 6.3171411 5.4216319 3 4 C3 3.34 3 2.68 3 2 C2.01 1.67 1.02 1.34 0 1 C0 0.67 0 0.34 0 0 Z " fill="#78C0D8" transform="translate(267,130)"/>
<path d="M0 0 C2.375 0.3125 2.375 0.3125 5 1 C5.66 1.99 6.32 2.98 7 4 C7.99 4.33 8.98 4.66 10 5 C9.67 5.99 9.34 6.98 9 8 C5.01824456 5.89851796 2.64960955 3.63094642 0 0 Z " fill="#64B5D0" transform="translate(173,352)"/>
<path d="M0 0 C0.66 0.33 1.32 0.66 2 1 C0.19587357 4.26460973 -0.83394693 5.88929795 -4 8 C-4.99 8 -5.98 8 -7 8 C-7 7.34 -7 6.68 -7 6 C-6.34 6 -5.68 6 -5 6 C-5 5.34 -5 4.68 -5 4 C-3.37373596 2.61767557 -1.7074998 1.28062485 0 0 Z " fill="#66B1CF" transform="translate(182,270)"/>
<path d="M0 0 C0.66 0 1.32 0 2 0 C2 1.98 2 3.96 2 6 C-3.53846154 5.38461538 -3.53846154 5.38461538 -5.875 3.4375 C-6.24625 2.963125 -6.6175 2.48875 -7 2 C-4.69 2.33 -2.38 2.66 0 3 C0 2.01 0 1.02 0 0 Z " fill="#44A5C7" transform="translate(149,218)"/>
<path d="M0 0 C5.3503559 0.57021934 10.67787852 1.20734361 16 2 C16 2.33 16 2.66 16 3 C14.08404032 3.08133791 12.16708068 3.13934367 10.25 3.1875 C8.64898437 3.23970703 8.64898437 3.23970703 7.015625 3.29296875 C3.69972145 2.97082786 2.40983327 2.22851086 0 0 Z " fill="#6E99B5" transform="translate(275,201)"/>
<path d="M0 0 C2.02045442 0.60183749 4.02111039 1.27306096 6 2 C6.33 2.66 6.66 3.32 7 4 C5.02 4.66 3.04 5.32 1 6 C0.67 4.02 0.34 2.04 0 0 Z " fill="#6EB8CE" transform="translate(411,191)"/>
<path d="M0 0 C0.99 0.33 1.98 0.66 3 1 C2.67 4.96 2.34 8.92 2 13 C1.67 13 1.34 13 1 13 C0.83052421 11.58366664 0.66454493 10.16691467 0.5 8.75 C0.4071875 7.96109375 0.314375 7.1721875 0.21875 6.359375 C0 4 0 4 0 0 Z " fill="#719EBD" transform="translate(111,244)"/>
<path d="M0 0 C3.06393013 -0.25532751 4.63233212 -0.21861333 7.3125 1.375 C7.869375 1.91125 8.42625 2.4475 9 3 C9 3.66 9 4.32 9 5 C6.03 4.01 3.06 3.02 0 2 C0 1.34 0 0.68 0 0 Z " fill="#69BAD4" transform="translate(134,217)"/>
<path d="M0 0 C0.33 1.32 0.66 2.64 1 4 C-1.35171131 3.40138258 -3.6859378 2.73075648 -6 2 C-6.33 1.34 -6.66 0.68 -7 0 C-3.86650268 -1.04449911 -3.01031744 -0.93423645 0 0 Z " fill="#5CB2D5" transform="translate(91,196)"/>
<path d="M0 0 C-0.33 0.99 -0.66 1.98 -1 3 C-4.3 3.33 -7.6 3.66 -11 4 C-9.71264403 1.42528807 -8.71510189 1.29583343 -6.0625 0.3125 C-5.35222656 0.04050781 -4.64195312 -0.23148438 -3.91015625 -0.51171875 C-2 -1 -2 -1 0 0 Z " fill="#72BED7" transform="translate(166,158)"/>
<path d="M0 0 C0 0.66 0 1.32 0 2 C-5.45769231 5.10096154 -5.45769231 5.10096154 -8.203125 4.58984375 C-8.79609375 4.39519531 -9.3890625 4.20054687 -10 4 C-8.71086513 3.32845067 -7.41859796 2.66291141 -6.125 2 C-5.40570313 1.62875 -4.68640625 1.2575 -3.9453125 0.875 C-2 0 -2 0 0 0 Z " fill="#5789A9" transform="translate(176,213)"/>
<path d="M0 0 C0.99 0 1.98 0 3 0 C3.33 0.99 3.66 1.98 4 3 C2.25 5.0625 2.25 5.0625 0 7 C-2.25 6.75 -2.25 6.75 -4 6 C-3.01 6 -2.02 6 -1 6 C0.10836423 4.11683841 0.10836423 4.11683841 1 2 C0.67 1.34 0.34 0.68 0 0 Z " fill="#3FABD7" transform="translate(104,182)"/>
<path d="M0 0 C1.46067199 0.45082469 2.91848032 0.91093537 4.375 1.375 C5.18710937 1.63023437 5.99921875 1.88546875 6.8359375 2.1484375 C9 3 9 3 11 5 C7.7 4.34 4.4 3.68 1 3 C0.67 2.01 0.34 1.02 0 0 Z " fill="#6CB9D4" transform="translate(340,161)"/>
<path d="M0 0 C0.99 0 1.98 0 3 0 C3.66 2.31 4.32 4.62 5 7 C4.01 7 3.02 7 2 7 C1.34 4.69 0.68 2.38 0 0 Z " fill="#68B5D2" transform="translate(166,339)"/>
<path d="M0 0 C0.33 0 0.66 0 1 0 C1 1.98 1 3.96 1 6 C-0.98 6.99 -0.98 6.99 -3 8 C-2.45276317 4.62537285 -1.9451 2.91765 0 0 Z " fill="#74BEDA" transform="translate(170,283)"/>
<path d="M0 0 C1.2065625 0.0309375 1.2065625 0.0309375 2.4375 0.0625 C2.086875 0.68125 1.73625 1.3 1.375 1.9375 C0.9109375 2.989375 0.9109375 2.989375 0.4375 4.0625 C0.7675 4.7225 1.0975 5.3825 1.4375 6.0625 C0.1175 6.3925 -1.2025 6.7225 -2.5625 7.0625 C-2.35625 6.44375 -2.15 5.825 -1.9375 5.1875 C-1.81375 4.48625 -1.69 3.785 -1.5625 3.0625 C-2.2225 2.4025 -2.8825 1.7425 -3.5625 1.0625 C-2.5625 0.0625 -2.5625 0.0625 0 0 Z " fill="#10578F" transform="translate(307.5625,208.9375)"/>
<path d="M0 0 C-0.33 3.96 -0.66 7.92 -1 12 C-1.33 12 -1.66 12 -2 12 C-2 8.7 -2 5.4 -2 2 C-2.99 1.67 -3.98 1.34 -5 1 C-2 0 -2 0 0 0 Z " fill="#34A1CB" transform="translate(347,208)"/>
<path d="M0 0 C-2.35277269 2.72426311 -4.62496331 3.8141763 -8 5 C-7.8125 3.125 -7.8125 3.125 -7 1 C-2.66666667 -1.33333333 -2.66666667 -1.33333333 0 0 Z " fill="#72B9D1" transform="translate(135,171)"/>
<path d="M0 0 C1.27875 -0.061875 2.5575 -0.12375 3.875 -0.1875 C4.95394531 -0.23970703 4.95394531 -0.23970703 6.0546875 -0.29296875 C6.69664062 -0.19628906 7.33859375 -0.09960938 8 0 C8.66 0.99 9.32 1.98 10 3 C3.375 2.25 3.375 2.25 0 0 Z " fill="#72BED5" transform="translate(191,365)"/>
<path d="M0 0 C1.98 0 3.96 0 6 0 C6 0.66 6 1.32 6 2 C1.545 2.495 1.545 2.495 -3 3 C-2.01 2.67 -1.02 2.34 0 2 C0 1.34 0 0.68 0 0 Z " fill="#4EAAC9" transform="translate(371,211)"/>
<path d="M0 0 C0.598125 0.350625 1.19625 0.70125 1.8125 1.0625 C1.1525 1.7225 0.4925 2.3825 -0.1875 3.0625 C-1.5075 3.0625 -2.8275 3.0625 -4.1875 3.0625 C-4.5175 2.0725 -4.8475 1.0825 -5.1875 0.0625 C-2.1875 -0.9375 -2.1875 -0.9375 0 0 Z " fill="#43AAD6" transform="translate(282.1875,136.9375)"/>
<path d="M0 0 C6.75 1.625 6.75 1.625 9 5 C5.22454612 3.90931332 2.52956528 3.0916909 0 0 Z " fill="#6DBFD5" transform="translate(182,360)"/>
<path d="M0 0 C0.66 0.33 1.32 0.66 2 1 C2.1875 3.375 2.1875 3.375 2 6 C1.01 6.66 0.02 7.32 -1 8 C-0.67 5.36 -0.34 2.72 0 0 Z " fill="#0C5891" transform="translate(112,295)"/>
<path d="M0 0 C5.75 0.75 5.75 0.75 8 3 C6.02 3.33 4.04 3.66 2 4 C1.34 2.68 0.68 1.36 0 0 Z " fill="#437599" transform="translate(323,215)"/>
<path d="M0 0 C5.625 -0.25 5.625 -0.25 9 2 C9 2.66 9 3.32 9 4 C6.03 3.01 3.06 2.02 0 1 C0 0.67 0 0.34 0 0 Z " fill="#6AB8D1" transform="translate(99,203)"/>
<path d="M0 0 C2.97 0 5.94 0 9 0 C9 0.66 9 1.32 9 2 C3.375 3.125 3.375 3.125 0 2 C0 1.34 0 0.68 0 0 Z " fill="#125589" transform="translate(227,201)"/>
</svg>
