<?xml version="1.0" encoding="UTF-8"?>
<svg version="1.1" xmlns="http://www.w3.org/2000/svg" width="923" height="270">
<path d="M0 0 C9.24 0 18.48 0 28 0 C28 49.83 28 99.66 28 151 C18.76 151 9.52 151 0 151 C0 146.38 0 141.76 0 137 C-0.66 137 -1.32 137 -2 137 C-2.37318359 137.86625 -2.37318359 137.86625 -2.75390625 138.75 C-6.47745492 145.47339822 -13.51864303 150.10784253 -20.71484375 152.375 C-32.65656515 154.64690895 -44.62874816 154.03466748 -55.1953125 147.6796875 C-66.99723788 139.4677014 -73.07766633 127.84159393 -76 114 C-79.23235002 95.41398741 -77.56421269 75.04435986 -67.58984375 58.6875 C-60.86988702 49.22580093 -52.24453307 43.68491912 -41 41 C-30.55978869 39.92679523 -20.43532311 40.16439691 -11 45 C-7.37 47.97 -3.74 50.94 0 54 C0 36.18 0 18.36 0 0 Z M-42 73 C-47.23552811 80.36852105 -47.36413843 88.01729485 -47.375 96.75 C-47.39949219 97.7709375 -47.42398438 98.791875 -47.44921875 99.84375 C-47.47965542 107.83844877 -46.4472282 115.96092575 -41.08740234 122.2409668 C-35.96402112 127.15301348 -31.17726923 128.74376861 -24.125 129.3125 C-17.31626898 129.06227584 -11.87964021 127.39990397 -7.125 122.375 C-3.84879735 118.25699528 -2.1879066 114.0897229 -1 109 C-0.81695312 108.22140625 -0.63390625 107.4428125 -0.4453125 106.640625 C1.37975104 95.81831839 0.33383818 84.32279655 -4.8125 74.5625 C-9.25014176 69.36411965 -13.8405682 65.43634366 -20.8671875 64.69921875 C-30.0850649 64.66330494 -35.73178619 65.68708389 -42 73 Z " fill="#20A8D8" transform="translate(254,53)"/>
<path d="M0 0 C31.68 0 63.36 0 96 0 C96 8.25 96 16.5 96 25 C73.89 25 51.78 25 29 25 C29 35.23 29 45.46 29 56 C48.14 56 67.28 56 87 56 C89.02113021 64.08452083 87.39637625 72.67609885 87 81 C67.86 81 48.72 81 29 81 C29 93.21 29 105.42 29 118 C51.44 118 73.88 118 97 118 C97 126.25 97 134.5 97 143 C64.99 143 32.98 143 0 143 C0 95.81 0 48.62 0 0 Z " fill="#21A7D7" transform="translate(64,61)"/>
<path d="M0 0 C9.24 0 18.48 0 28 0 C29 1 29 1 29.12025452 3.20826721 C29.1169236 4.67053993 29.1169236 4.67053993 29.11352539 6.16235352 C29.11344986 7.26341934 29.11337433 8.36448517 29.11329651 9.49891663 C29.10813522 10.6968132 29.10297394 11.89470978 29.09765625 13.12890625 C29.0962413 14.34827377 29.09482635 15.5676413 29.09336853 16.82395935 C29.08774967 20.7368307 29.07519396 24.64964581 29.0625 28.5625 C29.05748743 31.20768147 29.0529241 33.85286383 29.04882812 36.49804688 C29.03777411 42.99871726 29.02101764 49.49935461 29 56 C29.53920578 55.4463829 30.07841156 54.89276581 30.63395691 54.32237244 C31.34667252 53.59844803 32.05938812 52.87452362 32.79370117 52.12866211 C33.49790695 51.41004501 34.20211273 50.69142792 34.92765808 49.95103455 C37.50020364 47.52907647 40.10743118 46.02993099 43.3125 44.5625 C44.31925781 44.08941406 45.32601562 43.61632812 46.36328125 43.12890625 C55.35408788 39.27950904 67.93952477 39.51027686 77.1875 42.5625 C85.95786132 46.48608269 90.52696716 52.05393432 94.7734375 60.546875 C98.49441769 71.02250077 98.26723357 81.73665871 98.1953125 92.69921875 C98.1915746 94.38743419 98.1887313 96.07565183 98.18673706 97.76387024 C98.17916175 102.1713172 98.15956691 106.57862884 98.1373291 110.98602295 C98.11673797 115.49782481 98.10770719 120.0096489 98.09765625 124.52148438 C98.07631423 133.34772476 98.04118309 142.17382987 98 151 C88.43 151 78.86 151 69 151 C68.98541748 148.83050781 68.97083496 146.66101563 68.95581055 144.42578125 C68.90534892 137.23719373 68.83873372 130.0488202 68.76428509 122.86044312 C68.71966274 118.50447459 68.68038897 114.14859784 68.65356445 109.79248047 C68.62744992 105.58423004 68.58699067 101.37633432 68.53681374 97.16830444 C68.52019991 95.56729564 68.50865161 93.96622556 68.50238609 92.36514282 C68.58862772 80.82672611 68.58862772 80.82672611 65 70 C60.43619391 65.57881285 55.27775518 65.59745813 49.21484375 65.65625 C42.72771485 66.34989197 37.75998865 68.97601305 33.5 73.875 C30.81165953 79.47570932 29.75231457 84.64733196 29.69702148 90.83740234 C29.68037949 92.15501556 29.66373749 93.47262878 29.64659119 94.83016968 C29.63803369 96.2487586 29.62953593 97.66734789 29.62109375 99.0859375 C29.60490207 100.5532846 29.58772034 102.02062107 29.56959534 103.48794556 C29.52411852 107.33106594 29.48919295 111.17420075 29.45739746 115.01745605 C29.40530472 121.18964731 29.34051303 127.36168395 29.26918221 133.53367996 C29.24631286 135.69027544 29.23007375 137.84685084 29.21446228 140.00350952 C29.20097244 141.30220978 29.1874826 142.60091003 29.17358398 143.93896484 C29.16407211 145.08811371 29.15456024 146.23726257 29.14476013 147.42123413 C29 150 29 150 28 151 C18.76 151 9.52 151 0 151 C0 101.17 0 51.34 0 0 Z " fill="#22A7D8" transform="translate(766,53)"/>
<path d="M0 0 C11.26794755 8.71461953 15.40206283 19.8028708 17.25390625 33.6015625 C17.93379982 40.67589817 18.07831764 47.83973887 16.5625 54.8125 C13.68505732 56.25122134 11.21684078 55.93187153 8.00146484 55.92602539 C7.32817642 55.92617142 6.654888 55.92631744 5.9611969 55.9264679 C3.73191119 55.92577027 1.50270865 55.91798489 -0.7265625 55.91015625 C-2.27070063 55.90829154 -3.81483934 55.90686789 -5.35897827 55.90586853 C-9.42620472 55.90204754 -13.49339555 55.89222082 -17.56060791 55.88116455 C-21.7096712 55.87094144 -25.85874025 55.86636898 -30.0078125 55.86132812 C-38.15105803 55.85059819 -46.29427458 55.83352677 -54.4375 55.8125 C-53.69527892 58.22735586 -52.93819157 60.6357594 -52.171875 63.04296875 C-51.8612915 64.06191223 -51.8612915 64.06191223 -51.54443359 65.10144043 C-49.60661425 71.11782104 -47.01692217 74.82209027 -41.4375 77.8125 C-32.43483141 81.24358698 -22.61913765 80.5263897 -13.875 76.6875 C-10.20581952 73.86505348 -7.3726912 70.37363976 -4.4375 66.8125 C-1.3874723 67.43259318 0.83376402 68.42886982 3.453125 70.09765625 C4.16210938 70.54560547 4.87109375 70.99355469 5.6015625 71.45507812 C6.33117187 71.92365234 7.06078125 72.39222656 7.8125 72.875 C8.55757812 73.34744141 9.30265625 73.81988281 10.0703125 74.30664062 C11.90412943 75.47040906 13.73373244 76.64081288 15.5625 77.8125 C14.15554168 85.94007476 8.84594706 91.70019785 2.5625 96.8125 C-11.60419115 105.35390476 -28.29873988 107.54698315 -44.546875 104.08984375 C-47.63123066 103.17855685 -50.49823646 102.11264139 -53.4375 100.8125 C-54.74654297 100.30396484 -54.74654297 100.30396484 -56.08203125 99.78515625 C-67.70581415 94.76782446 -74.84871996 85.33003401 -79.4375 73.8125 C-85.92754217 55.67104354 -85.1360463 36.01681154 -77.25 18.4375 C-70.7179416 6.57192603 -60.59238142 -1.4207841 -47.86303711 -5.69628906 C-32.4921217 -10.1110792 -13.54258766 -8.70450328 0 0 Z M-46.1875 20 C-50.52548386 25.42247983 -52.28869514 29.91967086 -53.4375 36.8125 C-39.2475 36.8125 -25.0575 36.8125 -10.4375 36.8125 C-11.12504641 26.32776349 -11.12504641 26.32776349 -16.75 18.5625 C-25.97236955 12.55723611 -37.62128449 13.18596494 -46.1875 20 Z " fill="#21A8D8" transform="translate(616.4375,101.1875)"/>
<path d="M0 0 C9.24 0 18.48 0 28 0 C28.01981934 2.10890625 28.03963867 4.2178125 28.06005859 6.390625 C28.12714049 13.37960611 28.20477691 20.36844176 28.28752708 27.35725403 C28.33734871 31.59214031 28.38367933 35.82700335 28.421875 40.06201172 C28.45890719 44.15348599 28.50531437 48.24475881 28.55806351 52.33605957 C28.57651261 53.8924199 28.59165509 55.44882325 28.60334396 57.00524902 C28.19857152 70.23272981 28.19857152 70.23272981 33.3125 81.9375 C38.01230701 85.54432864 43.21447672 85.55888776 49 85 C53.86740022 84.04114653 57.18192012 82.7469425 60.875 79.375 C66.43180691 70.54948314 66.46816436 61.61744945 66.51171875 51.46484375 C66.52859247 49.97553554 66.54674628 48.48624134 66.56611633 46.9969635 C66.61333072 43.1058083 66.64332367 39.21470991 66.66955566 35.32336426 C66.70478649 30.63910235 66.76171674 25.95505849 66.81494904 21.27097321 C66.89312759 14.18067773 66.94398552 7.09066106 67 0 C76.57 0 86.14 0 96 0 C96 35.64 96 71.28 96 108 C87.09 108 78.18 108 69 108 C68.505 100.575 68.505 100.575 68 93 C67.29875 93.81984375 66.5975 94.6396875 65.875 95.484375 C59.34910437 102.95655435 53.48359996 109.25797925 42.97631836 110.17700195 C30.99971089 110.52052023 20.62108086 110.60830444 10.6875 103 C3.9208305 96.56748702 0.17869327 87.51931166 -0.12025452 78.28569031 C-0.12313513 76.82547109 -0.12053654 75.36523452 -0.11352539 73.9050293 C-0.11367142 73.10450638 -0.11381744 72.30398346 -0.1139679 71.47920227 C-0.11327355 68.8441798 -0.10550356 66.20922881 -0.09765625 63.57421875 C-0.09579037 61.74290506 -0.09436727 59.91159086 -0.09336853 58.08027649 C-0.08955672 53.26836765 -0.07973785 48.45648916 -0.06866455 43.64459229 C-0.05842169 38.73116466 -0.05386475 33.81773211 -0.04882812 28.90429688 C-0.03811437 19.26951579 -0.02052839 9.63476517 0 0 Z " fill="#20A8D8" transform="translate(310,96)"/>
<path d="M0 0 C1.22644557 0.00138269 1.22644557 0.00138269 2.47766781 0.00279331 C3.88068645 0.00073132 3.88068645 0.00073132 5.31204891 -0.00137234 C6.34638561 0.00222294 7.38072231 0.00581821 8.44640255 0.00952244 C9.52919491 0.00937641 10.61198727 0.00923038 11.72759151 0.00907993 C15.32585778 0.0097796 18.92407301 0.0175745 22.52233028 0.02539158 C25.00954822 0.02725557 27.49676652 0.02867956 29.98398495 0.0296793 C35.87363594 0.03311433 41.76326794 0.04100506 47.65291113 0.05102879 C55.01367777 0.06328536 62.37444668 0.06866992 69.73522091 0.0742197 C82.87129985 0.08495968 96.00735668 0.10255769 109.14342403 0.12304783 C109.14342403 8.37304783 109.14342403 16.62304783 109.14342403 25.12304783 C95.61342403 25.12304783 82.08342403 25.12304783 68.14342403 25.12304783 C68.14342403 64.06304783 68.14342403 103.00304783 68.14342403 143.12304783 C58.57342403 143.12304783 49.00342403 143.12304783 39.14342403 143.12304783 C39.14342403 104.18304783 39.14342403 65.24304783 39.14342403 25.12304783 C25.61342403 25.12304783 12.08342403 25.12304783 -1.85657597 25.12304783 C-3.10155429 22.63309118 -2.98591968 20.93309872 -2.98938847 18.15039158 C-2.99067753 17.16877048 -2.99196659 16.18714939 -2.99329472 15.1757822 C-2.98942753 14.14775486 -2.98556034 13.11972752 -2.98157597 12.06054783 C-2.98544315 11.0286533 -2.98931034 9.99675877 -2.99329472 8.9335947 C-2.99200565 7.95326267 -2.99071659 6.97293064 -2.98938847 5.96289158 C-2.98769657 4.60732151 -2.98769657 4.60732151 -2.9859705 3.22436619 C-2.82105074 0.54613157 -2.6822742 0.17777243 0 0 Z " fill="#22A7D7" transform="translate(425.85657596588135,60.876952171325684)"/>
<path d="M0 0 C6.4210414 4.42970578 11.24374307 9.65448559 14.625 16.6875 C14.625 17.6775 14.625 18.6675 14.625 19.6875 C13.14379883 21.11376953 13.14379883 21.11376953 11.08203125 22.5703125 C9.96538086 23.36115234 9.96538086 23.36115234 8.82617188 24.16796875 C8.03791016 24.71066406 7.24964844 25.25335938 6.4375 25.8125 C5.66857422 26.36292969 4.89964844 26.91335937 4.10742188 27.48046875 C0.22643085 30.19216548 -2.62243373 31.97277378 -7.375 32.6875 C-7.73851562 32.08421875 -8.10203125 31.4809375 -8.4765625 30.859375 C-12.32291612 24.74465899 -15.36336525 21.02471158 -22.375 18.6875 C-31.09433149 17.83146465 -38.15656857 18.44786637 -45.375 23.6875 C-52.74956674 31.62934111 -52.9772189 43.30543566 -52.6640625 53.58203125 C-52.16090708 62.75933246 -49.71793826 70.34456174 -43.125 76.9375 C-37.14780682 80.74116839 -30.03574171 81.71785395 -23.11328125 80.1875 C-13.62065751 77.42600946 -10.03426237 70.93327361 -5.375 62.6875 C-0.11377829 64.19781916 4.29732586 66.59124191 9 69.3125 C9.73605469 69.73273438 10.47210937 70.15296875 11.23046875 70.5859375 C13.0313765 71.61502764 14.82857318 72.65060756 16.625 73.6875 C13.6171652 85.15487017 6.82399244 94.51088247 -3.375 100.6875 C-16.58235556 107.13347801 -33.49143039 108.13689028 -47.625 104.0625 C-62.74368697 98.41267818 -71.91660378 89.10586667 -78.74609375 74.75 C-84.48192279 61.33926376 -84.7977369 42.18248997 -80.48828125 28.35546875 C-74.78397695 14.68515353 -67.80448389 4.35079797 -53.9765625 -1.83203125 C-36.7116053 -8.56342467 -16.51073039 -9.42578559 0 0 Z " fill="#21A8D8" transform="translate(732.375,100.3125)"/>
<path d="M0 0 C9.57 0 19.14 0 29 0 C29 35.64 29 71.28 29 108 C20.09 108 11.18 108 2 108 C2 102.72 2 97.44 2 92 C2.33 92 2.66 92 3 92 C3 96.95 3 101.9 3 107 C11.25 107 19.5 107 28 107 C28 72.02 28 37.04 28 1 C19.42 1 10.84 1 2 1 C2.04600342 2.96267822 2.09200684 4.92535645 2.1394043 6.94750977 C2.28810242 13.44921479 2.42225022 19.95109426 2.54658794 26.45330906 C2.62246517 30.3936693 2.70408686 34.33373203 2.79907227 38.27368164 C2.89060988 42.07954935 2.96674989 45.88544854 3.03244972 49.69184685 C3.06011329 51.14033336 3.09322211 52.58872695 3.13199425 54.03695869 C3.49838684 67.96584047 3.49838684 67.96584047 0 74 C-0.391875 74.804375 -0.78375 75.60875 -1.1875 76.4375 C-1.455625 76.953125 -1.72375 77.46875 -2 78 C-2.66 78 -3.32 78 -4 78 C-3.78937424 77.38843552 -3.57874847 76.77687103 -3.36174011 76.14677429 C-0.78088346 67.86192023 -0.52541378 59.86094181 -0.48828125 51.26953125 C-0.47139755 49.7830816 -0.45324247 48.29664591 -0.43388367 46.81022644 C-0.38677734 42.93554041 -0.35671536 39.06091097 -0.33044434 35.18603516 C-0.29514368 30.51674255 -0.23824534 25.84766717 -0.18505096 21.17855072 C-0.1069997 14.11906315 -0.0560459 7.05985077 0 0 Z " fill="#42A7CA" transform="translate(377,96)"/>
<path d="M0 0 C2.475 0.495 2.475 0.495 5 1 C5.33 1.99 5.66 2.98 6 4 C6.66 4 7.32 4 8 4 C8.33 3.34 8.66 2.68 9 2 C9 15.2 9 28.4 9 42 C8.34 42 7.68 42 7 42 C7 43.32 7 44.64 7 46 C6.34 46 5.68 46 5 46 C5 46.66 5 47.32 5 48 C4.34 47.67 3.68 47.34 3 47 C3.20496094 46.40832031 3.40992188 45.81664062 3.62109375 45.20703125 C3.89050781 44.41683594 4.15992188 43.62664062 4.4375 42.8125 C4.70433594 42.03519531 4.97117188 41.25789063 5.24609375 40.45703125 C8.77163986 28.96703902 8.07506779 15.60292089 2.91015625 4.69921875 C2.00610978 3.09381239 1.01392599 1.53837046 0 0 Z " fill="#3DA4C6" transform="translate(246,124)"/>
<path d="M0 0 C1.47871399 1.04267883 1.47871399 1.04267883 3 3 C3.28040202 5.52295405 3.37942981 7.79600558 3.34057617 10.31713867 C3.34101425 11.05884811 3.34145233 11.80055756 3.34190369 12.56474304 C3.33981383 15.01608616 3.31647419 17.46674513 3.29296875 19.91796875 C3.28737348 21.61761603 3.28310306 23.31726815 3.28010559 25.016922 C3.26865134 29.49031941 3.23917927 33.96342459 3.20599365 38.43670654 C3.17530521 43.00138394 3.16160288 47.56610855 3.14648438 52.13085938 C3.11431005 61.08736797 3.06310675 70.04365969 3 79 C2.67 79 2.34 79 2 79 C2 55.24 2 31.48 2 7 C1.34 7 0.68 7 0 7 C-0.38133299 5.0085944 -0.71325582 3.00720923 -1 1 C-0.67 0.67 -0.34 0.34 0 0 Z " fill="#31A9D0" transform="translate(834,124)"/>
<path d="M0 0 C4.50802601 1.25805377 7.4912812 2.90407165 11 6 C8.36 5.67 5.72 5.34 3 5 C2.67 6.65 2.34 8.3 2 10 C0.33333333 10 -1.33333333 10 -3 10 C-4.38232443 11.62626404 -5.71937515 13.2925002 -7 15 C-7.66 14.67 -8.32 14.34 -9 14 C-8.40251953 13.11248047 -8.40251953 13.11248047 -7.79296875 12.20703125 C-5.09974702 8.19013364 -2.42960803 4.18432495 0 0 Z " fill="#30A3CD" transform="translate(727,163)"/>
<path d="M0 0 C3.0500277 0.62009318 5.27126402 1.61636982 7.890625 3.28515625 C8.59960938 3.73310547 9.30859375 4.18105469 10.0390625 4.64257812 C10.76867187 5.11115234 11.49828125 5.57972656 12.25 6.0625 C12.99507812 6.53494141 13.74015625 7.00738281 14.5078125 7.49414062 C16.34162943 8.65790906 18.17123244 9.82831288 20 11 C19.25 15.75 19.25 15.75 17 18 C17.50603992 15.83125748 17.99983813 14.00032373 19 12 C16.525 11.505 16.525 11.505 14 11 C14 10.34 14 9.68 14 9 C12.88625 8.566875 12.88625 8.566875 11.75 8.125 C9.43260203 7.17697356 7.22082885 6.15154089 5 5 C5 4.34 5 3.68 5 3 C3.35 3 1.7 3 0 3 C-0.0825 3.61875 -0.165 4.2375 -0.25 4.875 C-1 7 -1 7 -2.9375 8.0625 C-3.618125 8.371875 -4.29875 8.68125 -5 9 C-5.99 10.485 -5.99 10.485 -7 12 C-8.32 11.67 -9.64 11.34 -11 11 C-10.45730469 10.54109375 -9.91460938 10.0821875 -9.35546875 9.609375 C-8.64003906 8.99578125 -7.92460938 8.3821875 -7.1875 7.75 C-6.47980469 7.14671875 -5.77210938 6.5434375 -5.04296875 5.921875 C-3.08110329 4.07629602 -1.54330375 2.20054668 0 0 Z " fill="#39A1C4" transform="translate(612,168)"/>
<path d="M0 0 C0.33 1.32 0.66 2.64 1 4 C-0.65 4 -2.3 4 -4 4 C-4 4.99 -4 5.98 -4 7 C-3.34 7.33 -2.68 7.66 -2 8 C-2.66 9.32 -3.32 10.64 -4 12 C-6.97 11.505 -6.97 11.505 -10 11 C-10.33 12.65 -10.66 14.3 -11 16 C-11.99 15.67 -12.98 15.34 -14 15 C-12.28563878 8.71400885 -7.33524265 4.54026643 -2.0625 1.0625 C-1.381875 0.711875 -0.70125 0.36125 0 0 Z " fill="#29A5D1" transform="translate(200,99)"/>
<path d="M0 0 C1.32 0.33 2.64 0.66 4 1 C2.41925436 1.81752303 0.83528777 2.62881997 -0.75 3.4375 C-1.63171875 3.88996094 -2.5134375 4.34242188 -3.421875 4.80859375 C-8.5574047 7.18183096 -13.24594077 7.18297802 -18.8125 7.1875 C-19.98522461 7.20586914 -19.98522461 7.20586914 -21.18164062 7.22460938 C-26.17567822 7.23712576 -30.26554074 6.59922322 -35 5 C-35 4.67 -35 4.34 -35 4 C-33.35425434 3.97311849 -31.70838587 3.95365877 -30.0625 3.9375 C-29.14597656 3.92589844 -28.22945312 3.91429687 -27.28515625 3.90234375 C-25 4 -25 4 -24 5 C-21.83519203 5.0989294 -19.66706215 5.129711 -17.5 5.125 C-16.3140625 5.12757813 -15.128125 5.13015625 -13.90625 5.1328125 C-11.10740578 5.33210219 -11.10740578 5.33210219 -10 4 C-8.33382885 3.95936168 -6.66611905 3.957279 -5 4 C-5 3.34 -5 2.68 -5 2 C-3.35 2 -1.7 2 0 2 C0 1.34 0 0.68 0 0 Z " fill="#3CA7CC" transform="translate(240,199)"/>
<path d="M0 0 C0.598125 0.309375 1.19625 0.61875 1.8125 0.9375 C4.08956772 2.10209704 4.08956772 2.10209704 7 3 C7.0825 3.7425 7.165 4.485 7.25 5.25 C8.16233719 8.59523636 9.49998645 9.64284437 12 12 C13.36821051 13.97630407 14.70951192 15.97209016 16 18 C8.09121023 14.50459738 3.31031487 7.72406802 0 0 Z " fill="#2EA3D2" transform="translate(656,179)"/>
<path d="M0 0 C21.89749609 -0.81690141 21.89749609 -0.81690141 30 4 C31.37614195 5.28910391 32.72162763 6.61388326 34 8 C32.741875 7.87625 31.48375 7.7525 30.1875 7.625 C29.12595703 7.52058594 29.12595703 7.52058594 28.04296875 7.4140625 C26 7 26 7 23 5 C23 4.34 23 3.68 23 3 C18.26120232 1.85149303 13.53708638 1.67098443 8.6875 1.4375 C7.85154297 1.39431641 7.01558594 1.35113281 6.15429688 1.30664062 C4.10303065 1.20114693 2.0515352 1.10012685 0 1 C0 0.67 0 0.34 0 0 Z " fill="#3DA0C6" transform="translate(213,94)"/>
<path d="M0 0 C2.475 0.495 2.475 0.495 5 1 C5.33 2.32 5.66 3.64 6 5 C7.65 5.33 9.3 5.66 11 6 C11.33 5.34 11.66 4.68 12 4 C12 4.66 12 5.32 12 6 C12.99 6 13.98 6 15 6 C15.33 6.99 15.66 7.98 16 9 C15.67 9.66 15.34 10.32 15 11 C8.58568745 8.73612498 3.99276459 5.52844328 0 0 Z " fill="#2BA6D4" transform="translate(190,192)"/>
<path d="M0 0 C0.66 0.33 1.32 0.66 2 1 C0.97637107 5.00921331 -0.23565688 8.62906255 -2 12.375 C-4.04526494 16.80895122 -5.1389923 21.20781239 -6 26 C-6.33 26 -6.66 26 -7 26 C-6.79200072 16.56439609 -4.21308899 8.42617797 0 0 Z " fill="#36A4CD" transform="translate(185,114)"/>
<path d="M0 0 C3.42025316 3.42025316 3.95344801 7.71982025 4.125 12.4375 C4.08375 13.283125 4.0425 14.12875 4 15 C2.35 13.35 0.7 11.7 -1 10 C-0.67 9.01 -0.34 8.02 0 7 C-0.66 7 -1.32 7 -2 7 C-2.33 7.66 -2.66 8.32 -3 9 C-2.67 7.35 -2.34 5.7 -2 4 C-1.34 4 -0.68 4 0 4 C0 2.68 0 1.36 0 0 Z " fill="#30A4D1" transform="translate(859,112)"/>
<path d="M0 0 C0.33 0.66 0.66 1.32 1 2 C1.66 2 2.32 2 3 2 C3.33 3.32 3.66 4.64 4 6 C3.360625 6.12375 2.72125 6.2475 2.0625 6.375 C1.381875 6.58125 0.70125 6.7875 0 7 C-0.33 7.66 -0.66 8.32 -1 9 C-1.33 8.34 -1.66 7.68 -2 7 C-3.98 7 -5.96 7 -8 7 C-7.236875 6.401875 -6.47375 5.80375 -5.6875 5.1875 C-3.6516425 3.53040668 -1.8021721 1.89702326 0 0 Z " fill="#2AA5CF" transform="translate(372,174)"/>
<path d="M0 0 C0.66 0.33 1.32 0.66 2 1 C1.07248802 2.9630836 0.13263547 4.92034027 -0.8125 6.875 C-1.33457031 7.96554688 -1.85664062 9.05609375 -2.39453125 10.1796875 C-4 13 -4 13 -7 15 C-7.22692276 11.67179946 -7.32162419 9.58198664 -5.6875 6.625 C-4 5 -4 5 -1 5 C-0.67 3.35 -0.34 1.7 0 0 Z " fill="#34A1CC" transform="translate(747,175)"/>
<path d="M0 0 C4.04161955 1.34484714 6.38678154 3.0505162 9.3125 6.125 C10.00988281 6.84945312 10.70726562 7.57390625 11.42578125 8.3203125 C11.94527344 8.87460938 12.46476563 9.42890625 13 10 C12.67 10.66 12.34 11.32 12 12 C9.36 10.68 6.72 9.36 4 8 C4.33 6.68 4.66 5.36 5 4 C4.360625 3.896875 3.72125 3.79375 3.0625 3.6875 C2.381875 3.460625 1.70125 3.23375 1 3 C0.67 2.01 0.34 1.02 0 0 Z " fill="#33A1C7" transform="translate(730,100)"/>
<path d="M0 0 C0.59425781 0.144375 1.18851563 0.28875 1.80078125 0.4375 C8.28732452 1.89016288 14.36613186 2.2270145 21 2 C20.67 2.66 20.34 3.32 20 4 C17.35990585 4.39675991 14.84323974 4.65217975 12.1875 4.8125 C11.46240234 4.87630859 10.73730469 4.94011719 9.99023438 5.00585938 C6.67307761 5.22133799 4.44328835 5.24060285 1.48828125 3.63671875 C0 2 0 2 0 0 Z " fill="#38A3C7" transform="translate(690,179)"/>
<path d="M0 0 C2.475 0.495 2.475 0.495 5 1 C5.33 1.99 5.66 2.98 6 4 C6.66 4 7.32 4 8 4 C8.33 3.34 8.66 2.68 9 2 C9 6.29 9 10.58 9 15 C7.0549 12.08235 6.54723683 10.37462715 6 7 C5.34 7 4.68 7 4 7 C2.02 3.535 2.02 3.535 0 0 Z " fill="#2CA5CF" transform="translate(246,124)"/>
<path d="M0 0 C-0.61875 0.845625 -1.2375 1.69125 -1.875 2.5625 C-4.13047736 5.91372345 -5.06125645 9.08856854 -6 13 C-6.33 13 -6.66 13 -7 13 C-7.10815225 11.23050905 -7.18566083 9.45912513 -7.25 7.6875 C-7.29640625 6.70136719 -7.3428125 5.71523437 -7.390625 4.69921875 C-7 2 -7 2 -5.171875 0.08203125 C-3 -1 -3 -1 0 0 Z " fill="#31A6CA" transform="translate(802,124)"/>
<path d="M0 0 C-1.32 0.33 -2.64 0.66 -4 1 C-4 1.66 -4 2.32 -4 3 C-4.66 3 -5.32 3 -6 3 C-6.33 3.99 -6.66 4.98 -7 6 C-9.06640625 6.73046875 -9.06640625 6.73046875 -11.5625 7.1875 C-12.38878906 7.34605469 -13.21507812 7.50460938 -14.06640625 7.66796875 C-14.70449219 7.77753906 -15.34257813 7.88710937 -16 8 C-12.59491053 4.04570255 -5.45732508 -2.72866254 0 0 Z " fill="#39A3C6" transform="translate(567,98)"/>
<path d="M0 0 C2 3 2 3 2 6 C2.99 6 3.98 6 5 6 C5.50559908 7.43554025 6.0042749 8.8735202 6.5 10.3125 C6.7784375 11.11300781 7.056875 11.91351563 7.34375 12.73828125 C8 15 8 15 8 18 C7.03576974 16.60823368 6.07888398 15.2113777 5.125 13.8125 C4.59132813 13.03519531 4.05765625 12.25789062 3.5078125 11.45703125 C1.04477113 7.44342238 0 4.75384082 0 0 Z " fill="#40A2C7" transform="translate(311,179)"/>
<path d="M0 0 C-2.3129482 2.3129482 -3.47904875 2.49580975 -6.625 3.125 C-7.44226563 3.29257813 -8.25953125 3.46015625 -9.1015625 3.6328125 C-10.04128906 3.81457031 -10.04128906 3.81457031 -11 4 C-10.6875 2.0625 -10.6875 2.0625 -10 0 C-6.30581799 -1.231394 -3.7943739 -0.64432764 0 0 Z " fill="#34A6CA" transform="translate(612,201)"/>
<path d="M0 0 C3.39187279 1.41573821 5.09697541 3.04230966 7.25 6 C8.03117188 7.051875 8.03117188 7.051875 8.828125 8.125 C10 10 10 10 10 12 C9.01 12.33 8.02 12.66 7 13 C5.74335022 10.09399739 5 8.20395416 5 5 C4.34 5 3.68 5 3 5 C1.375 2.5 1.375 2.5 0 0 Z " fill="#369FC8" transform="translate(618,104)"/>
<path d="M0 0 C0.66 0.33 1.32 0.66 2 1 C-1.14285714 8.42857143 -1.14285714 8.42857143 -3 12 C-3.66 12 -4.32 12 -5 12 C-4.55149342 10.18504338 -4.09090429 8.37306866 -3.625 6.5625 C-3.36976563 5.55316406 -3.11453125 4.54382813 -2.8515625 3.50390625 C-2 1 -2 1 0 0 Z " fill="#31A1CA" transform="translate(378,162)"/>
<path d="M0 0 C4.3177458 0.50797009 8.03302114 1.19682779 12 3 C9.4345406 5.5654594 7.52313332 5.54046087 4 6 C4.33 5.01 4.66 4.02 5 3 C2.525 2.01 2.525 2.01 0 1 C0 0.67 0 0.34 0 0 Z " fill="#34A2CB" transform="translate(598,95)"/>
<path d="M0 0 C0.33 0 0.66 0 1 0 C1 1.98 1 3.96 1 6 C0.34 6 -0.32 6 -1 6 C-1 7.32 -1 8.64 -1 10 C-1.66 10 -2.32 10 -3 10 C-3 10.66 -3 11.32 -3 12 C-3.66 11.67 -4.32 11.34 -5 11 C-4.01 8.03 -3.02 5.06 -2 2 C-1.34 2 -0.68 2 0 2 C0 1.34 0 0.68 0 0 Z " fill="#31A8CF" transform="translate(254,160)"/>
<path d="M0 0 C2.56616632 3.84924948 2.55097676 6.4349304 3 11 C2.01 10.34 1.02 9.68 0 9 C-0.99 9 -1.98 9 -3 9 C-2.34 8.01 -1.68 7.02 -1 6 C-0.60986284 4.0103005 -0.26797351 2.00980131 0 0 Z " fill="#32A2D0" transform="translate(629,118)"/>
<path d="M0 0 C1.55741701 2.33612551 3.07282045 4.68345953 4.5625 7.0625 C4.99691406 7.75472656 5.43132813 8.44695312 5.87890625 9.16015625 C7 11 7 11 8 13 C5.6875 12.4375 5.6875 12.4375 3 11 C0.85884613 7.01302384 0 4.54765452 0 0 Z " fill="#38A1C6" transform="translate(680,164)"/>
<path d="M0 0 C0.33 1.32 0.66 2.64 1 4 C0.2575 4.0825 -0.485 4.165 -1.25 4.25 C-4.51221354 5.1396946 -5.80954878 6.48503749 -8 9 C-8.66 8.67 -9.32 8.34 -10 8 C-8.71064081 6.85157077 -7.41843421 5.70633773 -6.125 4.5625 C-5.04605469 3.60537109 -5.04605469 3.60537109 -3.9453125 2.62890625 C-2 1 -2 1 0 0 Z " fill="#37A3C7" transform="translate(200,99)"/>
<path d="M0 0 C3.84814487 -0.58305225 5.76308635 0.2997117 8.8125 2.5 C9.88364055 3.32219744 10.9491359 4.15204049 12 5 C11.01 5.495 11.01 5.495 10 6 C7.6171875 5.00390625 7.6171875 5.00390625 4.875 3.5625 C3.96492187 3.08941406 3.05484375 2.61632812 2.1171875 2.12890625 C1.41851563 1.75636719 0.71984375 1.38382813 0 1 C0 0.67 0 0.34 0 0 Z " fill="#3CA3C7" transform="translate(672,197)"/>
<path d="M0 0 C2.25 0.125 2.25 0.125 5 1 C6.97885207 3.58350132 8.54764872 6.09529743 10 9 C6.78956118 7.61811547 4.95063635 6.07578097 2.75 3.375 C2.22921875 2.74335938 1.7084375 2.11171875 1.171875 1.4609375 C0.78515625 0.97882813 0.3984375 0.49671875 0 0 Z " fill="#39A2C6" transform="translate(662,188)"/>
<path d="M0 0 C0.66 0 1.32 0 2 0 C1.01 2.97 0.02 5.94 -1 9 C-3.1385485 6.8614515 -3.42655063 5.86724686 -4 3 C-2.68 2.67 -1.36 2.34 0 2 C0 1.34 0 0.68 0 0 Z " fill="#2AA4D3" transform="translate(629,180)"/>
<path d="M0 0 C0.33 0.99 0.66 1.98 1 3 C-1.3125 3.625 -1.3125 3.625 -4 4 C-4.99 3.34 -5.98 2.68 -7 2 C-2.25 0 -2.25 0 0 0 Z " fill="#32A5CF" transform="translate(336,201)"/>
<path d="M0 0 C2.3125 0.125 2.3125 0.125 5 1 C6.8125 4.0625 6.8125 4.0625 8 7 C4.2047869 5.50902342 2.38957269 3.24299151 0 0 Z " fill="#3AA2C9" transform="translate(190,192)"/>
<path d="M0 0 C-3.85756507 2.15305957 -6.55129785 3.39253254 -11 3 C-7.18178484 -0.02823961 -4.81391924 -1.49397494 0 0 Z " fill="#3EA1CA" transform="translate(213,96)"/>
<path d="M0 0 C-0.33 1.65 -0.66 3.3 -1 5 C-3.97 4.505 -3.97 4.505 -7 4 C-3.17391304 0 -3.17391304 0 0 0 Z " fill="#33A3CC" transform="translate(812,97)"/>
<path d="M0 0 C1.33332095 2.6666419 0.67102033 4.16680303 0 7 C-0.99 7.33 -1.98 7.66 -3 8 C-3 3.73173127 -2.62386487 3.06117568 0 0 Z " fill="#359FC5" transform="translate(664,108)"/>
</svg>
