<?xml version="1.0" encoding="UTF-8"?>
<svg version="1.1" xmlns="http://www.w3.org/2000/svg" width="546" height="457">
<path d="M0 0 C9.85283948 5.89618741 15.78869909 14.8181137 18.73046875 25.796875 C20.9600437 36.83233423 17.22484736 47.17452001 11.48046875 56.484375 C10.82046875 56.484375 10.16046875 56.484375 9.48046875 56.484375 C9.21492188 57.08121094 8.949375 57.67804688 8.67578125 58.29296875 C5.66731652 63.80848743 0.28829411 67.05200902 -5.55078125 68.9609375 C-16.28723139 71.81546988 -27.84162202 71.34955941 -37.64453125 65.921875 C-46.51481373 60.17571717 -51.95195514 52.63513676 -55.1015625 42.63671875 C-57.29064315 31.36397634 -55.51878288 20.6534665 -49.20703125 11.171875 C-37.41712606 -4.48277089 -17.48832208 -8.17635838 0 0 Z M-26.51953125 16.484375 C-26.84953125 17.474375 -27.17953125 18.464375 -27.51953125 19.484375 C-28.85286458 20.15104167 -30.18619792 20.81770833 -31.51953125 21.484375 C-31.84953125 22.474375 -32.17953125 23.464375 -32.51953125 24.484375 C-33.17953125 24.484375 -33.83953125 24.484375 -34.51953125 24.484375 C-36.79688135 27.29947493 -36.79688135 27.29947493 -36.51953125 30.484375 C-35.05890296 32.16546491 -35.05890296 32.16546491 -33.14453125 33.671875 C-32.51804688 34.20167969 -31.8915625 34.73148438 -31.24609375 35.27734375 C-29.59744492 36.67536315 -29.59744492 36.67536315 -27.51953125 36.484375 C-27.51953125 37.144375 -27.51953125 37.804375 -27.51953125 38.484375 C-26.19953125 38.814375 -24.87953125 39.144375 -23.51953125 39.484375 C-23.1758292 36.52928637 -23.1758292 36.52928637 -24.83203125 35.09765625 C-25.38890625 34.66839844 -25.94578125 34.23914063 -26.51953125 33.796875 C-27.50953125 33.03375 -28.49953125 32.270625 -29.51953125 31.484375 C-24.76141775 29.10531825 -17.52320448 30.15006214 -12.51953125 31.484375 C-12.51953125 32.144375 -12.51953125 32.804375 -12.51953125 33.484375 C-11.85953125 33.814375 -11.19953125 34.144375 -10.51953125 34.484375 C-9.88151289 37.0159616 -9.35265757 39.48277002 -8.89453125 42.046875 C-8.76046875 42.75779297 -8.62640625 43.46871094 -8.48828125 44.20117188 C-8.15761278 45.96080053 -7.83757358 47.72242048 -7.51953125 49.484375 C-6.03453125 48.989375 -6.03453125 48.989375 -4.51953125 48.484375 C-4.6072558 46.58770974 -4.71544426 44.69198507 -4.83203125 42.796875 C-4.89003906 41.74113281 -4.94804687 40.68539062 -5.0078125 39.59765625 C-5.56209498 36.22541856 -6.4746538 34.20582919 -8.51953125 31.484375 C-9.17953125 31.484375 -9.83953125 31.484375 -10.51953125 31.484375 C-10.51953125 30.824375 -10.51953125 30.164375 -10.51953125 29.484375 C-17.06111524 25.83325835 -23.15832754 26.18549906 -30.51953125 26.484375 C-28.53953125 23.844375 -26.55953125 21.204375 -24.51953125 18.484375 C-25.17953125 17.824375 -25.83953125 17.164375 -26.51953125 16.484375 Z " fill="#E43874" transform="translate(268.51953125,194.515625)"/>
<path d="M0 0 C0.763125 0.61875 1.52625 1.2375 2.3125 1.875 C2.3125 2.535 2.3125 3.195 2.3125 3.875 C3.3025 3.875 4.2925 3.875 5.3125 3.875 C12.58059356 11.48997984 15.35429086 20.55884501 15.6875 30.875 C15.28303006 43.38121062 11.0171588 51.66063589 2 60.1875 C-7.12562706 67.63699148 -18.40654278 68.54410985 -29.6875 67.875 C-34.22430529 66.90901356 -37.5115116 65.29014415 -40.6875 61.875 C-39.3125 59.875 -39.3125 59.875 -37.6875 57.875 C-37.0275 57.875 -36.3675 57.875 -35.6875 57.875 C-35.44 57.235625 -35.1925 56.59625 -34.9375 55.9375 C-33.00055147 51.19197611 -30.98038359 46.46076719 -28.6875 41.875 C-28.11018933 32.71374219 -27.61262572 24.02474856 -31.8125 15.625 C-32.6875 13.875 -32.6875 13.875 -32.6875 11.875 C-33.3475 11.875 -34.0075 11.875 -34.6875 11.875 C-34.6875 10.885 -34.6875 9.895 -34.6875 8.875 C-35.3475 8.875 -36.0075 8.875 -36.6875 8.875 C-38.1953125 7.44921875 -38.1953125 7.44921875 -39.8125 5.5625 C-40.35132813 4.94761719 -40.89015625 4.33273438 -41.4453125 3.69921875 C-42.6875 1.875 -42.6875 1.875 -42.6875 -1.125 C-41.29471983 -1.77739158 -39.89810788 -2.42160552 -38.5 -3.0625 C-37.72269531 -3.42214844 -36.94539063 -3.78179687 -36.14453125 -4.15234375 C-24.19793083 -8.8816021 -10.70081064 -6.63500147 0 0 Z " fill="#797879" transform="translate(317.6875,195.125)"/>
<path d="M0 0 C0 0.99 0 1.98 0 3 C-3.93148757 4.2246667 -7.94127295 4.32778651 -12.0234375 4.53125 C-12.81430756 4.57278198 -13.60517761 4.61431396 -14.42001343 4.65710449 C-24.31415205 5.15134367 -34.21572963 5.34479406 -44.11914062 5.55224609 C-52.38040127 5.72881029 -60.61860201 5.93543392 -68.86328125 6.50390625 C-75.01659667 6.91909004 -81.15033715 7.13399223 -87.31640625 7.24609375 C-88.22920349 7.26278107 -89.14200073 7.27946838 -90.0824585 7.29666138 C-93.8263042 7.36208931 -97.57017272 7.42332515 -101.31420898 7.47680664 C-113.00000096 7.65029115 -124.62162633 8.12604093 -136.28125 8.9375 C-148.79488576 9.80166367 -161.30414748 10.37923134 -173.83984375 10.81640625 C-175.18841304 10.86346868 -175.18841304 10.86346868 -176.56422615 10.91148186 C-182.08771504 11.10265697 -187.61140923 11.28729012 -193.13519287 11.46972656 C-200.59223463 11.71660007 -208.04904242 11.9702783 -215.50576973 12.22645378 C-218.06220557 12.31334261 -220.61872686 12.39718067 -223.17527771 12.48060608 C-231.88898324 12.77195383 -240.57821624 13.19727038 -249.27784729 13.77012634 C-254.93208724 14.11932234 -260.5883435 14.31623422 -266.25 14.5 C-268.02358887 14.5609082 -268.02358887 14.5609082 -269.83300781 14.62304688 C-274.80392625 14.79368838 -279.77501437 14.95912457 -284.74609375 15.125 C-301.13593573 15.64181217 -301.13593573 15.64181217 -317.5078125 16.53515625 C-325.73838111 17.09528914 -333.96325477 17.24051561 -342.20925903 17.38842773 C-356.18326724 17.64566812 -370.11617175 18.07946207 -384.0625 19 C-396.89193815 19.84207623 -409.70895012 20.32393979 -422.5625 20.625 C-423.41409698 20.64546387 -424.26569397 20.66592773 -425.14309692 20.68701172 C-436.43016241 20.95212896 -447.71001449 21.04903557 -459 21 C-459 20.34 -459 19.68 -459 19 C-431.71924482 16.65150908 -404.42012894 15.4573257 -377.0625 14.5 C-376.19354599 14.46955723 -375.32459198 14.43911446 -374.42930603 14.40774918 C-366.39168582 14.12656781 -358.35397431 13.84804316 -350.31619263 13.57151794 C-332.49195358 12.95660159 -314.67050754 12.27487837 -296.84957886 11.57104492 C-292.77197194 11.41002838 -288.69427796 11.25135425 -284.61655331 11.09335136 C-281.5615492 10.97456808 -278.50661368 10.85409102 -275.4516964 10.73309708 C-274.05812567 10.67814663 -272.66453259 10.62375905 -271.27091408 10.57003403 C-264.0494027 10.29094634 -256.83830808 9.94387298 -249.62695312 9.47485352 C-243.97164508 9.10708408 -238.33083884 8.83701897 -232.6640625 8.75390625 C-231.02473371 8.72230836 -229.38541098 8.69039485 -227.74609375 8.65820312 C-226.49481689 8.63512085 -226.49481689 8.63512085 -225.21826172 8.61157227 C-210.77537815 8.33826972 -196.3853211 7.81813415 -181.97186279 6.86602783 C-168.01533665 5.95388305 -154.06074778 5.59721778 -140.078125 5.34179688 C-139.24601501 5.3255275 -138.41390503 5.30925812 -137.55657959 5.29249573 C-136.02754832 5.26312842 -134.49845282 5.23681091 -132.96929932 5.21470642 C-128.4653394 5.12879314 -123.99496071 4.86806812 -119.50268555 4.52954102 C-111.27945254 3.91845294 -103.05517147 3.59220657 -94.81640625 3.28125 C-93.18756801 3.21802727 -91.55873821 3.15458651 -89.92991638 3.09094238 C-85.66955843 2.92497969 -81.40910508 2.76161633 -77.14862061 2.59893799 C-70.38064458 2.34001351 -63.61283048 2.07686774 -56.8449955 1.81428719 C-54.39571506 1.71940118 -51.94641642 1.62499548 -49.49711609 1.53062439 C-39.63373139 1.14934868 -29.77160699 0.74733492 -19.91163635 0.28466797 C-13.27035443 -0.01906338 -6.64870278 -0.11485283 0 0 Z " fill="#DEDEDE" transform="translate(505,288)"/>
<path d="M0 0 C0.96808594 0.01933594 1.93617188 0.03867187 2.93359375 0.05859375 C4.38958984 0.06052734 4.38958984 0.06052734 5.875 0.0625 C6.69871094 0.20558594 7.52242187 0.34867187 8.37109375 0.49609375 C9.03109375 1.48609375 9.69109375 2.47609375 10.37109375 3.49609375 C12.7549369 4.25770557 12.7549369 4.25770557 15.43359375 4.62109375 C20.29047625 5.41547625 20.29047625 5.41547625 21.37109375 6.49609375 C24.26423973 26.17663002 24.26423973 26.17663002 20.37109375 31.49609375 C14.42672511 33.41126886 7.56794285 33.16389153 1.37109375 33.49609375 C-0.44261719 33.59664063 -0.44261719 33.59664063 -2.29296875 33.69921875 C-4.00613281 33.75335938 -4.00613281 33.75335938 -5.75390625 33.80859375 C-7.30464844 33.86466797 -7.30464844 33.86466797 -8.88671875 33.921875 C-11.62890625 33.49609375 -11.62890625 33.49609375 -13.97265625 32.13671875 C-16.60540064 27.93923005 -16.12823228 23.77903717 -16.00390625 18.93359375 C-16.00261719 17.97517578 -16.00132812 17.01675781 -16 16.02929688 C-15.91030134 8.91818638 -15.91030134 8.91818638 -13.62890625 5.49609375 C-11.62532764 5.2734739 -9.61667906 5.0564986 -7.6015625 5 C-5.42773505 4.67292036 -5.42773505 4.67292036 -4.22265625 2.48828125 C-2.62890625 0.49609375 -2.62890625 0.49609375 0 0 Z M-4.62890625 13.49609375 C-5.40761214 16.31097133 -5.29036853 18.66457099 -4.62890625 21.49609375 C-3.29557292 24.16276042 -3.29557292 24.16276042 -0.62890625 25.49609375 C2.90946766 26.11548717 6.148595 26.24536717 9.30859375 24.30859375 C11.23818623 21.016936 11.63177129 18.59093941 10.74609375 14.87109375 C9.03831651 11.92129669 7.43994011 10.91824206 4.37109375 9.49609375 C0.16955879 9.49609375 -1.511069 10.72468286 -4.62890625 13.49609375 Z " fill="#489DEC" transform="translate(200.62890625,325.50390625)"/>
<path d="M0 0 C2.9375 1.5 2.9375 1.5 5 3 C5.556875 2.5153125 6.11375 2.030625 6.6875 1.53125 C10.53807034 -1.01845198 14.54523478 -0.80793579 19 0 C22.2428871 2.92650787 23.88227372 5.74294675 24.11352539 10.17651367 C24.10828857 10.99869385 24.10305176 11.82087402 24.09765625 12.66796875 C24.09443359 13.56064453 24.09121094 14.45332031 24.08789062 15.37304688 C24.07532227 16.76620117 24.07532227 16.76620117 24.0625 18.1875 C24.05798828 19.12787109 24.05347656 20.06824219 24.04882812 21.03710938 C24.03704626 23.35813712 24.02059558 25.67903644 24 28 C22.02 28 20.04 28 18 28 C17.95101562 26.90300781 17.90203125 25.80601562 17.8515625 24.67578125 C17.77649409 23.22133075 17.70094803 21.76690484 17.625 20.3125 C17.5940625 19.59126953 17.563125 18.87003906 17.53125 18.12695312 C17.30664413 14.02789606 16.82259091 10.75631541 15 7 C11.95613276 6.91773332 9.92824652 7.02391783 7 8 C7.00785522 8.90093384 7.00785522 8.90093384 7.01586914 9.82006836 C7.03658014 12.52586838 7.04964125 15.23165177 7.0625 17.9375 C7.07087891 18.88302734 7.07925781 19.82855469 7.08789062 20.80273438 C7.09272461 22.15141602 7.09272461 22.15141602 7.09765625 23.52734375 C7.10551147 24.77632446 7.10551147 24.77632446 7.11352539 26.05053711 C7 28 7 28 6 29 C4.33382885 29.04063832 2.66611905 29.042721 1 29 C-0.4885955 26.022809 -0.33266273 22.89737329 -0.5 19.625 C-0.76579483 13.74122938 -0.76579483 13.74122938 -2 8 C-3.78141747 7.13641377 -3.78141747 7.13641377 -6 7 C-8.32361387 8.35923914 -8.32361387 8.35923914 -10 11 C-10.46898724 14.07730669 -10.3312758 17.08535425 -10.1875 20.1875 C-10.09415714 23.12666172 -10.03244793 26.0590374 -10 29 C-11 30 -11 30 -14.0625 30.0625 C-15.031875 30.041875 -16.00125 30.02125 -17 30 C-17.66433182 20.65190221 -18.1598655 11.37877608 -18 2 C-16.39125 2.061875 -16.39125 2.061875 -14.75 2.125 C-11.18685635 2.26724803 -11.18685635 2.26724803 -9 1 C-5.9167365 -0.54163175 -3.39121901 -0.29747535 0 0 Z " fill="#202020" transform="translate(281,130)"/>
<path d="M0 0 C0.66 0.33 1.32 0.66 2 1 C2 1.66 2 2.32 2 3 C2.99 3.33 3.98 3.66 5 4 C6.98387006 8.38539698 7.42632713 12.22513616 7 17 C5.36451232 21.17049359 3.42730622 24.10821038 0 27 C-4.47254497 28.49084832 -8.52745503 28.49084832 -13 27 C-13 30.96 -13 34.92 -13 39 C-16.465 39.495 -16.465 39.495 -20 40 C-21.63945963 36.72108075 -21.12030178 33.09386466 -21.09765625 29.4921875 C-21.0962413 28.65156769 -21.09482635 27.81094788 -21.09336853 26.94485474 C-21.08776237 24.25486725 -21.07520886 21.56496241 -21.0625 18.875 C-21.05748579 17.05338662 -21.05292275 15.23177193 -21.04882812 13.41015625 C-21.03779094 8.94007223 -21.0205222 4.47005014 -21 0 C-19.906875 0.020625 -18.81375 0.04125 -17.6875 0.0625 C-0.67741935 -0.22580645 -0.67741935 -0.22580645 0 0 Z M-13.4375 7.125 C-15.3036034 10.55863025 -15.70674208 12.15218203 -15 16 C-13.02016304 19.47588454 -13.02016304 19.47588454 -10 22 C-6.95625267 22.9168463 -6.95625267 22.9168463 -4 22 C-1.31762671 19.39012329 0.88377318 16.83548495 1 13 C-0.34805991 9.79033355 -1.53401431 7.46598569 -4 5 C-8.21936698 4.45304502 -10.1676024 4.27432004 -13.4375 7.125 Z " fill="#232323" transform="translate(330,130)"/>
<path d="M0 0 C0.70382813 -0.02900391 1.40765625 -0.05800781 2.1328125 -0.08789062 C7.30728884 -0.15040753 10.11083048 0.97266112 14.25 4.3125 C17.35926311 7.42176311 17.16850181 11.0449586 17.25 15.3125 C16.46718517 19.22657417 15.52173837 20.10435997 12.3125 22.5625 C8.49351336 24.74477808 5.88538597 25.43765052 1.5625 25.375 C0.35013672 25.36146484 0.35013672 25.36146484 -0.88671875 25.34765625 C-1.50160156 25.33605469 -2.11648437 25.32445312 -2.75 25.3125 C-2.585 26.09625 -2.42 26.88 -2.25 27.6875 C-1.62039153 32.25216142 -1.66819473 36.71322601 -1.75 41.3125 C-3.73 41.3125 -5.71 41.3125 -7.75 41.3125 C-8.9045709 37.5189099 -9.0927615 33.68408625 -9.3125 29.75 C-9.37618774 28.6528064 -9.37618774 28.6528064 -9.44116211 27.53344727 C-9.89918822 18.795931 -9.8364065 10.0587581 -9.75 1.3125 C-6.65083704 -0.23708148 -3.39928151 0.04568927 0 0 Z M-2.75 6.3125 C-2.75 10.2725 -2.75 14.2325 -2.75 18.3125 C-0.97625 18.374375 0.7975 18.43625 2.625 18.5 C3.62273437 18.53480469 4.62046875 18.56960937 5.6484375 18.60546875 C6.93621094 18.46044922 6.93621094 18.46044922 8.25 18.3125 C10.42175481 15.05486778 10.71043998 14.08810787 10.25 10.3125 C9.12996023 8.08448229 9.12996023 8.08448229 7.25 6.3125 C4.74119384 5.82988333 4.74119384 5.82988333 2.0625 6.0625 C0.474375 6.145 -1.11375 6.2275 -2.75 6.3125 Z " fill="#272727" transform="translate(195.75,121.6875)"/>
<path d="M0 0 C1.9759103 0.00503603 3.95182187 0.00959514 5.92773438 0.01367188 C10.6810222 0.02448573 15.43424615 0.04162845 20.1875 0.0625 C20.1875 0.3925 20.1875 0.7225 20.1875 1.0625 C9.08722832 2.7466012 -1.9163934 3.61043268 -13.125 4.125 C-14.40482758 4.1871167 -14.40482758 4.1871167 -15.71051025 4.25048828 C-30.08779717 4.94737615 -44.46327572 5.33156343 -58.85388184 5.61502075 C-70.55079174 5.84885699 -82.20113369 6.29530807 -93.875 7.0625 C-106.70452744 7.90358469 -119.52139777 8.38643856 -132.375 8.6875 C-133.22659698 8.70796387 -134.07819397 8.72842773 -134.95559692 8.74951172 C-146.24266241 9.01462896 -157.52251449 9.11153557 -168.8125 9.0625 C-168.8125 8.4025 -168.8125 7.7425 -168.8125 7.0625 C-136.80062853 4.30672623 -104.74470635 3.16666289 -72.64306641 2.06518555 C-71.77411963 2.03536654 -70.90517286 2.00554752 -70.00989437 1.97482491 C-65.76089493 1.82924521 -61.51186197 1.68477107 -57.26277161 1.54187012 C-48.92436519 1.25883832 -40.5932804 0.92671269 -32.26171875 0.48046875 C-21.50905266 -0.08385363 -10.76456194 -0.04875838 0 0 Z " fill="#D8D9D9" transform="translate(214.8125,299.9375)"/>
<path d="M0 0 C3.97751416 1.91650778 6.3682462 4.93890871 8 9 C8.57296472 13.99297824 8.6276987 18.54488028 6.625 23.1875 C6.08875 23.785625 5.5525 24.38375 5 25 C4.34 25 3.68 25 3 25 C3 25.66 3 26.32 3 27 C-2.77118698 29.13282997 -8.00939991 29.7804575 -14 28 C-17.06002131 26.17610611 -18.61990454 24.27975627 -20 21 C-20.79583618 15.55621305 -21.07159873 10.37600486 -18.77734375 5.2890625 C-13.88901057 -1.00668089 -7.42154736 -1.08461044 0 0 Z M-11.375 7.5625 C-13.55226285 10.82839428 -14 13.07983866 -14 17 C-12.09483297 20.50550734 -10.81578187 21.70492996 -7.0625 23.0625 C-3.91932202 23.22940651 -3.91932202 23.22940651 -1.1875 21.5 C1.67593085 18.2275076 2.07468275 16.33159956 2 12 C0.69787944 8.46305722 0.69787944 8.46305722 -2 6 C-5.96705934 5.29159655 -7.98664287 5.33331768 -11.375 7.5625 Z " fill="#202020" transform="translate(253,132)"/>
<path d="M0 0 C0.66 0.66 1.32 1.32 2 2 C4.39456094 2.64276846 4.39456094 2.64276846 7.0625 3.0625 C11.90277778 3.90277778 11.90277778 3.90277778 13 5 C13.12770009 7.74109726 13.185221 10.44585997 13.1875 13.1875 C13.19974609 13.94353516 13.21199219 14.69957031 13.22460938 15.47851562 C13.23650902 20.05194624 12.73749871 23.69402494 11 28 C7.04 28 3.08 28 -1 28 C-0.34 26.35 0.32 24.7 1 23 C1.99 23 2.98 23 4 23 C4 19.04 4 15.08 4 11 C3.34 11 2.68 11 2 11 C2 10.34 2 9.68 2 9 C1.24074219 8.93941406 0.48148438 8.87882812 -0.30078125 8.81640625 C-1.29464844 8.73261719 -2.28851563 8.64882813 -3.3125 8.5625 C-4.29863281 8.48128906 -5.28476563 8.40007812 -6.30078125 8.31640625 C-9 8 -9 8 -12 7 C-12 5.35 -12 3.7 -12 2 C-8.07925671 -0.61382886 -4.55488983 -0.29386386 0 0 Z " fill="#539FE5" transform="translate(209,327)"/>
<path d="M0 0 C1.98 0 3.96 0 6 0 C6 2.64 6 5.28 6 8 C8.31 8 10.62 8 13 8 C13.625 10.375 13.625 10.375 14 13 C13.34 13.66 12.68 14.32 12 15 C10.35 15 8.7 15 7 15 C7 19.62 7 24.24 7 29 C8.98 29 10.96 29 13 29 C13.33 31.31 13.66 33.62 14 36 C11.11138291 37.44430855 9.20352299 37.37688506 6 37 C2.89835231 34.44975635 1.27433584 32.82300753 0 29 C-0.06970052 26.60509014 -0.08448003 24.20832309 -0.0625 21.8125 C-0.05347656 20.54019531 -0.04445313 19.26789063 -0.03515625 17.95703125 C-0.02355469 16.98121094 -0.01195312 16.00539062 0 15 C-1.32 15 -2.64 15 -4 15 C-4.33 13.35 -4.66 11.7 -5 10 C-3.35 9.67 -1.7 9.34 0 9 C0 6.03 0 3.06 0 0 Z " fill="#272727" transform="translate(341,120)"/>
<path d="M0 0 C0.99128906 0.01160156 1.98257812 0.02320313 3.00390625 0.03515625 C3.99261719 0.04417969 4.98132813 0.05320312 6 0.0625 C6.84691406 0.07410156 7.69382812 0.08570313 8.56640625 0.09765625 C9.91972755 0.09765625 11.27345135 0.06143193 12.625 -0.0078125 C13.41003906 -0.03488281 14.19507813 -0.06195313 15.00390625 -0.08984375 C15.78636719 -0.12464844 16.56882812 -0.15945313 17.375 -0.1953125 C20.0633398 0.16409122 20.88297179 1.03531371 22.56640625 3.09765625 C22.23640625 4.08765625 21.90640625 5.07765625 21.56640625 6.09765625 C20.43203125 5.91203125 19.29765625 5.72640625 18.12890625 5.53515625 C16.95328125 5.39078125 15.77765625 5.24640625 14.56640625 5.09765625 C14.23640625 5.42765625 13.90640625 5.75765625 13.56640625 6.09765625 C16.53640625 7.08765625 19.50640625 8.07765625 22.56640625 9.09765625 C22.6640625 15.25 22.6640625 15.25 22.56640625 17.09765625 C20.82790997 18.83615253 18.48774255 18.26981921 16.12890625 18.28515625 C14.64583984 18.30642578 14.64583984 18.30642578 13.1328125 18.328125 C10.56640625 18.09765625 10.56640625 18.09765625 8.56640625 16.09765625 C8.94140625 13.97265625 8.94140625 13.97265625 9.56640625 12.09765625 C11.95204702 12.67350057 14.23323409 13.3199322 16.56640625 14.09765625 C16.89640625 13.43765625 17.22640625 12.77765625 17.56640625 12.09765625 C16.30828125 11.85015625 15.05015625 11.60265625 13.75390625 11.34765625 C9.96069469 10.42768578 8.74631008 9.36751199 6.56640625 6.09765625 C5.24640625 6.09765625 3.92640625 6.09765625 2.56640625 6.09765625 C2.56640625 10.05765625 2.56640625 14.01765625 2.56640625 18.09765625 C0.91640625 18.42765625 -0.73359375 18.75765625 -2.43359375 19.09765625 C-3.74762818 13.18450133 -3.75237249 7.12632472 -3.43359375 1.09765625 C-2.43359375 0.09765625 -2.43359375 0.09765625 0 0 Z " fill="#6FABE1" transform="translate(354.43359375,330.90234375)"/>
<path d="M0 0 C0 0.99 0 1.98 0 3 C-3.93148757 4.2246667 -7.94127295 4.32778651 -12.0234375 4.53125 C-13.20974258 4.59354797 -13.20974258 4.59354797 -14.42001343 4.65710449 C-24.31415205 5.15134367 -34.21572963 5.34479406 -44.11914062 5.55224609 C-53.90019837 5.76129223 -63.64070428 6.09065656 -73.39990234 6.79272461 C-79.26670559 7.13050543 -85.12478722 7.08262018 -91 7 C-91 6.67 -91 6.34 -91 6 C-89.35 6 -87.7 6 -86 6 C-86 5.34 -86 4.68 -86 4 C-83.15875285 2.57937642 -80.63670056 2.74425936 -77.46166992 2.61108398 C-76.78975616 2.58167725 -76.11784241 2.55227051 -75.42556763 2.52197266 C-73.19403417 2.42551298 -70.96228778 2.33568395 -68.73046875 2.24609375 C-67.17261935 2.18058257 -65.61478359 2.11474621 -64.05696106 2.04859924 C-60.78100542 1.91048199 -57.50494054 1.7754897 -54.22875977 1.64282227 C-50.06423351 1.47405551 -45.90000437 1.29897565 -41.73583508 1.12164211 C-38.51079505 0.98480522 -35.28564298 0.85077654 -32.0604496 0.7176075 C-30.52769397 0.65411685 -28.99496655 0.589941 -27.46227074 0.52502251 C-18.30473144 0.13950456 -9.16773284 -0.0887494 0 0 Z " fill="#DCDCDC" transform="translate(505,288)"/>
<path d="M0 0 C1.65 0 3.3 0 5 0 C5.89749822 3.0682638 6.11711768 5.79269976 6.09765625 8.984375 C6.09443359 9.91894531 6.09121094 10.85351562 6.08789062 11.81640625 C6.07951172 12.78449219 6.07113281 13.75257813 6.0625 14.75 C6.05798828 15.73355469 6.05347656 16.71710938 6.04882812 17.73046875 C6.03706483 20.15370791 6.02062684 22.57682273 6 25 C5.195625 24.979375 4.39125 24.95875 3.5625 24.9375 C1.06645115 24.70366379 1.06645115 24.70366379 0 26 C-4.23464382 26.48861275 -6.33667142 26.4375146 -9.9375 24.0625 C-12.34622876 20.48590275 -12.73886988 18.39466827 -12.484375 14.16015625 C-11.6726873 10.54029093 -10.0140178 9.03118591 -7 7 C-3.6875 6.6875 -3.6875 6.6875 -1 7 C-0.67 4.69 -0.34 2.38 0 0 Z M-6 12 C-6.66 13.98 -7.32 15.96 -8 18 C-6.68 19.32 -5.36 20.64 -4 22 C-1.96758273 21.36020151 -1.96758273 21.36020151 0 20 C0.99843776 17.59117313 0.99843776 17.59117313 1 15 C0.34 14.01 -0.32 13.02 -1 12 C-3.58380177 11.74969023 -3.58380177 11.74969023 -6 12 Z " fill="#7BB1E5" transform="translate(265,328)"/>
<path d="M0 0 C1.65 0 3.3 0 5 0 C12.48291572 16.70842825 12.48291572 16.70842825 15 25 C13.02 25 11.04 25 9 25 C8.34 23.35 7.68 21.7 7 20 C4.03 19.67 1.06 19.34 -2 19 C-2.33 20.98 -2.66 22.96 -3 25 C-4.65 25.33 -6.3 25.66 -8 26 C-7.33659653 21.55925841 -6.34702877 17.3197296 -5.125 13 C-4.63386719 11.2365625 -4.63386719 11.2365625 -4.1328125 9.4375 C-3.02925529 6.08877466 -1.65744313 3.10652198 0 0 Z M2 7 C1.34 9.64 0.68 12.28 0 15 C1.65 15 3.3 15 5 15 C4.45276317 11.62537285 3.9451 9.91765 2 7 Z " fill="#63A5E4" transform="translate(239,329)"/>
<path d="M0 0 C1.32 0 2.64 0 4 0 C4.86111516 3.02769315 5.18230893 5.84266637 5.31640625 8.984375 C5.35830078 9.91894531 5.40019531 10.85351562 5.44335938 11.81640625 C5.48267578 12.78449219 5.52199219 13.75257813 5.5625 14.75 C5.60568359 15.73355469 5.64886719 16.71710938 5.69335938 17.73046875 C5.79922052 20.15351275 5.90130171 22.5766554 6 25 C3.75308523 25.2763585 1.50215158 25.52018861 -0.75 25.75 C-2.00296875 25.88921875 -3.2559375 26.0284375 -4.546875 26.171875 C-8 26 -8 26 -10.390625 24.140625 C-12.78689463 20.95335375 -13.13584503 19.47882704 -12.75 15.5625 C-12.68296875 14.78003906 -12.6159375 13.99757813 -12.546875 13.19140625 C-11.89607232 10.58354695 -11.11470741 9.6263107 -9 8 C-5.39959537 7.09989884 -3.54973169 6.8167561 0 8 C0 5.36 0 2.72 0 0 Z M-6 12 C-8.00719496 14.17862819 -8.00719496 14.17862819 -9 17 C-8.59130748 19.31749122 -8.59130748 19.31749122 -7 21 C-5.10231241 21.99530794 -5.10231241 21.99530794 -3 22 C-2.01 21.34 -1.02 20.68 0 20 C0.41666667 17 0.41666667 17 0 14 C-0.66 13.34 -1.32 12.68 -2 12 C-3.32 12 -4.64 12 -6 12 Z " fill="#77B3E4" transform="translate(285,327)"/>
<path d="M0 0 C-0.5625 2.875 -0.5625 2.875 -2 6 C-5.5625 7.25 -5.5625 7.25 -9 8 C-10.1482685 10.296537 -10.11561175 11.58313167 -10.09765625 14.1328125 C-10.09443359 14.93847656 -10.09121094 15.74414062 -10.08789062 16.57421875 C-10.07951172 17.41597656 -10.07113281 18.25773437 -10.0625 19.125 C-10.05573242 20.39923828 -10.05573242 20.39923828 -10.04882812 21.69921875 C-10.03702874 23.79950909 -10.01909306 25.8997633 -10 28 C-12.64 28 -15.28 28 -18 28 C-18 18.76 -18 9.52 -18 0 C-15.33333333 0 -12.66666667 0 -10 0 C-6.30581799 -1.231394 -3.7943739 -0.64432764 0 0 Z " fill="#2D2D2D" transform="translate(234,133)"/>
<path d="M0 0 C1.47919922 0.06960938 1.47919922 0.06960938 2.98828125 0.140625 C3.98214844 0.17671875 4.97601563 0.2128125 6 0.25 C7.13888672 0.31960938 7.13888672 0.31960938 8.30078125 0.390625 C8.30078125 0.720625 8.30078125 1.050625 8.30078125 1.390625 C4.67078125 2.050625 1.04078125 2.710625 -2.69921875 3.390625 C-3.02921875 5.040625 -3.35921875 6.690625 -3.69921875 8.390625 C-2.04921875 8.720625 -0.39921875 9.050625 1.30078125 9.390625 C0.06328125 10.133125 0.06328125 10.133125 -1.19921875 10.890625 C-3.86487218 13.55627843 -4.09525271 13.92477758 -4.19921875 17.453125 C-3.94811223 21.1686528 -3.94811223 21.1686528 -2.69921875 23.390625 C0.57382756 25.02714816 3.73830578 25.16668293 7.30078125 24.390625 C9.65145252 22.44535392 9.65145252 22.44535392 10.30078125 19.390625 C9.58448469 15.54867073 9.08631003 13.17615378 6.30078125 10.390625 C7.62078125 10.390625 8.94078125 10.390625 10.30078125 10.390625 C10.30078125 11.050625 10.30078125 11.710625 10.30078125 12.390625 C10.96078125 12.390625 11.62078125 12.390625 12.30078125 12.390625 C12.30078125 16.350625 12.30078125 20.310625 12.30078125 24.390625 C11.31078125 24.390625 10.32078125 24.390625 9.30078125 24.390625 C8.31078125 26.865625 8.31078125 26.865625 7.30078125 29.390625 C11.26078125 29.390625 15.22078125 29.390625 19.30078125 29.390625 C19.96078125 25.430625 20.62078125 21.470625 21.30078125 17.390625 C21.63078125 17.390625 21.96078125 17.390625 22.30078125 17.390625 C22.35515732 18.97357282 22.39374396 20.55706756 22.42578125 22.140625 C22.44898438 23.02234375 22.4721875 23.9040625 22.49609375 24.8125 C22.28392038 27.6131885 21.99179689 29.14268805 20.30078125 31.390625 C10.50723861 34.54593891 -1.52074919 33.54279481 -11.69921875 33.390625 C-11.69921875 32.730625 -11.69921875 32.070625 -11.69921875 31.390625 C-10.92835938 31.35324219 -10.1575 31.31585938 -9.36328125 31.27734375 C-7.85894531 31.17873047 -7.85894531 31.17873047 -6.32421875 31.078125 C-5.32648438 31.02011719 -4.32875 30.96210938 -3.30078125 30.90234375 C-2.44226563 30.73347656 -1.58375 30.56460937 -0.69921875 30.390625 C-0.03921875 29.400625 0.62078125 28.410625 1.30078125 27.390625 C0.72328125 27.308125 0.14578125 27.225625 -0.44921875 27.140625 C-3.58563715 26.0951522 -4.78877921 25.11982434 -6.69921875 22.390625 C-7.59047302 16.77137553 -6.50705984 11.7011582 -4.69921875 6.390625 C-7.66921875 6.390625 -10.63921875 6.390625 -13.69921875 6.390625 C-13.69921875 6.060625 -13.69921875 5.730625 -13.69921875 5.390625 C-10.72070312 5.1953125 -10.72070312 5.1953125 -7.7421875 5 C-5.50689385 4.56507175 -5.50689385 4.56507175 -4.29296875 2.359375 C-2.69921875 0.390625 -2.69921875 0.390625 0 0 Z " fill="#72AEE5" transform="translate(200.69921875,325.609375)"/>
<path d="M0 0 C3.42156426 0.71052645 4.81183604 1.6124098 6.9375 4.40234375 C7.9771698 9.45582073 7.73381782 13.15809716 4.9375 17.52734375 C0.79507508 20.11635933 -1.22450259 20.01669263 -6.0625 19.40234375 C-9.29863354 17.6598103 -9.88645315 16.93048431 -11.0625 13.40234375 C-11.73855634 6.41642826 -11.73855634 6.41642826 -9.0625 2.40234375 C-5.71648273 0.17166557 -3.93385643 -0.30546991 0 0 Z M-4.0625 4.40234375 C-4.7225 5.06234375 -5.3825 5.72234375 -6.0625 6.40234375 C-6.05760849 9.93696962 -6.05760849 9.93696962 -5.0625 13.40234375 C-3.12652968 14.91528663 -3.12652968 14.91528663 -1.0625 15.40234375 C1.10391665 13.73689036 1.10391665 13.73689036 2.9375 11.40234375 C2.77599795 8.0108008 2.35453243 6.81937618 -0.0625 4.40234375 C-1.3825 4.40234375 -2.7025 4.40234375 -4.0625 4.40234375 Z " fill="#7AB1E1" transform="translate(325.0625,332.59765625)"/>
<path d="M0 0 C2.25 -0.3125 2.25 -0.3125 5 0 C7.77971464 2.77971464 9 4.01144966 9 8 C9.99 8 10.98 8 12 8 C12.28875 7.236875 12.5775 6.47375 12.875 5.6875 C14 3 14 3 16 0 C18.625 -0.1875 18.625 -0.1875 21 0 C19.55049545 3.7910119 17.84827434 7.3874638 16 11 C15.34 11 14.68 11 14 11 C14 15.95 14 20.9 14 26 C12.35 26 10.7 26 9 26 C9.020625 25.26136719 9.04125 24.52273438 9.0625 23.76171875 C8.8991862 15.72872132 6.8465429 11.41914888 1.71484375 5.27734375 C0 3 0 3 0 0 Z " fill="#67A7E0" transform="translate(296,326)"/>
<path d="M0 0 C1.65 0 3.3 0 5 0 C6.32594359 5.96674616 6.0884587 11.92583615 6 18 C3.89722877 18.22197585 1.79267698 18.42713637 -0.3125 18.625 C-1.48425781 18.74101562 -2.65601563 18.85703125 -3.86328125 18.9765625 C-7 19 -7 19 -10 17 C-10.38394667 14.22737745 -10.60342248 11.65676472 -10.6875 8.875 C-10.72166016 8.12089844 -10.75582031 7.36679687 -10.79101562 6.58984375 C-10.87354278 4.72708799 -10.93844711 2.86356674 -11 1 C-9.68 1 -8.36 1 -7 1 C-5.71553081 3.56893838 -5.67022856 5.76576337 -5.4375 8.625 C-5.35371094 9.62789063 -5.26992188 10.63078125 -5.18359375 11.6640625 C-5.12300781 12.43492187 -5.06242187 13.20578125 -5 14 C-3.35 14 -1.7 14 0 14 C0 9.38 0 4.76 0 0 Z " fill="#82B0D9" transform="translate(344,332)"/>
<path d="M0 0 C1.78833252 -0.00277954 1.78833252 -0.00277954 3.61279297 -0.00561523 C8.87218919 0.00246965 14.13136418 0.02394237 19.390625 0.0625 C19.390625 0.7225 19.390625 1.3825 19.390625 2.0625 C15.44396213 2.97847438 11.69511132 3.23960562 7.6484375 3.34375 C6.33359375 3.38113281 5.01875 3.41851562 3.6640625 3.45703125 C2.2812596 3.49256296 0.89844697 3.52771816 -0.484375 3.5625 C-3.16938047 3.63182809 -5.85426274 3.7043553 -8.5390625 3.78125 C-9.20548264 3.80030899 -9.87190277 3.81936798 -10.55851746 3.83900452 C-16.4857681 4.0255447 -22.38638296 4.4336131 -28.30175781 4.85302734 C-32.23253152 5.10196474 -36.10896373 5.16250392 -40.046875 5.125 C-41.30371094 5.11597656 -42.56054688 5.10695313 -43.85546875 5.09765625 C-44.76425781 5.08605469 -45.67304688 5.07445312 -46.609375 5.0625 C-46.609375 4.4025 -46.609375 3.7425 -46.609375 3.0625 C-47.269375 2.7325 -47.929375 2.4025 -48.609375 2.0625 C-47.8344873 2.03744385 -47.05959961 2.0123877 -46.26123047 1.98657227 C-40.06448754 1.78345322 -33.86797517 1.5734367 -27.671875 1.3515625 C-26.49238281 1.3098291 -25.31289063 1.2680957 -24.09765625 1.22509766 C-20.55064974 1.05976267 -17.02323254 0.78955174 -13.484375 0.5 C-8.97979758 0.17543715 -4.51611099 0.00529904 0 0 Z " fill="#D3D3D3" transform="translate(399.609375,291.9375)"/>
<path d="M0 0 C0.99 0 1.98 0 3 0 C3 0.66 3 1.32 3 2 C3.66 2 4.32 2 5 2 C5.9016858 5.08433792 6.13468049 7.85341821 6.125 11.0625 C6.12757813 11.91972656 6.13015625 12.77695312 6.1328125 13.66015625 C6 16 6 16 5 19 C1.04 19 -2.92 19 -7 19 C-6.34 17.35 -5.68 15.7 -5 14 C-4.01 14 -3.02 14 -2 14 C-2.02320313 13.15695312 -2.04640625 12.31390625 -2.0703125 11.4453125 C-2.09738281 9.80175781 -2.09738281 9.80175781 -2.125 8.125 C-2.14820313 7.03445313 -2.17140625 5.94390625 -2.1953125 4.8203125 C-2 2 -2 2 0 0 Z " fill="#459CED" transform="translate(215,336)"/>
<path d="M0 0 C0 0.99 0 1.98 0 3 C-9.72799537 5.64733908 -20.88820405 5.08095732 -30.9375 5.25 C-32.86916016 5.28867187 -32.86916016 5.28867187 -34.83984375 5.328125 C-38 5 -38 5 -39.94140625 3.484375 C-40.29074219 2.99453125 -40.64007813 2.5046875 -41 2 C-37.61995998 1.25664818 -34.3935685 0.83183198 -30.9375 0.68359375 C-29.98109619 0.64161865 -29.02469238 0.59964355 -28.03930664 0.55639648 C-27.03633545 0.51716064 -26.03336426 0.4779248 -25 0.4375 C-23.97575928 0.3950415 -22.95151855 0.35258301 -21.89624023 0.30883789 C-14.59268696 0.0218239 -7.30937658 -0.12626562 0 0 Z " fill="#E1E1E1" transform="translate(505,288)"/>
<path d="M0 0 C1.51400391 0.01740234 1.51400391 0.01740234 3.05859375 0.03515625 C4.07050781 0.04417969 5.08242188 0.05320312 6.125 0.0625 C7.29869141 0.07990234 7.29869141 0.07990234 8.49609375 0.09765625 C9.97441635 3.05430144 9.55642158 5.83995362 9.49609375 9.09765625 C9.08359375 8.60265625 8.67109375 8.10765625 8.24609375 7.59765625 C6.37407037 5.66379533 6.37407037 5.66379533 2.49609375 6.09765625 C2.49609375 10.05765625 2.49609375 14.01765625 2.49609375 18.09765625 C0.84609375 18.42765625 -0.80390625 18.75765625 -2.50390625 19.09765625 C-3.81794068 13.18450133 -3.82268499 7.12632472 -3.50390625 1.09765625 C-2.50390625 0.09765625 -2.50390625 0.09765625 0 0 Z " fill="#95C2E7" transform="translate(354.50390625,330.90234375)"/>
<path d="M0 0 C3.4375 0.75 3.4375 0.75 5.4375 2.75 C5.4140625 4.9140625 5.4140625 4.9140625 5.0625 7.375 C4.89621094 8.60089844 4.89621094 8.60089844 4.7265625 9.8515625 C4.58347656 10.79128906 4.58347656 10.79128906 4.4375 11.75 C-2.1875 12.875 -2.1875 12.875 -5.5625 11.75 C-7.46566736 9.18072407 -7.5685749 7.85124839 -7.375 4.625 C-6.12039296 0.18562126 -4.47210882 -0.3138322 0 0 Z " fill="#65A6E4" transform="translate(204.5625,337.25)"/>
<path d="M0 0 C1.32 0 2.64 0 4 0 C4.86963087 2.99706695 5.11763099 5.64956526 5.09765625 8.765625 C5.09443359 9.65507812 5.09121094 10.54453125 5.08789062 11.4609375 C5.07951172 12.38132812 5.07113281 13.30171875 5.0625 14.25 C5.05798828 15.18585938 5.05347656 16.12171875 5.04882812 17.0859375 C5.03706918 19.39069041 5.02063426 21.69531227 5 24 C2.69 24 0.38 24 -2 24 C-1.34 23.34 -0.68 22.68 0 22 C0.41673207 18.54199641 0.41673207 18.54199641 0 15 C-1.4166747 13.2488427 -1.4166747 13.2488427 -3 12 C-3 11.01 -3 10.02 -3 9 C-2.01 9 -1.02 9 0 9 C0 6.03 0 3.06 0 0 Z " fill="#5EA3E3" transform="translate(285,327)"/>
<path d="M0 0 C0 0.66 0 1.32 0 2 C-3.06850073 3.02283358 -5.3819412 3.19923078 -8.6015625 3.31640625 C-10.28608521 3.3793689 -10.28608521 3.3793689 -12.00463867 3.44360352 C-13.19935791 3.48283936 -14.39407715 3.5220752 -15.625 3.5625 C-17.44124878 3.62618774 -17.44124878 3.62618774 -19.29418945 3.69116211 C-28.53306141 3.99656413 -37.7572916 4.11732634 -47 4 C-47 3.34 -47 2.68 -47 2 C-31.311401 0.73046094 -15.74452577 -0.34901658 0 0 Z " fill="#C6C6C6" transform="translate(93,305)"/>
<path d="M0 0 C0.99 0 1.98 0 3 0 C4.2263757 2.45275141 4.11415314 4.0505781 4.09765625 6.7890625 C4.09282227 8.20058594 4.09282227 8.20058594 4.08789062 9.640625 C4.07951172 10.62546875 4.07113281 11.6103125 4.0625 12.625 C4.05798828 13.61757813 4.05347656 14.61015625 4.04882812 15.6328125 C4.03702145 18.0886016 4.020554 20.54427104 4 23 C3.01 23 2.02 23 1 23 C1 22.34 1 21.68 1 21 C0.01 20.67 -0.98 20.34 -2 20 C-1.855625 18.9275 -1.71125 17.855 -1.5625 16.75 C-0.8615969 11.18282682 -0.43811078 5.5929036 0 0 Z " fill="#70ABDE" transform="translate(267,330)"/>
<path d="M0 0 C1.65 0 3.3 0 5 0 C5 0.66 5 1.32 5 2 C4.01 2 3.02 2 2 2 C2 7.61 2 13.22 2 19 C1 17 0 15 -1 13 C-3.52733235 12.34444881 -3.52733235 12.34444881 -6 12 C-6.66 13.98 -7.32 15.96 -8 18 C-9.09658936 14.71023192 -8.79953138 13.28696233 -8 10 C-8.99 10.495 -8.99 10.495 -10 11 C-9.67 10.01 -9.34 9.02 -9 8 C-6.29120665 6.64560332 -3.99066732 6.93498549 -1 7 C-0.67 4.69 -0.34 2.38 0 0 Z " fill="#8CBEE8" transform="translate(265,328)"/>
<path d="M0 0 C1.32 0 2.64 0 4 0 C5.35091528 2.70183055 5.33858058 5.11808206 5.5625 8.125 C5.64628906 9.22070312 5.73007812 10.31640625 5.81640625 11.4453125 C5.87699219 12.28835938 5.93757813 13.13140625 6 14 C6.99 14 7.98 14 9 14 C9 14.66 9 15.32 9 16 C6.36 16 3.72 16 1 16 C0.67 10.72 0.34 5.44 0 0 Z " fill="#7DB1DE" transform="translate(333,333)"/>
<path d="M0 0 C0.66 0.99 1.32 1.98 2 3 C1.34 3 0.68 3 0 3 C0 4.65 0 6.3 0 8 C-0.99 8.495 -0.99 8.495 -2 9 C-3.37473284 13.12419852 -3.22391707 16.99251509 -3.25 21.3125 C-3.270625 22.15490234 -3.29125 22.99730469 -3.3125 23.86523438 C-3.34517457 29.08908062 -2.68214815 32.38502447 0 37 C0.1875 39.875 0.1875 39.875 0 42 C-4.83841419 37.73081101 -5.75983207 31.8019592 -6.29296875 25.58203125 C-6.50632125 16.26563872 -5.45469122 7.79241604 0 0 Z " fill="#DA6690" transform="translate(219,206)"/>
<path d="M0 0 C1.32 0.33 2.64 0.66 4 1 C-7.45472022 7.73807072 -17.63624978 9.16490251 -30.703125 6.73046875 C-33.27860209 5.91139695 -34.9394326 4.72501629 -37 3 C-29.375 3.875 -29.375 3.875 -26 5 C-23.73154071 5.12117236 -21.45916106 5.17540383 -19.1875 5.1875 C-17.38345703 5.20876953 -17.38345703 5.20876953 -15.54296875 5.23046875 C-12.01916575 5.00124672 -9.27870472 4.27030979 -6 3 C-6 2.67 -6 2.34 -6 2 C-4.02 2 -2.04 2 0 2 C0 1.34 0 0.68 0 0 Z " fill="#DC6990" transform="translate(269,257)"/>
<path d="M0 0 C0 0.33 0 0.66 0 1 C-13.30438788 3.42291291 -26.51913648 3.20801332 -40 3 C-40 2.34 -40 1.68 -40 1 C-26.65475011 0.29346466 -13.36423419 -0.14849149 0 0 Z " fill="#C3C5C4" transform="translate(235,300)"/>
<path d="M0 0 C0 0.33 0 0.66 0 1 C-4.95 1 -9.9 1 -15 1 C-15 1.66 -15 2.32 -15 3 C-13.68 3.33 -12.36 3.66 -11 4 C-18.26 4 -25.52 4 -33 4 C-32.01 3.67 -31.02 3.34 -30 3 C-30 2.34 -30 1.68 -30 1 C-19.98707052 -0.09945892 -10.05598201 -0.10055982 0 0 Z " fill="#E1E1E1" transform="translate(334,295)"/>
<path d="M0 0 C-4.3257952 2.88386347 -7.49665443 3.1250178 -12.640625 3.09765625 C-13.71054687 3.09443359 -14.78046875 3.09121094 -15.8828125 3.08789062 C-16.99398438 3.07951172 -18.10515625 3.07113281 -19.25 3.0625 C-20.93996094 3.05573242 -20.93996094 3.05573242 -22.6640625 3.04882812 C-25.44276217 3.03705397 -28.22135409 3.0206084 -31 3 C-31 2.34 -31 1.68 -31 1 C-20.63946908 0.16639406 -10.3905794 -0.12288464 0 0 Z " fill="#CECECE" transform="translate(304,297)"/>
<path d="M0 0 C0.33 0 0.66 0 1 0 C1.04241723 2.33294775 1.04092937 4.66702567 1 7 C0.67 7.33 0.34 7.66 0 8 C1.65 8.33 3.3 8.66 5 9 C5 7.35 5 5.7 5 4 C5.33 4 5.66 4 6 4 C6 5.98 6 7.96 6 10 C3.75308523 10.2763585 1.50215158 10.52018861 -0.75 10.75 C-2.00296875 10.88921875 -3.2559375 11.0284375 -4.546875 11.171875 C-8 11 -8 11 -10.453125 9.015625 C-10.96359375 8.35046875 -11.4740625 7.6853125 -12 7 C-11.34 6.67 -10.68 6.34 -10 6 C-10 6.66 -10 7.32 -10 8 C-9.34 8 -8.68 8 -8 8 C-8.33 6.02 -8.66 4.04 -9 2 C-8.34 3.32 -7.68 4.64 -7 6 C-5.02 5.67 -3.04 5.34 -1 5 C-0.67 3.35 -0.34 1.7 0 0 Z " fill="#97C4E8" transform="translate(285,342)"/>
<path d="M0 0 C7.04477612 -0.47761194 7.04477612 -0.47761194 11 1.5 C13.89478151 5.11847689 13.37893227 7.45281278 13 12 C12.67 11.01 12.34 10.02 12 9 C11.34 9 10.68 9 10 9 C9.401875 8.34 8.80375 7.68 8.1875 7 C6.15230922 4.73417974 6.15230922 4.73417974 3.25 4.75 C2.5075 4.8325 1.765 4.915 1 5 C0.67 3.35 0.34 1.7 0 0 Z " fill="#6BAAE0" transform="translate(319,333)"/>
<path d="M0 0 C0.90105469 0.00902344 1.80210937 0.01804688 2.73046875 0.02734375 C3.41753906 0.03894531 4.10460937 0.05054688 4.8125 0.0625 C4.8125 0.3925 4.8125 0.7225 4.8125 1.0625 C3.1625 1.3925 1.5125 1.7225 -0.1875 2.0625 C2.2875 3.0525 2.2875 3.0525 4.8125 4.0625 C4.4825 4.7225 4.1525 5.3825 3.8125 6.0625 C2.8225 6.0625 1.8325 6.0625 0.8125 6.0625 C0.4825 7.7125 0.1525 9.3625 -0.1875 11.0625 C-1.5075 11.0625 -2.8275 11.0625 -4.1875 11.0625 C-3.8575 10.4025 -3.5275 9.7425 -3.1875 9.0625 C-2.5275 9.3925 -1.8675 9.7225 -1.1875 10.0625 C-1.1875 9.0725 -1.1875 8.0825 -1.1875 7.0625 C-1.785625 6.815 -2.38375 6.5675 -3 6.3125 C-5.47397521 4.89879988 -6.62120255 3.41194617 -8.1875 1.0625 C-5.17259443 0.05753148 -3.14568308 -0.04085303 0 0 Z " fill="#E25486" transform="translate(246.1875,223.9375)"/>
<path d="M0 0 C1.47919922 0.06960938 1.47919922 0.06960938 2.98828125 0.140625 C3.98214844 0.17671875 4.97601563 0.2128125 6 0.25 C7.13888672 0.31960938 7.13888672 0.31960938 8.30078125 0.390625 C8.30078125 0.720625 8.30078125 1.050625 8.30078125 1.390625 C4.67078125 2.050625 1.04078125 2.710625 -2.69921875 3.390625 C-3.02921875 5.040625 -3.35921875 6.690625 -3.69921875 8.390625 C-2.04921875 8.720625 -0.39921875 9.050625 1.30078125 9.390625 C0.51703125 9.90625 -0.26671875 10.421875 -1.07421875 10.953125 C-4.25516123 13.9068573 -4.81415568 16.20669048 -5.69921875 20.390625 C-6.02921875 20.390625 -6.35921875 20.390625 -6.69921875 20.390625 C-6.91114096 15.19853096 -6.29048765 11.263886 -4.69921875 6.390625 C-7.66921875 6.390625 -10.63921875 6.390625 -13.69921875 6.390625 C-13.69921875 6.060625 -13.69921875 5.730625 -13.69921875 5.390625 C-10.72070312 5.1953125 -10.72070312 5.1953125 -7.7421875 5 C-5.50689385 4.56507175 -5.50689385 4.56507175 -4.29296875 2.359375 C-2.69921875 0.390625 -2.69921875 0.390625 0 0 Z " fill="#71ADE0" transform="translate(200.69921875,325.609375)"/>
<path d="M0 0 C2.25597827 2.25597827 2.96574192 4.04603867 4.125 7 C4.47820312 7.886875 4.83140625 8.77375 5.1953125 9.6875 C6 12 6 12 6 14 C4.02 14 2.04 14 0 14 C-0.66 12.35 -1.32 10.7 -2 9 C-4.31 8.67 -6.62 8.34 -9 8 C-9 7.67 -9 7.34 -9 7 C-6.36 6.67 -3.72 6.34 -1 6 C-0.67 4.02 -0.34 2.04 0 0 Z " fill="#83B9E5" transform="translate(248,340)"/>
<path d="M0 0 C1.32 0.33 2.64 0.66 4 1 C3.85892253 2.45880109 3.71197585 3.91703551 3.5625 5.375 C3.48128906 6.18710937 3.40007812 6.99921875 3.31640625 7.8359375 C3 10 3 10 2 12 C0.03177114 10.03177114 0.33751619 6.65191291 0 4 C-0.07071068 7.0942809 -0.07071068 7.0942809 0.5 10.5 C1 14 1 14 1 17 C-2 15 -2 15 -3 12 C-3.45933014 4.76555024 -3.45933014 4.76555024 -1.5 1.5 C-1.005 1.005 -0.51 0.51 0 0 Z " fill="#86BAE4" transform="translate(317,334)"/>
<path d="M0 0 C0.33 1.32 0.66 2.64 1 4 C-1 3 -1 3 -2 2 C-2.40992188 2.5053125 -2.81984375 3.010625 -3.2421875 3.53125 C-3.78101563 4.1809375 -4.31984375 4.830625 -4.875 5.5 C-5.67550781 6.47453125 -5.67550781 6.47453125 -6.4921875 7.46875 C-7.23855469 8.22671875 -7.23855469 8.22671875 -8 9 C-8.66 9 -9.32 9 -10 9 C-10.66 10.98 -11.32 12.96 -12 15 C-12.33 15 -12.66 15 -13 15 C-13.33 12.69 -13.66 10.38 -14 8 C-12.35 8 -10.7 8 -9 8 C-9.33 6.02 -9.66 4.04 -10 2 C-6.3558226 -0.4294516 -4.28758728 -0.16179575 0 0 Z " fill="#E56390" transform="translate(244,210)"/>
<path d="M0 0 C0.33 0 0.66 0 1 0 C1.06058594 1.14597656 1.12117187 2.29195313 1.18359375 3.47265625 C1.26806989 5.00261297 1.35271427 6.53256041 1.4375 8.0625 C1.47681641 8.81466797 1.51613281 9.56683594 1.55664062 10.34179688 C1.81580719 14.94698741 2.2799421 19.44366724 3 24 C1.68 23.67 0.36 23.34 -1 23 C-1.02894547 19.54168414 -1.04678 16.08339928 -1.0625 12.625 C-1.07087891 11.64015625 -1.07925781 10.6553125 -1.08789062 9.640625 C-1.09111328 8.69960938 -1.09433594 7.75859375 -1.09765625 6.7890625 C-1.10289307 5.91975098 -1.10812988 5.05043945 -1.11352539 4.15478516 C-1 2 -1 2 0 0 Z " fill="#74ABE2" transform="translate(186,332)"/>
<path d="M0 0 C0.79148437 -0.02578125 1.58296875 -0.0515625 2.3984375 -0.078125 C5.09524878 0.31929982 5.93229015 1.17506535 7.625 3.25 C7.295 4.24 6.965 5.23 6.625 6.25 C3.985 5.92 1.345 5.59 -1.375 5.25 C-1.375 4.26 -1.375 3.27 -1.375 2.25 C-2.695 1.92 -4.015 1.59 -5.375 1.25 C-3.79577594 -0.32922406 -2.18056126 0.042341 0 0 Z " fill="#84B7E4" transform="translate(369.375,330.75)"/>
<path d="M0 0 C0 0.66 0 1.32 0 2 C-4.62459244 3.17700048 -9.07866462 3.11408412 -13.8125 3.0625 C-14.99489258 3.05573242 -14.99489258 3.05573242 -16.20117188 3.04882812 C-18.13414761 3.03711312 -20.06708393 3.01917998 -22 3 C-21.67 2.34 -21.34 1.68 -21 1 C-14.19925464 -0.48329014 -6.92054682 -0.1184124 0 0 Z " fill="#CCCCCC" transform="translate(419,292)"/>
<path d="M0 0 C0 0.66 0 1.32 0 2 C1.32 2.33 2.64 2.66 4 3 C1.08365878 3.19502282 -1.83279545 3.38129328 -4.75 3.5625 C-5.9875 3.64661133 -5.9875 3.64661133 -7.25 3.73242188 C-8.44882812 3.80493164 -8.44882812 3.80493164 -9.671875 3.87890625 C-10.4050293 3.9260376 -11.13818359 3.97316895 -11.89355469 4.02172852 C-14.08357226 3.99913793 -15.90487187 3.61487456 -18 3 C-18 2.34 -18 1.68 -18 1 C-15.56257869 0.83210874 -13.12507454 0.66563867 -10.6875 0.5 C-9.99720703 0.45230469 -9.30691406 0.40460938 -8.59570312 0.35546875 C-5.72337641 0.16120511 -2.87986212 0 0 0 Z " fill="#D3D3D3" transform="translate(337,295)"/>
<path d="M0 0 C1.98 0 3.96 0 6 0 C6.98120464 3.05263664 6.98120464 4.94736336 6 8 C4.02 8 2.04 8 0 8 C1 6 1 6 3 3 C1.35 3.33 -0.3 3.66 -2 4 C-1.34 2.68 -0.68 1.36 0 0 Z " fill="#469CEE" transform="translate(201,339)"/>
<path d="M0 0 C2.81256281 -0.02684312 5.62487241 -0.04676188 8.4375 -0.0625 C9.23994141 -0.07087891 10.04238281 -0.07925781 10.86914062 -0.08789062 C12.91295221 -0.0965143 14.95683902 -0.0522815 17 0 C17.33 0.33 17.66 0.66 18 1 C20.69235776 1.23678716 23.36498156 1.42198025 26.0625 1.5625 C27.20041992 1.62727539 27.20041992 1.62727539 28.36132812 1.69335938 C30.24065438 1.79973633 32.12030244 1.90039934 34 2 C34 2.33 34 2.66 34 3 C26.74 3 19.48 3 12 3 C12 2.67 12 2.34 12 2 C8.04 1.67 4.08 1.34 0 1 C0 0.67 0 0.34 0 0 Z " fill="#EAEAEA" transform="translate(146,302)"/>
<path d="M0 0 C0.33 0 0.66 0 1 0 C1 3.96 1 7.92 1 12 C-5.435 12.495 -5.435 12.495 -12 13 C-12.33 12.34 -12.66 11.68 -13 11 C-11.02 11 -9.04 11 -7 11 C-7 10.34 -7 9.68 -7 9 C-7.99 8.67 -8.98 8.34 -10 8 C-8.35 8 -6.7 8 -5 8 C-4.67 7.01 -4.34 6.02 -4 5 C-3.67 5.99 -3.34 6.98 -3 8 C-3.99 8.33 -4.98 8.66 -6 9 C-6 9.66 -6 10.32 -6 11 C-4.02 11 -2.04 11 0 11 C0 7.37 0 3.74 0 0 Z " fill="#A8D4F0" transform="translate(349,338)"/>
<path d="M0 0 C1.125 3.75 1.125 3.75 0 6 C0.99 6 1.98 6 3 6 C2.67 7.98 2.34 9.96 2 12 C0.35 12.33 -1.3 12.66 -3 13 C-2.343621 8.51474352 -1.29925791 4.33085971 0 0 Z " fill="#78B0DF" transform="translate(234,342)"/>
<path d="M0 0 C0.66 0.33 1.32 0.66 2 1 C2 1.66 2 2.32 2 3 C2.66 3 3.32 3 4 3 C4.75 5.25 4.75 5.25 5 8 C3.0625 10.3125 3.0625 10.3125 1 12 C0.01 11.34 -0.98 10.68 -2 10 C-2 9.01 -2 8.02 -2 7 C-1.34 7 -0.68 7 0 7 C0 4.69 0 2.38 0 0 Z " fill="#71AEE5" transform="translate(327,339)"/>
<path d="M0 0 C0 0.99 0 1.98 0 3 C0.15373063 4.89692612 0.32166855 6.79272833 0.5 8.6875 C0.5928125 9.68136719 0.685625 10.67523438 0.78125 11.69921875 C0.8534375 12.45847656 0.925625 13.21773438 1 14 C0.34 14 -0.32 14 -1 14 C-1 13.34 -1 12.68 -1 12 C-1.99 12 -2.98 12 -4 12 C-4.22893297 8.96663814 -4.36475845 6.02534949 -4 3 C-2 0.9375 -2 0.9375 0 0 Z " fill="#64A3DE" transform="translate(257,337)"/>
<path d="M0 0 C0.66 0 1.32 0 2 0 C2.02578125 0.62648438 2.0515625 1.25296875 2.078125 1.8984375 C2.13484375 2.71570313 2.1915625 3.53296875 2.25 4.375 C2.29640625 5.18710937 2.3428125 5.99921875 2.390625 6.8359375 C2.7922092 9.18838927 2.7922092 9.18838927 5.046875 10.2890625 C5.69140625 10.52367187 6.3359375 10.75828125 7 11 C7 11.66 7 12.32 7 13 C4.69 13 2.38 13 0 13 C0 8.71 0 4.42 0 0 Z " fill="#5099DD" transform="translate(335,336)"/>
<path d="M0 0 C0.99 0.33 1.98 0.66 3 1 C3 4.3 3 7.6 3 11 C2.34 11 1.68 11 1 11 C1 10.34 1 9.68 1 9 C0.01 8.67 -0.98 8.34 -2 8 C-2.125 5.125 -2.125 5.125 -2 2 C-1.34 1.34 -0.68 0.68 0 0 Z " fill="#619FE0" transform="translate(274,339)"/>
<path d="M0 0 C6.75 0.75 6.75 0.75 9 3 C8.9765625 5.1640625 8.9765625 5.1640625 8.625 7.625 C8.45871094 8.85089844 8.45871094 8.85089844 8.2890625 10.1015625 C8.14597656 11.04128906 8.14597656 11.04128906 8 12 C6.68 11.67 5.36 11.34 4 11 C4.66 11 5.32 11 6 11 C5.67 9.35 5.34 7.7 5 6 C5.66 6 6.32 6 7 6 C6.67 4.68 6.34 3.36 6 2 C4.02 2 2.04 2 0 2 C0 1.34 0 0.68 0 0 Z " fill="#73ADE2" transform="translate(201,337)"/>
<path d="M0 0 C0.99 0.33 1.98 0.66 3 1 C2.87431641 2.48113281 2.87431641 2.48113281 2.74609375 3.9921875 C2.59333984 5.91417969 2.59333984 5.91417969 2.4375 7.875 C2.28087891 9.78925781 2.28087891 9.78925781 2.12109375 11.7421875 C1.74316633 14.88643942 1.74316633 14.88643942 3 17 C1.68 17 0.36 17 -1 17 C-0.67 11.39 -0.34 5.78 0 0 Z " fill="#64ABEB" transform="translate(353,333)"/>
<path d="M0 0 C0.66 0 1.32 0 2 0 C2 4.62 2 9.24 2 14 C0.35 14.33 -1.3 14.66 -3 15 C-3 13 -3 13 -1 11 C-0.53709779 8.33757179 -0.53709779 8.33757179 -0.375 5.375 C-0.30023438 4.37210937 -0.22546875 3.36921875 -0.1484375 2.3359375 C-0.09945313 1.56507813 -0.05046875 0.79421875 0 0 Z " fill="#509AE3" transform="translate(346,334)"/>
<path d="M0 0 C3.625 0.25 3.625 0.25 6.625 3.25 C0.025 3.25 -6.575 3.25 -13.375 3.25 C-13.375 2.92 -13.375 2.59 -13.375 2.25 C-12.41787109 2.15912109 -12.41787109 2.15912109 -11.44140625 2.06640625 C-10.20197266 1.94072266 -10.20197266 1.94072266 -8.9375 1.8125 C-8.11378906 1.73128906 -7.29007812 1.65007812 -6.44140625 1.56640625 C-3.43557358 1.10615588 -3.47624114 0.25749934 0 0 Z " fill="#D7D7D7" transform="translate(460.375,289.75)"/>
<path d="M0 0 C0.33 0 0.66 0 1 0 C1 3.96 1 7.92 1 12 C-0.32 12 -1.64 12 -3 12 C-2.88541307 10.56163249 -2.75790884 9.12429034 -2.625 7.6875 C-2.55539063 6.88699219 -2.48578125 6.08648437 -2.4140625 5.26171875 C-2 3 -2 3 0 0 Z " fill="#68A6DE" transform="translate(238,332)"/>
<path d="M0 0 C1.65 0.33 3.3 0.66 5 1 C4.67 1.66 4.34 2.32 4 3 C3.01 3 2.02 3 1 3 C1 6.96 1 10.92 1 15 C-0.32 14.67 -1.64 14.34 -3 14 C-2.34 14 -1.68 14 -1 14 C-1.01160156 13.24074219 -1.02320313 12.48148437 -1.03515625 11.69921875 C-1.04417969 10.70535156 -1.05320312 9.71148437 -1.0625 8.6875 C-1.07410156 7.70136719 -1.08570313 6.71523438 -1.09765625 5.69921875 C-1 3 -1 3 0 0 Z " fill="#81B5E4" transform="translate(356,334)"/>
<path d="M0 0 C1.32 0 2.64 0 4 0 C3.67 0.99 3.34 1.98 3 3 C2.34 2.67 1.68 2.34 1 2 C1.09539062 2.77085937 1.19078125 3.54171875 1.2890625 4.3359375 C1.39992188 5.33882813 1.51078125 6.34171875 1.625 7.375 C1.74101562 8.37273437 1.85703125 9.37046875 1.9765625 10.3984375 C1.98429687 11.25695312 1.99203125 12.11546875 2 13 C1.34 13.66 0.68 14.32 0 15 C-1.5 13.6875 -1.5 13.6875 -3 12 C-3 11.01 -3 10.02 -3 9 C-2.01 9 -1.02 9 0 9 C0 6.03 0 3.06 0 0 Z " fill="#68A5D9" transform="translate(285,327)"/>
<path d="M0 0 C3.33524284 2.69995849 4.56351308 6.03255995 6 10 C6.1875 12.9375 6.1875 12.9375 6 15 C5.01 15 4.02 15 3 15 C2.87625 13.824375 2.7525 12.64875 2.625 11.4375 C2.13564065 7.45879574 1.1944795 3.82233441 0 0 Z " fill="#DE6D95" transform="translate(280,206)"/>
<path d="M0 0 C0.33 0 0.66 0 1 0 C1 4.29 1 8.58 1 13 C-0.65 13 -2.3 13 -4 13 C-4 9.37 -4 5.74 -4 2 C-3.67 2 -3.34 2 -3 2 C-2.67 4.31 -2.34 6.62 -2 9 C-1.67 9 -1.34 9 -1 9 C-0.67 6.03 -0.34 3.06 0 0 Z " fill="#A4D0F1" transform="translate(309,339)"/>
<path d="M0 0 C0.2475 0.639375 0.495 1.27875 0.75 1.9375 C1.81562433 4.18741541 1.81562433 4.18741541 4.125 4.75 C4.74375 4.8325 5.3625 4.915 6 5 C6 5.66 6 6.32 6 7 C5.34 7 4.68 7 4 7 C4 7.66 4 8.32 4 9 C1.625 8.75 1.625 8.75 -1 8 C-2.3125 5.9375 -2.3125 5.9375 -3 4 C-2.34 4 -1.68 4 -1 4 C-1 4.66 -1 5.32 -1 6 C-0.34 6 0.32 6 1 6 C0.67 4.02 0.34 2.04 0 0 Z " fill="#86B8E7" transform="translate(276,344)"/>
<path d="M0 0 C1.93818597 3.22037053 2.18000929 5.28834086 1.75 9 C1.66234375 9.845625 1.5746875 10.69125 1.484375 11.5625 C0.99747499 14.01270651 0.22317883 15.8343719 -1 18 C-1.09945415 11.88909517 -1.0712828 6.02596573 0 0 Z " fill="#DB749C" transform="translate(286,221)"/>
<path d="M0 0 C1.32 0 2.64 0 4 0 C4 1.32 4 2.64 4 4 C4.99 4.66 5.98 5.32 7 6 C2.25 7.125 2.25 7.125 0 6 C0 4.02 0 2.04 0 0 Z " fill="#549CDC" transform="translate(364,333)"/>
<path d="M0 0 C0.66 0 1.32 0 2 0 C2 4.29 2 8.58 2 13 C1.67 12.34 1.34 11.68 1 11 C0.34 11 -0.32 11 -1 11 C-0.67 7.37 -0.34 3.74 0 0 Z " fill="#489CE7" transform="translate(267,330)"/>
<path d="M0 0 C0.33 0 0.66 0 1 0 C1.05437607 1.58294782 1.09296271 3.16644256 1.125 4.75 C1.14820313 5.63171875 1.17140625 6.5134375 1.1953125 7.421875 C0.99139502 10.1135858 0.36551721 11.69904974 -1 14 C-2.32 13.34 -3.64 12.68 -5 12 C-4.01 12 -3.02 12 -2 12 C-1.34 8.04 -0.68 4.08 0 0 Z " fill="#8DB8E0" transform="translate(222,343)"/>
<path d="M0 0 C0.33 0 0.66 0 1 0 C1.103125 1.258125 1.20625 2.51625 1.3125 3.8125 C1.64858808 6.60499657 1.80025876 7.74433121 3.5625 10 C4.036875 10.33 4.51125 10.66 5 11 C3.0625 11.5625 3.0625 11.5625 1 12 C0 11 0 11 -0.0625 7.4375 C-0.041875 6.303125 -0.02125 5.16875 0 4 C-0.66 3.67 -1.32 3.34 -2 3 C-1.34 2.01 -0.68 1.02 0 0 Z " fill="#59A1E0" transform="translate(317,337)"/>
<path d="M0 0 C0.33 0.66 0.66 1.32 1 2 C1.99 2.33 2.98 2.66 4 3 C4.33 5.31 4.66 7.62 5 10 C4.01 10 3.02 10 2 10 C2 8.02 2 6.04 2 4 C1.34 4 0.68 4 0 4 C0 2.68 0 1.36 0 0 Z " fill="#DC5B88" transform="translate(255,226)"/>
<path d="M0 0 C0.90105469 0.00902344 1.80210937 0.01804688 2.73046875 0.02734375 C3.41753906 0.03894531 4.10460937 0.05054688 4.8125 0.0625 C4.8125 0.3925 4.8125 0.7225 4.8125 1.0625 C0.3575 1.5575 0.3575 1.5575 -4.1875 2.0625 C-4.5175 3.0525 -4.8475 4.0425 -5.1875 5.0625 C-6.1775 3.7425 -7.1675 2.4225 -8.1875 1.0625 C-5.17259443 0.05753148 -3.14568308 -0.04085303 0 0 Z " fill="#E78AAB" transform="translate(246.1875,223.9375)"/>
<path d="M0 0 C0.66 0 1.32 0 2 0 C1.67 1.32 1.34 2.64 1 4 C0.34 4 -0.32 4 -1 4 C-1.66 5.98 -2.32 7.96 -3 10 C-3.33 10 -3.66 10 -4 10 C-4.33 7.69 -4.66 5.38 -5 3 C-3.35 3 -1.7 3 0 3 C0 2.01 0 1.02 0 0 Z " fill="#E47BA1" transform="translate(235,215)"/>
<path d="M0 0 C1.32 0 2.64 0 4 0 C3.67 1.32 3.34 2.64 3 4 C1.35 4.33 -0.3 4.66 -2 5 C-1.125 1.125 -1.125 1.125 0 0 Z " fill="#429EEF" transform="translate(199,329)"/>
<path d="M0 0 C0.33 0 0.66 0 1 0 C1.103125 1.0725 1.20625 2.145 1.3125 3.25 C1.97400493 6.85820872 2.57483421 8.36395023 5 11 C3.35 10.67 1.7 10.34 0 10 C-1.2380014 6.42355152 -0.74926071 3.66305234 0 0 Z " fill="#8DBEEA" transform="translate(195,340)"/>
<path d="M0 0 C0.99 0.495 0.99 0.495 2 1 C2 1.66 2 2.32 2 3 C2.66 3 3.32 3 4 3 C4.625 5.375 4.625 5.375 5 8 C4.34 8.66 3.68 9.32 3 10 C2.67 9.01 2.34 8.02 2 7 C1.34 6.34 0.68 5.68 0 5 C-0.125 2.375 -0.125 2.375 0 0 Z " fill="#89BBF0" transform="translate(327,339)"/>
<path d="M0 0 C0 0.66 0 1.32 0 2 C0.66 2 1.32 2 2 2 C2.33 3.65 2.66 5.3 3 7 C-2.875 3.25 -2.875 3.25 -4 1 C-2 0 -2 0 0 0 Z " fill="#DD6D97" transform="translate(228,253)"/>
<path d="M0 0 C0.33 0.66 0.66 1.32 1 2 C0.67 2.66 0.34 3.32 0 4 C-0.66 4 -1.32 4 -2 4 C-2.33 4.99 -2.66 5.98 -3 7 C-3.66 6.34 -4.32 5.68 -5 5 C-5 4.01 -5 3.02 -5 2 C-3.35 1.34 -1.7 0.68 0 0 Z " fill="#909191" transform="translate(280,192)"/>
<path d="M0 0 C0 0.99 0 1.98 0 3 C-1.98 3.33 -3.96 3.66 -6 4 C-6.33 3.01 -6.66 2.02 -7 1 C-4 0 -4 0 0 0 Z " fill="#4E9CE4" transform="translate(375,345)"/>
<path d="M0 0 C0.33 0 0.66 0 1 0 C1.09765625 6.15234375 1.09765625 6.15234375 1 8 C0 9 0 9 -2.5625 9.0625 C-3.366875 9.041875 -4.17125 9.02125 -5 9 C-3.68 8.67 -2.36 8.34 -1 8 C-1 7.01 -1 6.02 -1 5 C-1.66 4.67 -2.32 4.34 -3 4 C-2.34 3.67 -1.68 3.34 -1 3 C-0.67 2.01 -0.34 1.02 0 0 Z " fill="#80B5E3" transform="translate(376,340)"/>
<path d="M0 0 C1.65 0 3.3 0 5 0 C5.33 0.99 5.66 1.98 6 3 C5.01 3 4.02 3 3 3 C2.67 3.66 2.34 4.32 2 5 C1.34 4.34 0.68 3.68 0 3 C0 2.01 0 1.02 0 0 Z " fill="#94BDE0" transform="translate(296,326)"/>
<path d="M0 0 C1.32 0.33 2.64 0.66 4 1 C-2.75 5 -2.75 5 -5 5 C-5.33 4.01 -5.66 3.02 -6 2 C-4.02 2 -2.04 2 0 2 C0 1.34 0 0.68 0 0 Z " fill="#E27C9F" transform="translate(269,257)"/>
<path d="M0 0 C2.77842595 2.77842595 3.94471208 4.78366581 4.125 8.75 C4.08375 9.4925 4.0425 10.235 4 11 C0.55783328 8.3401439 0.00495326 5.09711714 -1 1 C-0.67 0.67 -0.34 0.34 0 0 Z " fill="#DF6E93" transform="translate(215,237)"/>
<path d="M0 0 C0 0.66 0 1.32 0 2 C-3.63 2.33 -7.26 2.66 -11 3 C-6.86621405 0.2441427 -4.94796454 -0.10756445 0 0 Z " fill="#DA628D" transform="translate(247,191)"/>
<path d="M0 0 C0.99 0.33 1.98 0.66 3 1 C2.67 3.31 2.34 5.62 2 8 C1.34 8 0.68 8 0 8 C0 5.36 0 2.72 0 0 Z " fill="#489CE8" transform="translate(353,333)"/>
<path d="M0 0 C0.99 0 1.98 0 3 0 C3.8723412 2.99480917 4.10829766 5.63575911 4.0625 8.75 C4.05347656 9.54921875 4.04445313 10.3484375 4.03515625 11.171875 C4.01775391 12.07679688 4.01775391 12.07679688 4 13 C3.67 13 3.34 13 3 13 C2.86722656 12.31292969 2.73445313 11.62585938 2.59765625 10.91796875 C2.42105469 10.01691406 2.24445313 9.11585938 2.0625 8.1875 C1.88847656 7.29417969 1.71445312 6.40085938 1.53515625 5.48046875 C1.02258847 2.88602829 1.02258847 2.88602829 0 0 Z " fill="#E28CAB" transform="translate(260,226)"/>
<path d="M0 0 C2.97 0 5.94 0 9 0 C9.33 0.66 9.66 1.32 10 2 C6.06329512 3.31223496 3.87511856 2.24296256 0 1 C0 0.67 0 0.34 0 0 Z " fill="#D34576" transform="translate(245,225)"/>
<path d="M0 0 C0.66 0 1.32 0 2 0 C2.125 2.875 2.125 2.875 2 6 C1.34 6.66 0.68 7.32 0 8 C-0.99 8 -1.98 8 -3 8 C-2.34 6.68 -1.68 5.36 -1 4 C-0.34 4 0.32 4 1 4 C0.67 2.68 0.34 1.36 0 0 Z " fill="#D8477A" transform="translate(244,210)"/>
<path d="M0 0 C1.32 1.32 2.64 2.64 4 4 C3.67 4.99 3.34 5.98 3 7 C2.34 7 1.68 7 1 7 C1 6.01 1 5.02 1 4 C0.34 4 -0.32 4 -1 4 C-0.67 2.68 -0.34 1.36 0 0 Z " fill="#8ABCE6" transform="translate(309,330)"/>
<path d="M0 0 C0.33 0.66 0.66 1.32 1 2 C1.99 2.33 2.98 2.66 4 3 C3.34 3 2.68 3 2 3 C1.34 4.32 0.68 5.64 0 7 C-0.33 7 -0.66 7 -1 7 C-1.04254356 5.00045254 -1.04080783 2.99958364 -1 1 C-0.67 0.67 -0.34 0.34 0 0 Z " fill="#DE5E8B" transform="translate(276,248)"/>
</svg>
