<?xml version="1.0" encoding="UTF-8"?>
<svg version="1.1" xmlns="http://www.w3.org/2000/svg" width="462" height="540">
<path d="M0 0 C15.49437399 -0.12214219 30.98855989 -0.21007167 46.4833374 -0.25933838 C51.15428919 -0.27482638 55.82504921 -0.29957722 60.49591064 -0.33239746 C65.99601637 -0.37046525 71.49584538 -0.38883631 76.99607849 -0.39225006 C79.02522978 -0.39670672 81.05437934 -0.40797192 83.08345032 -0.42656708 C85.87582717 -0.45091388 88.66714422 -0.45009367 91.45959473 -0.44320679 C92.26324148 -0.45601968 93.06688824 -0.46883257 93.89488792 -0.48203373 C100.76008013 -0.41940778 106.67019887 1.59784528 112.02258301 5.96426392 C116.72905736 11.93786597 117.76015767 16.32027795 117.83703613 23.83731079 C117.84950583 24.86137103 117.84950583 24.86137103 117.86222744 25.90611935 C117.88889401 28.18589197 117.90881556 30.46567397 117.92883301 32.74551392 C117.94666366 34.37174464 117.96494897 35.99797043 117.98365784 37.62419128 C118.02289987 41.10708408 118.05928973 44.58999034 118.09341431 48.07293701 C118.14705381 53.5386393 118.20695276 59.00426004 118.26843262 64.46987915 C118.27870074 65.38365672 118.28896887 66.29743429 118.29954815 67.23890209 C118.32043628 69.09665195 118.34134567 70.95440157 118.36227608 72.81215096 C118.3938474 75.6318478 118.42481602 78.45155075 118.45567322 81.27125549 C118.65242772 99.13154967 118.90593352 116.99084454 119.17623901 134.85015869 C119.21016569 137.094734 119.24385691 139.33931273 119.27746582 141.58389282 C119.39946734 149.73153753 119.52261851 157.87916404 119.64758301 166.02676392 C120.14894775 165.14013062 120.6503125 164.25349731 121.16687012 163.33999634 C125.37764296 155.91728212 129.68780661 148.57795753 134.21008301 141.33926392 C134.77090576 140.43643677 135.33172852 139.53360962 135.9095459 138.60342407 C138.76589354 134.01255467 141.65240612 129.44415456 144.58508301 124.90176392 C146.66511159 121.66090956 148.56332838 118.38200221 150.36633301 114.97988892 C153.72215105 108.78477189 157.4343631 102.84748132 161.21008301 96.90176392 C165.5581145 90.04375213 169.80743696 83.1843726 173.64758301 76.02676392 C174.30758301 76.02676392 174.96758301 76.02676392 175.64758301 76.02676392 C175.75070801 75.42863892 175.85383301 74.83051392 175.96008301 74.21426392 C176.7811074 71.60191358 177.42973327 70.63279304 179.64758301 69.02676392 C180.5898877 68.96488892 181.53219238 68.90301392 182.50305176 68.83926392 C185.88789843 68.304414 185.88789843 68.304414 187.84289551 65.22598267 C188.50642178 64.06679433 189.1492363 62.89554441 189.77258301 61.71426392 C193.13189743 55.69043304 195.79519992 51.05133165 202.64758301 49.02676392 C210.57720236 47.30867972 216.15004706 48.78306161 222.96008301 53.15176392 C227.24670909 57.73745694 229.37653478 62.40663106 230.02258301 68.65176392 C229.61201219 72.34690127 228.79966085 75.49852551 227.64758301 79.02676392 C226.98758301 79.02676392 226.32758301 79.02676392 225.64758301 79.02676392 C225.54445801 79.58363892 225.44133301 80.14051392 225.33508301 80.71426392 C224.64758301 83.02676392 224.64758301 83.02676392 223.02258301 85.27676392 C221.27709175 88.07332192 221.27709175 88.07332192 222.33508301 91.65176392 C223.30072523 96.83470075 220.67812902 100.23318258 217.99523926 104.51113892 C216.33276873 107.13877303 216.33276873 107.13877303 216.64758301 111.02676392 C218.30973568 112.36572024 219.97721908 113.69806534 221.64758301 115.02676392 C225.90063087 121.10254658 228.08551686 127.39355068 227.37805176 134.87832642 C225.78384426 142.67451532 222.13491921 148.65207168 217.80090332 155.23135376 C215.74500232 158.43183978 213.86589377 161.73553557 211.96008301 165.02676392 C207.60226062 172.49549022 203.06978951 179.84787762 198.48937988 187.18179321 C194.41756275 193.72102985 190.49131961 200.33398115 186.71789551 207.05020142 C185.74834829 208.74111823 184.70539839 210.38961759 183.64758301 212.02676392 C182.98758301 212.02676392 182.32758301 212.02676392 181.64758301 212.02676392 C181.50320801 212.64551392 181.35883301 213.26426392 181.21008301 213.90176392 C180.64758301 216.02676392 180.64758301 216.02676392 179.64758301 218.02676392 C176.1756484 219.05256278 174.21408983 219.22380977 170.77258301 218.02676392 C168.64758301 216.02676392 168.64758301 216.02676392 168.33508301 212.33926392 C168.43820801 211.24613892 168.54133301 210.15301392 168.64758301 209.02676392 C169.30758301 209.02676392 169.96758301 209.02676392 170.64758301 209.02676392 C170.75844238 208.463927 170.86930176 207.90109009 170.98352051 207.32119751 C171.745176 204.68956579 172.8734173 202.67130692 174.27258301 200.31582642 C174.81012207 199.40727905 175.34766113 198.49873169 175.90148926 197.56265259 C176.4777002 196.60205933 177.05391113 195.64146606 177.64758301 194.65176392 C178.23410645 193.66603394 178.82062988 192.68030396 179.42492676 191.66470337 C183.36157495 185.08083155 187.41179368 178.58978178 191.64758301 172.19473267 C193.18118226 169.76553541 194.57729801 167.35581397 195.94445801 164.83535767 C197.87594868 161.31290137 199.95927056 157.94021193 202.16320801 154.58145142 C202.77422363 153.64945923 203.38523926 152.71746704 204.01477051 151.75723267 C205.27831312 149.84094709 206.54926018 147.9295249 207.82727051 146.02285767 C212.3772132 139.05727646 212.3772132 139.05727646 213.64758301 131.02676392 C212.19285776 126.43289472 210.86710539 123.50027704 206.64758301 121.02676392 C205.57233107 123.67905204 204.55302149 126.31044846 203.64758301 129.02676392 C202.98758301 129.02676392 202.32758301 129.02676392 201.64758301 129.02676392 C201.42586426 129.8350061 201.20414551 130.64324829 200.97570801 131.47598267 C199.2949251 135.96960519 196.93775551 139.78530248 194.39758301 143.83926392 C193.90250244 144.64025513 193.40742188 145.44124634 192.89733887 146.26651001 C189.98546489 150.95703975 186.97677926 155.56573028 183.86242676 160.12442017 C181.83865378 163.29347947 180.25337052 166.62990571 178.64758301 170.02676392 C177.98758301 170.02676392 177.32758301 170.02676392 176.64758301 170.02676392 C176.53672363 170.58960083 176.42586426 171.15243774 176.31164551 171.73233032 C175.54999002 174.36396204 174.42174872 176.38222091 173.02258301 178.73770142 C172.48544678 179.64560425 171.94831055 180.55350708 171.39489746 181.48892212 C170.52997681 182.93077881 170.52997681 182.93077881 169.64758301 184.40176392 C169.05743408 185.39329468 168.46728516 186.38482544 167.85925293 187.40640259 C163.97387507 193.9031859 159.95336392 200.28580446 155.81555176 206.62442017 C153.35305224 210.44135066 151.0610883 214.35380306 148.77258301 218.27676392 C145.79053407 223.38793913 142.79492016 228.48805879 139.7102356 233.53819275 C138.79816899 235.03767485 137.8932821 236.5415668 136.9982605 238.05128479 C134.69902888 241.88331079 132.35342941 245.48181118 129.49963379 248.92495728 C118.3984182 262.96817329 119.18452774 277.562736 119.8236084 294.53579712 C119.9483625 298.20966131 120.00158539 301.884577 120.06164551 305.55996704 C120.18875734 312.71805774 120.39238106 319.87199492 120.64758301 327.02676392 C121.45872559 327.22084839 122.26986816 327.41493286 123.10559082 327.61489868 C124.17647949 327.87585327 125.24736816 328.13680786 126.35070801 328.40567017 C127.40935059 328.66162964 128.46799316 328.91758911 129.55871582 329.18130493 C133.83168832 330.35086735 137.6912408 332.05956234 141.64758301 334.02676392 C142.41715332 334.40445923 143.18672363 334.78215454 143.97961426 335.17129517 C145.87511841 336.11074818 147.76229212 337.06697946 149.64758301 338.02676392 C149.64758301 338.68676392 149.64758301 339.34676392 149.64758301 340.02676392 C150.22250488 340.2884436 150.79742676 340.55012329 151.38977051 340.81973267 C156.22551359 343.40493096 160.64620068 347.06572353 163.14758301 351.96426392 C163.31258301 352.64488892 163.47758301 353.32551392 163.64758301 354.02676392 C164.30758301 354.02676392 164.96758301 354.02676392 165.64758301 354.02676392 C165.64758301 355.01676392 165.64758301 356.00676392 165.64758301 357.02676392 C166.30758301 357.02676392 166.96758301 357.02676392 167.64758301 357.02676392 C176.49673462 374.78234321 180.25539001 392.7217294 173.83508301 411.96035767 C167.05506943 429.46795853 155.80429915 442.31297654 138.96008301 450.52676392 C124.52512027 456.59561999 106.42873437 457.6912512 91.64758301 452.02676392 C90.80195801 451.73672485 89.95633301 451.44668579 89.08508301 451.14785767 C83.13399559 448.97970234 77.51048816 446.13791562 72.64758301 442.02676392 C72.64758301 441.36676392 72.64758301 440.70676392 72.64758301 440.02676392 C71.81227051 439.71738892 71.81227051 439.71738892 70.96008301 439.40176392 C68.7006149 438.05829639 67.64771741 436.9751869 66.02258301 434.96426392 C63.97638904 432.01851679 63.97638904 432.01851679 61.64758301 431.02676392 C61.64758301 430.03676392 61.64758301 429.04676392 61.64758301 428.02676392 C60.98758301 428.02676392 60.32758301 428.02676392 59.64758301 428.02676392 C53.14001369 416.5700723 49.57895624 407.31290692 49.64758301 394.02676392 C49.03629547 394.03707138 48.42500793 394.04737885 47.79519653 394.05799866 C7.2369713 394.7362616 -33.3224853 395.19422834 -73.88471222 395.55586624 C-77.54328514 395.58873271 -81.20184943 395.62243825 -84.8604126 395.65637207 C-97.62488978 395.77395017 -110.38933459 395.87915733 -123.15411186 395.95843601 C-128.90318896 395.99457024 -134.65208032 396.03734215 -140.40100098 396.09335327 C-146.11408408 396.14894554 -151.82709706 396.18992247 -157.54036713 396.22047234 C-159.66891318 396.23438346 -161.79743263 396.25349706 -163.92588043 396.27823067 C-166.85560127 396.31141763 -169.78484169 396.325507 -172.71472168 396.33511353 C-173.56290215 396.34920446 -174.41108261 396.3632954 -175.28496552 396.37781334 C-181.12425 396.36933785 -185.93069131 395.17363215 -191.35241699 393.02676392 C-191.35241699 392.36676392 -191.35241699 391.70676392 -191.35241699 391.02676392 C-192.21866699 390.71738892 -192.21866699 390.71738892 -193.10241699 390.40176392 C-196.77360813 388.15825822 -198.87819384 384.85855644 -199.9528656 380.70739746 C-200.39217238 377.7600407 -200.51389361 374.92912578 -200.55773926 371.9491272 C-200.57768448 370.74241364 -200.5976297 369.53570007 -200.61817932 368.29241943 C-200.63489182 366.99045624 -200.65160431 365.68849304 -200.66882324 364.34707642 C-200.68946127 362.97442092 -200.71045914 361.60177079 -200.73179626 360.22912598 C-200.77572 357.34253162 -200.81660741 354.45591616 -200.85510254 351.56924438 C-200.90352021 347.94192019 -200.95727673 344.31470301 -201.01307774 340.68748569 C-201.20546394 328.13550765 -201.38693709 315.58445598 -201.35241699 303.03067017 C-201.32524997 292.84713894 -201.42242574 282.66652349 -201.53601074 272.48379517 C-201.54564976 271.6150218 -201.55528877 270.74624844 -201.56521988 269.85114861 C-201.60640708 266.14929427 -201.64791898 262.44744373 -201.68977356 258.74559689 C-202.20851927 212.86033755 -202.57561225 166.97444183 -202.89820719 121.08747053 C-202.91493027 118.71237743 -202.93173061 116.33728489 -202.94855881 113.96219254 C-203.01808491 104.14837039 -203.08673911 94.33454263 -203.15428495 84.52070665 C-203.16866134 82.43694914 -203.18315226 80.35319244 -203.19766617 78.26943588 C-203.22447424 74.41340231 -203.25053322 70.55736387 -203.27648926 66.70132446 C-203.28427115 65.58754834 -203.29205305 64.47377222 -203.30007076 63.32624531 C-203.31384436 61.24227233 -203.32547354 59.15828376 -203.33465767 57.07428551 C-203.34695075 54.96477825 -203.3689739 52.85531362 -203.39878654 50.74598122 C-203.40954279 49.68777357 -203.42029903 48.62956593 -203.43138123 47.53929138 C-203.44447295 46.5964671 -203.45756468 45.65364283 -203.47105312 44.68224812 C-203.14822574 37.45626226 -200.39414585 32.06849277 -195.35241699 27.02676392 C-190.44765473 23.55754183 -186.53614637 22.89362428 -180.60241699 22.96426392 C-179.61757324 22.97328735 -178.63272949 22.98231079 -177.61804199 22.99160767 C-176.49655762 23.00901001 -176.49655762 23.00901001 -175.35241699 23.02676392 C-175.35241699 21.72738892 -175.35241699 20.42801392 -175.35241699 19.08926392 C-174.67380887 12.86377202 -171.01108966 8.96567561 -166.35241699 5.02676392 C-160.48009461 1.0343195 -154.34796371 1.56817604 -147.51257324 1.55020142 C-146.20675797 1.53493912 -144.90094269 1.51967682 -143.55555725 1.50395203 C-139.94033382 1.46190424 -136.32518409 1.43791362 -132.70978546 1.41691208 C-128.80133507 1.39111285 -124.89306003 1.34895115 -120.98474121 1.30825806 C-115.98265388 1.25731438 -110.98056978 1.20851597 -105.97839355 1.167099 C-94.84325311 1.0748841 -83.70920177 0.94596604 -72.57483101 0.78615761 C-48.38386879 0.43930957 -24.19265093 0.19314127 0 0 Z M-28.30033779 13.16633141 C-42.62962515 13.22261733 -56.95884901 13.29312655 -71.28807354 13.36336577 C-76.67437774 13.38954422 -82.06068677 13.41348745 -87.44700813 13.43584013 C-96.09149793 13.4717382 -104.73590526 13.51399755 -113.38029671 13.56895208 C-117.39679779 13.59432946 -121.41325025 13.61649892 -125.42980957 13.63021088 C-129.15033235 13.64302254 -132.87068638 13.6650185 -136.59111595 13.69417071 C-138.58535407 13.70746402 -140.57964918 13.71112984 -142.57392883 13.71445656 C-152.57128397 13.4719192 -152.57128397 13.4719192 -161.22741699 17.71426392 C-163.66777673 22.73055893 -163.46951886 28.43650002 -163.39001465 33.91372681 C-163.38199074 34.57268259 -163.37396683 35.23163837 -163.36569977 35.91056252 C-163.33771893 38.10694966 -163.3020437 40.30314376 -163.26647949 42.49942017 C-163.24487553 44.08834654 -163.22380298 45.67728021 -163.20321655 47.26622009 C-163.15768165 50.71100632 -163.10891968 54.15572643 -163.05773926 57.60043335 C-162.97454777 63.22179425 -162.89990986 68.84324927 -162.82702637 74.4647522 C-162.81448948 75.43036324 -162.80195259 76.39597427 -162.7890358 77.39084625 C-162.76333573 79.37165545 -162.73766179 81.35246498 -162.71201324 83.33327484 C-162.67227367 86.38599786 -162.63189293 89.43871185 -162.59136963 92.49142456 C-162.32781712 112.41925702 -162.1105806 132.34743993 -161.91345215 152.27603149 C-161.87292547 156.36881744 -161.83121079 160.46158858 -161.78845215 164.55435181 C-161.51422535 190.87110848 -161.32065153 217.18730152 -161.20589089 243.50517178 C-161.18067195 249.24958441 -161.15289339 254.99398021 -161.12347412 260.7383728 C-161.11933778 261.54887998 -161.11520143 262.35938715 -161.11093974 263.19445515 C-161.09420246 266.46651438 -161.07740544 269.73857325 -161.06030416 273.01063061 C-161.00958177 282.73714393 -160.96830294 292.4635903 -160.94248688 302.19020265 C-160.92549719 308.31954828 -160.89790141 314.44878931 -160.86224258 320.57805449 C-160.84185218 324.15371358 -160.82661633 327.72921703 -160.82437515 331.30493736 C-160.821852 335.21764561 -160.79643618 339.13001651 -160.7689209 343.04263306 C-160.77192451 344.19245352 -160.77492813 345.34227398 -160.77802277 346.52693748 C-160.7669323 347.58097582 -160.75584183 348.63501415 -160.74441528 349.72099304 C-160.74110514 350.63106141 -160.73779499 351.54112978 -160.73438454 352.47877598 C-160.26482999 355.61102988 -159.20391821 357.47341885 -157.35241699 360.02676392 C-153.68398401 362.47238591 -150.95927054 362.30205752 -146.71936035 362.26968384 C-145.93505268 362.27155669 -145.15074501 362.27342955 -144.34267044 362.27535915 C-141.70910464 362.27903389 -139.0758034 362.26819565 -136.44226074 362.25723267 C-134.56207802 362.25641665 -132.68189481 362.25638403 -130.80171204 362.25708008 C-125.69636652 362.25602274 -120.59113737 362.24164095 -115.48582458 362.2242012 C-112.29352725 362.21427514 -109.1012442 362.20798327 -105.90893555 362.20300293 C-74.9325365 362.15440395 -43.95749173 361.95288733 -12.98286819 361.62015152 C-11.07306857 361.59967239 -9.16326581 361.5794843 -7.25345993 361.55959702 C3.12598898 361.45148992 13.5042001 361.32202008 23.88242435 361.12780476 C28.25364551 361.05058107 32.62095815 361.02091574 36.99278641 361.04342365 C40.12267553 361.05324471 43.25219039 361.01753231 46.38195801 360.99160767 C47.47204163 361.01316422 48.56212524 361.03472076 49.6852417 361.05693054 C55.07024849 361.09348235 55.07024849 361.09348235 59.36621094 358.26507568 C60.63254449 356.2345326 61.62404851 354.18573444 62.64758301 352.02676392 C63.96302164 350.67577289 65.28933419 349.33470722 66.64758301 348.02676392 C66.64758301 347.36676392 66.64758301 346.70676392 66.64758301 346.02676392 C67.63758301 345.69676392 68.62758301 345.36676392 69.64758301 345.02676392 C69.64758301 344.36676392 69.64758301 343.70676392 69.64758301 343.02676392 C70.63758301 343.02676392 71.62758301 343.02676392 72.64758301 343.02676392 C73.99924616 341.71201593 75.3299699 340.37563427 76.64758301 339.02676392 C86.84522471 332.55031135 95.57514681 330.03883662 107.64758301 328.02676392 C107.64758301 314.49676392 107.64758301 300.96676392 107.64758301 287.02676392 C103.48338689 288.06781294 101.05348202 289.47233966 97.64758301 292.02676392 C97.64758301 292.68676392 97.64758301 293.34676392 97.64758301 294.02676392 C96.96695801 294.25234985 96.28633301 294.47793579 95.58508301 294.71035767 C91.86305997 296.37833873 88.884553 298.63261994 85.64758301 301.08926392 C84.32044292 302.07886739 82.99229798 303.06712455 81.66320801 304.05410767 C80.99611816 304.5502356 80.32902832 305.04636353 79.64172363 305.55752563 C76.59338015 307.80347704 73.50486387 309.98833743 70.39758301 312.15176392 C69.36117676 312.87621704 68.32477051 313.60067017 67.25695801 314.34707642 C64.21054321 316.30809193 62.57742113 317.17813291 58.96008301 316.58926392 C58.19695801 316.40363892 57.43383301 316.21801392 56.64758301 316.02676392 C56.38003002 307.84230774 57.16538224 300.10124183 58.46008301 292.02676392 C58.84240398 289.6310598 59.22391101 287.23522564 59.60461426 284.83926392 C59.78975586 283.67652954 59.97489746 282.51379517 60.16564941 281.31582642 C60.58600196 278.44703743 60.90621479 275.60157842 61.15930176 272.71426392 C62.34986385 260.44847299 67.0911707 252.35541148 74.10559082 242.36172485 C76.32216768 239.00527439 78.16096028 235.47429531 80.05163574 231.92715454 C82.90468174 226.74217879 86.10531631 221.77372652 89.27258301 216.77676392 C96.66826281 207.00246085 96.66826281 207.00246085 100.64758301 196.02676392 C101.30758301 196.02676392 101.96758301 196.02676392 102.64758301 196.02676392 C106.3606479 189.21656133 107.19765539 183.66866799 107.02575684 175.98233032 C107.01819366 174.91201569 107.01063049 173.84170105 107.00283813 172.73895264 C106.97291529 169.2015764 106.91393414 165.66532204 106.85461426 162.12832642 C106.8271547 159.61779571 106.80144808 157.10724529 106.77738953 154.59667969 C106.71576493 148.63318476 106.63567675 142.67020972 106.54681844 136.7070812 C106.44028095 129.47661819 106.36382623 122.24587023 106.28625488 115.01504517 C106.15906995 103.45569042 105.99294061 91.89731379 105.80809212 80.33874893 C105.6913412 72.78425469 105.6140975 65.2306377 105.57084751 57.67537117 C105.54073002 52.9050205 105.49175724 48.13497161 105.43942833 43.36481857 C105.41952553 41.13376199 105.40816653 38.90261096 105.40583229 36.67146683 C105.40164986 33.61522729 105.36739464 30.56072041 105.3260498 27.50479126 C105.33255995 26.61086544 105.33907009 25.71693962 105.34577751 24.79592514 C105.25796969 20.55065817 105.00485614 18.54234484 102.52998352 14.97085571 C99.00140324 12.59093524 97.08768341 12.41478628 92.85070801 12.44326782 C92.17226837 12.44095972 91.49382874 12.43865162 90.79483032 12.43627357 C88.49501565 12.43470835 86.19712779 12.46930159 83.89758301 12.50332642 C82.20439318 12.50976261 80.51119376 12.51398083 78.81799316 12.51620483 C74.09610269 12.52898901 69.37494845 12.57352521 64.65332031 12.6231308 C59.57077241 12.67154793 54.48810607 12.69251043 49.40539551 12.71670532 C41.3144218 12.75845074 33.22363572 12.81249787 25.1328125 12.87705803 C7.32188673 13.01894626 -10.48900062 13.09698864 -28.30033779 13.16633141 Z M-188.44470215 37.69155884 C-191.51256933 43.05502615 -190.98218527 48.32171258 -190.87585449 54.39004517 C-190.86939705 55.77460417 -190.86511879 57.15917477 -190.86283875 58.54374695 C-190.85006653 62.33954963 -190.80564259 66.13442009 -190.75584793 69.92989349 C-190.70748218 74.02863269 -190.68810262 78.12752746 -190.66467285 82.22647095 C-190.6029443 91.94209339 -190.49491286 101.65697965 -190.38239288 111.37212372 C-190.33393653 115.66337857 -190.29116704 119.95468736 -190.24841309 124.2460022 C-190.107555 138.25986264 -189.95652954 152.2735618 -189.77966309 166.28701782 C-189.42868551 194.15657573 -189.17046616 222.02619331 -188.94541168 249.89704418 C-188.81668755 265.76057638 -188.67216164 281.62396777 -188.52630615 297.48735046 C-188.42545405 308.50863418 -188.3316078 319.5298562 -188.25901222 330.55136395 C-188.21859374 336.56486949 -188.16566343 342.57815122 -188.09934044 348.5914278 C-188.06423144 351.80775148 -188.03760189 355.02373628 -188.02429199 358.24023438 C-188.00967582 361.60575167 -187.9716146 364.97013177 -187.92663574 368.33535767 C-187.92858444 369.28348328 -187.93053314 370.23160889 -187.93254089 371.20846558 C-187.87318762 376.25765662 -187.87318762 376.25765662 -185.44152832 380.56997681 C-182.14548993 382.86838291 -180.32305399 383.15274023 -176.33410645 383.15615845 C-174.72469177 383.16081871 -174.72469177 383.16081871 -173.08276367 383.16557312 C-171.88913208 383.16359421 -170.69550049 383.1616153 -169.46569824 383.15957642 C-168.1959314 383.16094101 -166.92616455 383.1623056 -165.61791992 383.16371155 C-162.05654405 383.16657581 -158.49521161 383.162003 -154.93384171 383.15553665 C-152.65632318 383.15174963 -150.37880887 383.14968883 -148.10128784 383.14807129 C-81.85153703 383.09319638 -15.58875901 382.3567079 50.64758301 381.02676392 C50.97758301 378.38676392 51.30758301 375.74676392 51.64758301 373.02676392 C30.31437129 372.98891885 8.98326364 373.09297911 -12.34942937 373.22869301 C-16.89253031 373.25738807 -21.43563769 373.2850269 -25.97874451 373.31277466 C-34.54600064 373.36524202 -43.11325153 373.41851499 -51.68050045 373.47214651 C-67.05257481 373.56835637 -82.42465704 373.66329317 -97.79674238 373.75773096 C-103.17438559 373.79080227 -108.55202613 373.82427263 -113.92966473 373.85808563 C-117.27237776 373.87904732 -120.61509243 373.89973572 -123.95780754 373.92036247 C-125.49642893 373.9299169 -127.0350496 373.93958754 -128.57366943 373.9493885 C-131.97654363 373.97104235 -135.37940378 373.9911427 -138.78230476 374.00834656 C-141.06756722 374.02013568 -143.3528167 374.0351592 -145.6380291 374.05433655 C-146.61200205 374.06002151 -147.585975 374.06570648 -148.58946228 374.07156372 C-149.82976779 374.0811977 -149.82976779 374.0811977 -151.09512997 374.09102631 C-157.48130268 373.90921924 -161.99515684 372.01736414 -166.80944824 367.85488892 C-171.45781891 362.34745227 -171.81491868 357.17564072 -171.86413574 350.29238892 C-171.89106255 348.86609161 -171.89106255 348.86609161 -171.91853333 347.41098022 C-171.97246274 344.36628833 -172.00628288 341.32174026 -172.03991699 338.27676392 C-172.07315137 336.30799205 -172.10764649 334.33924105 -172.14343262 332.37051392 C-172.31708173 322.08104838 -172.36370246 311.79407758 -172.34460449 301.50332642 C-172.32223623 288.63472285 -172.49664522 275.77119988 -172.68949223 262.90442467 C-173.10194926 235.3753136 -173.39445667 207.84592833 -173.59078717 180.31447268 C-173.60634743 178.13274735 -173.6220259 175.95102289 -173.63772392 173.76929855 C-173.73218842 160.61200906 -173.82475303 147.45470753 -173.90658569 134.29733276 C-173.958246 125.9961829 -174.01252756 117.6950551 -174.07116699 109.39395142 C-174.07582576 108.73166802 -174.08048453 108.06938462 -174.08528447 107.38703203 C-174.25471105 83.59301536 -174.67249153 59.81153633 -175.35241699 36.02676392 C-180.22471831 35.60102885 -184.06315846 35.33266523 -188.44470215 37.69155884 Z M202.64758301 64.02676392 C200.82577055 66.4110448 200.82577055 66.4110448 199.39758301 69.08926392 C198.89742676 69.96711548 198.39727051 70.84496704 197.88195801 71.74942017 C197.11542226 73.1636301 196.36696702 74.58799589 195.64758301 76.02676392 C197.60277685 77.19868439 199.5618369 78.36415681 201.52258301 79.52676392 C202.61312988 80.17645142 203.70367676 80.82613892 204.82727051 81.49551392 C207.40565972 83.18581244 207.40565972 83.18581244 209.64758301 83.02676392 C211.48069552 80.76475495 211.48069552 80.76475495 213.27258301 77.90176392 C213.90422363 76.95043579 214.53586426 75.99910767 215.18664551 75.01895142 C216.82073188 71.6721328 217.10702479 69.7022982 216.64758301 66.02676392 C214.52206751 63.06766247 214.52206751 63.06766247 211.64758301 61.02676392 C207.2794036 61.02676392 206.07082912 61.49203551 202.64758301 64.02676392 Z M184.64758301 84.02676392 C183.78242339 85.24433928 182.96666947 86.4970449 182.17102051 87.76113892 C181.66796387 88.55786011 181.16490723 89.3545813 180.64660645 90.17544556 C179.84271484 91.46309814 179.84271484 91.46309814 179.02258301 92.77676392 C178.21095703 94.07118408 178.21095703 94.07118408 177.38293457 95.39175415 C169.73330526 105.68729604 169.73330526 105.68729604 165.64758301 117.02676392 C164.98758301 117.02676392 164.32758301 117.02676392 163.64758301 117.02676392 C164.00258382 119.7228806 164.37009413 120.7903474 166.47351074 122.58242798 C167.25154053 123.06421509 168.02957031 123.5460022 168.83117676 124.04238892 C169.67615723 124.57090454 170.5211377 125.09942017 171.39172363 125.64395142 C172.28053223 126.18277954 173.16934082 126.72160767 174.08508301 127.27676392 C174.97002441 127.83106079 175.85496582 128.38535767 176.76672363 128.95645142 C180.91998414 131.87629009 180.91998414 131.87629009 185.64758301 133.02676392 C187.08900485 131.05479677 187.08900485 131.05479677 188.51086426 128.49551392 C189.06838379 127.53902954 189.62590332 126.58254517 190.20031738 125.59707642 C190.78104004 124.58387329 191.3617627 123.57067017 191.96008301 122.52676392 C193.10108144 120.55747557 194.24299445 118.58871681 195.38586426 116.62051392 C195.93838867 115.6653186 196.49091309 114.71012329 197.06018066 113.72598267 C198.458333 111.3485646 199.89895637 109.01055255 201.37805176 106.68301392 C203.35652724 103.56153632 205.0604185 100.36816287 206.64758301 97.02676392 C203.17064351 94.85650721 199.69067119 92.69116329 196.21008301 90.52676392 C195.21686035 89.90672485 194.2236377 89.28668579 193.20031738 88.64785767 C192.2560791 88.06133423 191.31184082 87.47481079 190.33898926 86.87051392 C189.46444092 86.32588501 188.58989258 85.7812561 187.68884277 85.22012329 C185.89778334 83.94264742 185.89778334 83.94264742 184.64758301 84.02676392 Z M155.64758301 131.02676392 C152.67758301 135.97676392 152.67758301 135.97676392 149.64758301 141.02676392 C153.32340119 144.09109085 157.12517866 146.66200761 161.21008301 149.15176392 C162.32512207 149.83496704 163.44016113 150.51817017 164.58898926 151.22207642 C166.89103444 152.58037128 169.25687149 153.83140816 171.64758301 155.02676392 C173.95758301 151.72676392 176.26758301 148.42676392 178.64758301 145.02676392 C175.26978033 141.64896124 171.74411444 139.40813618 167.71008301 136.90176392 C166.99400879 136.44672485 166.27793457 135.99168579 165.54016113 135.52285767 C164.4969873 134.87123657 164.4969873 134.87123657 163.43273926 134.20645142 C162.80246826 133.81183716 162.17219727 133.4172229 161.52282715 133.01065063 C159.38147794 131.79309639 159.38147794 131.79309639 155.64758301 131.02676392 Z M142.64758301 153.02676392 C141.98758301 154.67676392 141.32758301 156.32676392 140.64758301 158.02676392 C139.98758301 158.02676392 139.32758301 158.02676392 138.64758301 158.02676392 C138.30001953 158.68088257 137.95245605 159.33500122 137.59436035 160.00894165 C133.14980049 168.27658249 128.28528246 176.24287918 123.33117676 184.21231079 C122.42432129 185.68474243 122.42432129 185.68474243 121.49914551 187.18692017 C120.95081055 188.07000854 120.40247559 188.95309692 119.83752441 189.86294556 C118.48695987 191.90727374 118.48695987 191.90727374 118.64758301 194.02676392 C117.98758301 194.02676392 117.32758301 194.02676392 116.64758301 194.02676392 C116.31758301 195.67676392 115.98758301 197.32676392 115.64758301 199.02676392 C114.98758301 199.02676392 114.32758301 199.02676392 113.64758301 199.02676392 C113.12515015 200.01011719 113.12515015 200.01011719 112.59216309 201.01333618 C108.17929676 209.22273054 103.34965453 217.13050142 98.41906738 225.03652954 C97.81771973 226.01170532 97.21637207 226.9868811 96.59680176 227.99160767 C96.05370361 228.86422241 95.51060547 229.73683716 94.9510498 230.63589478 C93.76466008 232.81201663 93.10109969 234.60555306 92.64758301 237.02676392 C91.98758301 237.02676392 91.32758301 237.02676392 90.64758301 237.02676392 C90.10230957 238.06123657 90.10230957 238.06123657 89.54602051 239.11660767 C86.55500181 244.70751184 83.44480263 249.96783534 79.65148926 255.05410767 C78.46316876 256.9502061 78.46316876 256.9502061 78.84143066 258.97305298 C79.89475786 261.65645345 81.10431283 262.35495486 83.54211426 263.85879517 C84.3329541 264.34670532 85.12379395 264.83461548 85.93859863 265.33731079 C86.77068848 265.83295532 87.60277832 266.32859985 88.46008301 266.83926392 C89.28057129 267.35424438 90.10105957 267.86922485 90.94641113 268.39981079 C91.74111816 268.88127563 92.5358252 269.36274048 93.35461426 269.85879517 C94.08140381 270.29941284 94.80819336 270.74003052 95.55700684 271.19400024 C98.0821518 272.19987079 99.16403097 272.0691692 101.64758301 271.02676392 C103.45835966 268.79472384 103.45835966 268.79472384 105.08508301 265.83926392 C105.41580811 265.27973022 105.7465332 264.72019653 106.08728027 264.14370728 C106.84728199 262.85471309 107.60131946 261.56219149 108.35070801 260.26699829 C110.90249644 255.85901436 113.49797931 251.47657928 116.08508301 247.08926392 C116.64808105 246.13165161 117.2110791 245.17403931 117.7911377 244.18740845 C120.87382202 238.9611416 124.01296428 233.79161998 127.33508301 228.71426392 C130.94642889 223.18254717 134.31545447 217.54388392 137.63659668 211.83413696 C141.04184862 206.00242323 144.57624516 200.25801268 148.14758301 194.52676392 C153.80282541 185.44832608 159.277318 176.27622712 164.64758301 167.02676392 C161.12131987 163.07587224 156.9891142 160.5253985 152.52258301 157.77676392 C151.7942627 157.31785767 151.06594238 156.85895142 150.31555176 156.38613892 C146.73688062 153.90542482 146.73688062 153.90542482 142.64758301 153.02676392 Z M73.64758301 272.02676392 C73.13994435 274.71301846 72.64131104 277.40044775 72.14758301 280.08926392 C71.9329541 281.21751587 71.9329541 281.21751587 71.71398926 282.36856079 C70.87115201 287.00416566 70.49743039 291.31572542 70.64758301 296.02676392 C75.19023953 294.52674975 78.6311767 291.96304298 82.33508301 289.02676392 C82.91580566 288.57559204 83.49652832 288.12442017 84.09484863 287.65957642 C86.38809862 285.86739492 88.58780132 284.08654561 90.64758301 282.02676392 C87.08071179 278.98268087 83.55247384 276.8159419 79.33508301 274.77676392 C78.2664502 274.25598267 77.19781738 273.73520142 76.09680176 273.19863892 C75.28855957 272.81192017 74.48031738 272.42520142 73.64758301 272.02676392 Z M109.64758301 365.02676392 C109.64758301 372.61676392 109.64758301 380.20676392 109.64758301 388.02676392 C102.05758301 388.02676392 94.46758301 388.02676392 86.64758301 388.02676392 C86.64758301 390.33676392 86.64758301 392.64676392 86.64758301 395.02676392 C94.23758301 395.02676392 101.82758301 395.02676392 109.64758301 395.02676392 C109.64758301 402.61676392 109.64758301 410.20676392 109.64758301 418.02676392 C111.62758301 418.02676392 113.60758301 418.02676392 115.64758301 418.02676392 C115.64758301 410.43676392 115.64758301 402.84676392 115.64758301 395.02676392 C123.56758301 395.02676392 131.48758301 395.02676392 139.64758301 395.02676392 C139.64758301 392.71676392 139.64758301 390.40676392 139.64758301 388.02676392 C131.72758301 388.02676392 123.80758301 388.02676392 115.64758301 388.02676392 C115.64758301 380.43676392 115.64758301 372.84676392 115.64758301 365.02676392 C113.66758301 365.02676392 111.68758301 365.02676392 109.64758301 365.02676392 Z " fill="#0F0F0F" transform="translate(223.3524169921875,51.973236083984375)"/>
<path d="M0 0 C0.77214844 0.37898438 1.54429687 0.75796875 2.33984375 1.1484375 C4.23275078 2.0865742 6.11730376 3.04153646 8 4 C8 4.66 8 5.32 8 6 C8.57492187 6.26167969 9.14984375 6.52335937 9.7421875 6.79296875 C14.57793059 9.37816704 18.99861768 13.03895961 21.5 17.9375 C21.665 18.618125 21.83 19.29875 22 20 C22.66 20 23.32 20 24 20 C24 20.99 24 21.98 24 23 C24.66 23 25.32 23 26 23 C34.84915162 40.7555793 38.607807 58.69496548 32.1875 77.93359375 C25.40748642 95.44119461 14.15671615 108.28621262 -2.6875 116.5 C-17.12246274 122.56885607 -35.21884864 123.66448728 -50 118 C-51.2684375 117.56494141 -51.2684375 117.56494141 -52.5625 117.12109375 C-58.51358742 114.95293843 -64.13709485 112.1111517 -69 108 C-69 107.34 -69 106.68 -69 106 C-69.8353125 105.690625 -69.8353125 105.690625 -70.6875 105.375 C-72.94696811 104.03153247 -73.9998656 102.94842298 -75.625 100.9375 C-77.67119397 97.99175287 -77.67119397 97.99175287 -80 97 C-80 96.01 -80 95.02 -80 94 C-80.66 94 -81.32 94 -82 94 C-90.43415831 79.15151418 -94.69875919 65.2137073 -92 48 C-92.99 47.67 -93.98 47.34 -95 47 C-93.68 47 -92.36 47 -91 47 C-91 44.03 -91 41.06 -91 38 C-90.01 38 -89.02 38 -88 38 C-87.896875 37.113125 -87.79375 36.22625 -87.6875 35.3125 C-87 32 -87 32 -84 27 C-91.92 27 -99.84 27 -108 27 C-108 26.67 -108 26.34 -108 26 C-107.29915283 26.01160156 -106.59830566 26.02320313 -105.8762207 26.03515625 C-102.6871532 26.06471153 -99.50150866 26.0329708 -96.3125 26 C-95.20970703 26.01933594 -94.10691406 26.03867187 -92.97070312 26.05859375 C-87.00597417 26.14497169 -87.00597417 26.14497169 -82.18505859 23.15234375 C-80.8229677 20.98195547 -80.8229677 20.98195547 -79.85620117 18.71484375 C-79.57365479 18.14894531 -79.2911084 17.58304687 -79 17 C-78.34 17 -77.68 17 -77 17 C-76.731875 16.236875 -76.46375 15.47375 -76.1875 14.6875 C-75.04204753 12.09516021 -74.23584819 10.69924463 -72 9 C-71.01 9 -70.02 9 -69 9 C-68.67 8.01 -68.34 7.02 -68 6 C-65.83057319 4.5399787 -63.72175231 3.2524843 -61.4375 2 C-60.79997803 1.64478271 -60.16245605 1.28956543 -59.50561523 0.92358398 C-41.56282867 -8.91380033 -18.31739653 -9.10954604 0 0 Z M-32 31 C-32 38.59 -32 46.18 -32 54 C-39.59 54 -47.18 54 -55 54 C-55 56.31 -55 58.62 -55 61 C-47.41 61 -39.82 61 -32 61 C-32 68.59 -32 76.18 -32 84 C-30.02 84 -28.04 84 -26 84 C-26 76.41 -26 68.82 -26 61 C-18.08 61 -10.16 61 -2 61 C-2 58.69 -2 56.38 -2 54 C-9.92 54 -17.84 54 -26 54 C-26 46.41 -26 38.82 -26 31 C-27.98 31 -29.96 31 -32 31 Z " fill="#3C75F2" transform="translate(365,386)"/>
<path d="M0 0 C15.46063622 -0.17173424 30.92109109 -0.26962577 46.38260078 -0.30283737 C53.9991348 -0.31953135 61.61518033 -0.35339996 69.23153025 -0.40940034 C75.32168537 -0.45262891 81.41164451 -0.46872173 87.50194359 -0.47513199 C90.07009179 -0.48184747 92.63823251 -0.49707705 95.20627785 -0.5210228 C98.75849276 -0.55238799 102.30940224 -0.55276015 105.86171722 -0.54530334 C107.44383499 -0.56991135 107.44383499 -0.56991135 109.05791473 -0.59501648 C111.68347767 -0.57230825 114.08029706 -0.51470029 116.64662933 0.03819275 C120.14293277 3.79911334 120.06334463 7.71316655 119.97475433 12.63975525 C119.97288116 13.35803497 119.971008 14.0763147 119.96907806 14.81636047 C119.96238213 16.32752661 119.94851667 17.83867614 119.92787933 19.34971619 C119.89663591 21.6627056 119.88689528 23.97501286 119.88100433 26.28819275 C119.87183672 27.75955523 119.86146171 29.23091079 119.84975433 30.70225525 C119.84550446 31.39292084 119.84125458 32.08358643 119.83687592 32.79518127 C119.79189857 35.81153901 119.60835868 38.15300472 118.64662933 41.03819275 C113.97275727 43.18253379 109.41993987 43.34259386 104.36464691 43.35704041 C103.55037798 43.3670747 102.73610905 43.37710899 101.8971653 43.38744736 C99.19517069 43.41833223 96.49327604 43.43535881 93.79116058 43.45225525 C91.87347379 43.47121153 89.95579482 43.49097335 88.03812408 43.51148987 C82.90534561 43.56369912 77.77254522 43.60345693 72.63963318 43.63989258 C68.40606335 43.67090744 64.1725507 43.70766321 59.93902588 43.74423981 C49.4254205 43.83465149 38.9117672 43.91087945 28.397995 43.97888947 C22.10725822 44.02005663 15.81664353 44.06891665 9.52602386 44.12510681 C2.44536064 44.18814521 -4.63520136 44.23595112 -11.71607208 44.26835632 C-14.2167324 44.28154086 -16.71737242 44.29945649 -19.21796417 44.32218933 C-22.61999981 44.35136123 -26.02153877 44.36173184 -29.42368317 44.36631775 C-30.89344856 44.38476242 -30.89344856 44.38476242 -32.39290619 44.40357971 C-33.2772081 44.40062897 -34.16151001 44.39767822 -35.07260895 44.39463806 C-36.21404861 44.40010651 -36.21404861 44.40010651 -37.37854767 44.40568542 C-39.94411433 43.9282619 -40.81813006 43.12512084 -42.35337067 41.03819275 C-42.65167118 38.20302457 -42.77375622 35.59206351 -42.75180817 32.75694275 C-42.75467834 31.94704895 -42.75754852 31.13715515 -42.76050568 30.30271912 C-42.76254609 28.59132691 -42.75701776 26.87991137 -42.74448395 25.16856384 C-42.72842924 22.54775385 -42.7443326 19.92848598 -42.76352692 17.307724 C-42.76154448 15.64496018 -42.75770079 13.98219731 -42.75180817 12.31944275 C-42.75788086 11.53500793 -42.76395355 10.75057312 -42.77021027 9.94236755 C-42.70045256 4.5510405 -42.70045256 4.5510405 -41.20323944 2.33876038 C-38.5645827 0.48362795 -36.58192267 0.60936239 -33.36728668 0.53965759 C-32.07451309 0.50603119 -30.7817395 0.47240479 -29.44979095 0.4377594 C-27.98146296 0.41586735 -26.5131242 0.3946882 -25.04477692 0.37413025 C-23.46961384 0.34227103 -21.89446458 0.30972348 -20.31932831 0.27656555 C-13.54667625 0.14543287 -6.77343182 0.07714506 0 0 Z M95.41957855 12.00059509 C94.57791641 12.00859634 93.73625427 12.0165976 92.86908722 12.02484131 C90.06308477 12.05287061 87.25723096 12.08839449 84.45131683 12.12413025 C82.46874642 12.14595556 80.48617182 12.16740246 78.50359344 12.18849182 C74.31522563 12.23414342 70.12691803 12.28329258 65.93862152 12.33506775 C60.70293111 12.3996863 55.46719717 12.45768539 50.23140335 12.5132103 C23.3632645 12.80030595 -3.493796 13.30218998 -30.35337067 14.03819275 C-30.38021745 16.68409289 -30.40013423 19.3297237 -30.41587067 21.97569275 C-30.42424957 22.73043884 -30.43262848 23.48518494 -30.44126129 24.26280212 C-30.44989508 26.18813588 -30.40561399 28.11354856 -30.35337067 30.03819275 C-28.78142962 31.6101338 -27.23023172 31.16545131 -25.04575348 31.16758728 C-24.11033218 31.17069916 -23.17491089 31.17381104 -22.21114349 31.17701721 C-21.17010971 31.17503326 -20.12907593 31.17304932 -19.05649567 31.17100525 C-17.95620529 31.17232452 -16.85591492 31.1736438 -15.72228241 31.17500305 C-12.01595203 31.17695556 -8.30969373 31.17047912 -4.60337067 31.16319275 C-3.33302979 31.16230652 -2.0626889 31.16142029 -0.75385284 31.1605072 C35.04907355 31.13161483 70.84839284 30.57409023 106.64662933 30.03819275 C106.64662933 24.42819275 106.64662933 18.81819275 106.64662933 13.03819275 C102.86175914 11.77656935 99.3584553 11.94419596 95.41957855 12.00059509 Z " fill="#141414" transform="translate(156.3533706665039,86.96180725097656)"/>
<path d="M0 0 C3.47767264 1.03390268 4.59978354 2.53610172 6.3125 5.6875 C5.32160474 11.94195815 1.06695628 15.39312834 -3.3125 19.5625 C-4.01890625 20.25085938 -4.7253125 20.93921875 -5.453125 21.6484375 C-7.18918231 23.33757434 -8.93388373 25.01663151 -10.6875 26.6875 C-10.1925 28.1725 -10.1925 28.1725 -9.6875 29.6875 C-8.39888779 48.13306341 -8.39888779 48.13306341 -13.06640625 54.86328125 C-19.20215743 61.76784945 -25.13272249 66.44603325 -34.5 67.5 C-44.21415512 68.05166807 -51.19151611 66.04002872 -58.6875 59.6875 C-64.25717124 54.03288824 -67.6379925 47.13332515 -67.7109375 39.109375 C-67.37150276 35.0110148 -66.59559754 31.29414752 -65.375 27.375 C-65.148125 26.158125 -64.92125 24.94125 -64.6875 23.6875 C-66.57979266 21.05125566 -66.57979266 21.05125566 -68.6875 18.6875 C-68.6875 15.16143943 -68.28850442 13.42719775 -66.0625 10.6875 C-62.46971363 9.17474785 -60.20587939 10.29342515 -56.6875 11.6875 C-56.3575 12.3475 -56.0275 13.0075 -55.6875 13.6875 C-54.2285574 13.21019162 -52.77036504 12.73058958 -51.3125 12.25 C-50.50039062 11.98316406 -49.68828125 11.71632812 -48.8515625 11.44140625 C-46.67718201 10.73570271 -46.67718201 10.73570271 -44.6875 9.6875 C-34.79091681 8.82137149 -27.89064975 10.2187335 -19.6875 15.6875 C-18.72650391 14.81738281 -18.72650391 14.81738281 -17.74609375 13.9296875 C-15.95467029 12.31179984 -14.15888727 10.69872972 -12.359375 9.08984375 C-10.77091922 7.66162693 -9.19344565 6.22078835 -7.640625 4.75390625 C-5.09158062 2.40224362 -3.39615373 0.86878351 0 0 Z M-45.6875 23.6875 C-44.01998852 27.62889078 -41.46039351 30.4767812 -38.6875 33.6875 C-36.19388429 32.48368552 -34.00606917 31.23321278 -31.6875 29.6875 C-31.6875 29.0275 -31.6875 28.3675 -31.6875 27.6875 C-31.0275 27.6875 -30.3675 27.6875 -29.6875 27.6875 C-29.3575 26.6975 -29.0275 25.7075 -28.6875 24.6875 C-31.83340528 22.8408317 -34.11900052 22.43975717 -37.75 22.5 C-38.60722656 22.50644531 -39.46445313 22.51289063 -40.34765625 22.51953125 C-42.84227968 22.60159966 -42.84227968 22.60159966 -45.6875 23.6875 Z M-53.6875 36.6875 C-55.03361285 40.72583855 -54.12288136 42.7231134 -52.6875 46.6875 C-50.21423503 50.44003995 -47.86267629 52.96297066 -43.6875 54.6875 C-37.75518256 55.41289225 -32.7205139 55.21060973 -27.6875 51.6875 C-26.28283047 49.63656855 -26.28283047 49.63656855 -25.6875 47.6875 C-25.0275 47.6875 -24.3675 47.6875 -23.6875 47.6875 C-22.26491188 43.86429443 -21.44707724 40.77468695 -21.6875 36.6875 C-25.25150844 39.66102184 -28.64616829 42.60465035 -31.75 46.0625 C-34.6875 48.6875 -34.6875 48.6875 -37.75 49.375 C-41.72355736 48.44501849 -43.01199218 46.75454555 -45.6875 43.6875 C-46.92796672 42.40735951 -48.1783232 41.13674132 -49.4375 39.875 C-50.03046875 39.27042969 -50.6234375 38.66585937 -51.234375 38.04296875 C-52.47817925 36.57381532 -52.47817925 36.57381532 -53.6875 36.6875 Z " fill="#0F0F0F" transform="translate(156.6875,165.3125)"/>
<path d="M0 0 C1.9375 1.125 1.9375 1.125 3 3 C3.5 5.875 3.5 5.875 3 9 C0.49926649 11.72643148 -2.18578479 14.16794945 -4.9296875 16.6484375 C-5.91155501 17.55718722 -6.89332533 18.46604197 -7.875 19.375 C-8.38546875 19.8184375 -8.8959375 20.261875 -9.421875 20.71875 C-11.10858474 22.23196489 -11.10858474 22.23196489 -13 25 C-12.93906865 28.53608249 -12.93906865 28.53608249 -12 32 C-11.52522659 40.03802425 -11.99700766 46.8517994 -16 54 C-16.66 54 -17.32 54 -18 54 C-18.20625 54.556875 -18.4125 55.11375 -18.625 55.6875 C-21.85202578 61.11477063 -26.61766535 63.75477122 -32.5078125 65.5 C-40.44427444 67.09226823 -49.28992655 66.86734657 -56.31640625 62.58984375 C-63.31247901 57.53008108 -67.98020749 51.62147853 -69.71875 43.0625 C-70.506125 37.2884167 -70.41362572 32.70885485 -68.25 27.25 C-67.36218137 25.07186788 -67.36218137 25.07186788 -67 23 C-68.73787565 20.26513223 -68.73787565 20.26513223 -71 18 C-71.5 14.875 -71.5 14.875 -71 12 C-69.4375 10.0625 -69.4375 10.0625 -67 9 C-63.25 9.3125 -63.25 9.3125 -60 10 C-59.67 10.99 -59.34 11.98 -59 13 C-58.09378906 12.6390625 -57.18757813 12.278125 -56.25390625 11.90625 C-45.58338995 7.84129141 -37.74108888 6.23095654 -27 11 C-24.4375 12.6875 -24.4375 12.6875 -23 14 C-18.13372267 12.16498373 -15.03383914 7.97344006 -11.68554688 4.16796875 C-7.95024828 0.19711079 -5.66588248 -0.76639956 0 0 Z M-49 23 C-48.06409496 24.1055189 -47.12620142 25.20935453 -46.1875 26.3125 C-45.66542969 26.92738281 -45.14335938 27.54226563 -44.60546875 28.17578125 C-43.12827531 29.85424679 -41.59960869 31.43882034 -40 33 C-37.06799526 30.14723863 -34.35684596 27.34920216 -32 24 C-32.33 23.34 -32.66 22.68 -33 22 C-38.63126301 20.68497813 -43.65846422 20.61036557 -49 23 Z M-57 35 C-56.9139532 42.15774328 -56.9139532 42.15774328 -53.875 48.4375 C-50.12348534 51.78124133 -46.90669343 53.87825368 -41.76171875 54.09375 C-36.54676013 53.74316455 -33.03673891 52.47347302 -29 49 C-25.51478789 44.76122851 -24.43583985 41.44799814 -24 36 C-24.66 36 -25.32 36 -26 36 C-26 36.66 -26 37.32 -26 38 C-26.99 38.33 -27.98 38.66 -29 39 C-29 39.66 -29 40.32 -29 41 C-29.53625 41.226875 -30.0725 41.45375 -30.625 41.6875 C-33.23391631 43.00889752 -33.23391631 43.00889752 -35.875 45.625 C-39.34581428 48.26281885 -40.76411907 48.50427154 -45 48 C-45.226875 47.46375 -45.45375 46.9275 -45.6875 46.375 C-47.45570089 43.17539839 -49.53670203 40.70962777 -52 38 C-52.66 38 -53.32 38 -54 38 C-54.33 37.01 -54.66 36.02 -55 35 C-55.66 35 -56.32 35 -57 35 Z " fill="#0E0E0E" transform="translate(160,246)"/>
<path d="M0 0 C10.72345575 -0.09478642 21.44670281 -0.16962024 32.17051697 -0.20761871 C35.19085768 -0.21867037 38.21104042 -0.23649453 41.23130798 -0.26016998 C45.40060549 -0.29225809 49.56957987 -0.29988665 53.73899841 -0.30457306 C54.96732391 -0.31687454 56.19564941 -0.32917603 57.4611969 -0.34185028 C59.14050797 -0.33741661 59.14050797 -0.33741661 60.85374451 -0.33289337 C61.82331085 -0.336539 62.7928772 -0.34018463 63.79182434 -0.34394073 C66.82192457 0.09295794 68.1894789 0.86208837 70.34056091 3.02355194 C70.84056091 6.52355194 70.84056091 6.52355194 70.34056091 10.02355194 C67.85612069 12.85283867 66.21137921 13.03771766 62.43379211 13.4519577 C60.80520086 13.49208301 59.1761533 13.51564097 57.54710388 13.52648163 C56.64577854 13.54380592 55.7444532 13.56113022 54.81581497 13.57897949 C51.77983032 13.63276737 48.74404604 13.66446363 45.70774841 13.69542694 C43.52868999 13.72757622 41.3496434 13.76053601 39.17060852 13.79424286 C31.89412934 13.89862016 24.61753747 13.96506089 17.34056091 14.02355194 C16.0616951 14.03403564 14.78282928 14.04451935 13.46520996 14.05532074 C-2.95929182 14.18496181 -19.38348803 14.25007848 -35.80848312 14.26095581 C-37.21371715 14.26188913 -38.61895117 14.26283265 -40.02418518 14.26378632 C-41.07016133 14.26448946 -41.07016133 14.26448946 -42.1372683 14.26520681 C-47.91920448 14.27032 -53.70102726 14.29063453 -59.48291671 14.31344724 C-65.14590417 14.3349988 -70.80883964 14.34514552 -76.47186768 14.34648776 C-79.81644474 14.34752996 -83.16070225 14.35480545 -86.50526047 14.37130737 C-90.18033805 14.38823754 -93.85494457 14.38652668 -97.53004456 14.37999725 C-99.16568359 14.39381943 -99.16568359 14.39381943 -100.83436584 14.40792084 C-102.3246077 14.39956711 -102.3246077 14.39956711 -103.84495544 14.39104462 C-105.1390952 14.39324446 -105.1390952 14.39324446 -106.4593792 14.39548874 C-109.16364344 13.93831237 -110.05264782 13.21828187 -111.65943909 11.02355194 C-112.08422495 6.94560769 -111.97226496 5.49279075 -109.65943909 2.02355194 C-107.74446106 1.60010529 -107.74446106 1.60010529 -105.34010315 1.53160858 C-103.95598236 1.48271736 -103.95598236 1.48271736 -102.54389954 1.43283844 C-101.51468384 1.41250046 -100.48546814 1.39216248 -99.42506409 1.37120819 C-97.77755157 1.32275505 -97.77755157 1.32275505 -96.09675598 1.27332306 C-92.28459952 1.16986885 -88.47231504 1.09348283 -84.65943909 1.02355194 C-83.25131688 0.99613014 -81.84319515 0.96868416 -80.43507385 0.94121552 C-69.09386171 0.72611277 -57.75193101 0.5876899 -46.40943909 0.46105194 C-44.62239072 0.44066847 -42.83534238 0.4202827 -41.04829407 0.39989471 C-29.15018926 0.26570968 -17.25196115 0.14975647 -5.35354614 0.04685974 C-3.56902918 0.03142117 -1.78451376 0.01580362 0 0 Z " fill="#141414" transform="translate(215.65943908691406,141.97644805908203)"/>
<path d="M0 0 C5.92487771 4.76822828 9.33470977 10.85006061 10.75 18.3125 C11.61009633 27.66604757 9.57025002 34.87551387 3.75 42.3125 C-2.34430499 48.52838714 -9.48429412 52.31147493 -18.3125 52.625 C-25.38708731 52.55472264 -32.91949602 50.04658396 -38.25 45.3125 C-38.25 44.6525 -38.25 43.9925 -38.25 43.3125 C-38.91 43.3125 -39.57 43.3125 -40.25 43.3125 C-41.72265625 41.30078125 -41.72265625 41.30078125 -43.3125 38.625 C-43.83972656 37.75488281 -44.36695312 36.88476562 -44.91015625 35.98828125 C-48.41063045 28.99753831 -47.85245074 20.95463242 -45.9921875 13.5390625 C-43.37019859 5.67309576 -38.18418385 0.65840342 -31.25 -3.6875 C-20.85719079 -8.11406688 -9.15424749 -6.27964267 0 0 Z M-32.625 13.875 C-34.94184263 18.77601326 -35.11773528 22.98535995 -34.25 28.3125 C-32.55817314 32.70405056 -30.32501829 35.51248639 -26.5625 38.3125 C-21.19977122 39.93143699 -16.11907025 40.72042486 -10.93359375 38.17578125 C-6.72125039 35.22015911 -3.82084635 32.31957276 -2.25 27.3125 C-1.53036288 21.60680568 -1.96066683 17.18978711 -5.25 12.3125 C-10.4463688 7.50585886 -14.65675534 6.95362572 -21.5234375 7.03515625 C-26.7006446 7.5617776 -29.22272726 10.20412678 -32.625 13.875 Z " fill="#111111" transform="translate(138.25,339.6875)"/>
<path d="M0 0 C1.1177179 -0.0049649 2.23543579 -0.00992981 3.38702393 -0.01504517 C7.07353332 -0.02961704 10.75999978 -0.03645811 14.4465332 -0.04199219 C17.00909934 -0.04774475 19.57166546 -0.05350247 22.13423157 -0.05926514 C26.81487915 -0.06841931 31.49551387 -0.07472743 36.17616814 -0.07776189 C43.06421568 -0.08225273 49.95206578 -0.09985911 56.84005326 -0.12876248 C62.81266263 -0.15295487 68.78522257 -0.16070449 74.75788307 -0.16243744 C77.2980946 -0.16547128 79.83830515 -0.17352426 82.37848473 -0.18662262 C85.9217486 -0.20359937 89.46452493 -0.20182401 93.0078125 -0.1953125 C94.06293533 -0.20452728 95.11805817 -0.21374207 96.20515442 -0.22323608 C97.16823517 -0.21766693 98.13131592 -0.21209778 99.12358093 -0.20635986 C99.96107219 -0.20782642 100.79856344 -0.20929298 101.66143322 -0.21080399 C104.3299927 0.25118826 105.21354069 1.00189279 106.80981445 3.16113281 C107.45495477 8.32225537 107.45495477 8.32225537 105.53282166 10.8216095 C102.45899708 13.21130333 98.49863825 12.64572899 94.7512207 12.67285156 C93.80721909 12.6908934 92.86321747 12.70893524 91.89060974 12.7275238 C88.71788377 12.78323328 85.54536063 12.81646482 82.37231445 12.84863281 C80.14118533 12.88103664 77.91006558 12.91409179 75.67895508 12.94775391 C56.49227141 13.21162285 37.30196847 13.26029258 18.11365891 13.28317642 C15.80681914 13.28613666 13.49998351 13.29030254 11.19314575 13.29452515 C7.54053907 13.30040417 3.88797665 13.30036926 0.23536873 13.29564095 C-1.77159991 13.29398135 -3.77857066 13.29689566 -5.78553772 13.2999115 C-7.58298683 13.29526634 -7.58298683 13.29526634 -9.41674805 13.29052734 C-10.46427246 13.28973175 -11.51179687 13.28893616 -12.59106445 13.28811646 C-15.19018555 13.16113281 -15.19018555 13.16113281 -18.19018555 12.16113281 C-20.19018555 9.16113281 -20.19018555 9.16113281 -19.94018555 6.09863281 C-19.19018555 3.16113281 -19.19018555 3.16113281 -17.19018555 1.16113281 C-11.57262874 -0.26300168 -5.75650994 0.00613409 0 0 Z " fill="#101010" transform="translate(196.190185546875,249.8388671875)"/>
<path d="M0 0 C9.45942712 -0.07150705 18.91871673 -0.11979661 28.37837219 -0.14712906 C30.48851206 -0.15430305 32.59861722 -0.16461143 34.70874023 -0.17562866 C38.65297045 -0.19527664 42.59710018 -0.19739366 46.54138184 -0.19726562 C48.31401901 -0.20796082 48.31401901 -0.20796082 50.12246704 -0.21887207 C51.7411116 -0.21434021 51.7411116 -0.21434021 53.39245605 -0.2097168 C54.33305878 -0.21114182 55.2736615 -0.21256683 56.24276733 -0.21403503 C58.61169434 0.03320312 58.61169434 0.03320312 61.61169434 2.03320312 C62.48669434 4.34570312 62.48669434 4.34570312 62.61169434 7.03320312 C61.47010244 9.31638692 60.42156751 11.22332995 58.61169434 13.03320312 C57.10532391 13.14542497 55.59377325 13.18889866 54.08331299 13.20487976 C53.1047081 13.2175589 52.12610321 13.23023804 51.11784363 13.24330139 C50.03525772 13.25219894 48.95267181 13.2610965 47.83728027 13.27026367 C46.1373568 13.28993195 46.1373568 13.28993195 44.40309143 13.30999756 C40.63411922 13.35198126 36.86512555 13.38637869 33.09606934 13.41992188 C30.48630639 13.44556261 27.87654484 13.47134666 25.26678467 13.49726868 C19.78559439 13.55073978 14.30437378 13.59928533 8.82312012 13.64575195 C2.49003533 13.69957503 -3.84286522 13.7646739 -10.1757853 13.83509034 C-16.2663095 13.9022545 -22.35688819 13.95811016 -28.44756317 14.00971413 C-31.03917369 14.03314707 -33.63075629 14.05990883 -36.22229767 14.09003258 C-39.84696171 14.13114285 -43.47150726 14.15935566 -47.09631348 14.18432617 C-48.70804695 14.20678154 -48.70804695 14.20678154 -50.3523407 14.22969055 C-51.34222488 14.23391022 -52.33210907 14.23812988 -53.35198975 14.24247742 C-54.2088802 14.25039653 -55.06577065 14.25831564 -55.94862747 14.26647472 C-58.75832532 13.99782343 -60.86291526 13.28247803 -63.38830566 12.03320312 C-64.7876558 9.23450286 -64.64095971 7.1282152 -64.38830566 4.03320312 C-62.81470784 1.90352759 -61.90908763 1.1320479 -59.28753662 0.63447571 C-58.06366241 0.61782112 -58.06366241 0.61782112 -56.81506348 0.60083008 C-55.87518585 0.58105103 -54.93530823 0.56127197 -53.96694946 0.54089355 C-52.93552826 0.53448853 -51.90410706 0.5280835 -50.84143066 0.52148438 C-49.75030975 0.50339722 -48.65918884 0.48531006 -47.53500366 0.4666748 C-43.90280286 0.41109368 -40.27078522 0.37773479 -36.63830566 0.34570312 C-34.10948825 0.31409342 -31.58067961 0.28177417 -29.05187988 0.2487793 C-21.55001722 0.15827378 -14.04818761 0.09866652 -6.54597473 0.0480957 C-4.36397488 0.03303519 -2.18198798 0.01668651 0 0 Z " fill="#0D0D0D" transform="translate(240.3883056640625,191.966796875)"/>
<path d="M0 0 C4.20750246 -0.04597228 8.41500251 -0.07869308 12.62266541 -0.10578918 C14.51094876 -0.11961898 16.39920484 -0.13794722 18.28739929 -0.16090393 C20.85447724 -0.19010115 23.42089079 -0.20032096 25.9881134 -0.20475769 C26.72004913 -0.2170491 27.45198486 -0.22934052 28.20610046 -0.24200439 C31.26164857 -0.22852505 33.38811289 -0.01890214 36.10798645 1.42512512 C37.65608215 3.12336731 37.65608215 3.12336731 38.09358215 6.62336731 C37.65608215 10.12336731 37.65608215 10.12336731 36.39174271 11.81719685 C34.24493251 13.43277777 33.11633346 13.50558008 30.44801331 13.52209473 C29.59049469 13.53463287 28.73297607 13.54717102 27.84947205 13.56008911 C26.91134674 13.55865402 25.97322144 13.55721893 25.00666809 13.55574036 C23.52059555 13.57102783 23.52059555 13.57102783 22.00450134 13.58662415 C18.71642993 13.61690195 15.42865009 13.6260511 12.14045715 13.63508606 C9.84896384 13.65194051 7.55747972 13.67009178 5.26600647 13.68948364 C-0.78464341 13.73711933 -6.83525619 13.76681541 -12.8860321 13.79292297 C-18.99186396 13.82247218 -25.09755999 13.86924329 -31.20329285 13.91438293 C-52.43319728 14.06540126 -52.43319728 14.06540126 -61.1304512 14.0863905 C-65.43299496 14.09693649 -69.73108601 14.12279287 -74.03227234 14.23558044 C-74.7297546 14.24937398 -75.42723686 14.26316751 -76.14585495 14.27737904 C-77.93736384 14.3145567 -79.7285462 14.36668817 -81.51963806 14.4203186 C-84.7566071 14.07997621 -86.0982818 13.45868431 -88.34391785 11.12336731 C-88.84391785 7.62336731 -88.84391785 7.62336731 -88.34391785 4.12336731 C-86.07148928 1.76296855 -84.65649822 1.16562241 -81.39434814 0.72463989 C-80.24212265 0.71353683 -79.08989716 0.70243378 -77.90275574 0.69099426 C-76.58532379 0.67122025 -75.26789185 0.65144623 -73.91053772 0.631073 C-72.46255128 0.62428599 -71.01456329 0.61782069 -69.5665741 0.61164856 C-68.05672276 0.59457069 -66.54688524 0.57622922 -65.0370636 0.55670166 C-60.99510498 0.50831945 -56.95321313 0.47845095 -52.9110527 0.45300293 C-48.74511889 0.42450143 -44.5793282 0.38172414 -40.41349792 0.34114075 C-32.99693964 0.27145618 -25.58036158 0.21814614 -18.16362858 0.17120171 C-12.10882346 0.13165274 -6.05453957 0.06962828 0 0 Z " fill="#0A0A0A" transform="translate(264.3439178466797,169.8766326904297)"/>
<path d="M0 0 C0.96454668 -0.01807457 1.92909336 -0.03614914 2.92286873 -0.05477142 C4.22075907 -0.08919279 4.22075907 -0.08919279 5.54486942 -0.12430954 C8.4106558 0.0994681 10.49159227 0.79256649 13.05887032 2.0719986 C14.45822045 4.87069886 14.31152436 6.97698652 14.05887032 10.0719986 C12.9915638 11.73638153 12.9915638 11.73638153 11.05887032 13.0719986 C7.87874031 13.47072601 7.87874031 13.47072601 3.88577461 13.50437164 C3.15633644 13.51456329 2.42689827 13.52475494 1.67535591 13.53525543 C-0.75547692 13.5655949 -3.18591257 13.57471145 -5.61691093 13.58371735 C-7.33764192 13.60061207 -9.05836092 13.61876851 -10.77906609 13.63811493 C-15.346231 13.68582021 -19.91334824 13.71541074 -24.48068047 13.74155426 C-28.97216648 13.77061961 -33.46345485 13.81776856 -37.95480156 13.86301422 C-45.94634399 13.94076274 -53.93776004 13.99127351 -61.92959595 14.02660179 C-67.35881813 14.05238996 -72.78732666 14.10036783 -78.21622372 14.16487026 C-81.75504324 14.20461442 -85.29389255 14.23216022 -88.83284378 14.25715828 C-90.50288196 14.27161698 -92.17288415 14.29126063 -93.84279633 14.31635857 C-96.14157007 14.35012144 -98.43975709 14.36524327 -100.73873711 14.37595367 C-102.68776184 14.39653587 -102.68776184 14.39653587 -104.67616081 14.41753387 C-108.14382107 14.05054754 -109.55825675 13.5807083 -111.94112968 11.0719986 C-112.52787353 7.62487848 -112.45680045 5.86020912 -110.52976799 2.914711 C-106.55452697 0.08495069 -102.79134053 0.50085516 -98.02291679 0.52610016 C-97.015877 0.51576248 -96.0088372 0.5054248 -94.97128105 0.49477386 C-91.63685033 0.46524571 -88.30302495 0.46384372 -84.96847343 0.4626236 C-82.64640463 0.44763671 -80.32434647 0.4309085 -78.00230217 0.41251373 C-71.87940824 0.36874364 -65.75665744 0.34883026 -59.63363457 0.33377838 C-53.4346122 0.3143315 -47.23574983 0.2722493 -41.03683281 0.23215485 C-31.94628462 0.17624414 -22.85577753 0.13000322 -13.76510429 0.10031891 C-12.3611113 0.09571907 -12.3611113 0.09571907 -10.92875481 0.09102631 C-9.15327833 0.0857893 -7.37779034 0.08347172 -5.60230637 0.08436584 C-3.73467934 0.07568645 -1.86708783 0.04570615 0 0 Z " fill="#0D0D0D" transform="translate(288.94112968444824,270.9280014038086)"/>
<path d="M0 0 C1.5625 2.3125 1.5625 2.3125 2 5 C0.8125 7.75 0.8125 7.75 -1 10 C-4.28454027 11.09484676 -6.7743801 11.15794604 -10.23364258 11.20532227 C-11.5238179 11.22526749 -12.81399323 11.24521271 -14.14326477 11.26576233 C-15.56035191 11.2827849 -16.9774408 11.29966217 -18.39453125 11.31640625 C-19.86212178 11.33702475 -21.32970702 11.35802232 -22.79728699 11.37937927 C-25.88834547 11.4233888 -28.97942368 11.46426712 -32.07055664 11.50268555 C-36.72746134 11.56060219 -41.38422996 11.6266545 -46.04101562 11.69335938 C-52.69090743 11.78840321 -59.34078819 11.86039859 -65.99106026 11.9226017 C-70.30663295 11.96765864 -74.61752281 12.06815451 -78.93115234 12.20263672 C-80.46336678 12.2377964 -80.46336678 12.2377964 -82.02653503 12.27366638 C-83.86151708 12.31612319 -85.69621735 12.37719847 -87.52973938 12.46180725 C-91.90416801 12.53788789 -93.47442965 12.40359355 -97.06958008 9.64282227 C-99 7 -99 7 -99 4.375 C-97.8727911 1.69787885 -97.37668483 0.6711247 -95 -1 C-92.12603407 -1.32023579 -89.4625227 -1.45806158 -86.5847168 -1.46411133 C-85.72584869 -1.47751556 -84.86698059 -1.4909198 -83.98208618 -1.50473022 C-81.13776775 -1.54517378 -78.2937615 -1.56408446 -75.44921875 -1.58203125 C-73.47246691 -1.60395741 -71.49572606 -1.62689505 -69.51899719 -1.65080261 C-65.37215058 -1.6977136 -61.22537822 -1.7343433 -57.07836914 -1.76342773 C-51.76857447 -1.80120108 -46.45932159 -1.86119939 -41.14982891 -1.92854786 C-37.06549795 -1.97842306 -32.98111819 -2.01802528 -28.8966465 -2.05438805 C-26.93944293 -2.07274418 -24.98226361 -2.09391234 -23.02512169 -2.11795998 C-20.28453967 -2.14977418 -17.54418705 -2.1681364 -14.8034668 -2.18286133 C-13.99753586 -2.19468948 -13.19160492 -2.20651764 -12.36125183 -2.21870422 C-7.86811605 -2.2266388 -4.1818654 -1.86009585 0 0 Z " fill="#0B0B0B" transform="translate(276,331)"/>
<path d="M0 0 C4.39805952 -0.08169375 8.79545565 -0.101802 13.19418335 -0.1126709 C13.98114279 -0.11549828 14.76810223 -0.11832565 15.57890892 -0.12123871 C19.71914356 -0.13603919 23.8593449 -0.14539672 27.99960327 -0.14978027 C32.2655205 -0.15533191 36.53112925 -0.17955153 40.79694843 -0.20775223 C44.09714194 -0.2263252 47.39725886 -0.23158066 50.69750023 -0.23311615 C52.27200247 -0.23613994 53.84650345 -0.24415926 55.42095375 -0.25730133 C57.60773905 -0.27429907 59.79373634 -0.27250114 61.9805603 -0.26599121 C63.22247635 -0.26963684 64.4643924 -0.27328247 65.74394226 -0.27703857 C68.7684021 0.0904541 68.7684021 0.0904541 70.66139221 1.39398193 C72.57862801 4.33211031 72.25071692 6.71425033 71.7684021 10.0904541 C67.71524498 13.48097223 63.63292755 13.54858291 58.56918335 13.57043457 C57.35118546 13.59295036 57.35118546 13.59295036 56.10858154 13.61592102 C53.43267697 13.66129166 50.75709003 13.68519874 48.0809021 13.7076416 C46.21671441 13.7321182 44.35253777 13.75745007 42.4883728 13.78359985 C38.58468702 13.83494076 34.68107198 13.87560082 30.77719116 13.90881348 C25.77661664 13.95225692 20.77685095 14.02266377 15.77671814 14.10113335 C11.92836965 14.15847268 8.07996379 14.20127383 4.23138428 14.23971939 C2.38776122 14.25992744 0.54418231 14.28470233 -1.29931641 14.31414413 C-3.87711373 14.35317561 -6.45434165 14.3725644 -9.03237915 14.38684082 C-9.79200958 14.40226425 -10.55164001 14.41768768 -11.33428955 14.43357849 C-15.80886826 14.43329144 -18.69714065 13.90056228 -22.2315979 11.0904541 C-23.55225184 7.95390099 -23.45044604 6.63202177 -22.17524719 3.47637939 C-20.2315979 1.0904541 -20.2315979 1.0904541 -17.05125427 0.39056396 C-15.75829941 0.35759216 -14.46534454 0.32462036 -13.13320923 0.29064941 C-12.42572698 0.26672749 -11.71824472 0.24280556 -10.98932362 0.21815872 C-7.32716618 0.10682981 -3.66304048 0.08014248 0 0 Z " fill="#151515" transform="translate(200.23159790039063,350.9095458984375)"/>
<path d="M0 0 C1.26605072 -0.0098568 1.26605072 -0.0098568 2.55767822 -0.01991272 C5.35689374 -0.03966005 8.15605565 -0.05130975 10.95532227 -0.0612793 C11.90957659 -0.06535482 12.86383091 -0.06943035 13.84700203 -0.07362938 C18.89490671 -0.09449342 23.94278416 -0.10879529 28.99072266 -0.11816406 C34.21443462 -0.12924633 39.43772268 -0.16366611 44.66128445 -0.20333576 C48.67007767 -0.22942603 52.67876857 -0.23784898 56.68763924 -0.24144554 C58.6138299 -0.24632897 60.54001548 -0.25799253 62.46612358 -0.27648354 C65.15744982 -0.30072045 67.84766154 -0.29993888 70.5390625 -0.29296875 C71.738442 -0.31218384 71.738442 -0.31218384 72.96205139 -0.33178711 C78.34561096 -0.28080629 78.34561096 -0.28080629 80.82923889 2.04621887 C82.07244763 4.68207508 82.27745678 6.29601823 81.83422852 9.17700195 C80.25827213 11.22853752 79.28614864 12.06687211 76.75354004 12.68405151 C67.91725283 13.29076917 59.09281181 13.32241129 50.24047852 13.30981445 C48.5594481 13.31048935 46.87841778 13.31146093 45.1973877 13.31271362 C41.69774433 13.31417859 38.19812668 13.31207278 34.69848633 13.30737305 C30.21170283 13.30164097 25.72497871 13.30498418 21.23819733 13.31094551 C17.77758331 13.31455357 14.31698346 13.31341202 10.85636902 13.31081772 C9.20094292 13.31015096 7.54551554 13.31096812 5.89009094 13.31329727 C3.58562787 13.31583163 1.28126242 13.31197372 -1.02319336 13.30639648 C-2.33348511 13.30560089 -3.64377686 13.3048053 -4.99377441 13.3039856 C-8.16577148 13.17700195 -8.16577148 13.17700195 -11.16577148 12.17700195 C-12.54077148 9.42700195 -12.54077148 9.42700195 -13.16577148 6.17700195 C-10.21987048 -0.45127531 -6.60767416 0.02216463 0 0 Z " fill="#141414" transform="translate(190.165771484375,372.822998046875)"/>
<path d="M0 0 C1.29762268 -0.00276947 2.59524536 -0.00553894 3.93218994 -0.00839233 C7.65664579 -0.01418542 11.38101274 -0.01240042 15.10546875 -0.0078125 C16.2417421 -0.00978134 17.37801544 -0.01175018 18.54872131 -0.01377869 C19.59378342 -0.01068192 20.63884552 -0.00758514 21.71557617 -0.00439453 C23.08875252 -0.00320114 23.08875252 -0.00320114 24.4896698 -0.00198364 C26.8125 0.125 26.8125 0.125 29.8125 1.125 C31.53422907 4.07653555 31.98021796 5.46937527 31.125 8.8125 C29.8125 11.125 29.8125 11.125 26.8125 13.125 C24.02010798 13.32995972 21.32662327 13.41870006 18.53320312 13.41552734 C17.68902328 13.42224457 16.84484344 13.42896179 15.9750824 13.43588257 C13.18124528 13.45489958 10.38764782 13.45878833 7.59375 13.4609375 C5.65466207 13.4673618 3.71557512 13.47408988 1.77648926 13.48110962 C-2.28884124 13.4930909 -6.35408669 13.49678946 -10.41943359 13.49560547 C-15.63530242 13.49540199 -20.85062815 13.52273019 -26.0663681 13.55714989 C-30.07088744 13.57935553 -34.07527463 13.583445 -38.07984924 13.58238602 C-40.00323869 13.58475054 -41.92663131 13.59362168 -43.84996033 13.60905075 C-46.53643196 13.62858723 -49.22171345 13.62292231 -51.90820312 13.61083984 C-53.10522606 13.62769836 -53.10522606 13.62769836 -54.32643127 13.64489746 C-59.69884668 13.58331254 -59.69884668 13.58331254 -62.18151855 11.25479126 C-63.42631766 8.6193925 -63.63075868 7.00618142 -63.1875 4.125 C-61.57506837 1.98380178 -60.65068734 1.21644981 -57.99755859 0.69262695 C-56.68005615 0.65335083 -56.68005615 0.65335083 -55.3359375 0.61328125 C-54.2838208 0.5776709 -53.2317041 0.54206055 -52.14770508 0.50537109 C-50.9645874 0.48297363 -49.78146973 0.46057617 -48.5625 0.4375 C-47.31170654 0.40479004 -46.06091309 0.37208008 -44.7722168 0.33837891 C-29.85269115 -0.01080219 -14.92267122 0.02170579 0 0 Z " fill="#0B0B0B" transform="translate(239.1875,213.875)"/>
<path d="M0 0 C0.82188309 0.00247742 1.64376617 0.00495483 2.49055481 0.00750732 C3.35570206 0.00239639 4.2208493 -0.00271454 5.11221313 -0.00798035 C7.98123529 -0.02191758 10.85001838 -0.02091664 13.71907043 -0.01861572 C15.70682363 -0.02250007 17.69457599 -0.0268342 19.68232727 -0.03160095 C23.85199167 -0.03907183 28.02157141 -0.03876538 32.1912384 -0.0335083 C37.5450281 -0.0277092 42.89847235 -0.04465115 48.2522049 -0.06785297 C52.35790547 -0.0825553 56.46352215 -0.08346686 60.56924438 -0.08034325 C62.54368779 -0.08085812 64.5181357 -0.08612669 66.49255371 -0.09615517 C69.24862905 -0.10843613 72.00402236 -0.1017787 74.76008606 -0.09014893 C75.99291069 -0.10161453 75.99291069 -0.10161453 77.25064087 -0.11331177 C79.51948547 -0.09205627 79.51948547 -0.09205627 83.12532043 0.28216553 C85.4381463 3.75140433 85.55010629 5.20422128 85.12532043 9.28216553 C83.95126343 10.94264221 83.95126343 10.94264221 82.12532043 12.28216553 C79.62371826 12.68089294 79.62371826 12.68089294 76.59773254 12.71453857 C75.46061325 12.73433273 74.32349396 12.75412689 73.1519165 12.77452087 C71.29603661 12.78410576 71.29603661 12.78410576 69.40266418 12.79388428 C68.1146138 12.81183548 66.82656342 12.82978668 65.4994812 12.84828186 C62.05222234 12.89592823 58.60502669 12.92556459 55.157547 12.95172119 C51.75408025 12.98087676 48.35086984 13.02792738 44.94758606 13.07318115 C39.60692737 13.14223563 34.26662544 13.18892718 28.9256134 13.22113037 C23.77197571 13.25250362 18.62204348 13.32856271 13.46955872 13.44085693 C11.10611815 13.47802304 8.74267428 13.51498042 6.37922668 13.55169678 C5.29592575 13.5840593 4.21262482 13.61642181 3.09649658 13.64976501 C-4.19348767 13.73197914 -4.19348767 13.73197914 -7.58586121 11.49188232 C-9.52185981 8.17255606 -8.81350098 5.90333385 -7.87467957 2.28216553 C-5.28870122 -0.30381282 -3.52442781 0.03335017 0 0 Z " fill="#0C0C0C" transform="translate(185.8746795654297,293.71783447265625)"/>
<path d="M0 0 C0.33 0 0.66 0 1 0 C1.01030746 0.78482758 1.02061493 1.56965515 1.03123474 2.37826538 C1.12910777 9.76522328 1.23160753 17.15209546 1.33933926 24.53891563 C1.39456444 28.33678642 1.44798378 32.1346649 1.49731445 35.93261719 C1.54496401 39.59607367 1.597307 43.25943546 1.65294075 46.92277908 C1.67336163 48.32222773 1.69207517 49.72170235 1.70907402 51.12119675 C1.73312361 53.07744014 1.76374122 55.03359949 1.79467773 56.98974609 C1.81022202 58.1044931 1.8257663 59.21924011 1.84178162 60.36776733 C1.82581145 62.97890829 1.82581145 62.97890829 3 65 C-2.28 65 -7.56 65 -13 65 C-12.01 64.505 -12.01 64.505 -11 64 C-11 60.7 -11 57.4 -11 54 C-10.67 54 -10.34 54 -10 54 C-10 56.97 -10 59.94 -10 63 C-6.7 63 -3.4 63 0 63 C0 42.21 0 21.42 0 0 Z " fill="#222838" transform="translate(342,316)"/>
<path d="M0 0 C0.33 0 0.66 0 1 0 C1.12117188 0.77085937 1.24234375 1.54171875 1.3671875 2.3359375 C1.53476562 3.33882813 1.70234375 4.34171875 1.875 5.375 C2.03742188 6.37273437 2.19984375 7.37046875 2.3671875 8.3984375 C2.7958802 11.1425115 2.7958802 11.1425115 5 13 C5.26991906 15.68839385 5.08737357 18.29141936 5 21 C5.66 21 6.32 21 7 21 C7.33 23.64 7.66 26.28 8 29 C2.1877803 23.96954084 -0.12623626 15.33646801 -0.875 7.9375 C-1.08923674 4.76586485 -1.01871707 3.05615122 0 0 Z " fill="#5881E8" transform="translate(274,447)"/>
<path d="M0 0 C0.33 1.32 0.66 2.64 1 4 C-0.53720703 4.47179687 -0.53720703 4.47179687 -2.10546875 4.953125 C-3.46632713 5.38484559 -4.82699427 5.81716934 -6.1875 6.25 C-7.19780273 6.55744141 -7.19780273 6.55744141 -8.22851562 6.87109375 C-12.53817349 8.25859335 -15.58955137 9.9007962 -19 13 C-19.66 12.34 -20.32 11.68 -21 11 C-7.55125285 2.3690205 -7.55125285 2.3690205 0 0 Z " fill="#527EE6" transform="translate(317,382)"/>
<path d="M0 0 C0.33 0 0.66 0 1 0 C1.30384048 10.75820351 1.46861792 20.65608586 -2 31 C-4.35953094 28.64046906 -4.49141413 27.22104383 -5 24 C-4.01 24 -3.02 24 -2 24 C-2 20.7 -2 17.4 -2 14 C-1.34 14 -0.68 14 0 14 C0 9.38 0 4.76 0 0 Z " fill="#5D85E2" transform="translate(399,434)"/>
<path d="M0 0 C0.99 0.33 1.98 0.66 3 1 C0.64393013 5.67848161 -2.38856271 8.20516617 -6.5 11.25 C-7.08136719 11.69601562 -7.66273438 12.14203125 -8.26171875 12.6015625 C-10.82226061 14.53515246 -12.93581996 15.97860665 -16 17 C-16.33 16.01 -16.66 15.02 -17 14 C-15.02 13.67 -13.04 13.34 -11 13 C-11 12.01 -11 11.02 -11 10 C-10.34 10 -9.68 10 -9 10 C-9 9.34 -9 8.68 -9 8 C-7.68 8 -6.36 8 -5 8 C-5 7.34 -5 6.68 -5 6 C-4.01 6 -3.02 6 -2 6 C-1.34 4.02 -0.68 2.04 0 0 Z " fill="#5E8AE3" transform="translate(382,483)"/>
<path d="M0 0 C0.66 0.33 1.32 0.66 2 1 C1.26674793 2.48754006 0.51273922 3.96486192 -0.25 5.4375 C-0.87648438 6.67306641 -0.87648438 6.67306641 -1.515625 7.93359375 C-3 10 -3 10 -5.171875 10.78515625 C-6.07679688 10.89150391 -6.07679688 10.89150391 -7 11 C-7.0825 11.61875 -7.165 12.2375 -7.25 12.875 C-8 15 -8 15 -10.046875 16.1328125 C-10.69140625 16.41898437 -11.3359375 16.70515625 -12 17 C-11.40844669 15.68176698 -10.80128537 14.37052949 -10.1875 13.0625 C-9.85105469 12.33160156 -9.51460938 11.60070312 -9.16796875 10.84765625 C-8 9 -8 9 -5 8 C-4.30341637 6.34561387 -3.63903117 4.67745682 -3 3 C-1.375 1.1875 -1.375 1.1875 0 0 Z " fill="#6287E2" transform="translate(293,395)"/>
<path d="M0 0 C1.98 0.66 3.96 1.32 6 2 C5.67 3.32 5.34 4.64 5 6 C5.928125 6.0928125 5.928125 6.0928125 6.875 6.1875 C9 7 9 7 10.125 9.4375 C10.41375 10.283125 10.7025 11.12875 11 12 C11.66 12.66 12.32 13.32 13 14 C12.01 14 11.02 14 10 14 C8.28859531 12.03814584 6.62126675 10.03697617 5 8 C4.34 7.67 3.68 7.34 3 7 C3 6.01 3 5.02 3 4 C2.34 4 1.68 4 1 4 C0.67 2.68 0.34 1.36 0 0 Z " fill="#5E8DE7" transform="translate(282,476)"/>
<path d="M0 0 C2.31 1.98 4.62 3.96 7 6 C6.67 6.66 6.34 7.32 6 8 C5.34 8 4.68 8 4 8 C3.67 8.99 3.34 9.98 3 11 C1.68 10.67 0.36 10.34 -1 10 C-0.67 6.7 -0.34 3.4 0 0 Z " fill="#5587E9" transform="translate(378,395)"/>
<path d="M0 0 C0.05397335 2.4377963 0.09365616 4.87439685 0.125 7.3125 C0.15013672 8.34793945 0.15013672 8.34793945 0.17578125 9.40429688 C0.21217794 13.17135396 0.14378864 14.78431704 -2 18 C-2.9360342 14.20732808 -2.98276252 11.06325435 -2.5625 7.1875 C-2.46066406 6.21167969 -2.35882813 5.23585938 -2.25390625 4.23046875 C-2.17011719 3.49441406 -2.08632813 2.75835937 -2 2 C-2.99 1.67 -3.98 1.34 -5 1 C-1.125 0 -1.125 0 0 0 Z " fill="#4265B1" transform="translate(275,432)"/>
<path d="M0 0 C2.97 0.33 5.94 0.66 9 1 C9.33 2.98 9.66 4.96 10 7 C7.0280615 5.87548273 4.66559313 4.77706209 2 3 C2 2.34 2 1.68 2 1 C1.34 0.67 0.68 0.34 0 0 Z " fill="#5B84E6" transform="translate(294,491)"/>
<path d="M0 0 C1.94313606 2.91470408 2.79088793 5.10322832 3.75 8.4375 C4.03359375 9.38496094 4.3171875 10.33242188 4.609375 11.30859375 C5.04887187 14.33672718 4.64457504 15.47950999 3 18 C2.51171875 15.98177083 2.0234375 13.96354167 1.53515625 11.9453125 C1.05153008 9.9414343 1.05153008 9.9414343 0 8 C-0.13415472 5.3276379 -0.04318541 2.67749512 0 0 Z " fill="#5B81E3" transform="translate(394,417)"/>
<path d="M0 0 C-2.72106694 2.72106694 -4.84776311 2.60655572 -8.625 3.125 C-10.40777344 3.37636719 -10.40777344 3.37636719 -12.2265625 3.6328125 C-13.14179688 3.75398438 -14.05703125 3.87515625 -15 4 C-15 3.34 -15 2.68 -15 2 C-10.13948404 -0.59227518 -5.34728867 -0.18689553 0 0 Z " fill="#6088E2" transform="translate(358,503)"/>
<path d="M0 0 C0.98484375 0.19464844 1.9696875 0.38929688 2.984375 0.58984375 C4.10585938 0.82380859 4.10585938 0.82380859 5.25 1.0625 C5.25 1.3925 5.25 1.7225 5.25 2.0625 C3.31280622 2.11656122 1.37518079 2.15532025 -0.5625 2.1875 C-1.64144531 2.21070313 -2.72039062 2.23390625 -3.83203125 2.2578125 C-6.75 2.0625 -6.75 2.0625 -9.75 0.0625 C-6.21905698 -1.13970203 -3.62101018 -0.73282349 0 0 Z " fill="#5E85DE" transform="translate(350.75,380.9375)"/>
<path d="M0 0 C0.66 0 1.32 0 2 0 C0.34784004 3.57967992 -1.73124352 6.77982952 -4 10 C-4.33 10 -4.66 10 -5 10 C-5 8.35 -5 6.7 -5 5 C-4.34 5 -3.68 5 -3 5 C-2.67 4.01 -2.34 3.02 -2 2 C-1.34 2 -0.68 2 0 2 C0 1.34 0 0.68 0 0 Z " fill="#547FDC" transform="translate(390,474)"/>
<path d="M0 0 C-1.49835228 4.66154042 -4.88463591 5.86610751 -9 8 C-9.33 7.01 -9.66 6.02 -10 5 C-8.02 4.67 -6.04 4.34 -4 4 C-4 3.01 -4 2.02 -4 1 C-2 0 -2 0 0 0 Z " fill="#527DE0" transform="translate(375,492)"/>
<path d="M0 0 C4.12751449 0.60698743 7.3321148 2.03810791 11 4 C11 4.33 11 4.66 11 5 C8.3125 5.3125 8.3125 5.3125 5 5 C2.125 2.5 2.125 2.5 0 0 Z " fill="#6486E1" transform="translate(358,384)"/>
<path d="M0 0 C1.32 0.33 2.64 0.66 4 1 C4.33 3.64 4.66 6.28 5 9 C1.9083091 6.47043472 1.09068668 3.77545388 0 0 Z " fill="#6C8AE4" transform="translate(277,467)"/>
<path d="M0 0 C1.32 0 2.64 0 4 0 C4 1.65 4 3.3 4 5 C2.35 5 0.7 5 -1 5 C-0.67 3.35 -0.34 1.7 0 0 Z " fill="#2F79F0" transform="translate(342,434)"/>
<path d="M0 0 C0.33 0 0.66 0 1 0 C1.29296875 6.0546875 1.29296875 6.0546875 1 8 C0.01 8.66 -0.98 9.32 -2 10 C-2.33 8.02 -2.66 6.04 -3 4 C-2.01 4 -1.02 4 0 4 C0 2.68 0 1.36 0 0 Z " fill="#4C73D2" transform="translate(277,420)"/>
<path d="M0 0 C-0.28875 0.70125 -0.5775 1.4025 -0.875 2.125 C-2.02133588 5.05452503 -3.02625654 8.00921653 -4 11 C-4.33 11 -4.66 11 -5 11 C-4.8864371 9.35333797 -4.75882619 7.70763918 -4.625 6.0625 C-4.55539062 5.14597656 -4.48578125 4.22945313 -4.4140625 3.28515625 C-4.27742188 2.53105469 -4.14078125 1.77695312 -4 1 C-2 0 -2 0 0 0 Z " fill="#040F36" transform="translate(281,413)"/>
<path d="M0 0 C2.475 0.495 2.475 0.495 5 1 C5.33 2.32 5.66 3.64 6 5 C3.03 4.505 3.03 4.505 0 4 C0 2.68 0 1.36 0 0 Z " fill="#477AE3" transform="translate(381,402)"/>
<path d="M0 0 C2.4375 0.8125 2.4375 0.8125 5 2 C5.33 2.99 5.66 3.98 6 5 C6.66 5.66 7.32 6.32 8 7 C7.01 7 6.02 7 5 7 C0 1.53488372 0 1.53488372 0 0 Z " fill="#5987DF" transform="translate(287,483)"/>
<path d="M0 0 C1.9375 0.3125 1.9375 0.3125 4 1 C4.33 1.99 4.66 2.98 5 4 C5.66 4 6.32 4 7 4 C7 4.99 7 5.98 7 7 C5.1875 6.875 5.1875 6.875 3 6 C1.25 2.9375 1.25 2.9375 0 0 Z " fill="#2F78EC" transform="translate(373,482)"/>
<path d="M0 0 C0.33 0.99 0.66 1.98 1 3 C1.66 3 2.32 3 3 3 C3 4.98 3 6.96 3 9 C1.68 9 0.36 9 -1 9 C-1 8.34 -1 7.68 -1 7 C-0.34 7 0.32 7 1 7 C0.67 4.69 0.34 2.38 0 0 Z " fill="#5589E5" transform="translate(388,406)"/>
<path d="M0 0 C0.33 0.66 0.66 1.32 1 2 C-1.31 3.65 -3.62 5.3 -6 7 C-6.66 6.34 -7.32 5.68 -8 5 C-4.04 2.525 -4.04 2.525 0 0 Z " fill="#7196E7" transform="translate(304,388)"/>
<path d="M0 0 C0.598125 0.226875 1.19625 0.45375 1.8125 0.6875 C-0.52083333 3.02083333 -2.85416667 5.35416667 -5.1875 7.6875 C-5.41803497 4.84423536 -5.54653101 3.22604651 -3.9375 0.8125 C-2.1875 -0.3125 -2.1875 -0.3125 0 0 Z " fill="#5F5F5F" transform="translate(181.1875,215.3125)"/>
<path d="M0 0 C0.33 0 0.66 0 1 0 C1.36923077 4.55384615 1.36923077 4.55384615 -0.5 6.8125 C-0.995 7.204375 -1.49 7.59625 -2 8 C-2.66 7.67 -3.32 7.34 -4 7 C-2.68 4.69 -1.36 2.38 0 0 Z " fill="#6E8EE4" transform="translate(285,404)"/>
</svg>
