<?xml version="1.0" encoding="UTF-8"?>
<svg version="1.1" xmlns="http://www.w3.org/2000/svg" width="452" height="552">
<path d="M0 0 C0.74888782 -0.00947007 1.49777564 -0.01894015 2.26935703 -0.02869719 C4.76240328 -0.05759601 7.25532155 -0.07246004 9.74848938 -0.08708191 C11.54284332 -0.10453819 13.33719051 -0.12269916 15.13153076 -0.14151001 C21.00939141 -0.19891138 26.88729295 -0.23466228 32.76533508 -0.26750183 C33.76734837 -0.27344793 34.76936165 -0.27939403 35.80173898 -0.28552032 C45.26066759 -0.34142739 54.71960245 -0.39007732 64.17865276 -0.41966724 C76.25166747 -0.45780389 88.32315841 -0.53296689 100.39557999 -0.65950567 C108.89944282 -0.74559105 117.40289721 -0.78925116 125.90718299 -0.80178469 C130.97976083 -0.81037237 136.05066033 -0.83723996 141.12276268 -0.90963173 C145.89810306 -0.97686008 150.67079193 -0.9912121 155.44651222 -0.96624184 C157.19120727 -0.96607578 158.93602697 -0.98449145 160.68028259 -1.02364731 C168.66766972 -1.19317654 175.22064906 -1.29979061 181.51424772 4.10725719 C183.88882168 6.39779807 186.0680595 8.84466096 188.25361633 11.31452942 C189.98356722 12.91974416 191.73052676 14.50709634 193.50361633 16.06452942 C194.30670227 16.78511536 195.10978821 17.50570129 195.93721008 18.24812317 C202.46083468 24.09833978 202.46083468 24.09833978 209.25361633 29.62702942 C209.91361633 30.18390442 210.57361633 30.74077942 211.25361633 31.31452942 C211.25361633 31.97452942 211.25361633 32.63452942 211.25361633 33.31452942 C211.84964661 33.58764954 212.44567688 33.86076965 213.05976868 34.14216614 C215.18597486 35.27838271 216.62776436 36.40925492 218.35517883 38.07234192 C218.92309143 38.61181458 219.49100403 39.15128723 220.0761261 39.70710754 C220.67094788 40.27880676 221.26576965 40.85050598 221.87861633 41.43952942 C226.76393912 46.06538119 231.71410807 50.44904651 237.07002258 54.53327942 C239.64814195 56.63636069 241.91443707 58.94799133 244.25361633 61.31452942 C246.629764 63.58577067 249.03412632 65.82605386 251.44111633 68.06452942 C252.0695343 68.65363098 252.69795227 69.24273254 253.34541321 69.84968567 C253.94804993 70.41042786 254.55068665 70.97117004 255.17158508 71.54890442 C255.71581116 72.05647278 256.26003723 72.56404114 256.820755 73.08699036 C258.25537107 74.41636118 258.25537107 74.41636118 260.25361633 75.31452942 C260.25361633 75.97452942 260.25361633 76.63452942 260.25361633 77.31452942 C260.78986633 77.54140442 261.32611633 77.76827942 261.87861633 78.00202942 C266.39979047 80.50057302 269.84155475 83.71465434 273.06611633 87.68952942 C276.09394527 91.37944361 279.63780002 94.05196881 283.49580383 96.83406067 C284.07588196 97.32261536 284.65596008 97.81117004 285.25361633 98.31452942 C285.25361633 98.97452942 285.25361633 99.63452942 285.25361633 100.31452942 C285.84731018 100.58458801 286.44100403 100.85464661 287.0526886 101.13288879 C289.23881419 102.3065824 290.70109025 103.49492772 292.46846008 105.22077942 C293.06650452 105.79537903 293.66454895 106.36997864 294.28071594 106.96199036 C294.91114807 107.57332825 295.5415802 108.18466614 296.19111633 108.81452942 C301.66178683 114.04423392 307.25548408 118.86084038 313.39204407 123.29304504 C314.7109455 124.25830835 315.98743158 125.28108352 317.25361633 126.31452942 C317.25361633 126.97452942 317.25361633 127.63452942 317.25361633 128.31452942 C317.89299133 128.60327942 318.53236633 128.89202942 319.19111633 129.18952942 C321.25361633 130.31452942 321.25361633 130.31452942 322.25361633 132.31452942 C322.34601971 133.65380535 322.3773583 134.9975691 322.37666416 136.34002876 C322.37865521 137.18699259 322.38064626 138.03395642 322.38269764 138.90658581 C322.3797848 139.84236962 322.37687196 140.77815342 322.37387085 141.74229431 C322.37515249 143.22718709 322.37515249 143.22718709 322.37646002 144.74207771 C322.37811545 148.08021117 322.37259238 151.41829507 322.36714172 154.75642395 C322.36685984 157.14092508 322.36701761 159.52542629 322.36758423 161.90992737 C322.36784222 167.7263349 322.36349418 173.54272603 322.35714657 179.3591298 C322.35000857 186.12534828 322.34850232 192.8915644 322.3473584 199.65778612 C322.34516827 211.72484855 322.33850922 223.79190424 322.32905579 235.85896301 C322.31988067 247.582921 322.31280032 259.30687716 322.30854797 271.03083801 C322.30815389 272.11432924 322.30815389 272.11432924 322.30775184 273.21970917 C322.30644683 276.84331314 322.30518312 280.46691711 322.30393994 284.0905211 C322.29356853 314.16519527 322.27587707 344.23986156 322.25361633 374.31452942 C322.93615479 374.51450531 323.61869324 374.7144812 324.32191467 374.92051697 C325.21944458 375.18605377 326.11697449 375.45159058 327.04170227 375.72517395 C327.93049072 375.98702484 328.81927917 376.24887573 329.73500061 376.5186615 C337.26864765 378.89925015 344.64412054 382.70503363 350.25361633 388.31452942 C350.25361633 388.97452942 350.25361633 389.63452942 350.25361633 390.31452942 C351.24361633 390.64452942 352.23361633 390.97452942 353.25361633 391.31452942 C358.30884851 396.63965078 362.54170587 402.4863263 365.25361633 409.31452942 C365.62486633 410.16531067 365.99611633 411.01609192 366.37861633 411.89265442 C369.18160886 419.3283707 369.61604789 426.1709179 369.62861633 434.06452942 C369.63022766 435.03462952 369.63183899 436.00472961 369.63349915 437.00422668 C369.49158415 446.2310668 367.87867082 454.02124828 363.69111633 462.25202942 C363.17255066 463.28082214 363.17255066 463.28082214 362.64350891 464.33039856 C359.19863494 470.87927556 354.55191373 478.88176362 347.25361633 481.31452942 C347.25361633 481.97452942 347.25361633 482.63452942 347.25361633 483.31452942 C342.86900095 486.31452942 342.86900095 486.31452942 340.25361633 486.31452942 C340.25361633 486.97452942 340.25361633 487.63452942 340.25361633 488.31452942 C338.11199124 489.28328729 335.9660076 490.23942331 333.81611633 491.18952942 C332.6211554 491.72320129 331.42619446 492.25687317 330.19502258 492.80671692 C315.24990732 498.87461569 297.49173856 498.05380611 282.83564758 491.87312317 C266.03023296 484.31476118 254.973517 470.84492223 248.28486633 453.85359192 C246.7374051 449.31150664 246.11059618 445.30335786 246.17939758 440.49812317 C246.19011292 439.52286682 246.20082825 438.54761047 246.21186829 437.5428009 C246.22564514 436.80747131 246.239422 436.07214172 246.25361633 435.31452942 C244.94863253 435.31821659 243.64364872 435.32190376 242.29911995 435.32570267 C211.30202999 435.41238624 180.30497282 435.47831755 149.3077907 435.51879074 C145.4902532 435.5237934 141.67271595 435.5289707 137.85517883 435.53425598 C136.71520334 435.53582984 136.71520334 435.53582984 135.55219804 435.5374355 C123.25634728 435.5548275 110.96057155 435.58635852 98.66476525 435.6231406 C86.04248313 435.66058362 73.42024023 435.68277237 60.79790485 435.6908834 C53.01299197 435.69636422 45.22829116 435.71365735 37.44344358 435.74619529 C31.46793981 435.76989433 25.49261739 435.7723408 19.51706123 435.76696014 C17.07016127 435.76805917 14.62325317 435.7759969 12.17640114 435.79135132 C8.82962408 435.81132003 5.48374651 435.80644271 2.13694763 435.79554749 C1.17388423 435.80719885 0.21082083 435.81885022 -0.78142631 435.83085465 C-9.0758933 435.75811686 -15.44538623 433.01558896 -22.74638367 429.31452942 C-22.74638367 428.65452942 -22.74638367 427.99452942 -22.74638367 427.31452942 C-23.64163757 426.94134583 -23.64163757 426.94134583 -24.55497742 426.56062317 C-27.09036816 425.11893039 -28.17778342 423.78235858 -29.80888367 421.37702942 C-30.53784851 420.34255676 -30.53784851 420.34255676 -31.28153992 419.28718567 C-36.02163459 409.66795354 -36.15531434 399.86382348 -36.03935242 389.36531067 C-36.03374368 387.85645982 -36.02947964 386.34760343 -36.02648926 384.83874512 C-36.01514084 380.90467223 -35.98576252 376.9709419 -35.95237732 373.03700256 C-35.92145813 369.00781383 -35.90793767 364.97856871 -35.89286804 360.94929504 C-35.86088098 353.07088421 -35.80980906 345.19274966 -35.74638367 337.31452942 C-36.49186462 337.26627014 -37.23734558 337.21801086 -38.00541687 337.16828918 C-38.98856873 337.09408752 -39.97172058 337.01988586 -40.98466492 336.94343567 C-41.95702087 336.87455139 -42.92937683 336.80566711 -43.93119812 336.73469543 C-47.95302601 336.13443823 -50.42397539 334.60329957 -53.74638367 332.31452942 C-53.74638367 331.65452942 -53.74638367 330.99452942 -53.74638367 330.31452942 C-54.40638367 330.31452942 -55.06638367 330.31452942 -55.74638367 330.31452942 C-60.31837427 323.05334949 -60.31632148 316.75459833 -60.26396179 308.31452942 C-60.26938981 306.90762103 -60.27651627 305.50071834 -60.28520203 304.09382629 C-60.30335792 300.29208806 -60.29640023 296.49078651 -60.28368568 292.68904114 C-60.27351765 288.6996091 -60.28296188 284.71021301 -60.28923035 280.72077942 C-60.29649573 274.02279488 -60.2869483 267.32498709 -60.26786804 260.62702942 C-60.24610132 252.89702692 -60.25315349 245.16744651 -60.27517366 237.43745422 C-60.2933594 230.7858063 -60.29587053 224.13428501 -60.28541899 217.48262024 C-60.27920143 213.5163634 -60.27830024 209.55030458 -60.29156494 205.58406067 C-60.30316928 201.8541246 -60.29501514 198.12472965 -60.27198792 194.39485168 C-60.26422619 192.383059 -60.27601751 190.37122024 -60.28849792 188.35945129 C-60.22189473 181.2081714 -59.66472242 176.36723305 -55.74638367 170.31452942 C-53.52763367 168.25593567 -53.52763367 168.25593567 -51.24638367 166.87702942 C-50.49357117 166.40394348 -49.74075867 165.93085754 -48.96513367 165.44343567 C-44.50288706 163.17303202 -40.7289589 163.28308107 -35.74638367 163.31452942 C-35.74914905 162.64529827 -35.75191442 161.97606712 -35.7547636 161.28655624 C-35.8211837 144.95915339 -35.87074191 128.63179366 -35.90182018 112.30428696 C-35.9172511 104.40823751 -35.93826787 96.51227857 -35.97270203 88.61628723 C-36.00272059 81.72950464 -36.02198607 74.84278764 -36.02864915 67.95594144 C-36.03254045 64.3135956 -36.04160548 60.6714373 -36.06357384 57.02915192 C-36.08797059 52.9506926 -36.08834573 48.87255378 -36.08695984 44.79402161 C-36.09774567 43.60286743 -36.10853149 42.41171326 -36.11964417 41.1844635 C-36.07854243 29.95059132 -34.56833717 18.94264526 -26.74638367 10.31452942 C-26.08638367 10.31452942 -25.42638367 10.31452942 -24.74638367 10.31452942 C-24.74638367 9.65452942 -24.74638367 8.99452942 -24.74638367 8.31452942 C-22.80497742 6.87702942 -22.80497742 6.87702942 -20.18388367 5.31452942 C-19.3369696 4.79890442 -18.49005554 4.28327942 -17.61747742 3.75202942 C-11.87832995 0.87855151 -6.35250074 0.01550452 0 0 Z M-20.74638367 20.81452942 C-23.87522354 25.50778923 -24.99744435 30.50342599 -24.9868927 36.08525085 C-24.98964203 37.21258133 -24.99239136 38.3399118 -24.995224 39.50140381 C-24.98803345 40.72348038 -24.9808429 41.94555695 -24.97343445 43.20466614 C-24.9737265 44.50276718 -24.97401855 45.80086823 -24.97431946 47.13830566 C-24.97489178 50.68541376 -24.96315707 54.23238578 -24.94917154 57.77946234 C-24.93664405 61.49102426 -24.93549209 65.20258951 -24.93312073 68.91416931 C-24.92691188 75.9369858 -24.91050915 82.9597398 -24.89042175 89.98252881 C-24.86804419 97.9800886 -24.85706465 105.97765142 -24.84703088 113.97523475 C-24.82614238 130.42170285 -24.79097801 146.86810815 -24.74638367 163.31452942 C-23.79185366 163.31599598 -22.83732365 163.31746254 -21.85386848 163.31897354 C1.3911126 163.35559757 24.63594992 163.4150853 47.88081169 163.49843216 C59.12194426 163.5382112 70.36300694 163.5706095 81.60420227 163.58552551 C91.40407127 163.59854786 101.20378642 163.62552757 111.00356877 163.66914248 C116.1906506 163.69174402 121.37754275 163.70744087 126.56467819 163.70641327 C131.45178451 163.70566589 136.33847174 163.723648 141.22546959 163.75569725 C143.01441345 163.76418231 144.8034044 163.76595568 146.59235954 163.76033211 C167.09476426 163.7044914 167.09476426 163.7044914 175.19111633 170.93952942 C177.25361633 174.31452942 177.25361633 174.31452942 180.25361633 184.31452942 C234.70361633 184.80952942 234.70361633 184.80952942 290.25361633 185.31452942 C291.25361633 191.31452942 291.25361633 191.31452942 290.25361633 193.31452942 C287.45502516 194.24739314 285.72653491 194.44898378 282.83071899 194.4727478 C281.47406128 194.48743103 281.47406128 194.48743103 280.08999634 194.50241089 C278.60538155 194.51104408 278.60538155 194.51104408 277.09077454 194.51985168 C276.04670441 194.52975128 275.00263428 194.53965088 273.92692566 194.54985046 C270.46943952 194.58148527 267.01193962 194.60623082 263.55439758 194.63093567 C261.15971516 194.65150348 258.76503638 194.6724999 256.37036133 194.69390869 C250.06243336 194.7491472 243.75447253 194.79854868 237.44648743 194.84675598 C229.88070322 194.90578186 222.31497916 194.97201964 214.74924469 195.03705597 C203.25073859 195.13508787 191.75219421 195.22392872 180.25361633 195.31452942 C180.25361633 211.81452942 180.25361633 228.31452942 180.25361633 245.31452942 C191.8957843 245.37060364 191.8957843 245.37060364 203.77314758 245.42781067 C208.68137321 245.45807589 213.58956193 245.4892143 218.49775696 245.52351379 C226.29339276 245.57790766 234.08895555 245.62901461 241.88471985 245.66096497 C248.16772078 245.68691719 254.45047756 245.72726214 260.73332787 245.77771568 C263.13394325 245.79443919 265.53460092 245.80591917 267.93526649 245.81214333 C271.29009914 245.82172477 274.64429933 245.84971289 277.99897766 245.88215637 C278.99807159 245.88072128 279.99716553 245.87928619 281.02653503 245.87780762 C281.93938766 245.89034576 282.8522403 245.90288391 283.79275513 245.915802 C284.98325077 245.92271545 284.98325077 245.92271545 286.19779682 245.92976856 C288.25361633 246.31452942 288.25361633 246.31452942 290.09492016 247.46444988 C291.25361633 249.31452942 291.25361633 249.31452942 290.25361633 255.31452942 C235.80361633 255.80952942 235.80361633 255.80952942 180.25361633 256.31452942 C180.25361633 273.47452942 180.25361633 290.63452942 180.25361633 308.31452942 C216.88361633 308.64452942 253.51361633 308.97452942 291.25361633 309.31452942 C291.25361633 311.62452942 291.25361633 313.93452942 291.25361633 316.31452942 C288.11294525 318.40831014 287.37332762 318.56805059 283.79275513 318.59300232 C282.42347618 318.60974754 282.42347618 318.60974754 281.02653503 318.62683105 C279.52789413 318.63007133 279.52789413 318.63007133 277.99897766 318.63337708 C276.94515396 318.6434227 275.89133026 318.65346832 274.80557251 318.66381836 C271.31560318 318.69475679 267.82571093 318.71171523 264.33564758 318.72859192 C261.91854179 318.74729498 259.50144258 318.76686773 257.08435059 318.78727722 C250.71724829 318.83869543 244.35012481 318.87826932 237.98292542 318.91542053 C231.48781551 318.95539947 224.9927945 319.00651964 218.49775696 319.05671692 C205.74977356 319.15359093 193.00173925 319.23833715 180.25361633 319.31452942 C179.76115417 320.34513489 179.76115417 320.34513489 179.25874329 321.39656067 C178.8200592 322.29761536 178.38137512 323.19867004 177.92939758 324.12702942 C177.28224792 325.46700989 177.28224792 325.46700989 176.62202454 326.83406067 C173.95106444 331.67562259 170.929584 333.81252459 165.5558548 335.42212486 C161.44953724 336.38013916 157.43612477 336.60461996 153.2303009 336.59300232 C152.46392477 336.59879472 151.69754863 336.60458712 150.90794897 336.61055505 C148.36232039 336.62744224 145.81687434 336.63042174 143.27119446 336.63337708 C141.43752097 336.64268305 139.60385169 336.65285272 137.77018738 336.66381836 C132.80801836 336.69105689 127.84587765 336.70624954 122.88365364 336.71924639 C117.69195953 336.73490385 112.50032297 336.76168573 107.30867004 336.78727722 C97.48456883 336.83401872 87.66045673 336.87078524 77.83630133 336.9039501 C66.6488686 336.9422042 55.46149375 336.99160575 44.27410984 337.04193425 C21.26732159 337.14518526 -1.73950385 337.23446787 -24.74638367 337.31452942 C-24.83945063 346.00784881 -24.91033328 354.70099422 -24.95363235 363.39470482 C-24.9744237 367.43245027 -25.00258439 371.46985252 -25.04814148 375.50740051 C-25.09190413 379.41076104 -25.11558419 383.31379342 -25.12589264 387.21738052 C-25.13322991 388.69960819 -25.14755667 390.18181981 -25.16930389 391.6639061 C-25.30387555 401.22342969 -25.06490807 410.05132781 -18.74638367 417.75202942 C-18.08638367 418.26765442 -17.42638367 418.78327942 -16.74638367 419.31452942 C-16.08638367 419.85077942 -15.42638367 420.38702942 -14.74638367 420.93952942 C-11.20811964 423.37208594 -8.60376728 424.56488048 -4.27176285 424.56062508 C-3.37553278 424.56460717 -2.47930272 424.56858927 -1.55591416 424.57269204 C-0.08510349 424.56395351 -0.08510349 424.56395351 1.41542053 424.55503845 C2.46014408 424.5567473 3.50486763 424.55845615 4.58124948 424.56021678 C8.09287575 424.56351923 11.60431226 424.55249543 15.11592102 424.5415802 C17.62879431 424.54101625 20.14166792 424.54133233 22.65454102 424.54246521 C28.07021767 424.54292111 33.48583287 424.53723681 38.90149689 424.52598953 C46.73163357 424.50973845 54.56174694 424.50452693 62.39189866 424.50201355 C75.095655 424.49763583 87.79938566 424.48432464 100.50312805 424.46540833 C112.84394706 424.44705152 125.18475909 424.43289404 137.52558899 424.4243927 C138.66653846 424.42360453 138.66653846 424.42360453 139.83053741 424.42280044 C143.646393 424.42019037 147.46224863 424.41766295 151.27810431 424.41517663 C182.93662715 424.39444174 214.59511775 424.35906549 246.25361633 424.31452942 C246.58627502 423.28972473 246.91893372 422.26492004 247.26167297 421.20906067 C247.70801869 419.84832207 248.15456238 418.4876484 248.60127258 417.12702942 C248.92835205 416.11672668 248.92835205 416.11672668 249.26203918 415.08601379 C251.89290776 407.10335984 255.37460402 400.84304884 261.11689758 394.72468567 C262.46281094 393.35689009 262.46281094 393.35689009 262.25361633 391.31452942 C262.82982727 391.05671692 263.40603821 390.79890442 263.99971008 390.53327942 C266.44755418 389.20966181 268.2599936 387.68445221 270.31611633 385.81452942 C272.5879364 383.75637381 274.6906889 382.0231477 277.25361633 380.31452942 C184.19361633 379.98452942 91.13361633 379.65452942 -4.74638367 379.31452942 C-3.74638367 372.31452942 -3.74638367 372.31452942 -2.74638367 371.31452942 C-1.17732474 371.21754472 0.39611784 371.19081292 1.96817112 371.19148159 C2.99428047 371.18949054 4.02038982 371.18749949 5.07759339 371.18544811 C6.21861934 371.18836095 7.3596453 371.19127379 8.5352478 371.1942749 C9.73666662 371.19342048 10.93808544 371.19256605 12.17591089 371.19168574 C15.52573579 371.19031753 18.87550298 371.19346508 22.22532094 371.1984638 C25.83201737 371.20276493 29.43871188 371.20132212 33.04541016 371.20056152 C39.29926034 371.20003607 45.55310014 371.20318507 51.80694771 371.20879936 C60.84906473 371.21691152 69.8911767 371.21952929 78.93329697 371.22078735 C93.60200328 371.22297832 108.27070405 371.22963962 122.93940735 371.23908997 C137.19233675 371.24826293 151.44526465 371.25534433 165.69819641 371.25959778 C166.57611039 371.2598605 167.45402436 371.26012323 168.35854179 371.26039391 C172.7625881 371.26169891 177.16663441 371.26296262 181.57068074 371.26420581 C218.13166319 371.27457982 254.69263933 371.29219935 291.25361633 371.31452942 C291.58361633 372.30452942 291.91361633 373.29452942 292.25361633 374.31452942 C301.65861633 373.81952942 301.65861633 373.81952942 311.25361633 373.31452942 C311.25361633 296.09452942 311.25361633 218.87452942 311.25361633 139.31452942 C272.82510146 139.14408098 272.82510146 139.14408098 234.3964386 139.01667786 C226.94685364 138.9712677 226.94685364 138.9712677 223.4541626 138.94496155 C221.02625744 138.93039253 218.59829792 138.92357778 216.17034912 138.92298889 C212.48232993 138.92056434 208.7952346 138.89317071 205.1073761 138.86042786 C203.49775041 138.86796396 203.49775041 138.86796396 201.85560703 138.87565231 C192.10462286 138.74048102 185.10955717 135.80056197 177.97627258 129.17781067 C175.4154541 126.40794578 173.89283689 123.71906441 172.25361633 120.31452942 C171.89667694 119.62853165 171.53973755 118.94253387 171.17198181 118.23574829 C169.81049132 113.90499783 169.94498644 109.71485094 169.93476868 105.20002747 C169.91970024 103.67737526 169.91970024 103.67737526 169.90432739 102.1239624 C169.87348111 98.77472999 169.85645603 95.42557757 169.83955383 92.07624817 C169.82084337 89.75168163 169.80127005 87.42712189 169.78086853 85.10256958 C169.72952858 78.98867297 169.68991268 72.87475434 169.65272522 66.76075745 C169.61269737 60.52016239 169.56159943 54.2796591 169.51142883 48.03913879 C169.41464741 35.79766678 169.33024959 23.55614298 169.25361633 11.31452942 C146.34847989 11.17423729 123.4434145 11.06849851 100.53793526 11.00365639 C89.90200037 10.97274596 79.26633277 10.93061914 68.63056946 10.8618927 C59.35815589 10.80200466 50.08593595 10.76335983 40.81333435 10.74999845 C35.90551075 10.74219061 30.99824097 10.72389921 26.09059525 10.68014908 C21.4661079 10.63925933 16.84239961 10.62689325 12.21774864 10.63588333 C10.52549561 10.63423998 8.83321508 10.6224024 7.141119 10.59929657 C-4.12472394 10.45307571 -13.27753743 11.40159644 -20.74638367 20.81452942 Z M179.25361633 18.31452942 C179.20723546 30.18892796 179.17171784 42.06330487 179.14999199 53.93777561 C179.13956365 59.45182054 179.12542167 64.96580341 179.10273743 70.47981262 C179.08097535 75.80309597 179.06904056 81.12631968 179.06386185 86.44964409 C179.06017215 88.47857031 179.05296709 90.50749334 179.04215622 92.53639412 C179.02759669 95.38251372 179.02564027 98.22838822 179.02656555 101.07453918 C179.019375 101.9096402 179.01218445 102.74474121 179.004776 103.60514832 C179.02701885 109.94570484 179.56049635 116.04532791 183.94111633 121.00202942 C184.62754211 121.8122052 184.62754211 121.8122052 185.32783508 122.63874817 C191.68375047 128.16955487 196.68321574 128.88934824 204.87055969 128.76863098 C205.91521393 128.76921509 206.95986816 128.76979919 208.03617859 128.770401 C211.47228285 128.76762518 214.90750827 128.73655569 218.34346008 128.70515442 C220.73241705 128.69769028 223.12138017 128.69199816 225.51034546 128.68800354 C231.78553798 128.67276103 238.06035777 128.63349051 244.33540344 128.58918762 C250.74363666 128.54820544 257.15193035 128.52998619 263.56025696 128.50984192 C276.12486872 128.46699545 288.68922266 128.39953373 301.25361633 128.31452942 C298.77351814 125.14497684 296.55399832 122.56616444 293.25361633 120.25202942 C290.30902063 118.13389088 287.81994358 115.88085666 285.25361633 113.31452942 C284.59361633 113.31452942 283.93361633 113.31452942 283.25361633 113.31452942 C283.25361633 112.65452942 283.25361633 111.99452942 283.25361633 111.31452942 C281.6385427 109.64170761 281.6385427 109.64170761 279.56611633 107.93952942 C278.8352179 107.31562317 278.10431946 106.69171692 277.35127258 106.04890442 C275.75946361 104.73277186 274.13797154 103.45244026 272.50361633 102.18952942 C270.25361633 100.31452942 270.25361633 100.31452942 268.44111633 98.00202942 C266.02555321 95.03433758 263.38988081 92.70369748 260.48408508 90.22859192 C257.30220512 87.49808197 254.22480359 84.65392957 251.13642883 81.81843567 C249.39478749 80.10649548 249.39478749 80.10649548 247.25361633 80.31452942 C246.92361633 79.32452942 246.59361633 78.33452942 246.25361633 77.31452942 C244.59804604 75.83654625 242.87915047 74.42870589 241.12861633 73.06452942 C236.98395394 69.77143615 233.19124219 66.40864434 229.59346008 62.52937317 C228.30810966 61.09062785 228.30810966 61.09062785 226.25361633 61.31452942 C226.25361633 60.65452942 226.25361633 59.99452942 226.25361633 59.31452942 C224.87404217 57.87985926 224.87404217 57.87985926 223.00361633 56.37702942 C219.34388127 53.26885017 215.78019389 50.07218252 212.25361633 46.81452942 C208.18184167 43.06231013 204.07254683 39.36307178 199.87471008 35.75202942 C198.25361633 34.31452942 198.25361633 34.31452942 196.66377258 32.62702942 C195.33069126 31.08742737 195.33069126 31.08742737 193.25361633 31.31452942 C193.25361633 30.65452942 193.25361633 29.99452942 193.25361633 29.31452942 C191.67516487 27.63969773 191.67516487 27.63969773 189.62861633 25.93952942 C188.95572571 25.35429504 188.28283508 24.76906067 187.58955383 24.16609192 C184.91318207 22.04468687 182.10262125 20.19550632 179.25361633 18.31452942 Z M-48.74638367 179.31452942 C-49.77806997 182.40958833 -49.8795807 184.55308106 -49.89355469 187.79800415 C-49.90070999 188.93778214 -49.9078653 190.07756012 -49.91523743 191.25187683 C-49.91792633 192.50336517 -49.92061523 193.75485352 -49.92338562 195.04426575 C-49.92995682 196.36155167 -49.93652802 197.67883759 -49.94329834 199.03604126 C-49.96432191 203.40620204 -49.97469851 207.7763631 -49.98466492 212.14656067 C-49.98871298 213.65180161 -49.99282992 215.15704237 -49.997015 216.66228294 C-50.01606223 223.73372968 -50.03029474 230.80516601 -50.03862697 237.87663347 C-50.04840074 246.03648884 -50.07472565 254.19607305 -50.11512786 262.35583287 C-50.14529436 268.66506677 -50.1600963 274.97422294 -50.16340798 281.28352755 C-50.16575771 285.05087391 -50.17470778 288.81793042 -50.19986916 292.58519936 C-50.22316484 296.13032985 -50.22737748 299.67497994 -50.21710777 303.22016716 C-50.21637709 305.13701873 -50.23545748 307.05384599 -50.25517273 308.97059631 C-50.20841222 317.44919603 -50.20841222 317.44919603 -45.74638367 324.31452942 C-41.97718983 326.82732531 -39.00863582 326.59918201 -34.6434021 326.58195496 C-33.39021493 326.58875163 -33.39021493 326.58875163 -32.11171085 326.5956856 C-29.30197257 326.60838283 -26.49242682 326.60670581 -23.68266296 326.60505676 C-21.67227426 326.61103874 -19.66188787 326.61784351 -17.65150452 326.62541199 C-12.18243322 326.64311399 -6.71342447 326.64776916 -1.24432731 326.64904356 C3.31832709 326.65094041 7.88096684 326.65829557 12.44361562 326.66538775 C23.20768262 326.68168566 33.97171615 326.68655546 44.73579407 326.68513489 C55.84492257 326.68393343 66.95385679 326.70503295 78.06293613 326.73662221 C87.59508025 326.76276298 97.12716085 326.77350309 106.65934056 326.77222407 C112.35488563 326.77171374 118.05025817 326.77743589 123.74576759 326.79858017 C129.10313853 326.81792515 134.46017172 326.81811254 139.81755447 326.80354691 C141.78397425 326.80145299 143.75041496 326.80619427 145.71679878 326.81826782 C148.40149225 326.83368405 151.08501591 326.82443631 153.76968384 326.80900574 C154.54780483 326.81929286 155.32592582 326.82957999 156.12762624 326.84017885 C161.30300701 326.77444901 164.27534207 325.60443811 168.25361633 322.31452942 C169.56619132 319.68937944 169.39151328 317.73377356 169.40751648 314.79272461 C169.41611694 313.61921951 169.42471741 312.44571442 169.43357849 311.23664856 C169.43783844 309.94259094 169.44209839 308.64853333 169.44648743 307.31526184 C169.45438781 305.9437845 169.46265672 304.57230924 169.4712677 303.20083618 C169.49749441 298.69057706 169.51279559 294.18030862 169.52705383 289.66999817 C169.53241318 288.11799425 169.53779068 286.56599039 169.54318619 285.01398659 C169.56481553 278.55870843 169.58355275 272.10343278 169.59480858 265.64812756 C169.61105129 256.39334656 169.64423577 247.13898519 169.70120943 237.8843624 C169.73989425 231.37898982 169.75943949 224.87372954 169.76472914 218.36824495 C169.76838456 214.4817988 169.78042511 210.59580013 169.81283188 206.70947838 C169.84288761 203.05267275 169.8492339 199.39658591 169.83744812 195.73968315 C169.83712188 193.75938572 169.86160414 191.77913281 169.88682556 189.79899597 C170.09997864 182.83841623 170.09997864 182.83841623 166.84214783 177.04031372 C162.52321506 174.16086397 159.34607 174.16383623 154.27088928 174.16062927 C153.43628559 174.15624702 152.6016819 174.15186476 151.7417872 174.14734972 C148.92899625 174.13393354 146.11623665 174.12777654 143.30342102 174.12165833 C141.29318092 174.11375959 139.28294225 174.10549078 137.27270508 174.09687805 C130.65698099 174.0706319 124.04125049 174.05534801 117.42549133 174.04109192 C115.15038804 174.03573334 112.87528479 174.03035584 110.60018158 174.02495956 C101.13818791 174.0033272 91.67619596 173.98458952 82.21418381 173.97333717 C68.64187295 173.95709216 55.06984814 173.92390485 41.49764514 173.86693633 C31.96128415 173.82826915 22.42499978 173.8087083 12.88856244 173.80341661 C7.18958855 173.7997588 1.49091955 173.78769168 -4.20796967 173.75531387 C-9.56946399 173.7252901 -14.93046803 173.71890122 -20.29202843 173.73069763 C-22.26007347 173.73091884 -24.22814089 173.72257476 -26.19610786 173.70504379 C-28.88323857 173.68240911 -31.56858286 173.69062018 -34.25572205 173.70652771 C-35.42392671 173.68570458 -35.42392671 173.68570458 -36.61573148 173.66446078 C-42.44738191 173.74952024 -44.85733956 175.2447431 -48.74638367 179.31452942 Z M307.25361633 392.31452942 C305.21241845 393.93047774 303.21288696 395.60016762 301.25361633 397.31452942 C301.25361633 397.97452942 301.25361633 398.63452942 301.25361633 399.31452942 C300.59361633 399.31452942 299.93361633 399.31452942 299.25361633 399.31452942 C297.79701656 400.9283589 296.41312682 402.60816157 295.06611633 404.31452942 C291.65654362 408.59028808 288.16370457 412.72552161 284.46846008 416.75593567 C283.04869587 418.24808007 283.04869587 418.24808007 283.25361633 420.31452942 C282.59361633 420.31452942 281.93361633 420.31452942 281.25361633 420.31452942 C278.96761606 423.01785247 278.96761606 423.01785247 279.56611633 425.43952942 C280.09940119 427.30046795 280.09940119 427.30046795 281.25361633 428.31452942 C282.66931756 428.40104553 284.08921134 428.42157846 285.50752258 428.41218567 C286.36152649 428.40896301 287.2155304 428.40574036 288.09541321 428.40242004 C288.99324524 428.39404114 289.89107727 428.38566223 290.81611633 428.37702942 C291.71781555 428.3725177 292.61951477 428.36800598 293.54853821 428.36335754 C295.78362947 428.35153166 298.0185907 428.33505162 300.25361633 428.31452942 C300.2469545 429.17230484 300.2469545 429.17230484 300.24015808 430.04740906 C300.19600682 435.98424284 300.16578421 441.9210302 300.14375305 447.85798645 C300.13367809 450.07545363 300.12001774 452.29290747 300.10273743 454.5103302 C300.0785547 457.69249253 300.06714836 460.87447966 300.05830383 464.05671692 C300.04798126 465.0525882 300.03765869 466.04845947 300.02702332 467.07450867 C300.02687225 467.99531219 300.02672119 468.91611572 300.02656555 469.86482239 C300.01990372 471.08393814 300.01990372 471.08393814 300.0131073 472.3276825 C300.07440513 474.54665617 300.07440513 474.54665617 302.25361633 476.31452942 C304.58765688 476.67167742 304.58765688 476.67167742 307.19111633 476.62702942 C308.06638977 476.64378723 308.94166321 476.66054504 309.84346008 476.67781067 C312.7659888 476.23729986 313.45857804 475.61522469 315.25361633 473.31452942 C315.686095 471.20099171 315.686095 471.20099171 315.5941925 468.84309387 C315.59396591 467.94238663 315.59373932 467.04167938 315.59350586 466.11367798 C315.57028008 464.66042366 315.57028008 464.66042366 315.54658508 463.17781067 C315.54021782 461.6859449 315.54021782 461.6859449 315.53372192 460.16394043 C315.51691786 456.98469567 315.4792621 453.80608286 315.44111633 450.62702942 C315.42607175 448.47274169 315.41238295 446.31844404 315.40010071 444.16413879 C315.3670086 438.88069187 315.31521405 433.59771781 315.25361633 428.31452942 C321.52361633 428.31452942 327.79361633 428.31452942 334.25361633 428.31452942 C334.91361633 426.99452942 335.57361633 425.67452942 336.25361633 424.31452942 C335.47015919 423.14233399 334.67658798 421.97689274 333.87861633 420.81452942 C333.43775696 420.16484192 332.99689758 419.51515442 332.54267883 418.84577942 C331.9045929 418.08781067 331.9045929 418.08781067 331.25361633 417.31452942 C330.59361633 417.31452942 329.93361633 417.31452942 329.25361633 417.31452942 C328.98291321 416.73702942 328.71221008 416.15952942 328.43330383 415.56452942 C325.6070254 410.17401162 321.61932947 405.51854947 317.25361633 401.31452942 C316.75861633 400.32452942 316.75861633 400.32452942 316.25361633 399.31452942 C315.26361633 399.31452942 314.27361633 399.31452942 313.25361633 399.31452942 C313.00611633 398.53077942 312.75861633 397.74702942 312.50361633 396.93952942 C311.09972534 393.99135834 310.24685896 393.41205172 307.25361633 392.31452942 Z " fill="#101010" transform="translate(68.74638366699219,14.685470581054688)"/>
<path d="M0 0 C0.33 0 0.66 0 1 0 C1 11.22 1 22.44 1 34 C5.95 35.485 5.95 35.485 11 37 C17.60946315 39.78693953 23.89476185 42.89476185 29 48 C29 48.66 29 49.32 29 50 C29.99 50.33 30.98 50.66 32 51 C37.05523217 56.32512136 41.28808954 62.17179688 44 69 C44.37125 69.85078125 44.7425 70.7015625 45.125 71.578125 C47.92799252 79.01384128 48.36243156 85.85638848 48.375 93.75 C48.37661133 94.7201001 48.37822266 95.6902002 48.37988281 96.68969727 C48.23796781 105.91653738 46.62505449 113.70671886 42.4375 121.9375 C42.09178955 122.62336182 41.7460791 123.30922363 41.38989258 124.01586914 C37.94501861 130.56474614 33.2982974 138.5672342 26 141 C26 141.66 26 142.32 26 143 C21.61538462 146 21.61538462 146 19 146 C19 146.66 19 147.32 19 148 C16.8583749 148.96875787 14.71239126 149.92489389 12.5625 150.875 C11.36753906 151.40867187 10.17257812 151.94234375 8.94140625 152.4921875 C-6.00370901 158.56008628 -23.76187777 157.73927669 -38.41796875 151.55859375 C-55.22338337 144.00023176 -66.28009934 130.53039281 -72.96875 113.5390625 C-75.25286857 106.83475151 -75 102.55954961 -75 95 C-159.15 95 -243.3 95 -330 95 C-330 94.67 -330 94.34 -330 94 C-245.52 94 -161.04 94 -74 94 C-74 91.03 -74 88.06 -74 85 C-81.26 85 -88.52 85 -96 85 C-96 84.67 -96 84.34 -96 84 C-89.07 84 -82.14 84 -75 84 C-74.443125 81.40125 -74.443125 81.40125 -73.875 78.75 C-69.74496325 62.36494768 -60.27095086 50.91490009 -47 41 C-47.58536415 40.99826375 -48.17072831 40.9965275 -48.77383077 40.99473864 C-83.43669236 40.8917993 -118.09953393 40.78370608 -152.76235821 40.66888306 C-156.92067358 40.65511283 -161.07898909 40.64138583 -165.23730469 40.62768555 C-166.47911819 40.62359309 -166.47911819 40.62359309 -167.74601884 40.61941796 C-181.16593562 40.57529517 -194.58586085 40.53467802 -208.00579242 40.49534739 C-221.76710607 40.45493855 -235.52840398 40.41078339 -249.28969443 40.36312145 C-257.78699127 40.3338102 -266.28428688 40.30745111 -274.78160419 40.28482103 C-280.60175948 40.26904136 -286.4218955 40.24963588 -292.24202941 40.22733159 C-295.60422328 40.21455533 -298.96638733 40.20395913 -302.32859993 40.19658089 C-305.96693325 40.18834644 -309.6051929 40.17407735 -313.24349976 40.15821838 C-314.85145025 40.15675122 -314.85145025 40.15675122 -316.49188459 40.15525442 C-317.9452086 40.14704276 -317.9452086 40.14704276 -319.42789268 40.1386652 C-320.6889439 40.13467814 -320.6889439 40.13467814 -321.9754709 40.13061053 C-324 40 -324 40 -326 39 C-327.2093221 36.39530625 -327.04865616 35.16352393 -326.22584534 32.39821625 C-323.56585981 29.53223971 -322.86045238 29.60064783 -319.07896423 29.37638092 C-316.91077909 29.35131796 -314.74217047 29.35442255 -312.57397461 29.37854004 C-311.38113074 29.37215122 -310.18828688 29.3657624 -308.95929623 29.35917997 C-305.64208884 29.34652932 -302.32631305 29.35640239 -299.00922728 29.37569475 C-295.43451688 29.39108513 -291.85990078 29.37772944 -288.28518677 29.36795044 C-281.28001128 29.35340227 -274.27512498 29.36567943 -267.26997685 29.38706368 C-259.1174293 29.41103977 -250.9649485 29.40936141 -242.81237352 29.40675777 C-228.26906122 29.4030651 -213.72588545 29.42391462 -199.18261719 29.45800781 C-185.06083729 29.49110079 -170.9392007 29.50526641 -156.81738281 29.49902344 C-141.45085801 29.49226365 -126.08439331 29.49470793 -110.71787739 29.51438284 C-109.90574821 29.51542232 -109.09361902 29.51646181 -108.25687987 29.5175328 C-106.62562131 29.51962374 -104.99436278 29.52173471 -103.36310428 29.52386597 C-97.67629908 29.53076967 -91.98951237 29.53142953 -86.30270386 29.52998352 C-79.37521242 29.52854571 -72.44783806 29.53819981 -65.5203855 29.56192988 C-61.98382953 29.57381269 -58.447437 29.5809 -54.91086197 29.57509232 C-51.08246667 29.56899104 -47.25438051 29.58604182 -43.42602539 29.60559082 C-41.73796736 29.59759893 -41.73796736 29.59759893 -40.01580715 29.58944559 C-38.99453259 29.59850223 -37.97325804 29.60755887 -36.92103577 29.61688995 C-36.03677445 29.61846116 -35.15251314 29.62003236 -34.24145603 29.62165117 C-31.53353531 30.07873738 -30.78008298 30.98493099 -29 33 C-26.87826415 33.41121443 -26.87826415 33.41121443 -24.55078125 33.29296875 C-23.70322266 33.28330078 -22.85566406 33.27363281 -21.98242188 33.26367188 C-20.66081055 33.2259668 -20.66081055 33.2259668 -19.3125 33.1875 C-18.41982422 33.17396484 -17.52714844 33.16042969 -16.60742188 33.14648438 C-14.40433834 33.11114079 -12.20247418 33.06180493 -10 33 C-9.67 31.68 -9.34 30.36 -9 29 C-9 30.65 -9 32.3 -9 34 C-6.03 34 -3.06 34 0 34 C0 22.78 0 11.56 0 0 Z M-14 52 C-16.04119788 53.61594832 -18.04072937 55.2856382 -20 57 C-20 57.66 -20 58.32 -20 59 C-20.66 59 -21.32 59 -22 59 C-23.45659977 60.61382948 -24.84048951 62.29363216 -26.1875 64 C-29.59707271 68.27575866 -33.08991176 72.41099219 -36.78515625 76.44140625 C-38.20492046 77.93355065 -38.20492046 77.93355065 -38 80 C-38.66 80 -39.32 80 -40 80 C-42.28600028 82.70332305 -42.28600028 82.70332305 -41.6875 85.125 C-41.15421514 86.98593853 -41.15421514 86.98593853 -40 88 C-38.58429877 88.08651611 -37.164405 88.10704904 -35.74609375 88.09765625 C-34.89208984 88.09443359 -34.03808594 88.09121094 -33.15820312 88.08789062 C-32.26037109 88.07951172 -31.36253906 88.07113281 -30.4375 88.0625 C-29.53580078 88.05798828 -28.63410156 88.05347656 -27.70507812 88.04882812 C-25.46998686 88.03700225 -23.23502563 88.0205222 -21 88 C-21.00666183 88.85777542 -21.00666183 88.85777542 -21.01345825 89.73287964 C-21.05760951 95.66971342 -21.08783212 101.60650078 -21.10986328 107.54345703 C-21.11993825 109.76092421 -21.13359859 111.97837805 -21.15087891 114.19580078 C-21.17506163 117.37796312 -21.18646797 120.55995024 -21.1953125 123.7421875 C-21.20563507 124.73805878 -21.21595764 125.73393005 -21.22659302 126.75997925 C-21.22674408 127.68078278 -21.22689514 128.6015863 -21.22705078 129.55029297 C-21.23371262 130.76940872 -21.23371262 130.76940872 -21.24050903 132.01315308 C-21.1792112 134.23212675 -21.1792112 134.23212675 -19 136 C-16.66595946 136.357148 -16.66595946 136.357148 -14.0625 136.3125 C-13.18722656 136.32925781 -12.31195313 136.34601563 -11.41015625 136.36328125 C-8.48762753 135.92277044 -7.7950383 135.30069527 -6 133 C-5.56752134 130.88646229 -5.56752134 130.88646229 -5.65942383 128.52856445 C-5.65965042 127.62785721 -5.65987701 126.72714996 -5.66011047 125.79914856 C-5.68333626 124.34589424 -5.68333626 124.34589424 -5.70703125 122.86328125 C-5.71339851 121.37141548 -5.71339851 121.37141548 -5.71989441 119.84941101 C-5.73669847 116.67016625 -5.77435424 113.49155344 -5.8125 110.3125 C-5.82754459 108.15821227 -5.84123338 106.00391462 -5.85351562 103.84960938 C-5.88660773 98.56616245 -5.93840229 93.2831884 -6 88 C0.27 88 6.54 88 13 88 C13.66 86.68 14.32 85.36 15 84 C14.21654285 82.82780457 13.42297164 81.66236332 12.625 80.5 C12.18414062 79.8503125 11.74328125 79.200625 11.2890625 78.53125 C10.65097656 77.77328125 10.65097656 77.77328125 10 77 C9.34 77 8.68 77 8 77 C7.72929687 76.4225 7.45859375 75.845 7.1796875 75.25 C4.35340907 69.8594822 0.36571313 65.20402006 -4 61 C-4.495 60.01 -4.495 60.01 -5 59 C-5.99 59 -6.98 59 -8 59 C-8.2475 58.21625 -8.495 57.4325 -8.75 56.625 C-10.15389099 53.67682892 -11.00675737 53.0975223 -14 52 Z " fill="#4278F0" transform="translate(390,355)"/>
<path d="M0 0 C2.98261927 1.56632521 3.31573088 1.82219263 4.4375 5.1875 C5.4275 5.6825 5.4275 5.6825 6.4375 6.1875 C7.4275 6.6825 7.4275 6.6825 8.4375 7.1875 C8.7675 8.1775 9.0975 9.1675 9.4375 10.1875 C10.4275 10.6825 10.4275 10.6825 11.4375 11.1875 C12.4275 11.6825 12.4275 11.6825 13.4375 12.1875 C13.7675 13.1775 14.0975 14.1675 14.4375 15.1875 C15.0975 15.5175 15.7575 15.8475 16.4375 16.1875 C17.0975 16.5175 17.7575 16.8475 18.4375 17.1875 C18.7675 18.1775 19.0975 19.1675 19.4375 20.1875 C20.4275 20.5175 21.4175 20.8475 22.4375 21.1875 C22.4375 21.8475 22.4375 22.5075 22.4375 23.1875 C23.0975 23.1875 23.7575 23.1875 24.4375 23.1875 C24.4375 23.8475 24.4375 24.5075 24.4375 25.1875 C25.4275 25.5175 26.4175 25.8475 27.4375 26.1875 C27.4375 26.8475 27.4375 27.5075 27.4375 28.1875 C28.0975 28.1875 28.7575 28.1875 29.4375 28.1875 C31.0625 29.5625 31.0625 29.5625 32.4375 31.1875 C32.4375 31.8475 32.4375 32.5075 32.4375 33.1875 C33.0975 33.1875 33.7575 33.1875 34.4375 33.1875 C35.7421875 34.515625 35.7421875 34.515625 37.3125 36.4375 C41.05672079 40.87832001 45.13077773 44.90053475 49.34912109 48.88574219 C53.77398199 53.18075389 55.70400208 56.78157475 55.875 62.9375 C55.79818724 68.62164416 53.56591606 72.5619134 50.4375 77.1875 C49.7775 77.1875 49.1175 77.1875 48.4375 77.1875 C48.4375 77.8475 48.4375 78.5075 48.4375 79.1875 C47.0625 80.8125 47.0625 80.8125 45.4375 82.1875 C44.7775 82.1875 44.1175 82.1875 43.4375 82.1875 C43.1075 83.1775 42.7775 84.1675 42.4375 85.1875 C41.7775 85.1875 41.1175 85.1875 40.4375 85.1875 C40.4375 85.8475 40.4375 86.5075 40.4375 87.1875 C39.7775 87.1875 39.1175 87.1875 38.4375 87.1875 C38.1075 88.1775 37.7775 89.1675 37.4375 90.1875 C36.7775 90.1875 36.1175 90.1875 35.4375 90.1875 C35.4375 90.8475 35.4375 91.5075 35.4375 92.1875 C34.0625 93.8125 34.0625 93.8125 32.4375 95.1875 C31.7775 95.1875 31.1175 95.1875 30.4375 95.1875 C30.21400879 95.7347876 29.99051758 96.2820752 29.76025391 96.84594727 C28.03650889 99.89733864 25.7336807 102.19668083 23.2734375 104.65234375 C22.76253571 105.16753067 22.25163391 105.68271759 21.72525024 106.21351624 C20.64344116 107.30105697 19.5590169 108.38600175 18.47216797 109.46850586 C16.83016704 111.10736674 15.20188873 112.75903018 13.57421875 114.41210938 C0.741831 127.32889329 0.741831 127.32889329 -6.5390625 128.78125 C-13.57674424 128.53212852 -17.86014001 127.52135636 -23.3125 122.8125 C-27.55968698 117.85744852 -27.98416843 113.2612969 -27.8984375 106.92578125 C-27.40161988 102.87613993 -25.90829057 100.48626799 -23.5625 97.1875 C-22.9025 97.1875 -22.2425 97.1875 -21.5625 97.1875 C-21.24152344 96.37539063 -21.24152344 96.37539063 -20.9140625 95.546875 C-19.08172057 92.3482203 -16.56453394 89.97785516 -13.9375 87.4375 C-13.421875 86.93089844 -12.90625 86.42429687 -12.375 85.90234375 C-11.10866661 84.65946098 -9.8361856 83.42284724 -8.5625 82.1875 C-9.20964966 82.18603344 -9.85679932 82.18456688 -10.52355957 82.18305588 C-26.29059763 82.14595883 -42.0573789 82.08690597 -57.82423401 82.00359726 C-65.44906962 81.96383537 -73.07380245 81.93142848 -80.69873047 81.91650391 C-87.34680721 81.90347252 -93.99465753 81.87647021 -100.64260674 81.83288693 C-104.16073028 81.81030518 -107.6785749 81.79458732 -111.19677734 81.79561615 C-115.13011524 81.79650405 -119.06288561 81.76619234 -122.99609375 81.73339844 C-124.15487534 81.7384288 -125.31365692 81.74345917 -126.5075531 81.74864197 C-134.41195729 81.64677738 -140.13585188 80.61414812 -145.9375 74.8125 C-149.66252969 68.79514435 -150.0271192 63.97356895 -148.5625 57.1875 C-146.6804028 52.03649715 -144.02548107 49.33783958 -139.5625 46.1875 C-133.74242907 43.5200371 -127.7724095 43.88056244 -121.49853516 43.86865234 C-120.28821625 43.85860672 -119.07789734 43.8485611 -117.8309021 43.83821106 C-114.52554041 43.81267869 -111.22034916 43.79578748 -107.91492891 43.78278303 C-104.4555556 43.76711462 -100.99626842 43.7403363 -97.53695679 43.7147522 C-90.99231834 43.66802992 -84.44766358 43.63125421 -77.90294397 43.59807932 C-70.44944714 43.55981153 -62.99603696 43.51041363 -55.54261327 43.46009517 C-40.21597155 43.35687281 -24.88928116 43.26758101 -9.5625 43.1875 C-10.22052612 42.56089478 -10.22052612 42.56089478 -10.8918457 41.92163086 C-12.8969716 40.00028386 -14.88591455 38.06294275 -16.875 36.125 C-17.56529297 35.46822266 -18.25558594 34.81144531 -18.96679688 34.13476562 C-23.79208841 29.40271643 -26.85410818 25.41870521 -27.99609375 18.59765625 C-28.00594178 12.67899167 -27.19197688 7.99350455 -23.5625 3.1875 C-16.53638313 -2.40471547 -8.27798468 -3.91485918 0 0 Z M-13.3125 9.1875 C-16.17230567 11.72954948 -16.95900011 13.4156257 -17.5625 17.1875 C-15.53331847 21.40516818 -12.64517581 24.26347011 -9.2734375 27.4609375 C-8.23900935 28.46034374 -7.20517284 29.46036266 -6.171875 30.4609375 C-4.55418989 32.01670635 -2.93240636 33.56730509 -1.29980469 35.10742188 C0.28525904 36.60745204 1.85047843 38.12607219 3.4140625 39.6484375 C4.35330566 40.54353027 5.29254883 41.43862305 6.26025391 42.36083984 C9.19724652 46.17385851 9.4375 49.47832829 9.4375 54.1875 C8.33755518 54.18969984 8.33755518 54.18969984 7.21538925 54.19194412 C-10.61982616 54.22898105 -28.45484521 54.28795422 -46.28990555 54.37140274 C-54.91479051 54.41122765 -63.53958377 54.44360254 -72.16455078 54.45849609 C-79.68128331 54.47149479 -87.19781436 54.49841359 -94.71443343 54.54211307 C-98.69520278 54.56476827 -102.67572327 54.58040827 -106.65656281 54.57938385 C-110.40282731 54.57863961 -114.14854086 54.59649428 -117.89466286 54.62866783 C-119.27008108 54.63719258 -120.64556093 54.63889929 -122.02099419 54.63330269 C-123.89823746 54.62668118 -125.77551832 54.64691165 -127.65264893 54.66851807 C-128.70349293 54.67220524 -129.75433693 54.67589241 -130.83702469 54.67969131 C-134.26823826 55.31899267 -135.43669684 56.46918172 -137.5625 59.1875 C-138.47020018 62.29961491 -138.80759892 64.30514387 -137.9375 67.4375 C-136.07470599 69.80832874 -134.41922727 70.25598229 -131.5625 71.1875 C-128.71585497 71.49224442 -128.71585497 71.49224442 -125.65301514 71.45924377 C-124.46960541 71.4689621 -123.28619568 71.47868042 -122.06692505 71.48869324 C-120.77736908 71.48928238 -119.48781311 71.48987152 -118.15917969 71.49047852 C-116.78076684 71.49814371 -115.40235867 71.50669084 -114.0239563 71.51605225 C-111.06162761 71.53429928 -108.09936166 71.54635774 -105.13698578 71.55359077 C-100.45675307 71.56508574 -95.77665959 71.59054329 -91.09649658 71.61790466 C-83.69948153 71.65951684 -76.30245979 71.69195312 -68.90538335 71.72037882 C-55.64282022 71.77142035 -42.38031453 71.83339583 -29.11785054 71.90571922 C-24.46084051 71.93068924 -19.80384914 71.95009839 -15.1467967 71.96510136 C-12.25796163 71.97527282 -9.36915564 71.98941774 -6.48034286 72.00457764 C-4.49222814 72.01371388 -2.50409237 72.01783138 -0.51596069 72.02183533 C1.24223495 72.03218307 1.24223495 72.03218307 3.03594971 72.04273987 C4.06094196 72.04659478 5.08593422 72.0504497 6.14198685 72.05442142 C8.4375 72.1875 8.4375 72.1875 9.4375 73.1875 C9.6875 76.0625 9.6875 76.0625 9.4375 79.1875 C7.9375 80.9375 7.9375 80.9375 6.4375 82.1875 C6.4375 82.8475 6.4375 83.5075 6.4375 84.1875 C5.4784375 84.5896875 5.4784375 84.5896875 4.5 85 C2.10618314 86.07417752 2.10618314 86.07417752 1.4375 89.1875 C0.7775 89.1875 0.1175 89.1875 -0.5625 89.1875 C-1.96863375 90.61311618 -1.96863375 90.61311618 -3.375 92.4375 C-5.85620595 95.45518291 -8.4999289 97.75545824 -11.5625 100.1875 C-11.5625 100.8475 -11.5625 101.5075 -11.5625 102.1875 C-12.2225 102.1875 -12.8825 102.1875 -13.5625 102.1875 C-17.02564952 106.93165235 -17.02564952 106.93165235 -16.9375 112.5 C-15.70355813 115.25139552 -15.70355813 115.25139552 -13.5625 117.1875 C-10.16071134 117.9867552 -8.83022171 118.16867313 -5.5625 117.1875 C-1.23112921 114.04818074 2.40481186 110.24886346 6.12109375 106.42578125 C7.22681374 105.31528856 8.33402118 104.20627514 9.44264221 103.09867859 C11.75720816 100.77786895 14.0577575 98.44428536 16.34838867 96.09985352 C19.28254353 93.09765911 22.24243029 90.12255762 25.21229458 87.15572834 C27.49806256 84.86887198 29.77325227 82.57173385 32.04503059 80.27098656 C33.13308131 79.17022493 34.22355572 78.07185349 35.3164959 76.97594643 C36.84170228 75.4420509 38.35301507 73.89569472 39.86108398 72.3449707 C40.72297836 71.46782913 41.58487274 70.59068756 42.47288513 69.68696594 C44.59442176 66.98785752 45.40109432 65.6118368 45.4375 62.1875 C43.62090282 58.2322385 40.92000631 55.40810608 37.87768555 52.3371582 C36.49561165 50.93594475 36.49561165 50.93594475 35.08561707 49.50642395 C34.08222271 48.49997237 33.07841303 47.4939347 32.07421875 46.48828125 C31.03898256 45.44661222 30.00389476 44.4047957 28.96894836 43.36283875 C26.80291412 41.18485747 24.63281419 39.01102128 22.46020508 36.83959961 C19.68266207 34.06226007 16.91914718 31.2714024 14.15896893 28.47681904 C12.02706672 26.3226411 9.88609668 24.17765382 7.74250221 22.0351162 C6.71985604 21.01011666 5.70043571 19.98188777 4.68439293 18.95034218 C3.26100253 17.50727377 1.82350628 16.07816056 0.38549805 14.6496582 C-0.83336845 13.42651665 -0.83336845 13.42651665 -2.07685852 12.17866516 C-5.69470401 9.28052883 -8.81293207 7.55129348 -13.3125 9.1875 Z " fill="#101010" transform="translate(175.5625,201.8125)"/>
<path d="M0 0 C1.07383942 -0.00852997 2.14767883 -0.01705994 3.25405884 -0.02584839 C4.427146 -0.02494202 5.60023315 -0.02403564 6.80886841 -0.02310181 C8.04827179 -0.02981903 9.28767517 -0.03653625 10.56463623 -0.04345703 C13.96146306 -0.05920228 17.35804539 -0.06581218 20.75489187 -0.0670886 C22.87832402 -0.06851106 25.00173061 -0.07278245 27.1251564 -0.07808304 C34.53667068 -0.0965818 41.94811306 -0.10475386 49.35964966 -0.10317993 C56.26253279 -0.10197861 63.16510321 -0.12307919 70.06790721 -0.15466726 C75.99925767 -0.18084021 81.93050605 -0.19154681 87.8619138 -0.19026911 C91.40231582 -0.18975976 94.9424399 -0.19542738 98.48278427 -0.21662521 C102.4327485 -0.23963033 106.38228562 -0.23048037 110.33230591 -0.21841431 C111.5013446 -0.22965332 112.6703833 -0.24089233 113.87484741 -0.25247192 C120.07447275 -0.20429265 124.09123951 -0.08191008 128.69998169 4.26742554 C130.70119285 7.1515921 130.95493723 9.48859901 130.97463989 12.95663452 C130.98417191 13.88116928 130.99370392 14.80570404 131.00352478 15.758255 C131.00215767 17.24586082 131.00215767 17.24586082 131.00076294 18.76351929 C131.00504807 19.78921524 131.00933319 20.81491119 131.01374817 21.87168884 C131.01948752 24.03948224 131.01999465 26.2072949 131.01565552 28.37509155 C131.01249673 31.68914697 131.03595615 35.00230866 131.06130981 38.31625366 C131.06358298 40.42367441 131.06428623 42.53109756 131.06326294 44.63851929 C131.07247269 45.62823227 131.08168243 46.61794525 131.09117126 47.63764954 C131.03272526 56.34232455 131.03272526 56.34232455 127.69998169 60.26742554 C124.35464912 62.49764725 123.26842573 62.52273615 119.3616333 62.5415802 C118.25406677 62.55155533 117.14650024 62.56153046 116.00537109 62.57180786 C114.78971466 62.57247253 113.57405823 62.57313721 112.32156372 62.57382202 C111.04168579 62.58214554 109.76180786 62.59046906 108.44314575 62.5990448 C104.93069427 62.62100009 101.41832986 62.62979005 97.90581751 62.63487124 C95.71120705 62.63851362 93.51661943 62.64475305 91.32201767 62.65187263 C83.66528063 62.67637076 76.00861138 62.68941979 68.35183716 62.69296265 C61.21543515 62.69659819 54.07946316 62.72649352 46.9431926 62.76836723 C40.81570115 62.80306082 34.68835226 62.81851092 28.56076324 62.81920868 C24.90126168 62.82000184 21.24219806 62.82875704 17.582798 62.85720634 C13.50061959 62.88823254 9.41946572 62.87933206 5.33718872 62.86679077 C4.12558075 62.88162506 2.91397278 62.89645935 1.66564941 62.91174316 C-7.44753994 62.83181375 -7.44753994 62.83181375 -10.52734375 59.79246521 C-11.40481766 58.54257057 -11.40481766 58.54257057 -12.30001831 57.26742554 C-12.63001831 56.93742554 -12.96001831 56.60742554 -13.30001831 56.26742554 C-13.41398458 54.75983318 -13.45957677 53.2469922 -13.47702026 51.73519897 C-13.4898555 50.77039612 -13.50269073 49.80559326 -13.51591492 48.81155396 C-13.52330185 47.76058533 -13.53068878 46.7096167 -13.53829956 45.62680054 C-13.54637131 44.55246765 -13.55444305 43.47813477 -13.5627594 42.37124634 C-13.57662071 40.09137597 -13.58733366 37.81148468 -13.59518433 35.53158569 C-13.61237739 32.04599517 -13.65624388 28.56135761 -13.70040894 25.07601929 C-13.71053703 22.8637867 -13.71905277 20.65154602 -13.72579956 18.43930054 C-13.74330765 17.39642883 -13.76081573 16.35355713 -13.77885437 15.27908325 C-13.75724141 8.05834547 -13.75724141 8.05834547 -11.52340698 4.19418335 C-7.74312058 0.91823954 -4.9929351 0.01794736 0 0 Z M-2.30001831 11.26742554 C-2.30001831 24.46742554 -2.30001831 37.66742554 -2.30001831 51.26742554 C37.95998169 51.26742554 78.21998169 51.26742554 119.69998169 51.26742554 C119.69998169 38.06742554 119.69998169 24.86742554 119.69998169 11.26742554 C79.43998169 11.26742554 39.17998169 11.26742554 -2.30001831 11.26742554 Z " fill="#111111" transform="translate(82.30001831054688,60.732574462890625)"/>
<path d="M0 0 C2.17216785 -0.0211357 4.34470762 -0.01409291 6.51679707 0.01396656 C7.71175763 0.00969444 8.90671819 0.00542231 10.13788968 0.00102073 C13.46091779 -0.00580644 16.78248262 0.00987336 20.10533416 0.03491104 C23.6860921 0.05646018 27.26680309 0.04919956 30.84760761 0.04539967 C37.05350919 0.04277514 43.25914837 0.05849113 49.46498394 0.08658886 C58.43758527 0.12718709 67.41005945 0.14024228 76.38274268 0.14652882 C90.93948777 0.15747781 105.49609294 0.19076833 120.05276203 0.23804188 C134.1950075 0.28392187 148.337215 0.31932139 162.47951984 0.34058094 C163.78664165 0.34255137 163.78664165 0.34255137 165.12016996 0.3445616 C169.49170662 0.35108668 173.86324356 0.35740525 178.23478067 0.36362112 C214.51348069 0.41547293 250.79202161 0.5035546 287.0705843 0.61523914 C287.7580843 2.42773914 287.7580843 2.42773914 288.0705843 4.61523914 C285.202706 8.58073057 280.64555539 9.58995465 276.0705843 10.61523914 C272.15205167 11.01105274 268.26985148 11.01248437 264.33390522 10.98273182 C263.18014831 10.98600066 262.02639141 10.9892695 260.83767217 10.9926374 C256.98687011 10.99989748 253.1364508 10.98578044 249.28567219 10.97168446 C246.51914783 10.97081047 243.75263357 10.97444958 240.98611164 10.97787952 C234.26289546 10.98349923 227.53979379 10.97322557 220.81659711 10.95759156 C212.98823959 10.94002535 205.15990406 10.93863178 197.33152991 10.93797597 C183.36944195 10.93628983 169.40740609 10.92049498 155.44534016 10.89648914 C141.8912993 10.87320174 128.33729148 10.85905982 114.78323078 10.85547352 C113.52945512 10.85513937 113.52945512 10.85513937 112.25035066 10.85479847 C110.56655073 10.85435587 108.88275079 10.85391385 107.19895085 10.8534724 C106.36838639 10.85325283 105.53782193 10.85303326 104.68208885 10.85280704 C103.85364373 10.85259106 103.02519862 10.85237507 102.1716491 10.85215254 C89.25717972 10.84845533 76.34271568 10.83709829 63.42825215 10.82467665 C58.74467764 10.82023828 54.06110363 10.81680134 49.37752784 10.81405452 C41.95442682 10.80962861 34.53134551 10.80187675 27.10825694 10.78728011 C23.71562167 10.78066051 20.32300384 10.77560515 16.93036175 10.77481937 C13.25967441 10.77308272 9.58905198 10.76522398 5.91837788 10.75568104 C4.83698617 10.75654752 3.75559446 10.757414 2.6414333 10.75830674 C1.66416733 10.7544656 0.68690137 10.75062445 -0.31997871 10.74666691 C-1.16795192 10.74542041 -2.01592513 10.74417391 -2.8895945 10.74288964 C-4.9294157 10.61523914 -4.9294157 10.61523914 -6.9294157 9.61523914 C-8.13868226 7.01066503 -7.97769662 5.77784565 -7.15652275 3.01219368 C-4.49251633 0.1450202 -3.78583691 0.21740887 0 0 Z " fill="#070707" transform="translate(70.92941570281982,384.3847608566284)"/>
<path d="M0 0 C0.66 0 1.32 0 2 0 C-0.98015986 10.69351477 -6.08746041 19.27012316 -15 26 C-15.33 25.01 -15.66 24.02 -16 23 C-15.01 23 -14.02 23 -13 23 C-13.33 21.35 -13.66 19.7 -14 18 C-8.375 13 -8.375 13 -5 13 C-5.020625 12.05125 -5.04125 11.1025 -5.0625 10.125 C-5 7 -5 7 -4 5 C-3.01 4.67 -2.02 4.34 -1 4 C-0.26676204 1.98491642 -0.26676204 1.98491642 0 0 Z " fill="#6488E9" transform="translate(433,469)"/>
<path d="M0 0 C12.54 0 25.08 0 38 0 C38 0.33 38 0.66 38 1 C31.53186482 2.64311499 25.66119912 3.31148799 19 3.25 C18.16210938 3.25773437 17.32421875 3.26546875 16.4609375 3.2734375 C10.69947123 3.25560014 5.58422738 2.41857389 0 1 C0 0.67 0 0.34 0 0 Z " fill="#5F86DF" transform="translate(357,508)"/>
<path d="M0 0 C5.78467036 4.03581653 8.19258771 8.60257818 11 15 C10.34 15.66 9.68 16.32 9 17 C9 16.01 9 15.02 9 14 C8.01 14 7.02 14 6 14 C3.89321812 11.0829174 2.76171236 8.48211363 2 5 C1.3530635 3.3255761 0.69040574 1.65697379 0 0 Z " fill="#5E86E5" transform="translate(423,409)"/>
<path d="M0 0 C4.62 0.99 9.24 1.98 14 3 C14 4.32 14 5.64 14 7 C15.32 7.33 16.64 7.66 18 8 C15 9 15 9 11.6796875 7.63671875 C10.40621225 6.99732252 9.13811495 6.34712669 7.875 5.6875 C7.22917969 5.36587891 6.58335937 5.04425781 5.91796875 4.71289062 C1.13585283 2.27170567 1.13585283 2.27170567 0 0 Z " fill="#5485E5" transform="translate(340,499)"/>
<path d="M0 0 C-0.33 1.65 -0.66 3.3 -1 5 C-1.99 5.33 -2.98 5.66 -4 6 C-4.6496875 6.99 -4.6496875 6.99 -5.3125 8 C-7.6118448 10.72514939 -9.54422433 10.69281994 -13 11 C-4.00842697 0 -4.00842697 0 0 0 Z " fill="#5A86E3" transform="translate(347,394)"/>
<path d="M0 0 C0.66 0.33 1.32 0.66 2 1 C0.68 3.97 -0.64 6.94 -2 10 C-2.99 10 -3.98 10 -5 10 C-5 10.66 -5 11.32 -5 12 C-5.66 12 -6.32 12 -7 12 C-7 12.66 -7 13.32 -7 14 C-7.66 13.67 -8.32 13.34 -9 13 C-6.39163722 8.36291061 -3.22997426 4.21255542 0 0 Z " fill="#6D91E6" transform="translate(331,406)"/>
<path d="M0 0 C0.66 1.32 1.32 2.64 2 4 C2.99 3.67 3.98 3.34 5 3 C5.95024979 6.69541586 5.95024979 9.30458414 5 13 C1.44992282 9.0949151 0.18180084 6.02265357 -1 1 C-0.67 0.67 -0.34 0.34 0 0 Z " fill="#5983E9" transform="translate(320,470)"/>
<path d="M0 0 C0.66 0 1.32 0 2 0 C-0.70615034 9.59453303 -0.70615034 9.59453303 -5 13 C-5.125 7.25 -5.125 7.25 -4 5 C-3.01 4.67 -2.02 4.34 -1 4 C-0.26676204 1.98491642 -0.26676204 1.98491642 0 0 Z " fill="#4F7BDD" transform="translate(433,469)"/>
<path d="M0 0 C1.32 0 2.64 0 4 0 C4 0.99 4 1.98 4 3 C4.8971875 3.433125 4.8971875 3.433125 5.8125 3.875 C8 5 8 5 11 7 C10.67 7.99 10.34 8.98 10 10 C9.34 9.67 8.68 9.34 8 9 C8 8.34 8 7.68 8 7 C7.01 7 6.02 7 5 7 C4.731875 6.195625 4.46375 5.39125 4.1875 4.5625 C3.795625 3.716875 3.40375 2.87125 3 2 C2.01 1.67 1.02 1.34 0 1 C0 0.67 0 0.34 0 0 Z " fill="#5B86E3" transform="translate(377,407)"/>
<path d="M0 0 C1.98 0 3.96 0 6 0 C5.01 1.485 5.01 1.485 4 3 C3.34 3 2.68 3 2 3 C1.67 3.99 1.34 4.98 1 6 C0.34 6 -0.32 6 -1 6 C-1 6.66 -1 7.32 -1 8 C-1.66 8 -2.32 8 -3 8 C-2.67 6.02 -2.34 4.04 -2 2 C-1.34 2 -0.68 2 0 2 C0 1.34 0 0.68 0 0 Z " fill="#5782E5" transform="translate(371,406)"/>
<path d="M0 0 C0.3125 2.25 0.3125 2.25 0 5 C-2.5 7.3125 -2.5 7.3125 -5 9 C-5.33 8.01 -5.66 7.02 -6 6 C-5.01 6 -4.02 6 -3 6 C-3.33 4.35 -3.66 2.7 -4 1 C-2 0 -2 0 0 0 Z " fill="#5280EE" transform="translate(423,486)"/>
<path d="M0 0 C2.52480693 2.52480693 2.55738633 4.13823034 3.125 7.625 C3.29257812 8.62789063 3.46015625 9.63078125 3.6328125 10.6640625 C3.75398438 11.43492187 3.87515625 12.20578125 4 13 C3.34 13 2.68 13 2 13 C-0.28571429 4.57142857 -0.28571429 4.57142857 0 0 Z " fill="#5F84DF" transform="translate(434,427)"/>
<path d="M0 0 C0 3 0 3 -1.96875 5.26171875 C-2.8040625 6.06222656 -3.639375 6.86273438 -4.5 7.6875 C-5.3353125 8.49574219 -6.170625 9.30398437 -7.03125 10.13671875 C-7.6809375 10.75160156 -8.330625 11.36648437 -9 12 C-9 8.47967572 -8.29648649 7.5614657 -6 5 C-5.34 5 -4.68 5 -4 5 C-4 4.34 -4 3.68 -4 3 C-2 1.375 -2 1.375 0 0 Z " fill="#5B5B5B" transform="translate(48,20)"/>
<path d="M0 0 C0.66 0.33 1.32 0.66 2 1 C1.67 1.66 1.34 2.32 1 3 C0.34 3 -0.32 3 -1 3 C-1.12375 4.134375 -1.2475 5.26875 -1.375 6.4375 C-1.58125 7.613125 -1.7875 8.78875 -2 10 C-2.99 10.495 -2.99 10.495 -4 11 C-4.33 8.69 -4.66 6.38 -5 4 C-4.01 4 -3.02 4 -2 4 C-2 3.01 -2 2.02 -2 1 C-1.34 0.67 -0.68 0.34 0 0 Z " fill="#5E85E1" transform="translate(351,432)"/>
<path d="M0 0 C3 1 3 1 4 3 C6.01669827 4.13350534 6.01669827 4.13350534 8 5 C7.67 6.32 7.34 7.64 7 9 C5.83037314 7.69013727 4.66437056 6.3770374 3.5 5.0625 C2.8503125 4.33160156 2.200625 3.60070312 1.53125 2.84765625 C0 1 0 1 0 0 Z " fill="#83A2E4" transform="translate(327,486)"/>
<path d="M0 0 C2.31 0.66 4.62 1.32 7 2 C6.67 3.65 6.34 5.3 6 7 C5.34 7 4.68 7 4 7 C2.02 3.535 2.02 3.535 0 0 Z " fill="#5D87E5" transform="translate(401,434)"/>
<path d="M0 0 C-0.99 0.33 -1.98 0.66 -3 1 C-3.33 1.99 -3.66 2.98 -4 4 C-5.65 3.67 -7.3 3.34 -9 3 C-9 2.34 -9 1.68 -9 1 C-6.04335481 -0.4783226 -3.25770263 -0.06032783 0 0 Z " fill="#517FDB" transform="translate(370,388)"/>
<path d="M0 0 C0 0.66 0 1.32 0 2 C-5.75 5 -5.75 5 -8 5 C-8 4.01 -8 3.02 -8 2 C-5.09399739 0.74335022 -3.20395416 0 0 0 Z " fill="#6990E2" transform="translate(409,501)"/>
<path d="M0 0 C1.48117801 0.28127421 2.95993249 0.57533732 4.4375 0.875 C5.67306641 1.11863281 5.67306641 1.11863281 6.93359375 1.3671875 C7.61550781 1.57601563 8.29742187 1.78484375 9 2 C9.33 2.66 9.66 3.32 10 4 C8.375 4.75 8.375 4.75 6 5 C2.75 3.125 2.75 3.125 0 1 C0 0.67 0 0.34 0 0 Z " fill="#6489E6" transform="translate(340,499)"/>
<path d="M0 0 C0.66 0 1.32 0 2 0 C1.4140625 6.15234375 1.4140625 6.15234375 1 8 C0.01 8.495 0.01 8.495 -1 9 C-1.625 5.625 -1.625 5.625 -2 2 C-1.34 1.34 -0.68 0.68 0 0 Z " fill="#4E79DD" transform="translate(436,458)"/>
<path d="M0 0 C0.99 0.33 1.98 0.66 3 1 C3 1.66 3 2.32 3 3 C3.99 3.33 4.98 3.66 6 4 C5.67 5.32 5.34 6.64 5 8 C4.67 7.34 4.34 6.68 4 6 C1.97536745 5.34786708 1.97536745 5.34786708 0 5 C0.66 4.67 1.32 4.34 2 4 C2 3.34 2 2.68 2 2 C1.34 2 0.68 2 0 2 C0 1.34 0 0.68 0 0 Z " fill="#6C8FE5" transform="translate(416,402)"/>
<path d="M0 0 C-0.33 1.65 -0.66 3.3 -1 5 C-2.65 5.33 -4.3 5.66 -6 6 C-6.33 5.34 -6.66 4.68 -7 4 C-2.25 0 -2.25 0 0 0 Z " fill="#6189D4" transform="translate(347,394)"/>
<path d="M0 0 C0.66 0.33 1.32 0.66 2 1 C-0.64 3.64 -3.28 6.28 -6 9 C-6 6 -6 6 -3.5625 3.375 C-2.716875 2.59125 -1.87125 1.8075 -1 1 C-0.67 0.67 -0.34 0.34 0 0 Z " fill="#444444" transform="translate(18,181)"/>
</svg>
